<?xml version="1.0" encoding="UTF-8"?>
<svg viewBox="0 0 450 450" version="1.1" xmlns="http://www.w3.org/2000/svg" xmlns:xlink="http://www.w3.org/1999/xlink">
    <title>Cactus with a Cowboy Hat</title>
    <g id="cactus" stroke="none" stroke-width="1" fill-rule="evenodd">
        <path d="M198.739881,449.620197 L247.763523,450 L255.625822,325.215228 C255.625822,325.215228 287.445559,355.787605 324.570559,327.87458 C361.693868,299.95986 372.299319,208.246121 331.198755,214.89111 C290.098191,221.539491 320.591612,282.682549 303.356274,299.95986 C286.119243,317.242258 262.25571,297.303899 262.25571,297.303899 C264.673243,268.216899 269.540315,222.919729 261.075596,191.867028 C290.070414,187.762595 308.845371,181.571161 318.241292,177.070811 C335.436029,168.831567 348.751631,159.944445 347.037909,146.05747 C347.000691,145.747099 346.933022,145.4486 346.845052,145.158582 C346.816292,145.066997 346.775691,144.982196 346.741856,144.892307 C346.672495,144.698961 346.601443,144.505616 346.511781,144.325838 C346.466104,144.229165 346.411969,144.140972 346.361217,144.049387 C346.26648,143.881482 346.170052,143.715272 346.061781,143.555847 C346.004262,143.471046 345.939977,143.391333 345.877383,143.308229 C345.760653,143.155587 345.642232,143.004642 345.513661,142.862176 C345.484901,142.831648 345.461217,142.796032 345.434149,142.765504 C345.432458,142.7672 345.430766,142.770592 345.429074,142.773984 C344.762533,142.056569 343.969112,141.478228 343.163849,141.076272 C337.222495,138.101461 321.266104,146.941094 310.325691,150.726601 C301.1193,153.911718 293.797495,155.143025 283.702946,154.856399 C284.288285,154.632525 284.89054,154.435787 285.472495,154.205129 C284.584337,151.689938 283.149751,147.621196 281.478322,142.857088 C281.011405,141.52402 280.530954,140.15364 280.031894,138.728986 C279.233398,139.030877 278.416292,139.290368 277.612721,139.580386 C271.488661,119.448681 260.238661,86.4967946 252.201255,86.4967946 C245.266856,86.4967946 240.802383,91.0472044 235.488661,98.0297006 C233.895052,100.12428 227.258398,110.286805 220.127759,110.349558 C212.998811,110.286805 206.522871,100.12428 204.963097,98.0297006 C199.757646,91.0472044 195.365916,86.4967946 188.43321,86.4967946 C180.052383,86.4967946 167.88039,122.30986 161.800315,142.075225 C161.164225,141.880183 160.516292,141.710582 159.883586,141.50706 L153.135277,154.898799 C144.636029,154.853007 137.970616,153.565731 129.846931,150.726601 C119.014789,146.941094 103.307082,138.101461 97.2828337,141.076272 C96.3659164,141.530804 95.4456156,142.195642 94.7114051,143.041954 C94.6927961,143.062306 94.6775705,143.087747 94.6589615,143.108099 C94.499939,143.298052 94.3442999,143.493094 94.205578,143.701704 C94.1954277,143.716968 94.1886608,143.733928 94.1768187,143.749193 C94.0347134,143.966283 93.9010668,144.190157 93.7843374,144.425903 C93.7657284,144.463215 93.7538863,144.505616 93.736969,144.544624 C93.6354653,144.761714 93.5407284,144.9805 93.4662923,145.211158 C93.3800141,145.484217 93.312345,145.765755 93.26836,146.05747 C91.162157,159.944445 104.225691,168.831567 121.188661,177.070811 C131.406476,182.032935 152.970445,189.050987 187.150469,193.060476 C181.987602,227.137197 194.419969,279.538903 197.288228,321.226199 C197.448943,323.561613 197.601198,325.874978 197.744995,328.166295 C189.501198,335.611803 175.407401,343.717062 160.269807,331.861913 C139.329582,315.461442 177.944995,246.793163 132.593116,241.476154 C88.7654841,236.337227 107.372815,405.011065 199.130522,355.126158 C201.155744,405.926351 199.263363,441.314687 198.739881,449.620197 Z" fill-rule="nonzero"></path>
    </g>
</svg>