<svg xmlns="http://www.w3.org/2000/svg" width="24" height="24" viewBox="0 0 24 24">
  <path fill-rule="evenodd" d="M4.97191667,12.4444444 L6.02425,12.4444444 L5.49991667,11.1786667 L4.97191667,12.4444444 Z M6.09208333,10.2222222 L7.66783333,13.7777778 L6.56325,13.7777778 L6.27175,12.8888889 L4.71891667,12.8888889 L4.42191667,13.7777778 L3.31733333,13.7777778 L4.8995,10.2222222 L6.09208333,10.2222222 Z M12.4583333,10.2222222 L12.4583333,13.7777778 L11.0833333,13.7777778 L11.0833333,11.7688889 L10.251,12.8888889 L10.1648333,12.8888889 L9.25,11.7688889 L9.25,13.7777778 L8.33333333,13.7777778 L8.33333333,10.2222222 L9.11983333,10.2222222 L10.2198333,11.5235556 L11.3244167,10.2222222 L12.4583333,10.2222222 Z M15.6666667,10.2222222 L15.6666667,11.1111111 L14.2916667,11.1111111 L14.2916667,11.5555556 L15.6666667,11.5555556 L15.6666667,12.4444444 L14.2916667,12.4444444 L14.2916667,12.8888889 L16.125,12.8888889 L16.125,13.7777778 L13.375,13.7777778 L13.375,10.2222222 L15.6666667,10.2222222 Z M20.481,10.2222222 L19.0895,11.9315556 L20.6615833,13.7777778 L19.2765,13.7777778 L18.8960833,13.3431111 C18.8850833,13.3262222 18.8099167,13.2373333 18.6715,13.0755556 C18.5349167,12.9155556 18.44325,12.8053333 18.39925,12.7475556 C18.1920833,13.0177778 18.0234167,13.2311111 17.89325,13.3884444 L17.5650833,13.7777778 L16.2001667,13.7777778 L17.71725,11.9315556 L16.2698333,10.2222222 L17.6475833,10.2222222 L17.89325,10.5564444 C18.0335,10.7253333 18.2030833,10.9573333 18.39925,11.2088889 C18.58625,10.9422222 18.7356667,10.712 18.8475,10.5831111 L19.128,10.2222222 L20.481,10.2222222 Z M1,5 C1,4.44771525 1.44771525,4 2,4 L22,4 C22.5522847,4 23,4.44771525 23,5 L23,19 C23,19.5522847 22.5522847,20 22,20 L2,20 C1.44771525,20 1,19.5522847 1,19 L1,5 Z M3,6 L3,18 L21,18 L21,6 L3,6 Z"/>
</svg>
