<svg width="24" height="24" viewBox="0 0 24 24" xmlns="http://www.w3.org/2000/svg">
<path d="M6.09208 10.2222H4.8995L3.31733 13.7778H4.42192L4.71892 12.8889H6.27175L6.56325 13.7778H7.66783L6.09208 10.2222ZM4.97192 12.4444L5.49992 11.1787L6.02425 12.4444H4.97192Z M12.4583 10.2222H11.3244L10.2198 11.5236L9.11983 10.2222H8.33333V13.7778H9.25V11.7689L10.1648 12.8889H10.251L11.0833 11.7689V13.7778H12.4583V10.2222Z M13.375 10.2222H15.6667V11.1111H14.2917V11.5556H15.6667V12.4444H14.2917V12.8889H16.125V13.7778H13.375V10.2222Z M20.481 10.2222H19.128L18.8475 10.5831C18.767 10.6759 18.667 10.8212 18.5475 10.9948C18.5011 11.0623 18.4516 11.1343 18.3993 11.2089C18.324 11.1124 18.2527 11.0188 18.1854 10.9305C18.0774 10.7887 17.9797 10.6605 17.8932 10.5564L17.6476 10.2222H16.2698L17.7173 11.9316L16.2002 13.7778H17.5651L17.8932 13.3884C18.0234 13.2311 18.1921 13.0178 18.3993 12.7476C18.4433 12.8053 18.5349 12.9156 18.6715 13.0756C18.8099 13.2373 18.8851 13.3262 18.8961 13.3431L19.2765 13.7778H20.6616L19.0895 11.9316L20.481 10.2222Z M1 5C1 4.44772 1.44772 4 2 4H22C22.5523 4 23 4.44772 23 5V19C23 19.5523 22.5523 20 22 20H2C1.44772 20 1 19.5523 1 19V5ZM3 6V18H21V6H3Z"/>
</svg>