<svg xmlns="http://www.w3.org/2000/svg" width="24" height="24" viewBox="0 0 24 24">
  <path d="M6.25478571,12.4485 L6.69642857,11.2032857 L7.13871429,12.4485 L6.25478571,12.4485 Z M19.0714286,6 C20.1289286,6 21,6.87107143 21,7.92857143 L21,16.9285714 C21,17.9860714 20.1289286,18.8571429 19.0714286,18.8571429 L4.92857143,18.8571429 C3.87107143,18.8571429 3,17.9860714 3,16.9285714 L3,7.92857143 C3,6.87107143 3.87107143,6 4.92857143,6 L19.0714286,6 Z M19.7142857,16.9285714 L19.7142857,7.92857143 C19.7142857,7.56471429 19.4352857,7.28571429 19.0714286,7.28571429 L4.92857143,7.28571429 C4.56471429,7.28571429 4.28571429,7.56471429 4.28571429,7.92857143 L4.28571429,16.9285714 C4.28571429,17.2924286 4.56471429,17.5714286 4.92857143,17.5714286 L19.0714286,17.5714286 C19.4352857,17.5714286 19.7142857,17.2924286 19.7142857,16.9285714 Z M10.5940714,12.8901429 L11.478,10.5 L12.6229286,10.5 L12.6229286,14.0357143 L11.9202857,14.0357143 L11.9202857,11.4642857 L10.9354286,14.0357143 L10.2321429,14.0357143 L9.26785714,11.3839286 L9.26785714,14.0357143 L7.76164286,14.0357143 L7.5,13.2321429 L5.99378571,13.2321429 L5.73278571,14.0357143 L4.92857143,14.0357143 L6.25478571,10.5 L7.21907143,10.5 L8.46492857,13.8550714 L8.46492857,10.5 L9.71014286,10.5 L10.5940714,12.8901429 Z M18.4491429,10.5 L19.4127857,10.5 L18.0872143,12.2678571 L19.4127857,14.0357143 L18.5295,14.0357143 L17.6455714,12.8907857 L16.761,14.0357143 L13.9285714,14.0357143 L13.9285714,10.5 L16.8413571,10.5 L17.5645714,11.5645714 L18.4491429,10.5 Z M16.3193571,13.3324286 L17.1229286,12.2678571 L16.3997143,11.3035714 L14.6318571,11.3035714 L14.6318571,11.9059286 L16.239,11.9059286 L16.239,12.6291429 L14.6318571,12.6291429 L14.6318571,13.3324286 L16.3193571,13.3324286 Z"/>
</svg>
