<svg xmlns="http://www.w3.org/2000/svg" width="24" height="24" viewBox="0 0 24 24">
  <path fill-rule="evenodd" d="M4.125,16.6393346 L4.125,11.5518917 C3.71078644,11.5518917 3.375,11.2265023 3.375,10.8251142 C3.375,10.423726 3.71078644,10.0983366 4.125,10.0983366 L7.875,10.0983366 C8.28921356,10.0983366 8.625,10.423726 8.625,10.8251142 C8.625,11.2265023 8.28921356,11.5518917 7.875,11.5518917 L7.875,16.6393346 C8.28921356,16.6393346 8.625,16.964724 8.625,17.3661122 L9.375,17.3661122 C9.375,16.964724 9.71078644,16.6393346 10.125,16.6393346 L10.125,11.5518917 C9.71078644,11.5518917 9.375,11.2265023 9.375,10.8251142 C9.375,10.423726 9.71078644,10.0983366 10.125,10.0983366 L13.875,10.0983366 C14.2892136,10.0983366 14.625,10.423726 14.625,10.8251142 C14.625,11.2265023 14.2892136,11.5518917 13.875,11.5518917 L13.875,16.6393346 C14.2892136,16.6393346 14.625,16.964724 14.625,17.3661122 L15.375,17.3661122 C15.375,16.964724 15.7107864,16.6393346 16.125,16.6393346 L16.125,11.5518917 C15.7107864,11.5518917 15.375,11.2265023 15.375,10.8251142 C15.375,10.423726 15.7107864,10.0983366 16.125,10.0983366 L19.875,10.0983366 C20.2892136,10.0983366 20.625,10.423726 20.625,10.8251142 C20.625,11.2265023 20.2892136,11.5518917 19.875,11.5518917 L19.875,16.6393346 C20.2892136,16.6393346 20.625,16.964724 20.625,17.3661122 L21,17.3661122 L21,18.8196673 L3,18.8196673 L3,17.3661122 L3.375,17.3661122 C3.375,16.964724 3.71078644,16.6393346 4.125,16.6393346 Z M5.625,11.5518917 L5.625,16.6393346 L6.375,16.6393346 L6.375,11.5518917 L5.625,11.5518917 Z M18.375,16.6393346 L18.375,11.5518917 L17.625,11.5518917 L17.625,16.6393346 L18.375,16.6393346 Z M12.375,16.6393346 L12.375,11.5518917 L11.625,11.5518917 L11.625,16.6393346 L12.375,16.6393346 Z M3,21 L3,19.5464449 L21,19.5464449 L21,21 L3,21 Z M3.05944551,9.73494783 L12.0194369,3 L20.9312521,9.73494783 L3.05944551,9.73494783 Z M16.5687479,8.28139271 L12.0169544,4.84145471 L7.44055449,8.28139271 L16.5687479,8.28139271 Z"/>
</svg>
