<svg width="24" height="24" viewBox="0 0 24 24" xmlns="http://www.w3.org/2000/svg">
<path d="m 12.5408,1.34766 c -0.3294,-0.21176 -0.7521,-0.21176 -1.0815,0 L 0.864064,8.15886 C 0.0245265,8.69856 0.406774,10 1.40482,10 H 22.5952 c 0.998,0 1.3803,-1.30144 0.5408,-1.84115 z m 6.6496,6.65237 H 4.80963 L 12,3.37765 Z M7 17C7.55228 17 8 17.4478 8 18C8 18.5523 7.55228 19 7 19H2C1.44772 19 1 18.5523 1 18C1 17.4478 1.44772 17 2 17V13C1.44772 13 1 12.5523 1 12C1 11.4478 1.44772 11 2 11H7C7.55228 11 8 11.4478 8 12C8 12.5523 7.55228 13 7 13V17ZM4 13V17H5V13H4Z M 9.5,17 v -4 c -0.55228,0 -1,-0.4477 -1,-1 0,-0.5522 0.44772,-1 1,-1 h 5 c 0.5523,0 1,0.4478 1,1 0,0.5523 -0.4477,1 -1,1 v 4 c 0.5523,0 1,0.4478 1,1 0,0.5523 -0.4477,1 -1,1 h -5 c -0.55228,0 -1,-0.4477 -1,-1 0,-0.5522 0.44772,-1 1,-1 z m 3,0 v -4 h -1 v 4 z M22 20C22.5523 20 23 20.4478 23 21C23 21.5523 22.5523 22 22 22H2C1.44772 22 1 21.5523 1 21C1 20.4477 1.44772 20 2 20H22Z M 17,17 v -4 c -0.5523,0 -1,-0.4477 -1,-1 0,-0.5522 0.4477,-1 1,-1 h 5 c 0.5523,0 1,0.4478 1,1 0,0.5523 -0.4477,1 -1,1 v 4 c 0.5523,0 1,0.4478 1,1 0,0.5523 -0.4477,1 -1,1 h -5 c -0.5523,0 -1,-0.4477 -1,-1 0,-0.5522 0.4477,-1 1,-1 z m 3,0 v -4 h -1 v 4 z"/>
</svg>