<svg xmlns="http://www.w3.org/2000/svg" width="24" height="24" viewBox="0 0 24 24">
  <path d="M21.7083333,17.8784228 C22.2216275,17.9207687 22.625,18.350778 22.625,18.875 C22.625,19.4272847 22.1772847,19.875 21.625,19.875 L17.0416667,19.875 C16.4893819,19.875 16.0416667,19.4272847 16.0416667,18.875 C16.0416667,18.350778 16.4450391,17.9207687 16.9583333,17.8784228 L16.9583333,13.5382439 C16.4450391,13.4958979 16.0416667,13.0658886 16.0416667,12.5416667 C16.0416667,11.9893819 16.4893819,11.5416667 17.0416667,11.5416667 L21.625,11.5416667 C22.1772847,11.5416667 22.625,11.9893819 22.625,12.5416667 C22.625,13.0658886 22.2216275,13.4958979 21.7083333,13.5382439 L21.7083333,17.8784228 Z M19.7083333,17.875 L19.7083333,13.5416667 L18.9583333,13.5416667 L18.9583333,17.875 L19.7083333,17.875 Z M14.375,17.8784228 C14.8882942,17.9207687 15.2916667,18.350778 15.2916667,18.875 C15.2916667,19.4272847 14.8439514,19.875 14.2916667,19.875 L9.70833333,19.875 C9.15604858,19.875 8.70833333,19.4272847 8.70833333,18.875 C8.70833333,18.350778 9.11170579,17.9207687 9.625,17.8784228 L9.625,13.5382439 C9.11170579,13.4958979 8.70833333,13.0658886 8.70833333,12.5416667 C8.70833333,11.9893819 9.15604858,11.5416667 9.70833333,11.5416667 L14.2916667,11.5416667 C14.8439514,11.5416667 15.2916667,11.9893819 15.2916667,12.5416667 C15.2916667,13.0658886 14.8882942,13.4958979 14.375,13.5382439 L14.375,17.8784228 Z M12.375,17.875 L12.375,13.5416667 L11.625,13.5416667 L11.625,17.875 L12.375,17.875 Z M7.04166667,17.8784228 C7.55496088,17.9207687 7.95833333,18.350778 7.95833333,18.875 C7.95833333,19.4272847 7.51061808,19.875 6.95833333,19.875 L2.375,19.875 C1.82271525,19.875 1.375,19.4272847 1.375,18.875 C1.375,18.350778 1.77837246,17.9207687 2.29166667,17.8784228 L2.29166667,13.5382439 C1.77837246,13.4958979 1.375,13.0658886 1.375,12.5416667 C1.375,11.9893819 1.82271525,11.5416667 2.375,11.5416667 L6.95833333,11.5416667 C7.51061808,11.5416667 7.95833333,11.9893819 7.95833333,12.5416667 C7.95833333,13.0658886 7.55496088,13.4958979 7.04166667,13.5382439 L7.04166667,17.8784228 Z M5.04166667,17.875 L5.04166667,13.5416667 L4.29166667,13.5416667 L4.29166667,17.875 L5.04166667,17.875 Z M2,23 C1.44771525,23 1,22.5522847 1,22 C1,21.4477153 1.44771525,21 2,21 L22,21 C22.5522847,21 23,21.4477153 23,22 C23,22.5522847 22.5522847,23 22,23 L2,23 Z M2,10.4583333 C1.03949561,10.4583333 0.631372818,9.23600853 1.39919794,8.65893551 L11.3991979,1.14325248 C11.7550799,0.875782914 12.2449201,0.875782914 12.6008021,1.14325248 L22.6008021,8.65893551 C23.3686272,9.23600853 22.9605044,10.4583333 22,10.4583333 L2,10.4583333 Z M4.99499274,8.45833333 L19.0050073,8.45833333 L12,3.19359192 L4.99499274,8.45833333 Z"/>
</svg>
