<svg xmlns="http://www.w3.org/2000/svg" width="24" height="24" viewBox="0 0 24 24">
  <path d="M13.2285714,8.65714286 L6.8,8.65714286 C6.65798392,8.65714286 6.54285714,8.77226964 6.54285714,8.91428571 L6.54285714,19.2 C6.54285714,19.3420161 6.65798392,19.4571429 6.8,19.4571429 L18.1142857,19.4571429 C18.2563018,19.4571429 18.3714286,19.3420161 18.3714286,19.2 L18.3714286,8.91428571 C18.3714286,8.77226964 18.2563018,8.65714286 18.1142857,8.65714286 L13.2285714,8.65714286 Z M6.8,7.11428571 L11.6857143,7.11428571 L11.6857143,4.54285714 L6.54285714,4.54285714 L6.54285714,7.11428571 L6.8,7.11428571 Z M13.2285714,7.11428571 L18.1142857,7.11428571 C19.1083983,7.11428571 19.9142857,7.92017316 19.9142857,8.91428571 L19.9142857,19.2 C19.9142857,20.1941125 19.1083983,21 18.1142857,21 L6.8,21 C5.80588745,21 5,20.1941125 5,19.2 L5,8.91428571 C5,8.82698023 5.00621565,8.74112648 5.01822856,8.65714286 L5,8.65714286 L5,4.28571429 C5,3.57563389 5.57563389,3 6.28571429,3 L11.9428571,3 C12.6529375,3 13.2285714,3.57563389 13.2285714,4.28571429 L13.2285714,7.11428571 Z M8.6,14.3142857 C8.17395176,14.3142857 7.82857143,13.9689054 7.82857143,13.5428571 C7.82857143,13.1168089 8.17395176,12.7714286 8.6,12.7714286 L16.5714286,12.7714286 C16.9974768,12.7714286 17.3428571,13.1168089 17.3428571,13.5428571 C17.3428571,13.9689054 16.9974768,14.3142857 16.5714286,14.3142857 L8.6,14.3142857 Z"/>
</svg>
