<svg xmlns="http://www.w3.org/2000/svg" width="24" height="24" viewBox="0 0 24 24">
  <path d="M4.92857143,7.28571429 L19.0714286,7.28571429 C19.4352857,7.28571429 19.7142857,7.56471429 19.7142857,7.92857143 L19.7142857,9.21428571 L4.92857143,9.21428571 L4.92857143,10.5 L19.7142857,10.5 L19.7142857,16.9285714 C19.7142857,17.2924286 19.4352857,17.5714286 19.0714286,17.5714286 L4.92857143,17.5714286 C4.56471429,17.5714286 4.28571429,17.2924286 4.28571429,16.9285714 L4.28571429,7.92857143 C4.28571429,7.56471429 4.56471429,7.28571429 4.92857143,7.28571429 L4.92857143,7.28571429 Z M4.92857143,6 C3.87107143,6 3,6.87107143 3,7.92857143 L3,16.9285714 C3,17.9860714 3.87107143,18.8571429 4.92857143,18.8571429 L19.0714286,18.8571429 C20.1289286,18.8571429 21,17.9860714 21,16.9285714 L21,7.92857143 C21,6.87107143 20.1289286,6 19.0714286,6 L4.92857143,6 Z"/>
</svg>
