<svg xmlns="http://www.w3.org/2000/svg" width="24" height="24" viewBox="0 0 24 24">
  <path d="M14.0135203,3 L10,3 C10,3.55228475 9.55228475,4 9,4 L9,8.35415058 C9.7329393,7.52374047 10.8052962,7 12,7 C13.1947038,7 14.2670607,7.52374047 15,8.35415058 L15,4.16483156 C14.4477153,4.16483156 14,3.71711631 14,3.16483156 C14,3.10868686 14.0046269,3.05362284 14.0135203,3 Z M17,10 L17.4545455,10 C17.7557917,10 18,10.4477153 18,11 C18,11.5522847 17.7557917,12 17.4545455,12 L6.54545455,12 C6.24420832,12 6,11.5522847 6,11 C6,10.4477153 6.24420832,10 6.54545455,10 L7,10 L7,2 C7,1.44771525 7.44771525,1 8,1 L16,1 C16.5522847,1 17,1.44771525 17,2 L17,10 Z M12.988825,18 C12.996185,18.0575636 13,18.1164929 13,18.1764706 L13,20.8235294 C13,20.9739493 12.9760048,21.1177758 12.932272,21.25 L17.4545455,21.25 C17.7557917,21.25 18,21.6977153 18,22.25 C18,22.8022847 17.7557917,23.25 17.4545455,23.25 L6.54545455,23.25 C6.24420832,23.25 6,22.8022847 6,22.25 C6,21.6977153 6.24420832,21.25 6.54545455,21.25 L11.067728,21.25 C11.0239952,21.1177758 11,20.9739493 11,20.8235294 L11,18.1764706 C11,18.1164929 11.003815,18.0575636 11.011175,18 L2,18 C1.44771525,18 1,17.5522847 1,17 L1,4 C1,3.44771525 1.44771525,3 2,3 L5.06047373,3 C5.61275848,3 6.06047373,3.44771525 6.06047373,4 C6.06047373,4.55228475 5.61275848,5 5.06047373,5 L3,5 L3,16 L21,16 L21,5 L19.1036124,5 C18.5513277,5 18.1036124,4.55228475 18.1036124,4 C18.1036124,3.44771525 18.5513277,3 19.1036124,3 L22,3 C22.5522847,3 23,3.44771525 23,4 L23,17 C23,17.5522847 22.5522847,18 22,18 L12.988825,18 Z M13.7324507,10 C13.3866503,9.40219072 12.7403094,9 12,9 C11.2596906,9 10.6133497,9.40219072 10.2675493,10 L13.7324507,10 Z M12,6 C11.4477153,6 11,5.55228475 11,5 C11,4.44771525 11.4477153,4 12,4 C12.5522847,4 13,4.44771525 13,5 C13,5.55228475 12.5522847,6 12,6 Z"/>
</svg>
