<svg width="24" height="24" viewBox="0 0 24 24" xmlns="http://www.w3.org/2000/svg">
<path d="m 15,5 v 8 H 3 V 5 Z M 2,3 C 1.44772,3 1,3.44772 1,4 v 10 c 0,0.5523 0.44772,1 1,1 h 14 c 0.5523,0 1,-0.4477 1,-1 V 4 C 17,3.44772 16.5523,3 16,3 Z m 12,3 h -2 v 2 h 2 z M 6,10 H 4 v 2 H 6 Z M 20,7 C 20,6.44772 19.5523,6 19,6 18.4477,6 18,6.44772 18,7 v 9 H 5 c -0.55228,0 -1,0.4477 -1,1 0,0.5523 0.44772,1 1,1 h 13 c 1.1046,0 2,-0.8954 2,-2 z m 2,2 c 0.5523,0 1,0.44772 1,1 v 9 c 0,1.1046 -0.8954,2 -2,2 H 8 C 7.44772,21 7,20.5523 7,20 7,19.4477 7.44772,19 8,19 H 21 V 10 C 21,9.44772 21.4477,9 22,9 Z M 9,6 C 8.63181,6 8.33333,6.24421 8.33333,6.54545 V 6.63094 C 7.56455,6.8345 7,7.38096 7,8.04545 c 0,0.84556 0.91414,1.5 2,1.5 0.38614,0 0.66667,0.20084 0.66667,0.4091 C 9.66667,10.1628 9.38614,10.3636 9,10.3636 8.61386,10.3636 8.33333,10.1628 8.33333,9.95455 8.33333,9.6533 8.03486,9.40909 7.66667,9.40909 7.29848,9.40909 7,9.6533 7,9.95455 7,10.619 7.56455,11.1655 8.33333,11.3691 v 0.0854 C 8.33333,11.7558 8.63181,12 9,12 9.36819,12 9.66667,11.7558 9.66667,11.4545 V 11.3691 C 10.4354,11.1655 11,10.619 11,9.95455 c 0,-0.84556 -0.9141,-1.5 -2,-1.5 -0.38614,0 -0.66667,-0.20084 -0.66667,-0.4091 0,-0.20826 0.28053,-0.40909 0.66667,-0.40909 0.38614,0 0.66667,0.20083 0.66667,0.40909 0,0.30125 0.29847,0.54546 0.66663,0.54546 C 10.7015,8.59091 11,8.3467 11,8.04545 11,7.38096 10.4354,6.8345 9.66667,6.63094 V 6.54545 C 9.66667,6.24421 9.36819,6 9,6 Z"/>
</svg>