<svg width="24" height="24" viewBox="0 0 24 24" xmlns="http://www.w3.org/2000/svg">
<path d="M12 6C12.5523 6 13 5.55228 13 5C13 4.44772 12.5523 4 12 4C11.4477 4 11 4.44772 11 5C11 5.55228 11.4477 6 12 6Z M 7,10 V 2 C 7,1.44772 7.44772,1 8,1 h 8 c 0.5523,0 1,0.44772 1,1 v 8 c 0.5523,0 1,0.4477 1,1 0,0.5523 -0.4477,1 -1,1 H 7 C 6.44771,12 6,11.5523 6,11 6,10.4477 6.44772,10 7,10 Z m 5,-3 c 1.1947,0 2.2671,0.52376 3,1.35418 V 4 C 14.4477,4 14,3.55228 14,3 H 10 C 10,3.55228 9.55228,4 9,4 V 8.35418 C 9.73294,7.52376 10.8053,7 12,7 Z m 1.7324,3 C 13.3866,9.4022 12.7403,9 12,9 11.2597,9 10.6134,9.4022 10.2676,10 Z M1 5C1 3.89543 1.89543 3 3 3H5C5.55228 3 6 3.44772 6 4C6 4.55228 5.55228 5 5 5H3V16H21V5H19C18.4477 5 18 4.55228 18 4C18 3.44772 18.4477 3 19 3H21C22.1046 3 23 3.89543 23 5V16C23 17.1046 22.1046 18 21 18H13V21H16.9993C17.5516 21 18 21.4477 18 22C18 22.5523 17.5523 23 17 23H12L11.9986 23H7C6.44772 23 6 22.5523 6 22C6 21.4477 6.44841 21 7.0007 21H11V18.0007L3 18C1.89543 18 1 17.1046 1 16V5Z"/>
</svg>