<svg xmlns="http://www.w3.org/2000/svg" width="24" height="24" viewBox="0 0 24 24">
  <path d="M4,12 L4,10 L5.99832933,10 L5.99832933,12 L4,12 Z M12,8 L12,6 L13.9983293,6 L13.9983293,8 L12,8 Z M1,4 C1,3.44771525 1.44771525,3 2,3 L16,3 C16.5522847,3 17,3.44771525 17,4 L17,14 C17,14.5522847 16.5522847,15 16,15 L2,15 C1.44771525,15 1,14.5522847 1,14 L1,4 Z M3,5 L3,13 L15,13 L15,5 L3,5 Z M18,16 L18,7.28571429 C18,6.73342954 18.4477153,6.28571429 19,6.28571429 C19.5522847,6.28571429 20,6.73342954 20,7.28571429 L20,17 C20,17.5522847 19.5522847,18 19,18 L5,18 C4.44771525,18 4,17.5522847 4,17 C4,16.4477153 4.44771525,16 5,16 L18,16 Z M21,19 L21,10 C21,9.44771525 21.4477153,9 22,9 C22.5522847,9 23,9.44771525 23,10 L23,20 C23,20.5522847 22.5522847,21 22,21 L8,21 C7.44771525,21 7,20.5522847 7,20 C7,19.4477153 7.44771525,19 8,19 L21,19 Z M8.33333333,6.63093548 L8.33333333,6.54545455 C8.33333333,6.24420832 8.63181017,6 9,6 C9.36818983,6 9.66666667,6.24420832 9.66666667,6.54545455 L9.66666667,6.63093548 C10.43545,6.83450347 11,7.38096435 11,8.04545455 C11,8.34670077 10.7015232,8.59090909 10.3333333,8.59090909 C9.9651435,8.59090909 9.66666667,8.34670077 9.66666667,8.04545455 C9.66666667,7.83719507 9.38614021,7.63636364 9,7.63636364 C8.61385979,7.63636364 8.33333333,7.83719507 8.33333333,8.04545455 C8.33333333,8.25371402 8.61385979,8.45454545 9,8.45454545 C10.0858598,8.45454545 11,9.10898674 11,9.95454545 C11,10.6190357 10.43545,11.1654965 9.66666667,11.3690645 L9.66666667,11.4545455 C9.66666667,11.7557917 9.36818983,12 9,12 C8.63181017,12 8.33333333,11.7557917 8.33333333,11.4545455 L8.33333333,11.3690645 C7.56455003,11.1654965 7,10.6190357 7,9.95454545 C7,9.65329923 7.29847683,9.40909091 7.66666667,9.40909091 C8.0348565,9.40909091 8.33333333,9.65329923 8.33333333,9.95454545 C8.33333333,10.1628049 8.61385979,10.3636364 9,10.3636364 C9.38614021,10.3636364 9.66666667,10.1628049 9.66666667,9.95454545 C9.66666667,9.74628598 9.38614021,9.54545455 9,9.54545455 C7.91414021,9.54545455 7,8.89101326 7,8.04545455 C7,7.38096435 7.56455003,6.83450347 8.33333333,6.63093548 Z"/>
</svg>
