<svg xmlns="http://www.w3.org/2000/svg" width="24" height="24" viewBox="0 0 24 24">
  <path d="M9,9.34090909 L4.92857143,9.34090909 C4.56471429,9.34090909 4.28571429,9.62202273 4.28571429,9.98863636 L4.28571429,19.0568182 C4.28571429,19.4240795 4.56471429,19.7045455 4.92857143,19.7045455 L19.0714286,19.7045455 C19.4352857,19.7045455 19.7142857,19.4240795 19.7142857,19.0568182 L19.7142857,9.98863636 C19.7142857,9.62202273 19.4352857,9.34090909 19.0714286,9.34090909 L15,9.34090909 L15,8.04545455 L19.0714286,8.04545455 C20.1289286,8.04545455 21,8.92377273 21,9.98863636 L21,19.0568182 C21,20.1223295 20.1289286,21 19.0714286,21 L4.92857143,21 C3.87107143,21 3,20.1223295 3,19.0568182 L3,9.98863636 C3,8.92377273 3.87107143,8.04545455 4.92857143,8.04545455 L9,8.04545455 L9,9.34090909 Z M12.7326567,2.25339778 L16.7684059,5.75576257 C17.1557674,6.09192846 17.1557674,6.63756137 16.7684059,6.97436395 C16.3803107,7.31052985 15.7523156,7.31052985 15.3642205,6.97436395 L13.0224442,4.94208829 L13.0224442,11.4234687 C13.0224442,11.8997037 12.5778588,12.2848938 12.0298303,12.2848938 C11.4803346,12.2848938 11.0364829,11.8997037 11.0364829,11.4234687 L11.0364829,4.94208829 L8.69470654,6.97436395 C8.30734505,7.31052985 7.67861626,7.31052985 7.29052112,6.97436395 C6.90315963,6.63756137 6.90315963,6.09192846 7.29052112,5.75576257 L11.3262703,2.25339778 C11.3724896,2.21328708 11.4231107,2.17699644 11.4774,2.14516255 C11.487671,2.13943245 11.4994092,2.13561238 11.5096801,2.13051896 C11.5536985,2.1063252 11.5991841,2.0834048 11.6476043,2.0662145 C11.6659453,2.05921104 11.6864872,2.05602765 11.7055618,2.05093423 C11.7473792,2.03820067 11.788463,2.02483044 11.833215,2.01655362 C11.8970416,2.0057301 11.9630692,2 12.0298303,2 C12.0958578,2 12.1611517,2.0057301 12.225712,2.01655362 C12.2697303,2.02483044 12.3115478,2.03820067 12.3533652,2.05093423 C12.3724398,2.05602765 12.3922481,2.05921104 12.4113227,2.0662145 C12.4590092,2.0834048 12.5044949,2.1063252 12.5492469,2.13051896 C12.5595178,2.13561238 12.571256,2.13943245 12.5807934,2.14516255 C12.6358163,2.17699644 12.6864374,2.21328708 12.7326567,2.25339778 Z M6.97297297,15.0984848 C6.43561484,15.0984848 6,14.8729313 6,14.594697 C6,14.3164626 6.43561484,14.0909091 6.97297297,14.0909091 L17.027027,14.0909091 C17.5643852,14.0909091 18,14.3164626 18,14.594697 C18,14.8729313 17.5643852,15.0984848 17.027027,15.0984848 L6.97297297,15.0984848 Z"/>
</svg>
