<svg xmlns="http://www.w3.org/2000/svg" width="24" height="24" viewBox="0 0 24 24">
  <path d="M7,16 C6.44771525,16 6,15.5522847 6,15 C6,14.4477153 6.44771525,14 7,14 L17,14 C17.5522847,14 18,14.4477153 18,15 C18,15.5522847 17.5522847,16 17,16 L7,16 Z M13,3.95041993 L13,11.25 C13,11.8022847 12.5522847,12.25 12,12.25 C11.4477153,12.25 11,11.8022847 11,11.25 L11,4.00545938 L7.7907435,6.42334613 C7.34963881,6.75567893 6.72264383,6.66750189 6.39031103,6.22639719 C6.05797823,5.78529249 6.14615527,5.15829752 6.58725997,4.82596472 L11.3982582,1.20130929 C11.7478994,0.937886051 12.2282356,0.932503275 12.5836922,1.188025 L17.6259551,4.81268042 C18.0743965,5.13504474 18.1766021,5.75990623 17.8542378,6.20834764 C17.5318735,6.65678905 16.907012,6.75899473 16.4585706,6.43663042 L13,3.95041993 Z M21,10 L17.0426318,10 C16.490347,10 16.0426318,9.55228475 16.0426318,9 C16.0426318,8.44771525 16.490347,8 17.0426318,8 L22,8 C22.5522847,8 23,8.44771525 23,9 L23,22 C23,22.5522847 22.5522847,23 22,23 L2,23 C1.44771525,23 1,22.5522847 1,22 L1,9 C1,8.44771525 1.44771525,8 2,8 L6.9293835,8 C7.48166825,8 7.9293835,8.44771525 7.9293835,9 C7.9293835,9.55228475 7.48166825,10 6.9293835,10 L3,10 L3,21 L21,21 L21,10 Z"/>
</svg>
