<svg xmlns="http://www.w3.org/2000/svg" width="24" height="24" viewBox="0 0 24 24">
  <path d="M1,5 C1,4.44771525 1.44771525,4 2,4 L22,4 C22.5522847,4 23,4.44771525 23,5 L23,19 C23,19.5522847 22.5522847,20 22,20 L2,20 C1.44771525,20 1,19.5522847 1,19 L1,5 Z M3,6 L3,18 L21,18 L21,6 L3,6 Z M11,10.8725117 C10.4477153,10.8725117 10,10.4247964 10,9.87251165 C10,9.3202269 10.4477153,8.87251165 11,8.87251165 L18.3491221,8.87251165 C18.9014069,8.87251165 19.3491221,9.3202269 19.3491221,9.87251165 C19.3491221,10.4247964 18.9014069,10.8725117 18.3491221,10.8725117 L11,10.8725117 Z M6.5,15.8725117 C5.94771525,15.8725117 5.5,15.4247964 5.5,14.8725117 C5.5,14.3202269 5.94771525,13.8725117 6.5,13.8725117 L8.38362596,13.8725117 C8.93591071,13.8725117 9.38362596,14.3202269 9.38362596,14.8725117 C9.38362596,15.4247964 8.93591071,15.8725117 8.38362596,15.8725117 L6.5,15.8725117 Z M11.5,15.8725117 C10.9477153,15.8725117 10.5,15.4247964 10.5,14.8725117 C10.5,14.3202269 10.9477153,13.8725117 11.5,13.8725117 L13.383626,13.8725117 C13.9359107,13.8725117 14.383626,14.3202269 14.383626,14.8725117 C14.383626,15.4247964 13.9359107,15.8725117 13.383626,15.8725117 L11.5,15.8725117 Z M5.94181298,10.8725117 C5.38952823,10.8725117 4.94181298,10.4247964 4.94181298,9.87251165 C4.94181298,9.3202269 5.38952823,8.87251165 5.94181298,8.87251165 L7.82543895,8.87251165 C8.3777237,8.87251165 8.82543895,9.3202269 8.82543895,9.87251165 C8.82543895,10.4247964 8.3777237,10.8725117 7.82543895,10.8725117 L5.94181298,10.8725117 Z M16.5,15.8725117 C15.9477153,15.8725117 15.5,15.4247964 15.5,14.8725117 C15.5,14.3202269 15.9477153,13.8725117 16.5,13.8725117 L18.383626,13.8725117 C18.9359107,13.8725117 19.383626,14.3202269 19.383626,14.8725117 C19.383626,15.4247964 18.9359107,15.8725117 18.383626,15.8725117 L16.5,15.8725117 Z"/>
</svg>
