<svg xmlns="http://www.w3.org/2000/svg" width="24" height="24" viewBox="0 0 24 24">
  <path d="M19.0714286,6 C20.1289286,6 21,6.87107143 21,7.92857143 L21,16.9285714 C21,17.9860714 20.1289286,18.8571429 19.0714286,18.8571429 L4.92857143,18.8571429 C3.87107143,18.8571429 3,17.9860714 3,16.9285714 L3,7.92857143 C3,6.87107143 3.87107143,6 4.92857143,6 L19.0714286,6 Z M19.7142857,9.21428571 L19.7142857,7.92857143 C19.7142857,7.56471429 19.4352857,7.28571429 19.0714286,7.28571429 L4.92857143,7.28571429 C4.56471429,7.28571429 4.28571429,7.56471429 4.28571429,7.92857143 L4.28571429,16.9285714 C4.28571429,17.2924286 4.56471429,17.5714286 4.92857143,17.5714286 L19.0714286,17.5714286 C19.4352857,17.5714286 19.7142857,17.2924286 19.7142857,16.9285714 L19.7142857,10.5 L4.92857143,10.5 L4.92857143,9.21428571 L19.7142857,9.21428571 Z M11.6785714,15.6428571 C11.9595,15.6428571 12,15.5547857 12,15.3214286 C12,15.1382143 11.8617857,15 11.6785714,15 C10.7997857,15 10.0714286,14.2716429 10.0714286,13.3928571 C10.0714286,12.5140714 10.7997857,11.7857143 11.6785714,11.7857143 C12.1658571,11.7857143 12.6075,11.9843571 12.8839286,12.2877857 C13.1603571,12.5918571 13.2857143,12.9685714 13.2857143,13.3324286 L12,13.3324286 C12,13.2771429 11.9800714,13.1942143 11.9395714,13.1517857 C11.8997143,13.1093571 11.8521429,13.0714286 11.6785714,13.0714286 C11.4953571,13.0714286 11.3571429,13.2096429 11.3571429,13.3928571 C11.3571429,13.5760714 11.4953571,13.7142857 11.6785714,13.7142857 C12.5573571,13.7142857 13.2857143,14.4426429 13.2857143,15.3214286 C13.2857143,16.1526429 12.585,16.9285714 11.6785714,16.9285714 C11.2112143,16.9285714 10.7747143,16.7955 10.4732143,16.4862857 C10.1717143,16.1777143 10.0714286,15.7656429 10.0714286,15.4017857 L11.3571429,15.4017857 C11.3571429,15.5573571 11.3950714,15.5772857 11.3976429,15.5824286 C11.3995714,15.5875714 11.4349286,15.6428571 11.6785714,15.6428571 Z M15.5357143,16.9285714 C14.6569286,16.9285714 13.9285714,16.2002143 13.9285714,15.3214286 L13.9285714,13.3928571 C13.9285714,12.5140714 14.6569286,11.7857143 15.5357143,11.7857143 C16.4145,11.7857143 17.1428571,12.5140714 17.1428571,13.3928571 L17.1428571,13.7142857 L15.8571429,13.7142857 L15.8571429,13.3928571 C15.8571429,13.2096429 15.7189286,13.0714286 15.5357143,13.0714286 C15.3525,13.0714286 15.2142857,13.2096429 15.2142857,13.3928571 L15.2142857,15.3214286 C15.2142857,15.5046429 15.3525,15.6428571 15.5357143,15.6428571 C15.7189286,15.6428571 15.8571429,15.5046429 15.8571429,15.3214286 L15.8571429,15 L17.1428571,15 L17.1428571,15.3214286 C17.1428571,16.2002143 16.4145,16.9285714 15.5357143,16.9285714 Z M7.82142857,16.9285714 C6.94264286,16.9285714 6.21428571,16.2002143 6.21428571,15.3214286 L6.21428571,13.3928571 C6.21428571,12.5140714 6.94264286,11.7857143 7.82142857,11.7857143 C8.70021429,11.7857143 9.42857143,12.5140714 9.42857143,13.3928571 L9.42857143,13.7142857 L8.14285714,13.7142857 L8.14285714,13.3928571 C8.14285714,13.2096429 8.00464286,13.0714286 7.82142857,13.0714286 C7.63821429,13.0714286 7.5,13.2096429 7.5,13.3928571 L7.5,15.3214286 C7.5,15.5046429 7.63821429,15.6428571 7.82142857,15.6428571 C8.00464286,15.6428571 8.14285714,15.5046429 8.14285714,15.3214286 L8.14285714,15 L9.42857143,15 L9.42857143,15.3214286 C9.42857143,16.2002143 8.70021429,16.9285714 7.82142857,16.9285714 Z"/>
</svg>
