<svg xmlns="http://www.w3.org/2000/svg" width="24" height="24" viewBox="0 0 24 24">
  <path d="M14.5714286,11.7857143 L14.5714286,12.5288571 L14.6112857,12.6291429 L15.8571429,16.4862857 L15.9979286,16.9285714 L17.0020714,16.9285714 L17.1428571,16.4862857 L18.3880714,12.6291429 L18.4285714,12.5288571 L18.4285714,11.7857143 L17.1428571,11.7857143 L17.1428571,12.3482143 L16.5,14.3172857 L15.8571429,12.3482143 L15.8571429,11.7857143 L14.5714286,11.7857143 Z M10.0714286,11.7857143 L10.0714286,12.5288571 L10.1119286,12.6291429 L11.3571429,16.4862857 L11.4979286,16.9285714 L12.5020714,16.9285714 L12.6428571,16.4862857 L13.8887143,12.6291429 L13.9285714,12.5288571 L13.9285714,11.7857143 L12.6428571,11.7857143 L12.6428571,12.3482143 L12,14.3172857 L11.3571429,12.3482143 L11.3571429,11.7857143 L10.0714286,11.7857143 Z M7.82142857,11.7857143 C6.94264286,11.7857143 6.21428571,12.5140714 6.21428571,13.3928571 L6.21428571,15.3214286 C6.21428571,16.2002143 6.94264286,16.9285714 7.82142857,16.9285714 C8.70021429,16.9285714 9.42857143,16.2002143 9.42857143,15.3214286 L9.42857143,15 L8.14285714,15 L8.14285714,15.3214286 C8.14285714,15.5046429 8.00464286,15.6428571 7.82142857,15.6428571 C7.63821429,15.6428571 7.5,15.5046429 7.5,15.3214286 L7.5,13.3928571 C7.5,13.2096429 7.63821429,13.0714286 7.82142857,13.0714286 C8.00464286,13.0714286 8.14285714,13.2096429 8.14285714,13.3928571 L8.14285714,13.7142857 L9.42857143,13.7142857 L9.42857143,13.3928571 C9.42857143,12.5140714 8.70021429,11.7857143 7.82142857,11.7857143 L7.82142857,11.7857143 Z M4.92857143,7.28571429 L19.0714286,7.28571429 C19.4352857,7.28571429 19.7142857,7.56471429 19.7142857,7.92857143 L19.7142857,9.21428571 L4.92857143,9.21428571 L4.92857143,10.5 L19.7142857,10.5 L19.7142857,16.9285714 C19.7142857,17.2924286 19.4352857,17.5714286 19.0714286,17.5714286 L4.92857143,17.5714286 C4.56471429,17.5714286 4.28571429,17.2924286 4.28571429,16.9285714 L4.28571429,7.92857143 C4.28571429,7.56471429 4.56471429,7.28571429 4.92857143,7.28571429 L4.92857143,7.28571429 Z M4.92857143,6 C3.87107143,6 3,6.87107143 3,7.92857143 L3,16.9285714 C3,17.9860714 3.87107143,18.8571429 4.92857143,18.8571429 L19.0714286,18.8571429 C20.1289286,18.8571429 21,17.9860714 21,16.9285714 L21,7.92857143 C21,6.87107143 20.1289286,6 19.0714286,6 L4.92857143,6 Z"/>
</svg>
