<svg xmlns="http://www.w3.org/2000/svg" width="24" height="24" viewBox="0 0 24 24">
  <path d="M21,8.87251165 L21,6 L3,6 L3,18 L21,18 L21,10.8725117 L7,10.8725117 C6.44771525,10.8725117 6,10.4247964 6,9.87251165 C6,9.3202269 6.44771525,8.87251165 7,8.87251165 L21,8.87251165 Z M1,5 C1,4.44771525 1.44771525,4 2,4 L22,4 C22.5522847,4 23,4.44771525 23,5 L23,19 C23,19.5522847 22.5522847,20 22,20 L2,20 C1.44771525,20 1,19.5522847 1,19 L1,5 Z M14.5714286,11.7857143 L15.8571429,11.7857143 L15.8571429,12.3482143 L16.5,14.3172857 L17.1428571,12.3482143 L17.1428571,11.7857143 L18.4285714,11.7857143 L18.4285714,12.5288571 L18.3880714,12.6291429 L17.1428571,16.4862857 L17.0020714,16.9285714 L15.9979286,16.9285714 L15.8571429,16.4862857 L14.6112857,12.6291429 L14.5714286,12.5288571 L14.5714286,11.7857143 Z M10.0714286,11.7857143 L11.3571429,11.7857143 L11.3571429,12.3482143 L12,14.3172857 L12.6428571,12.3482143 L12.6428571,11.7857143 L13.9285714,11.7857143 L13.9285714,12.5288571 L13.8887143,12.6291429 L12.6428571,16.4862857 L12.5020714,16.9285714 L11.4979286,16.9285714 L11.3571429,16.4862857 L10.1119286,12.6291429 L10.0714286,12.5288571 L10.0714286,11.7857143 Z M6.21428571,13.3928571 C6.21428571,12.5140714 6.94264286,11.7857143 7.82142857,11.7857143 C8.70021429,11.7857143 9.42857143,12.5140714 9.42857143,13.3928571 L9.42857143,13.7142857 L8.14285714,13.7142857 L8.14285714,13.3928571 C8.14285714,13.2096429 8.00464286,13.0714286 7.82142857,13.0714286 C7.63821429,13.0714286 7.5,13.2096429 7.5,13.3928571 L7.5,15.3214286 C7.5,15.5046429 7.63821429,15.6428571 7.82142857,15.6428571 C8.00464286,15.6428571 8.14285714,15.5046429 8.14285714,15.3214286 L8.14285714,15 L9.42857143,15 L9.42857143,15.3214286 C9.42857143,16.2002143 8.70021429,16.9285714 7.82142857,16.9285714 C6.94264286,16.9285714 6.21428571,16.2002143 6.21428571,15.3214286 L6.21428571,13.3928571 Z"/>
</svg>
