<svg xmlns="http://www.w3.org/2000/svg" width="24" height="24" viewBox="0 0 24 24">
  <path d="M21,8 L21,6 L3,6 L3,8 L21,8 Z M21,16 L3,16 L3,18 L21,18 L21,16 Z M1,5 C1,4.44771525 1.44771525,4 2,4 L22,4 C22.5522847,4 23,4.44771525 23,5 L23,19 C23,19.5522847 22.5522847,20 22,20 L2,20 C1.44771525,20 1,19.5522847 1,19 L1,5 Z M16.3554286,11.5068571 L14.7457143,11.5068571 L14.7457143,10.4519286 C14.7457143,10.3002143 14.711,10.1864286 14.6415714,10.1118571 C14.5721429,10.0372857 14.4815,10 14.369,10 C14.2552143,10 14.1652143,10.0379286 14.099,10.1131429 C14.0327857,10.1883571 14,10.3015 14,10.4519286 L14,13.3525 C14,13.5035714 14.0334286,13.6167143 14.1002857,13.6925714 C14.1671429,13.7690714 14.2571429,13.807 14.369,13.807 C14.4795714,13.807 14.5702143,13.7697143 14.6402857,13.6938571 C14.711,13.6186429 14.7457143,13.5048571 14.7457143,13.3525 L14.7457143,12.1143571 L16.3554286,12.1143571 L16.3554286,13.3525 C16.3554286,13.5035714 16.3888571,13.6167143 16.4557143,13.6925714 C16.5225714,13.7690714 16.6125714,13.807 16.7244286,13.807 C16.835,13.807 16.9256429,13.7697143 16.9957143,13.6938571 C17.0664286,13.6186429 17.1011429,13.5048571 17.1011429,13.3525 L17.1011429,10.4519286 C17.1011429,10.3002143 17.0664286,10.1864286 16.997,10.1118571 C16.9275714,10.0372857 16.8369286,10 16.7244286,10 C16.6138571,10 16.5251429,10.0379286 16.457,10.1131429 C16.3895,10.1883571 16.3554286,10.3015 16.3554286,10.4519286 L16.3554286,11.5068571 Z M10.8762143,12.6479286 C10.7958571,12.4582857 10.756,12.2197857 10.756,11.9337143 C10.756,11.5055714 10.8466429,11.1745 11.0279286,10.9417857 C11.2098571,10.7090714 11.4535,10.5927143 11.7601429,10.5927143 C11.9523571,10.5927143 12.1143571,10.6377143 12.2461429,10.7283571 C12.3779286,10.819 12.4917143,10.9552857 12.5887857,11.1378571 C12.6472857,11.2484286 12.7006429,11.3262143 12.7482143,11.3712143 C12.7957857,11.4162143 12.8677857,11.4393571 12.9629286,11.4393571 C13.0484286,11.4393571 13.1210714,11.4065714 13.1815,11.341 C13.2419286,11.2760714 13.2721429,11.2002143 13.2721429,11.1153571 C13.2721429,10.9591429 13.2097857,10.7939286 13.0863571,10.6190714 C12.9622857,10.4442143 12.7835714,10.2976429 12.5515,10.1787143 C12.3187857,10.0597857 12.0532857,10 11.755,10 C11.5107143,10 11.2805714,10.0437143 11.0645714,10.1305 C10.8485714,10.2179286 10.6602143,10.3445714 10.4995,10.5110714 C10.3387857,10.6775714 10.2153571,10.8781429 10.1292143,11.1127857 C10.0430714,11.3474286 10,11.6122857 10,11.9086429 C10,12.0912143 10.0173571,12.2635 10.0514286,12.4261429 C10.0855,12.5881429 10.1369286,12.7411429 10.2057143,12.8845 C10.2745,13.0272143 10.3574286,13.1564286 10.4545,13.2721429 C10.5631429,13.3994286 10.6827143,13.5022857 10.8119286,13.5800714 C10.9417857,13.6578571 11.0864286,13.7150714 11.2452143,13.7517143 C11.4046429,13.7883571 11.5807857,13.807 11.7749286,13.807 C12.0314286,13.807 12.2557857,13.7658571 12.448,13.6842143 C12.6408571,13.6019286 12.799,13.4952143 12.9230714,13.3640714 C13.0471429,13.2322857 13.1377857,13.0985714 13.195,12.9622857 C13.2528571,12.8253571 13.2817857,12.6987143 13.2817857,12.5817143 C13.2817857,12.4897857 13.2502857,12.4126429 13.1866429,12.3509286 C13.123,12.2885714 13.0471429,12.2577143 12.9577857,12.2577143 C12.8542857,12.2577143 12.7790714,12.2879286 12.7321429,12.3496429 C12.6852143,12.4107143 12.646,12.4897857 12.6138571,12.5868571 C12.5386429,12.7925714 12.4267857,12.9487857 12.2789286,13.0548571 C12.1304286,13.1615714 11.9491429,13.2142857 11.7350714,13.2142857 C11.5377143,13.2142857 11.3647857,13.168 11.2175714,13.0741429 C11.0703571,12.9802857 10.9565714,12.8382143 10.8762143,12.6479286 Z M6,13.4707857 C6,13.5575714 6.036,13.6353571 6.10735714,13.7041429 C6.17935714,13.7729286 6.26228571,13.807 6.35614286,13.807 C6.46671429,13.807 6.54642857,13.7748571 6.59464286,13.7105714 C6.6435,13.6462857 6.702,13.5215714 6.77078571,13.3377143 L6.94628571,12.8652143 L8.44285714,12.8652143 L8.619,13.3274286 C8.64214286,13.384 8.67042857,13.4502143 8.70321429,13.5247857 C8.73535714,13.5987143 8.76621429,13.654 8.7945,13.6906429 C8.82342857,13.7266429 8.85814286,13.7549286 8.89992857,13.7755 C8.94171429,13.7967143 8.99185714,13.807 9.051,13.807 C9.15128571,13.807 9.23678571,13.7716429 9.30814286,13.7002857 C9.3795,13.6289286 9.41485714,13.5511429 9.41485714,13.4656429 C9.41485714,13.3833571 9.37692857,13.2522143 9.30171429,13.0715714 L8.34,10.6955714 C8.295,10.5766429 8.25771429,10.4821429 8.22814286,10.4107857 C8.19921429,10.3394286 8.16321429,10.2732143 8.12014286,10.2108571 C8.07771429,10.1491429 8.02178571,10.0983571 7.95235714,10.0591429 C7.88292857,10.0199286 7.79614286,10 7.692,10 C7.59042857,10 7.50428571,10.0199286 7.43485714,10.0591429 C7.36542857,10.0983571 7.3095,10.1497857 7.26642857,10.2134286 C7.224,10.2770714 7.1835,10.3567857 7.14621429,10.4532143 C7.10828571,10.5496429 7.07614286,10.6319286 7.04914286,10.7007143 L6.10735714,13.0915 C6.06878571,13.1866429 6.04114286,13.2612143 6.02507143,13.3152143 C6.00835714,13.3685714 6,13.4206429 6,13.4707857 Z M7.68717857,10.78615 L8.24196429,12.3052214 L7.14203571,12.3052214 L7.68717857,10.78615 z"/>
</svg>