<svg xmlns="http://www.w3.org/2000/svg" width="24" height="24" viewBox="0 0 24 24">
  <path fill-rule="evenodd" d="M4,21 L4,3 L20.2,3 L20.2,21 L4,21 Z M5.35,19.2 L18.85,19.2 L18.85,4.8 L5.35,4.8 L5.35,19.2 Z M15.475,13.8 L15.475,12 L17.5,12 L17.5,13.8 L15.475,13.8 Z M15.475,10.2 L15.475,8.4 L17.5,8.4 L17.5,10.2 L15.475,10.2 Z M15.475,17.4 L15.475,15.6 L17.5,15.6 L17.5,17.4 L15.475,17.4 Z M6.7,13.8 L6.7,12 L14.125,12 L14.125,13.8 L6.7,13.8 Z M6.7,17.4 L6.7,15.6 L14.125,15.6 L14.125,17.4 L6.7,17.4 Z M6.7,10.2 L6.7,8.4 L14.125,8.4 L14.125,10.2 L6.7,10.2 Z"/>
</svg>
