<svg xmlns="http://www.w3.org/2000/svg" width="24" height="24" viewBox="0 0 24 24">
  <path d="M3,4 C3,3.44771525 3.44771525,3 4,3 L20,3 C20.5522847,3 21,3.44771525 21,4 L21,20 C21,20.5522847 20.5522847,21 20,21 L4,21 C3.44771525,21 3,20.5522847 3,20 L3,4 Z M5,5 L5,19 L19,19 L19,5 L5,5 Z M7,9 C6.44771525,9 6,8.55228475 6,8 C6,7.44771525 6.44771525,7 7,7 L12.75,7 C13.3022847,7 13.75,7.44771525 13.75,8 C13.75,8.55228475 13.3022847,9 12.75,9 L7,9 Z M7,13 C6.44771525,13 6,12.5522847 6,12 C6,11.4477153 6.44771525,11 7,11 L12.75,11 C13.3022847,11 13.75,11.4477153 13.75,12 C13.75,12.5522847 13.3022847,13 12.75,13 L7,13 Z M7,17 C6.44771525,17 6,16.5522847 6,16 C6,15.4477153 6.44771525,15 7,15 L12.75,15 C13.3022847,15 13.75,15.4477153 13.75,16 C13.75,16.5522847 13.3022847,17 12.75,17 L7,17 Z M16,7 L18,7 L18,9 L16,9 L16,7 Z M16,11 L18,11 L18,13 L16,13 L16,11 Z M16,15 L18,15 L18,17 L16,17 L16,15 z"/>
</svg>