<svg xmlns="http://www.w3.org/2000/svg" width="24" height="24" viewBox="0 0 24 24">
  <path d="M1,5 C1,4.44771525 1.44771525,4 2,4 L22,4 C22.5522847,4 23,4.44771525 23,5 L23,19 C23,19.5522847 22.5522847,20 22,20 L2,20 C1.44771525,20 1,19.5522847 1,19 L1,5 Z M3,6 L3,18 L21,18 L21,6 L3,6 Z M14.6428571,7.8 C17.2315284,7.8 19.3428571,9.91132876 19.3428571,12.5 C19.3428571,15.0886712 17.2315284,17.2 14.6428571,17.2 C13.7123856,17.2 12.8255796,16.9329576 12.0715091,16.4380776 C11.3173801,16.933671 10.4308539,17.2 9.5,17.2 C6.91132876,17.2 4.8,15.0886712 4.8,12.5 C4.8,9.91132876 6.91132876,7.8 9.5,7.8 C10.4308539,7.8 11.3173801,8.06632896 12.0715091,8.56192243 C12.8255796,8.06704236 13.7123856,7.8 14.6428571,7.8 Z M14.6428571,15.5142857 C16.3150431,15.5142857 17.6571429,14.1721859 17.6571429,12.5 C17.6571429,10.8278141 16.3150431,9.48571429 14.6428571,9.48571429 C14.1873706,9.48571429 13.7454259,9.592344 13.3353285,9.79364708 C13.8946907,10.579683 14.2,11.515064 14.2,12.5 C14.2,13.484936 13.8946907,14.420317 13.3353285,15.2063529 C13.7454259,15.407656 14.1873706,15.5142857 14.6428571,15.5142857 Z M10.6772323,13.3428571 L10.6489636,13.1763289 C10.6072973,12.9308762 10.5857143,12.7147215 10.5857143,12.5 C10.5857143,12.2852785 10.6072973,12.0691238 10.6489636,11.8236711 L10.6772323,11.6571429 L12.3932674,11.6571429 C12.3684044,11.582469 12.3380407,11.5030297 12.3009962,11.4142857 L10.7241777,11.4142857 L10.8182591,11.1477217 C10.9436945,10.7923212 11.1252214,10.4535268 11.3547384,10.139423 C10.8233111,9.71913539 10.1804732,9.48571429 9.5,9.48571429 C7.82781409,9.48571429 6.48571429,10.8278141 6.48571429,12.5 C6.48571429,14.1721859 7.82781409,15.5142857 9.5,15.5142857 C10.1804732,15.5142857 10.8233111,15.2808646 11.3547384,14.860577 C11.1252214,14.5464732 10.9436945,14.2076788 10.8182591,13.8522783 L10.7241777,13.5857143 L12.3009962,13.5857143 C12.3380407,13.4969703 12.3684044,13.417531 12.3932674,13.3428571 L10.6772323,13.3428571 z"/>
</svg>