<svg xmlns="http://www.w3.org/2000/svg" width="24" height="24" viewBox="0 0 24 24">
  <path d="M19.7142857,7.92857143 C19.7142857,7.56471429 19.4352857,7.28571429 19.0714286,7.28571429 L4.92857143,7.28571429 C4.56471429,7.28571429 4.28571429,7.56471429 4.28571429,7.92857143 L4.28571429,16.9285714 C4.28571429,17.2924286 4.56471429,17.5714286 4.92857143,17.5714286 L19.0714286,17.5714286 C19.4352857,17.5714286 19.7142857,17.2924286 19.7142857,16.9285714 L19.7142857,7.92857143 Z M19.0714286,6 C20.1289286,6 21,6.87107143 21,7.92857143 L21,16.9285714 C21,17.9860714 20.1289286,18.8571429 19.0714286,18.8571429 L4.92857143,18.8571429 C3.87107143,18.8571429 3,17.9860714 3,16.9285714 L3,7.92857143 C3,6.87107143 3.87107143,6 4.92857143,6 L19.0714286,6 Z M14.5714286,15.6428571 C13.9838571,15.6428571 13.4387143,15.477 12.9642857,15.2012143 C13.5692143,14.4349286 13.9285714,13.4757857 13.9285714,12.4285714 C13.9285714,11.3813571 13.5692143,10.4222143 12.9642857,9.65592857 C13.4387143,9.38014286 13.9838571,9.21428571 14.5714286,9.21428571 C16.3540714,9.21428571 17.7857143,10.6459286 17.7857143,12.4285714 C17.7857143,14.2112143 16.3540714,15.6428571 14.5714286,15.6428571 Z M10.7747143,13.0714286 L12.5824286,13.0714286 C12.5374286,13.2951429 12.4519286,13.5085714 12.3612857,13.7142857 L10.9354286,13.7142857 C11.0781429,14.1186429 11.2941429,14.4902143 11.5583571,14.8193571 C10.9907143,15.324 10.2520714,15.6428571 9.42857143,15.6428571 C7.64592857,15.6428571 6.21428571,14.2112143 6.21428571,12.4285714 C6.21428571,10.6459286 7.64592857,9.21428571 9.42857143,9.21428571 C10.2520714,9.21428571 10.9907143,9.53314286 11.5583571,10.0377857 C11.2941429,10.3669286 11.0781429,10.7385 10.9354286,11.1428571 L12.3612857,11.1428571 C12.4519286,11.3485714 12.5374286,11.562 12.5824286,11.7857143 L10.7747143,11.7857143 C10.7393571,11.994 10.7142857,12.2074286 10.7142857,12.4285714 C10.7142857,12.6497143 10.7393571,12.8631429 10.7747143,13.0714286 Z M14.5714286,7.92857143 C13.6148571,7.92857143 12.7283571,8.22235714 12,8.73214286 C11.2690714,8.21978571 10.3825714,7.92857143 9.42857143,7.92857143 C6.95035714,7.92857143 4.92857143,9.95035714 4.92857143,12.4285714 C4.92857143,14.9067857 6.95035714,16.9285714 9.42857143,16.9285714 C10.3825714,16.9285714 11.2690714,16.6373571 12,16.125 C12.7283571,16.6347857 13.6148571,16.9285714 14.5714286,16.9285714 C17.0496429,16.9285714 19.0714286,14.9067857 19.0714286,12.4285714 C19.0714286,9.95035714 17.0496429,7.92857143 14.5714286,7.92857143 Z"/>
</svg>
