<svg xmlns="http://www.w3.org/2000/svg" width="24" height="24" viewBox="0 0 24 24">
  <path d="M7.3729357,13.6654873 C7.3743049,13.6869029 7.375,13.7085019 7.375,13.7302632 C7.375,13.9481213 7.52513725,14.1052632 7.6875,14.1052632 L20.8125,14.1052632 C20.9748628,14.1052632 21.125,13.9481213 21.125,13.7302632 L21.125,9 L12.625,9 L12.625,9.21052632 C12.625,10.6514264 11.3434341,11.4736842 9.875,11.4736842 L8.8247541,11.4736842 C8.69536437,11.7807036 8.53076435,12.1174278 8.32860474,12.4579072 C8.04490105,12.9357239 7.72817619,13.3456745 7.3729357,13.6654873 Z M5.4743522,14.4207301 C4.93392051,14.4071248 4.5,13.9647625 4.5,13.4210526 C4.5,12.8687679 4.94771525,12.4210526 5.5,12.4210526 C5.82543786,12.4210526 6.22358788,12.0857684 6.60889526,11.4368297 C6.77073339,11.1642602 6.91263538,10.8655192 7.03113089,10.5661621 C7.10155227,10.3882554 7.14693162,10.2545058 7.16635313,10.1890859 C7.29233622,9.76472183 7.68233013,9.47368421 8.125,9.47368421 L9.875,9.47368421 C10.3753159,9.47368421 10.625,9.31348591 10.625,9.21052632 L10.625,8.78947368 C10.625,8.69436939 10.3606281,8.52631579 9.875,8.52631579 L7.25,8.52631579 C4.81856294,8.52631579 3,9.86801598 3,13.1397895 L3,15.9473684 C3,17.7122232 4.50214304,19.1578947 6.375,19.1578947 L12.9375,19.1578947 C13.1189088,19.1578947 13.25,19.031848 13.25,18.8947368 C13.25,18.7585136 13.118107,18.6315789 12.9375,18.6315789 L10.75,18.6315789 C10.1977153,18.6315789 9.75,18.1838637 9.75,17.6315789 C9.75,17.0792942 10.1977153,16.6315789 10.75,16.6315789 L12.9375,16.6315789 L16.4375,16.6315789 C16.6189088,16.6315789 16.75,16.5055322 16.75,16.3684211 C16.75,16.2321978 16.618107,16.1052632 16.4375,16.1052632 L10.75,16.1052632 L7.6875,16.1052632 C6.63664593,16.1052632 5.76103138,15.3912002 5.4743522,14.4207301 Z M18.734593,16.1052632 C18.7447674,16.1915346 18.75,16.2793427 18.75,16.3684211 C18.75,17.6280415 17.7063008,18.6315789 16.4375,18.6315789 L15.234593,18.6315789 C15.2447674,18.7178503 15.25,18.8056585 15.25,18.8947368 C15.25,20.1543573 14.2063008,21.1578947 12.9375,21.1578947 L6.375,21.1578947 C3.41435696,21.1578947 1,18.8343031 1,15.9473684 L1,13.1397895 C1,9.4708695 2.85099804,7.40728778 5.375,6.75493675 L5.375,5.48026316 C5.375,4.17911632 6.40004166,3.10526316 7.6875,3.10526316 L20.8125,3.10526316 C22.0999583,3.10526316 23.125,4.17911632 23.125,5.48026316 L23.125,13.7302632 C23.125,15.0328055 22.1003469,16.1052632 20.8125,16.1052632 L18.734593,16.1052632 Z M7.375,6.52631579 L9.875,6.52631579 C10.5550608,6.52631579 11.2011451,6.70711891 11.6959908,7.04704879 C11.7918581,7.01649155 11.8940032,7 12,7 L21.125,7 L21.125,5.48026316 C21.125,5.26340999 20.9740417,5.10526316 20.8125,5.10526316 L7.6875,5.10526316 C7.52595834,5.10526316 7.375,5.26340999 7.375,5.48026316 L7.375,6.52631579 Z M19.625,10 C20.1772847,10 20.625,10.4477153 20.625,11 C20.625,11.5522847 20.1772847,12 19.625,12 L17,12 C16.4477153,12 16,11.5522847 16,11 C16,10.4477153 16.4477153,10 17,10 L19.625,10 z"/>
</svg>