<svg xmlns="http://www.w3.org/2000/svg" width="24" height="24" viewBox="0 0 24 24">
  <path fill-rule="evenodd" d="M3,7.1535 L3,18.2299286 L11.3076429,18.2299286 L11.3076429,19.6152857 L7.8465,19.6152857 L7.8465,21 L16.1535,21 L16.1535,19.6152857 L12.6923571,19.6152857 L12.6923571,18.2299286 L21,18.2299286 L21,7.1535 L17.5382143,7.1535 L17.5382143,8.53821429 L19.6152857,8.53821429 L19.6152857,16.8458571 L4.38471429,16.8458571 L4.38471429,8.53821429 L6.46178571,8.53821429 L6.46178571,7.1535 L3,7.1535 Z M11.3076429,4.38407143 L14.7694286,4.38407143 C15.1609286,4.38407143 15.4617857,4.68428571 15.4617857,5.07642857 L15.4617857,12 L11.3076429,12 L11.3076429,4.38407143 Z M9.23057143,4.38407143 L9.92292857,4.38407143 L9.92292857,12 L8.53821429,12 L8.53821429,5.07642857 C8.53821429,4.68428571 8.83907143,4.38407143 9.23057143,4.38407143 L9.23057143,4.38407143 Z M9.23057143,3 C8.09207143,3 7.1535,3.93792857 7.1535,5.07642857 L7.1535,12 L5.76942857,12 L5.76942857,13.3840714 L18.2305714,13.3840714 L18.2305714,12 L16.8465,12 L16.8465,5.07642857 C16.8465,3.93792857 15.9079286,3 14.7694286,3 L9.23057143,3 z"/>
</svg>