<svg xmlns="http://www.w3.org/2000/svg" width="24" height="24" viewBox="0 0 24 24">
  <path d="M22,12 C22,6.47714622 17.5223159,2 12,2 C6.47523326,2 2,6.47577095 2,12 C2,17.524229 6.47523326,22 12,22 C17.5223159,22 22,17.5228538 22,12 Z M24,12 C24,18.6274771 18.6268316,24 12,24 C5.37060996,24 0,18.6287448 0,12 C0,5.37125524 5.37060996,0 12,0 C18.6268316,0 24,5.37252293 24,12 Z M16,9.87149591 C16,10.3672228 15.5931041,10.7759861 15.081862,10.7759861 C14.5706198,10.7759861 14.1637239,10.3672228 14.1637239,9.87149591 C14.1637239,9.30372459 13.2139645,8.71198214 12,8.71198214 C10.7860355,8.71198214 9.83627608,9.30372459 9.83627608,9.87149591 C9.83627608,10.4392672 10.7860355,11.0310097 12,11.0310097 C12.0393119,11.0310097 12.0784239,11.0334662 12.080996,11.035366 C14.2240577,11.1191398 16,12.3755616 16,13.9995038 C16,15.442483 14.6897943,16.5905121 12.918138,16.8912669 L12.918138,17.0955098 C12.918138,17.5912367 12.5112421,18 12,18 C11.4887579,18 11.081862,17.5912367 11.081862,17.0955098 L11.081862,16.8912669 C9.31020569,16.5905121 8,15.442483 8,13.9995038 C8,13.503777 8.40689589,13.0950136 8.91813804,13.0950136 C9.42938019,13.0950136 9.83627608,13.503777 9.83627608,13.9995038 C9.83627608,14.5672752 10.7860355,15.1590176 12,15.1590176 C13.2139645,15.1590176 14.1637239,14.5672752 14.1637239,13.9995038 C14.1637239,13.4654257 13.1026103,12.8399901 11.8579948,12.8399901 C11.8180553,12.8399901 11.7783227,12.8374545 11.7755089,12.8354859 C9.67748765,12.7511105 8,11.5055925 8,9.87149591 C8,8.42851678 9.31020569,7.28048761 11.081862,6.97973281 L11.081862,6.9044902 C11.081862,6.40876332 11.4887579,6 12,6 C12.5112421,6 12.918138,6.40876332 12.918138,6.9044902 L12.918138,6.97973281 C14.6897943,7.28048761 16,8.42851678 16,9.87149591 z"/>
</svg>