<svg xmlns="http://www.w3.org/2000/svg" width="24" height="24" viewBox="0 0 24 24">
  <path d="M12,21 C7.02943725,21 3,16.9705627 3,12 C3,7.02943725 7.02943725,3 12,3 C16.9705627,3 21,7.02943725 21,12 C21,16.9705627 16.9705627,21 12,21 Z M12,19.2 C15.9764502,19.2 19.2,15.9764502 19.2,12 C19.2,8.0235498 15.9764502,4.8 12,4.8 C8.0235498,4.8 4.8,8.0235498 4.8,12 C4.8,15.9764502 8.0235498,19.2 12,19.2 Z M12.9,16.5838021 L12.9,17.175 C12.9,17.6720563 12.4970563,18.075 12,18.075 C11.5029437,18.075 11.1,17.6720563 11.1,17.175 L11.1,16.5838021 C9.92520013,16.2040074 9.075,15.1008733 9.075,13.8 L10.875,13.8 C10.875,14.4207437 11.3792563,14.925 12,14.925 C12.6207437,14.925 13.125,14.4207437 13.125,13.8 C13.125,13.1784652 12.6213029,12.675 12,12.675 C10.3851437,12.675 9.075,11.3648563 9.075,9.75 C9.075,8.44828775 9.92502589,7.34559814 11.1,6.96606301 L11.1,6.375 C11.1,5.87794373 11.5029437,5.475 12,5.475 C12.4970563,5.475 12.9,5.87794373 12.9,6.375 L12.9,6.96606301 C14.0749741,7.34559814 14.925,8.44828775 14.925,9.75 L13.125,9.75 C13.125,9.12846524 12.6213029,8.625 12,8.625 C11.3786971,8.625 10.875,9.12846524 10.875,9.75 C10.875,10.3707437 11.3792563,10.875 12,10.875 C13.6152299,10.875 14.925,12.1841671 14.925,13.8 C14.925,15.1008733 14.0747999,16.2040074 12.9,16.5838021 Z"/>
</svg>
