<svg xmlns="http://www.w3.org/2000/svg" width="24" height="24" viewBox="0 0 24 24">
  <path d="M21,10 L17.0426318,10 C16.490347,10 16.0426318,9.55228475 16.0426318,9 C16.0426318,8.44771525 16.490347,8 17.0426318,8 L22,8 C22.5522847,8 23,8.44771525 23,9 L23,22 C23,22.5522847 22.5522847,23 22,23 L2,23 C1.44771525,23 1,22.5522847 1,22 L1,9 C1,8.44771525 1.44771525,8 2,8 L6.9293835,8 C7.48166825,8 7.9293835,8.44771525 7.9293835,9 C7.9293835,9.55228475 7.48166825,10 6.9293835,10 L3,10 L3,21 L21,21 L21,10 Z M12.8110554,14.2995801 L16.2696261,11.8133696 C16.7180675,11.4910053 17.342929,11.593211 17.6652933,12.0416524 C17.9876576,12.4900938 17.8854519,13.1149553 17.4370105,13.4373196 L12.3947477,17.061975 C12.0392911,17.3174967 11.5589549,17.3121139 11.2093137,17.0486907 L6.39831542,13.4240353 C5.95721072,13.0917025 5.86903368,12.4647075 6.20136648,12.0236028 C6.53369928,11.5824981 7.16069426,11.4943211 7.60179895,11.8266539 L10.8110554,14.2445406 L10.8110554,2 C10.8110554,1.44771525 11.2587707,1 11.8110554,1 C12.3633402,1 12.8110554,1.44771525 12.8110554,2 L12.8110554,14.2995801 Z"/>
</svg>
