<svg xmlns="http://www.w3.org/2000/svg" width="24" height="24" viewBox="0 0 24 24">
  <path d="M1,5 C1,4.44771525 1.44771525,4 2,4 L22,4 C22.5522847,4 23,4.44771525 23,5 L23,19 C23,19.5522847 22.5522847,20 22,20 L2,20 C1.44771525,20 1,19.5522847 1,19 L1,5 Z M3,6 L3,18 L21,18 L21,6 L3,6 Z M7,10 C6.44771525,10 6,9.55228475 6,9 C6,8.44771525 6.44771525,8 7,8 L17,8 C17.5522847,8 18,8.44771525 18,9 C18,9.55228475 17.5522847,10 17,10 L7,10 Z M5,12 L7,12 L7,14 L5,14 L5,12 Z M5,15 L7,15 L7,17 L5,17 L5,15 Z M8,12 L10,12 L10,14 L8,14 L8,12 Z M8,15 L10,15 L10,17 L8,17 L8,15 Z M11,12 L13,12 L13,14 L11,14 L11,12 Z M11,15 L13,15 L13,17 L11,17 L11,15 Z M14,12 L16,12 L16,14 L14,14 L14,12 Z M14,15 L16,15 L16,17 L14,17 L14,15 Z M17,12 L19,12 L19,14 L17,14 L17,12 Z M17,15 L19,15 L19,17 L17,17 L17,15 z"/>
</svg>