<svg xmlns="http://www.w3.org/2000/svg" width="24" height="24" viewBox="0 0 24 24">
  <path d="M19,16 L17,16 C16.4477153,16 16,15.5522847 16,15 L16,10 C16,9.44771525 16.4477153,9 17,9 L19,9 L19,5 L5,5 L5,19 L19,19 L19,16 Z M21,16 L21,20 C21,20.5522847 20.5522847,21 20,21 L4,21 C3.44771525,21 3,20.5522847 3,20 L3,4 C3,3.44771525 3.44771525,3 4,3 L20,3 C20.5522847,3 21,3.44771525 21,4 L21,9 L22,9 C22.5522847,9 23,9.44771525 23,10 L23,15 C23,15.5522847 22.5522847,16 22,16 L21,16 Z M18,11 L18,14 L21,14 L21,11 L18,11 z"/>
</svg>