<svg xmlns="http://www.w3.org/2000/svg" width="24" height="24" viewBox="0 0 24 24">
  <path d="M11.2088685,9.97847883 C10.6596716,10.0367985 10.1671821,9.6388638 10.1088625,9.08966687 C10.0505428,8.54046995 10.4484775,8.04798046 10.9976744,7.98966082 C12.5811641,7.82150885 13.9052065,8.25479061 14.8672684,9.29708195 C15.7905157,10.2973218 16.2132629,11.4433612 16.085344,12.6762597 C16.0283479,13.2255955 15.5368187,13.6247158 14.9874828,13.5677196 C14.438147,13.5107235 14.0390268,13.0191944 14.0960229,12.4698585 C14.1620528,11.8334535 13.9459752,11.2476814 13.3976242,10.6536016 C12.8880877,10.1015733 12.1926803,9.8740071 11.2088685,9.97847883 Z M12.3626401,16.0299431 C13.4525391,14.9570141 15.2049743,14.9627248 16.287034,16.0463015 L18.1841459,17.9418548 C19.2721023,19.0313356 19.2721023,20.795933 18.18339,21.8833823 L17.1432927,22.9227108 C15.9088017,24.1598053 13.9712929,24.3535071 12.5120055,23.3891309 C7.83148227,20.2931298 3.70684102,16.167991 0.612118665,11.4878035 C-0.353558018,10.0274556 -0.160530281,8.0936917 1.07689318,6.85611899 L2.11710228,5.81578442 C3.20468367,4.72807186 4.97106317,4.72807186 6.0584779,5.81561778 L7.95587554,7.71235163 C9.03707751,8.79645666 9.04223459,10.5483943 7.97090127,11.6379431 C9.30427207,13.1896402 10.8088243,14.6941862 12.3626401,16.0299431 Z M6.54083861,9.12574053 L4.64434572,7.2299127 C4.33783242,6.92336243 3.83791442,6.92336243 3.53140113,7.2299127 L2.49119202,8.27024727 C1.92645495,8.83505246 1.83847879,9.71640309 2.2803767,10.3846648 C5.22672139,14.8404589 9.15923247,18.7734443 13.6150369,21.7208019 C14.28158,22.1612896 15.1658806,22.072882 15.7285957,21.5089815 L16.7698479,20.4684976 C17.0768682,20.1618334 17.0768682,19.663435 16.7697283,19.3558638 L14.8726164,17.4603105 C14.5653126,17.1525762 14.06788,17.1525762 13.7596234,17.4612634 L13.1278126,18.0922567 C12.7642569,18.4553419 12.1847072,18.4838246 11.7873009,18.1581377 C9.65576752,16.4112793 7.58514252,14.3406409 5.84232704,12.2124112 C5.5167381,11.81482 5.54550516,11.2351744 5.90886108,10.8717747 L6.54040031,10.2401593 C6.84747809,9.93245442 6.84741782,9.43314455 6.54083861,9.12574053 Z M12.3701322,2.05523547 C11.8188932,2.02126532 11.3995639,1.54685954 11.4335341,0.995620507 C11.4675042,0.444381472 11.94191,0.0250521897 12.493149,0.0590223404 C19.022079,0.461368187 24.0036621,5.94796516 24.0036621,12 C24.0036621,12.5522847 23.5559469,13 23.0036621,13 C22.4513774,13 22.0036621,12.5522847 22.0036621,12 C22.0036621,6.98980513 17.8287181,2.39162128 12.3701322,2.05523547 Z M11.2646093,6.13191878 C10.7195599,6.22102317 10.2054766,5.85140672 10.1163722,5.30635732 C10.0272678,4.76130791 10.3968843,4.24722468 10.9419337,4.15812029 C16.0744598,3.31905754 20.0780954,7.10783476 20.0780954,11.934743 C20.0780954,12.4870277 19.6303801,12.934743 19.0780954,12.934743 C18.5258106,12.934743 18.0780954,12.4870277 18.0780954,11.934743 C18.0780954,8.29308616 15.1271202,5.50047747 11.2646093,6.13191878 Z"/>
</svg>
