<svg xmlns="http://www.w3.org/2000/svg" width="24" height="24" viewBox="0 0 24 24">
  <path d="M19.46875,11.1 C20.038825,11.1 20.5,11.6031 20.5,12.225 C20.5,12.8469 20.038825,13.35 19.46875,13.35 L17.40625,13.35 C16.836175,13.35 16.375,12.8469 16.375,12.225 C16.375,11.6031 16.836175,11.1 17.40625,11.1 L19.46875,11.1 Z M16.2720455,8.9251575 C15.7786955,9.2356575 15.1483955,9.0520575 14.8637705,8.5129575 C14.5783205,7.9747575 14.7474455,7.2871575 15.2407955,6.9757575 L17.0277455,5.8507575 C17.5210955,5.5402575 18.1513955,5.7247575 18.4351955,6.2629575 C18.7214705,6.8020575 18.5523455,7.4896575 18.0589955,7.8001575 L16.2720455,8.9251575 Z M18.0580138,16.8757575 C18.5513638,17.1871575 18.7204888,17.8747575 18.4358638,18.4129575 C18.1504138,18.9511575 17.5201138,19.1356575 17.0267638,18.8251575 L15.2398138,17.7001575 C14.7464638,17.3887575 14.5789888,16.7011575 14.8636138,16.1629575 C15.1482388,15.6247575 15.7777138,15.4402575 16.2710638,15.7507575 L18.0580138,16.8757575 Z M11.21875,3 C11.788825,3 12.25,3.5031 12.25,4.125 L12.25,8.625 C12.25,9.2469 11.788825,9.75 11.21875,9.75 L10.1875,9.75 L10.1875,14.25 L11.21875,14.25 C11.788825,14.25 12.25,14.7531 12.25,15.375 L12.25,19.875 C12.25,20.4969 11.788825,21 11.21875,21 L7.09375,21 L7.0921,21 C6.97,21 6.850375,20.9667 6.7357,20.9208 C6.7126,20.9118 6.6895,20.9055 6.667225,20.892 C6.563275,20.8416 6.467575,20.7723 6.383425,20.6832 C6.3661,20.6661 6.353725,20.6463 6.337225,20.6274 C6.3034,20.586 6.264625,20.5473 6.23575,20.4987 C6.144175,20.3493 4,17.625 4,12 C4,6.375 6.259675,3.4437 6.3628,3.3321 C6.457675,3.2259 6.573175,3.144 6.700225,3.0864 C6.825625,3.0297 6.959275,3 7.09375,3 L11.21875,3 Z M10.1875,7.5 L10.1875,5.25 L7.578025,5.25 C7.092925,5.9529 6.0625,7.5 6.0625,12 C6.0625,16.5 7.1614,17.7141 7.6828,18.75 L10.1875,18.75 L10.1875,16.5 L9.15625,16.5 C8.586175,16.5 8.125,15.9969 8.125,15.375 L8.125,8.625 C8.125,8.0031 8.586175,7.5 9.15625,7.5 L10.1875,7.5 Z"/>
</svg>
