<svg width="24" height="24" viewBox="0 0 24 24" xmlns="http://www.w3.org/2000/svg">
<path d="m 12.5338,15.4839 -0.075,0.05 -4.24259,-4.2427 0.04998,-0.075 C 9.05943,10.0264 8.90255,8.44202 7.89136,7.43082 L 6.09489,5.63436 c -1.17157,-1.17158 -3.07107,-1.17158 -4.24264,0 L 1.30634,6.18027 c -1.3318849,1.33188 -1.554156,3.41229 -0.468092,4.95123 1.413312,2.0026 3.434732,4.7018 5.256642,6.5237 1.82191,1.8219 4.52101,3.8433 6.52371,5.2566 1.5389,1.0861 3.6193,0.8638 4.9512,-0.4681 l 0.5459,-0.5459 c 1.1716,-1.1716 1.1716,-3.0711 0,-4.2426 L 16.3192,15.8587 C 15.308,14.8475 13.7237,14.6906 12.5338,15.4839 Z m -1.4892,1.4642 c 0.6742,0.6741 1.7304,0.7787 2.5236,0.2499 l 0.075,-0.05 c 0.3966,-0.2644 0.9248,-0.2121 1.2618,0.1249 l 1.7965,1.7965 c 0.3905,0.3905 0.3905,1.0237 0,1.4142 l -0.5459,0.5459 C 15.4811,21.704 14.4802,21.7777 13.7718,21.2778 11.7795,19.8718 9.20131,17.9332 7.5091,16.241 5.81689,14.5487 3.87829,11.9705 2.4723,9.97829 1.97232,9.26983 2.04604,8.26899 2.72055,7.59448 L 3.26646,7.04857 c 0.39053,-0.39052 1.02369,-0.39052 1.41421,0 L 6.47714,8.84504 C 6.81421,9.1821 6.8665,9.71022 6.60209,10.1068 l -0.04998,0.075 C 6.02328,10.9751 6.12787,12.0313 6.802,12.7054 ZM12 0C11.4477 0 11 0.447715 11 1C11 1.55228 11.4477 2 12 2C17.5228 2 22 6.47715 22 12C22 12.5523 22.4477 13 23 13C23.5523 13 24 12.5523 24 12C24 5.37258 18.6274 0 12 0Z M11 5C11 4.44772 11.4477 4 12 4C16.4183 4 20 7.58172 20 12C20 12.5523 19.5523 13 19 13C18.4477 13 18 12.5523 18 12C18 8.68629 15.3137 6 12 6C11.4477 6 11 5.55228 11 5Z M11 9C11 8.44771 11.4477 8 12 8C14.2091 8 16 9.79086 16 12C16 12.5523 15.5523 13 15 13C14.4477 13 14 12.5523 14 12C14 10.8954 13.1046 10 12 10C11.4477 10 11 9.55229 11 9Z"/>
</svg>