<svg xmlns="http://www.w3.org/2000/svg" width="24" height="24" viewBox="0 0 24 24">
  <path d="M20.875,6.25 L17.9662,6.25 L16.0456,4.3294 C15.8341,4.1188 15.5488,4 15.25,4 L10.75,4 C10.4512,4 10.1659,4.1188 9.9544,4.3294 L8.0338,6.25 L5.125,6.25 C4.5031,6.25 4,6.7531 4,7.375 L4,19.75 C4,20.3719 4.5031,20.875 5.125,20.875 L20.875,20.875 C21.4969,20.875 22,20.3719 22,19.75 L22,7.375 C22,6.7531 21.4969,6.25 20.875,6.25 L20.875,6.25 Z M19.75,18.625 L6.25,18.625 L6.25,8.5 L8.5,8.5 C8.7988,8.5 9.0841,8.3812 9.2956,8.1706 L11.2162,6.25 L14.7838,6.25 L16.7044,8.1706 C16.9159,8.3812 17.2012,8.5 17.5,8.5 L19.75,8.5 L19.75,18.625 Z M13,8.5 C10.5187,8.5 8.5,10.5196 8.5,13 C8.5,15.4813 10.5187,17.5 13,17.5 C15.4813,17.5 17.5,15.4813 17.5,13 C17.5,10.5196 15.4813,8.5 13,8.5 Z M13,15.25 C11.7598,15.25 10.75,14.2402 10.75,13 C10.75,11.7598 11.7598,10.75 13,10.75 C14.2402,10.75 15.25,11.7598 15.25,13 C15.25,14.2402 14.2402,15.25 13,15.25 Z"/>
</svg>
