<svg xmlns="http://www.w3.org/2000/svg" width="24" height="24" viewBox="0 0 24 24">
  <path d="M20.8895661,4.57998136 C22.0937351,4.57998136 23,5.64696814 23,6.88707249 L23,20.6929089 C23,21.9330132 22.0937351,23 20.8895661,23 L3.11104339,23 C1.90695369,23 1,21.933011 1,20.6929089 L1,6.88707249 C1,5.6469704 1.90695369,4.57998136 3.11104339,4.57998136 L4.16471405,4.57998136 L4.53068931,2.8837157 C4.71171658,1.81761189 5.55831652,1 6.60568016,1 L17.3943198,1 C18.4421067,1 19.2888639,1.81744128 19.4616303,2.84064169 L19.8360693,4.57998136 L20.8895661,4.57998136 Z M6.01480577,5.48780704 C5.91031715,6.0939572 5.40758455,6.57998136 4.75719161,6.57998136 L3.11104339,6.57998136 C3.0901209,6.57998136 3,6.68600443 3,6.88707249 L3,20.6929089 C3,20.8939769 3.0901209,21 3.11104339,21 L20.8895661,21 C20.9101773,21 21,20.8942477 21,20.6929089 L21,6.88707249 C21,6.68573364 20.9101773,6.57998136 20.8895661,6.57998136 L19.2434178,6.57998136 C18.5860535,6.57998136 18.0795319,6.0834822 17.9866032,5.4919674 L17.4981442,3.21852852 C17.4718092,3.06343674 17.4060974,3 17.3943198,3 L6.60568016,3 C6.59451812,3 6.52879397,3.06347371 6.49417535,3.26160252 L6.01480577,5.48780704 Z M11.9997214,7 C14.7577881,7 17,9.24221194 17,12.0002786 C17,14.7578959 14.7576802,17 11.9997214,17 C9.24221194,17 7,14.7577881 7,12.0002786 C7,9.24231977 9.24210412,7 11.9997214,7 Z M11.9997214,9 C10.3467167,9 9,10.3468462 9,12.0002786 C9,13.6532186 10.3467814,15 11.9997214,15 C13.6531538,15 15,13.6532833 15,12.0002786 C15,10.3467814 13.6532186,9 11.9997214,9 Z"/>
</svg>
