<svg width="24" height="24" viewBox="0 0 24 24" xmlns="http://www.w3.org/2000/svg">
<path d="m 14,2 c 0,-0.55228 0.4477,-1 1,-1 0.5523,0 1,0.44772 1,1 v 20 c 0,0.5523 -0.4477,1 -1,1 -0.4635,0 -0.8533,-0.3153 -0.9667,-0.7432 L 11.5587,20.8281 C 10.8949,22.1179 9.55044,23 8,23 5.79086,23 4,21.2091 4,19 V 16.4641 L 3,15.8868 V 16 C 3,16.5523 2.55228,17 2,17 1.44772,17 1,16.5523 1,16 V 9 C 1,8.44772 1.44772,8 2,8 2.55228,8 3,8.44772 3,9 V 9.0782 L 14,2.72734 Z M 6,17.6188 V 19 c 0,1.1046 0.89543,2 2,2 0.8102,0 1.50788,-0.4818 1.8222,-1.1744 z M 3,11.3876 v 2.1898 l 11,6.3508 V 5.03675 Z M21.5213 1.70711C21.1308 1.31658 20.4977 1.31658 20.1071 1.70711L17.2787 4.53554C16.8882 4.92606 16.8882 5.55922 17.2787 5.94975C17.6692 6.34027 18.3024 6.34027 18.6929 5.94975L21.5213 3.12132C21.9119 2.7308 21.9119 2.09763 21.5213 1.70711Z M24 11.8284C24 11.2761 23.5523 10.8284 23 10.8284H19C18.4477 10.8284 18 11.2761 18 11.8284C18 12.3807 18.4477 12.8284 19 12.8284H23C23.5523 12.8284 24 12.3807 24 11.8284Z M21.5213 20.1213C21.9118 20.5119 21.9118 21.145 21.5213 21.5355C21.1308 21.9261 20.4976 21.9261 20.1071 21.5355L17.2787 18.7071C16.8881 18.3166 16.8881 17.6834 17.2787 17.2929C17.6692 16.9024 18.3024 16.9024 18.6929 17.2929L21.5213 20.1213Z" />
</svg>