<svg xmlns="http://www.w3.org/2000/svg" width="24" height="24" viewBox="0 0 24 24">
  <path d="M13.44,15.9990848 L13.44,8.00091523 L1.92,8.00091523 L1.92,15.9990848 L13.44,15.9990848 Z M15.36,16.2298012 C15.36,17.2522588 14.4904312,17.9986271 13.504,17.9986271 L1.856,17.9986271 C0.869568783,17.9986271 0,17.2522588 0,16.2298012 L0,7.77019881 C0,6.74842602 0.869766838,6.00137285 1.856,6.00137285 L13.504,6.00137285 C14.4902332,6.00137285 15.36,6.74842602 15.36,7.77019881 L15.36,16.2298012 Z M22.08,8.66297721 L18.24,10.783704 L18.24,13.216296 L22.08,15.3370228 L22.08,8.66297721 Z M22.5902375,17.8821159 L16.8302375,14.7010258 C16.5162961,14.5276446 16.32,14.187841 16.32,13.8177658 L16.32,10.1822342 C16.32,9.81215899 16.5162961,9.47235545 16.8302375,9.29897424 L22.5902375,6.11788408 C23.2296218,5.76476965 24,6.2474355 24,7.00114404 L24,16.998856 C24,17.7525645 23.2296218,18.2352303 22.5902375,17.8821159 Z"/>
</svg>
