<svg xmlns="http://www.w3.org/2000/svg" width="24" height="24" viewBox="0 0 24 24">
  <path d="M11.8888889,15.2222222 C13.7306667,15.2222222 15.2222222,13.7297778 15.2222222,11.8888889 L15.2222222,6.33333333 C15.2222222,4.49155556 13.7306667,3 11.8888889,3 C10.0471111,3 8.55555556,4.49155556 8.55555556,6.33333333 L8.55555556,11.8888889 C8.55555556,13.7297778 10.0471111,15.2222222 11.8888889,15.2222222 L11.8888889,15.2222222 Z M10.7777778,6.33333333 C10.7777778,5.71911111 11.2746667,5.22222222 11.8888889,5.22222222 C12.5031111,5.22222222 13,5.71911111 13,6.33333333 L13,11.8888889 C13,12.5031111 12.5031111,13 11.8888889,13 C11.2746667,13 10.7777778,12.5031111 10.7777778,11.8888889 L10.7777778,6.33333333 Z M18.3333333,12.1111111 C18.3333333,15.4124444 15.9288889,18.1466667 12.7777778,18.6782222 L12.7777778,19.8888889 C12.7777778,20.5031111 12.2808889,21 11.6666667,21 C11.0524444,21 10.5555556,20.5031111 10.5555556,19.8888889 L10.5555556,18.6782222 C7.40444444,18.1466667 5,15.4124444 5,12.1111111 C5,11.4968889 5.49688889,11 6.11111111,11 C6.72533333,11 7.22222222,11.4968889 7.22222222,12.1111111 C7.22222222,14.5653333 9.21244444,16.5555556 11.6666667,16.5555556 C14.1208889,16.5555556 16.1111111,14.5653333 16.1111111,12.1111111 C16.1111111,11.4968889 16.608,11 17.2222222,11 C17.8364444,11 18.3333333,11.4968889 18.3333333,12.1111111 Z"/>
</svg>
