<svg xmlns="http://www.w3.org/2000/svg" width="24" height="24" viewBox="0 0 24 24">
  <path d="M6.14343162,8 L12.2628459,1.32427537 C12.8791127,0.651984241 14,1.08799111 14,2 L14,22 C14,22.9120089 12.8791127,23.3480158 12.2628459,22.6757246 L6.14343162,16 L3.375,16 C2.04335327,16 1,14.8617964 1,13.5 L1,10.5 C1,9.13820356 2.04335327,8 3.375,8 L6.14343162,8 Z M12,4.57080187 L7.32048747,9.67572463 C7.13107755,9.88235364 6.86363971,10 6.58333333,10 L3.375,10 C3.18864673,10 3,10.2057964 3,10.5 L3,13.5 C3,13.7942036 3.18864673,14 3.375,14 L6.58333333,14 C6.86363971,14 7.13107755,14.1176464 7.32048747,14.3242754 L12,19.4291981 L12,4.57080187 Z M17.7071068,7.53553391 C17.3165825,7.9260582 16.6834175,7.9260582 16.2928932,7.53553391 C15.9023689,7.14500961 15.9023689,6.51184464 16.2928932,6.12132034 L19.1213203,3.29289322 C19.5118446,2.90236893 20.1450096,2.90236893 20.5355339,3.29289322 C20.9260582,3.68341751 20.9260582,4.31658249 20.5355339,4.70710678 L17.7071068,7.53553391 Z M16.2928932,17.7071068 C15.9023689,17.3165825 15.9023689,16.6834175 16.2928932,16.2928932 C16.6834175,15.9023689 17.3165825,15.9023689 17.7071068,16.2928932 L20.5355339,19.1213203 C20.9260582,19.5118446 20.9260582,20.1450096 20.5355339,20.5355339 C20.1450096,20.9260582 19.5118446,20.9260582 19.1213203,20.5355339 L16.2928932,17.7071068 Z M19,13.5 C18.4477153,13.5 18,13.0522847 18,12.5 C18,11.9477153 18.4477153,11.5 19,11.5 L23,11.5 C23.5522847,11.5 24,11.9477153 24,12.5 C24,13.0522847 23.5522847,13.5 23,13.5 L19,13.5 Z"/>
</svg>
