<svg xmlns="http://www.w3.org/2000/svg" width="24" height="24" viewBox="0 0 24 24">
  <path d="M19.8886658,11.1317137 C20.5030619,11.1317137 21,11.6286517 21,12.2430479 C21,12.8583476 20.5030619,13.3552856 19.8886658,13.3552856 L17.6650939,13.3552856 C17.0497942,13.3552856 16.5528561,12.8583476 16.5528561,12.2430479 C16.5528561,11.6286517 17.0497942,11.1317137 17.6650939,11.1317137 L19.8886658,11.1317137 Z M16.4144348,7.99476952 C15.8822593,8.3019676 15.2028094,8.1194558 14.8956114,7.58728032 C14.5875098,7.05510483 14.7700216,6.37565498 15.302197,6.0684569 L17.2285097,4.95621918 C17.7606851,4.64902111 18.440135,4.8315329 18.7473331,5.36370839 C19.0554347,5.89588387 18.8729229,6.57533372 18.3407474,6.88343532 L16.4144348,7.99476952 Z M18.3399443,16.9100678 C18.8721198,17.2172659 19.0546316,17.8976192 18.7474335,18.4297947 C18.4393319,18.9610667 17.7598821,19.144482 17.2286101,18.8363804 L15.301394,17.7250462 C14.7692185,17.4169446 14.5885138,16.7374947 14.8948083,16.2053193 C15.2029099,15.6731438 15.8814562,15.4915355 16.4136317,15.7987336 L18.3399443,16.9100678 Z M13.4329887,3.08523669 C13.8486096,3.2569062 14.1196667,3.66258836 14.1196667,4.11254319 L14.1196667,19.6802573 C14.1196667,20.1302121 13.8486096,20.5358943 13.4329887,20.7075638 C13.295653,20.7653893 13.1510892,20.792495 13.007429,20.792495 C12.7183014,20.792495 12.4345949,20.6795545 12.2213633,20.4663229 L8.099488,16.3444476 L4.1113342,16.3444476 C3.49693806,16.3444476 3,15.8475096 3,15.2322099 L3,8.56059057 C3,7.9452909 3.49693806,7.44835285 4.1113342,7.44835285 L8.099488,7.44835285 L12.2213633,3.32647753 C12.5403072,3.00843717 13.0182713,2.91176013 13.4329887,3.08523669 Z M11.8951912,16.9958882 L11.8951912,6.79691223 L9.34544724,9.34665623 C9.13763678,9.55537021 8.85483385,9.6728283 8.55938159,9.6728283 L5.22357193,9.6728283 L5.22357193,14.1199722 L8.55938159,14.1199722 C8.85483385,14.1199722 9.13763678,14.2374302 9.34544724,14.4461442 L11.8951912,16.9958882 Z"/>
</svg>
