<svg width="24" height="25" viewBox="0 0 24 25" xmlns="http://www.w3.org/2000/svg">
<path d="M7 24.0025C6.7011 24.0025 6.43283 23.8713 6.24958 23.6635L1.29292 18.7125C0.902395 18.322 0.902343 17.683 1.29287 17.2925C1.68339 16.902 2.32234 16.902 2.71287 17.2925L6 20.5834L6 1.00247C6 0.450187 6.44771 0.00247197 7 0.00247192C7.55228 0.00247188 8 0.450188 8 1.00247L8 20.5884L11.292 17.2925C11.6826 16.902 12.3215 16.9019 12.7121 17.2925C13.1026 17.683 13.1026 18.3219 12.712 18.7125L7.70996 23.7088C7.58844 23.8303 7.44342 23.914 7.28953 23.9599C7.19788 23.9876 7.10068 24.0025 7 24.0025ZM17.0049 0.00247245C17.3038 0.0024725 17.5721 0.13361 17.7553 0.34149L22.712 5.29244C23.1025 5.68297 23.1025 6.32193 22.712 6.71245C22.3215 7.10298 21.6825 7.10297 21.292 6.71244L18.0049 3.42152L18.0049 23.0025C18.0049 23.5548 17.5572 24.0025 17.0049 24.0025C16.4526 24.0025 16.0049 23.5548 16.0049 23.0025L16.0049 3.41658L12.7128 6.71242C12.3223 7.10294 11.6834 7.103 11.2928 6.71247C10.9023 6.32195 10.9023 5.683 11.2928 5.29247L16.2949 0.296141C16.4165 0.17462 16.5615 0.0909199 16.7154 0.0450273C16.807 0.0173497 16.9042 0.00247243 17.0049 0.00247245Z"/>
</svg>