<?xml version="1.0" encoding="UTF-8"?>
<svg width="24px" height="24px" viewBox="0 0 24 24" version="1.1" xmlns="http://www.w3.org/2000/svg" xmlns:xlink="http://www.w3.org/1999/xlink">
    <!-- Generator: Sketch 52.2 (67145) - http://www.bohemiancoding.com/sketch -->
    <title>icons/actions-add</title>
    <desc>Created with Sketch.</desc>
    <g id="icons/actions-add" stroke="none" stroke-width="1"  >
        <path d="M18.84,12 C18.84,8.2281 15.771,5.16 12,5.16 C8.229,5.16 5.16,8.2281 5.16,12 C5.16,15.7719 8.229,18.84 12,18.84 C15.771,18.84 18.84,15.7719 18.84,12 Z M12,3 C16.9626,3 21,7.0374 21,12 C21,16.9626 16.9626,21 12,21 C7.0374,21 3,16.9626 3,12 C3,7.0374 7.0374,3 12,3 Z M15.06,10.74 L12.9,10.74 L12.9,8.58 C12.9,7.9833 12.4167,7.5 11.82,7.5 C11.2233,7.5 10.74,7.9833 10.74,8.58 L10.74,10.74 L8.58,10.74 C7.9833,10.74 7.5,11.2233 7.5,11.82 C7.5,12.4167 7.9833,12.9 8.58,12.9 L10.74,12.9 L10.74,15.06 C10.74,15.6567 11.2233,16.14 11.82,16.14 C12.4167,16.14 12.9,15.6567 12.9,15.06 L12.9,12.9 L15.06,12.9 C15.6567,12.9 16.14,12.4167 16.14,11.82 C16.14,11.2233 15.6567,10.74 15.06,10.74 Z" id="-icons/add"  fill-rule="nonzero"></path>
    </g>
</svg>