<?xml version="1.0" encoding="UTF-8"?>
<svg width="40px" height="40px" viewBox="0 0 40 40" version="1.1" xmlns="http://www.w3.org/2000/svg" xmlns:xlink="http://www.w3.org/1999/xlink">
    <!-- Generator: Sketch 52.2 (67145) - http://www.bohemiancoding.com/sketch -->
    <title>actions-filter-2</title>
    <desc>Created with Sketch.</desc>
    <g id="actions-filter-2" stroke="none" stroke-width="1" >
        <g id="Group" transform="translate(4.000000, 4.000000)">
            <path d="M1.25776667,3.12988913 C1.02993759,2.79713374 0.908024395,2.40327687 0.908024395,2 C0.908024395,0.8954305 1.8034549,9.30872003e-15 2.90802439,7.54951657e-15 L30.4099583,6.21724894e-15 C30.8131859,6.29132063e-15 31.2069969,0.121883396 31.539728,0.34966052 C32.4511854,0.973615102 32.6842524,2.21831238 32.0602978,3.12976971 L23.4137865,15.7603782 C22.8443437,16.5922061 22.5396352,17.5767337 22.5396352,18.5848025 L22.5396352,29.2267556 C22.5396352,30.3313251 21.6442047,31.2267556 20.5396352,31.2267556 L16.658825,31.2267556 L12.7798255,31.2267556 C11.675256,31.2267556 10.7798255,30.3313251 10.7798255,29.2267556 L10.7798255,18.5850007 C10.7798255,17.5768086 10.4750425,16.5921664 9.90546986,15.7602779 L1.25776667,3.12988913 Z M14.4707939,28.2177426 C14.4707939,28.4933809 14.6938654,28.7170292 14.9695027,28.717741 L18.6577825,28.7272649 C18.6582129,28.727266 18.6586433,28.7272666 18.6590736,28.7272666 C18.935216,28.7272666 19.1590736,28.503409 19.1590736,28.2272666 L19.1590736,17.2535558 C19.1590736,16.2963126 19.4338558,15.3591875 19.9507751,14.5535144 L26.4437719,4.43349626 C26.4954638,4.35292895 26.5229421,4.25921644 26.5229421,4.16349211 C26.5229421,3.88734974 26.2990844,3.66349211 26.0229421,3.66349211 L7.32073105,3.66349211 C7.22200117,3.66349211 7.12548112,3.69272141 7.04333849,3.74749528 C6.81358978,3.90069496 6.75153453,4.21113597 6.90473422,4.44088468 L13.6307622,14.5276956 C14.1785009,15.3491219 14.4707939,16.3143224 14.4707939,17.3016212 L14.4707939,28.2177426 Z" id="Combined-Shape"></path>
        </g>
    </g>
</svg>