<?xml version="1.0" encoding="UTF-8"?>
<svg width="24px" height="24px" viewBox="0 0 24 24" version="1.1" xmlns="http://www.w3.org/2000/svg" xmlns:xlink="http://www.w3.org/1999/xlink">
    <!-- Generator: Sketch 52.2 (67145) - http://www.bohemiancoding.com/sketch -->
    <title>icons/actions-download</title>
    <desc>Created with Sketch.</desc>
    <g id="icons/actions-download" stroke="none" stroke-width="1"  >
        <path d="M19.3992964,15.3131047 C20.057168,15.3131047 20.5901495,15.8460862 20.5901495,16.5039578 L20.5901495,17.8258575 C20.5901495,19.5769569 19.1662269,21 17.416007,21 L6.17326297,21 C4.4230431,21 3,19.5769569 3,17.8258575 L3,16.5039578 C3,15.8460862 3.53210202,15.3131047 4.18997361,15.3131047 C4.84784521,15.3131047 5.37994723,15.8460862 5.37994723,16.5039578 L5.37994723,17.8258575 C5.37994723,18.2638522 5.73614776,18.6191733 6.17326297,18.6191733 L17.416007,18.6191733 C17.8531223,18.6191733 18.2093228,18.2638522 18.2093228,17.8258575 L18.2093228,16.5039578 C18.2093228,15.8460862 18.7414248,15.3131047 19.3992964,15.3131047 Z M10.824978,16.8575198 L5.98680739,12.0193492 C5.52242744,11.5549692 5.52242744,10.8012313 5.98680739,10.3359719 C6.45206684,9.87159191 7.20492524,9.87159191 7.6701847,10.3359719 L10.4775726,13.1433597 L10.4775726,4.18997361 C10.4775726,3.53210202 11.0105541,3 11.6675462,3 C12.3262973,3 12.8583993,3.53210202 12.8583993,4.18997361 L12.8583993,13.1433597 L15.6657872,10.3359719 C16.1301671,9.87159191 16.883905,9.87159191 17.3491645,10.3359719 C17.8135444,10.8012313 17.8135444,11.5549692 17.3491645,12.0193492 L12.5109938,16.8575198 C12.4555849,16.9129288 12.3948989,16.9630607 12.3298153,17.0070361 C12.3175022,17.0149516 12.3034301,17.0202287 12.291117,17.0272647 C12.2383465,17.060686 12.1838171,17.0923483 12.1257696,17.116095 C12.1037819,17.1257696 12.0791557,17.1301671 12.0562885,17.1372032 C12.0061566,17.1547933 11.9569041,17.173263 11.9032542,17.1846966 C11.826737,17.1996482 11.7475814,17.2075638 11.6675462,17.2075638 C11.5883905,17.2075638 11.5101143,17.1996482 11.4327177,17.1846966 C11.3799472,17.173263 11.3298153,17.1547933 11.2796834,17.1372032 C11.2568162,17.1301671 11.2330695,17.1257696 11.2102023,17.116095 C11.1530343,17.0923483 11.0985048,17.060686 11.0448549,17.0272647 C11.0325418,17.0202287 11.0184697,17.0149516 11.0070361,17.0070361 C10.941073,16.9630607 10.880387,16.9129288 10.824978,16.8575198 Z" id="icons/download"  fill-rule="nonzero"></path>
    </g>
</svg>