<?xml version="1.0" encoding="UTF-8"?>
<svg width="24px" height="24px" viewBox="0 0 24 24" version="1.1" xmlns="http://www.w3.org/2000/svg" xmlns:xlink="http://www.w3.org/1999/xlink">
    <!-- Generator: Sketch 52.2 (67145) - http://www.bohemiancoding.com/sketch -->
    <title>icons/actions-upload</title>
    <desc>Created with Sketch.</desc>
    <g id="icons/actions-upload" stroke="none" stroke-width="1"  >
        <path d="M19.5045611,15.3589995 C20.1401667,15.3589995 20.6557136,15.8745463 20.6557136,16.5110348 L20.6557136,17.8458068 C20.6557136,19.5848946 19.2406081,21 17.5015204,21 L6.15419323,21 C4.41510544,21 3,19.5848946 3,17.8458068 L3,16.5110348 C3,15.8745463 3.51554684,15.3589995 4.15115253,15.3589995 C4.787641,15.3589995 5.30318784,15.8745463 5.30318784,16.5110348 L5.30318784,17.8458068 C5.30318784,18.3154487 5.68455125,18.6968122 6.15419323,18.6968122 L17.5015204,18.6968122 C17.9711623,18.6968122 18.3525257,18.3154487 18.3525257,17.8458068 L18.3525257,16.5110348 C18.3525257,15.8745463 18.8680726,15.3589995 19.5045611,15.3589995 Z M7.61410005,9.85041687 C7.16387935,10.2997548 6.43558117,10.2997548 5.98536047,9.85041687 C5.53602256,9.40019617 5.53602256,8.67189799 5.98536047,8.22167729 L10.8698136,3.3389897 C10.9766307,3.23128985 11.1055174,3.14565964 11.2476459,3.08739578 C11.2529426,3.08474743 11.2582393,3.08386464 11.2644188,3.08209907 C11.3950711,3.03001471 11.5363168,3 11.6846248,3 C11.8338156,3 11.9750613,3.03001471 12.1057136,3.08209907 C12.1110103,3.08386464 12.1171898,3.08474743 12.1224865,3.08739578 C12.264615,3.14565964 12.3935017,3.23128985 12.5003188,3.3389897 L17.3838892,8.22167729 C17.8341099,8.67189799 17.8341099,9.40019617 17.3838892,9.85041687 C17.1596616,10.0755272 16.8648112,10.187641 16.5699608,10.187641 C16.2759931,10.187641 15.9811427,10.0755272 15.7560324,9.85041687 L12.8366601,6.93104463 L12.8366601,16.0899461 C12.8366601,16.7264345 12.3211133,17.2419814 11.6846248,17.2419814 C11.0490191,17.2419814 10.5334723,16.7264345 10.5334723,16.0899461 L10.5334723,6.93104463 L7.61410005,9.85041687 Z" id="icons/upload"  fill-rule="nonzero"></path>
    </g>
</svg>