<?xml version="1.0" encoding="UTF-8"?>
<svg width="24px" height="24px" viewBox="0 0 24 24" version="1.1" xmlns="http://www.w3.org/2000/svg" xmlns:xlink="http://www.w3.org/1999/xlink">
    <!-- Generator: Sketch 52.2 (67145) - http://www.bohemiancoding.com/sketch -->
    <title>icons/batchstatus-open</title>
    <desc>Created with Sketch.</desc>
    <g id="icons/batchstatus-open" stroke="none" stroke-width="1"  >
        <path d="M19.3059406,12.3085434 C19.325095,11.8409416 19.7196889,11.4774031 20.1872907,11.4965575 C20.6548925,11.515712 21.018431,11.9103059 20.9992765,12.3779077 C20.8021027,17.1913587 16.8363958,21.0067833 12.0033916,21.0067833 C7.03123916,21.0067833 3,16.9755441 3,12.0033916 C3,7.03123916 7.03123916,3 12.0033916,3 C12.4713856,3 12.8507697,3.37938407 12.8507697,3.84737804 C12.8507697,4.315372 12.4713856,4.69475607 12.0033916,4.69475607 C7.96722709,4.69475607 4.69475607,7.96722709 4.69475607,12.0033916 C4.69475607,16.0395562 7.96722709,19.3120272 12.0033916,19.3120272 C15.9265227,19.3120272 19.1459357,16.2146153 19.3059406,12.3085434 Z" id="Stroke-8"  fill-rule="nonzero"></path>
    </g>
</svg>