<?xml version="1.0" encoding="UTF-8"?>
<svg width="24px" height="24px" viewBox="0 0 24 24" version="1.1" xmlns="http://www.w3.org/2000/svg" xmlns:xlink="http://www.w3.org/1999/xlink">
    <!-- Generator: Sketch 52.2 (67145) - http://www.bohemiancoding.com/sketch -->
    <title>icons/batchstatus-settle</title>
    <desc>Created with Sketch.</desc>
    <g id="icons/batchstatus-settle" stroke="none" stroke-width="1"  >
        <path d="M19.299798,12.3050368 C19.3189452,11.8376111 19.7133905,11.4742096 20.1808161,11.4933568 C20.6482418,11.512504 21.0116433,11.9069493 20.9924961,12.374375 C20.7953965,17.1860127 16.8311835,21 12,21 C7.02972056,21 3,16.9702794 3,12 C3,7.02972056 7.02972056,3 12,3 C12.4678177,3 12.8470588,3.37924115 12.8470588,3.84705882 C12.8470588,4.31487649 12.4678177,4.69411765 12,4.69411765 C7.96535591,4.69411765 4.69411765,7.96535591 4.69411765,12 C4.69411765,16.0346441 7.96535591,19.3058824 12,19.3058824 C15.9216532,19.3058824 19.1398535,16.2096373 19.299798,12.3050368 Z M12.1599643,16.3323918 C11.915251,16.3323918 11.6773988,16.2416725 11.4936733,16.0770057 L6.71680863,11.7674596 C6.30895313,11.4000084 6.27617222,10.7710724 6.64438569,10.3632169 C7.01183682,9.95612374 7.64077287,9.92258048 8.04862837,10.290794 L12.0463746,13.896694 L19.8672898,4.21717754 C20.2126328,3.78950102 20.8385195,3.72241451 21.266196,4.06851992 C21.6931102,4.41386299 21.7594344,5.03974966 21.4140913,5.46742618 L12.9337462,15.963416 C12.7622182,16.1753484 12.5098814,16.3079967 12.238486,16.3301048 C12.2118039,16.3316295 12.1858841,16.3323918 12.1599643,16.3323918 Z" id="Combined-Shape"  fill-rule="nonzero"></path>
    </g>
</svg>