<?xml version="1.0" encoding="UTF-8"?>
<svg width="24px" height="24px" viewBox="0 0 24 24" version="1.1" xmlns="http://www.w3.org/2000/svg" xmlns:xlink="http://www.w3.org/1999/xlink">
    <!-- Generator: Sketch 52.2 (67145) - http://www.bohemiancoding.com/sketch -->
    <title>icons/batchstatus-in progress</title>
    <desc>Created with Sketch.</desc>
    <g id="icons/batchstatus-in-progress" stroke="none" stroke-width="1"  >
        <path d="M11.2158878,5.03395793 L9.17495752,3.0102574 C8.94860144,2.78615761 8.94076604,2.41445795 9.15798082,2.18045817 C9.3751956,1.94645838 9.73475353,1.93925839 9.96067431,2.16335818 L13.8252691,5.99420463 C14.0516252,6.21875443 14.0590253,6.59045408 13.8418105,6.82445387 L10.135665,10.8191002 C10.0242281,10.9392501 9.87535548,11 9.72604752,11 C9.58457497,11 9.44310242,10.9455501 9.33297148,10.8366502 C9.1066154,10.6121004 9.0992153,10.2408507 9.31643008,10.0068509 L12.6290643,6.43520423 L12.6209107,6.42711951 C12.4663478,6.59147613 12.2468608,6.69411765 12.0033916,6.69411765 C7.96722709,6.69411765 4.69475607,9.96535591 4.69475607,14 C4.69475607,18.0346441 7.96722709,21.3058824 12.0033916,21.3058824 C15.9265227,21.3058824 19.1459357,18.2096373 19.3059406,14.3050368 C19.325095,13.8376111 19.7196889,13.4742096 20.1872907,13.4933568 C20.6548925,13.512504 21.018431,13.9069493 20.9992765,14.374375 C20.8021027,19.1860127 16.8363958,23 12.0033916,23 C7.03123916,23 3,18.9702794 3,14 C3,9.29495796 6.61246766,5.43276805 11.2158878,5.03395793 Z" id="Combined-Shape"  fill-rule="nonzero"></path>
    </g>
</svg>