<?xml version="1.0" encoding="UTF-8"?>
<svg width="24px" height="24px" viewBox="0 0 24 24" version="1.1" xmlns="http://www.w3.org/2000/svg" xmlns:xlink="http://www.w3.org/1999/xlink">
    <!-- Generator: Sketch 51.3 (57544) - http://www.bohemiancoding.com/sketch -->
    <title>icons/descriptive-at</title>
    <desc>Created with Sketch.</desc>
    <defs></defs>
    <g id="icons/descriptive-at" stroke="none" stroke-width="1"  >
        <path d="M12,14.0772 C10.8552,14.0772 9.9228,13.1448 9.9228,12 C9.9228,10.8543 10.8552,9.9228 12,9.9228 C13.1448,9.9228 14.0772,10.8543 14.0772,12 C14.0772,13.1448 13.1448,14.0772 12,14.0772 M12,3 C7.0374,3 3,7.0374 3,12 C3,16.9626 7.0374,21 12,21 C13.8351,21 15.5946,20.4582 17.0877,19.4331 C17.5611,19.1082 17.6808,18.462 17.3559,17.9895 C17.0319,17.5161 16.3848,17.3964 15.9123,17.7204 C14.7666,18.507 13.4139,18.9228 12,18.9228 C8.1822,18.9228 5.0772,15.8178 5.0772,12 C5.0772,8.1822 8.1822,5.0772 12,5.0772 C15.8178,5.0772 18.9228,8.1822 18.9228,12 L18.9228,12.6921 C18.9228,13.4553 18.3018,14.0772 17.5386,14.0772 C16.7754,14.0772 16.1535,13.4553 16.1535,12.6921 L16.1535,12 C16.1535,9.7095 14.2905,7.8465 12,7.8465 C9.7095,7.8465 7.8465,9.7095 7.8465,12 C7.8465,14.2905 9.7095,16.1535 12,16.1535 C13.1421,16.1535 14.1771,15.69 14.9295,14.9412 C15.564,15.6774 16.4928,16.1535 17.5386,16.1535 C19.4475,16.1535 21,14.601 21,12.6921 L21,12 C21,7.0374 16.9626,3 12,3" id="descrptive-@"  fill-rule="nonzero"></path>
    </g>
</svg>