<?xml version="1.0" encoding="UTF-8"?>
<svg width="24px" height="24px" viewBox="0 0 24 24" version="1.1" xmlns="http://www.w3.org/2000/svg" xmlns:xlink="http://www.w3.org/1999/xlink">
    <!-- Generator: Sketch 52.2 (67145) - http://www.bohemiancoding.com/sketch -->
    <title>icons/descriptive-internet</title>
    <desc>Created with Sketch.</desc>
    <g id="icons/descriptive-internet" stroke="none" stroke-width="1"  >
        <path d="M12,3 C7.0302,3 3,7.0293 3,12 C3,16.9698 7.0302,21 12,21 C16.9698,21 21,16.9698 21,12 C21,7.0293 16.9698,3 12,3 Z M18.6492,10.875 L16.4442,10.875 C16.2561,8.9976 15.5991,7.2615 14.6019,5.7711 C16.7043,6.6504 18.2604,8.5647 18.6492,10.875 Z M12,17.9184 C10.8408,16.6017 10.0533,14.9538 9.8238,13.125 L14.1762,13.125 C13.9467,14.9538 13.1592,16.6017 12,17.9184 Z M9.8238,10.875 C10.0533,9.0453 10.8408,7.3974 12,6.0816 C13.1592,7.3974 13.9467,9.0453 14.1762,10.875 L9.8238,10.875 Z M9.3981,5.7711 C8.4009,7.2615 7.7439,8.9976 7.5558,10.875 L5.3508,10.875 C5.7396,8.5647 7.2957,6.6504 9.3981,5.7711 Z M5.3508,13.125 L7.5558,13.125 C7.7439,15.0024 8.4009,16.7385 9.3981,18.2289 C7.2957,17.3496 5.7396,15.4353 5.3508,13.125 Z M14.6019,18.2289 C15.5991,16.7385 16.2561,15.0015 16.4442,13.125 L18.6492,13.125 C18.2604,15.4353 16.7043,17.3496 14.6019,18.2289 Z" id="descriptive-internet"  fill-rule="nonzero"></path>
    </g>
</svg>