<?xml version="1.0" encoding="UTF-8"?>
<svg width="24px" height="24px" viewBox="0 0 24 24" version="1.1" xmlns="http://www.w3.org/2000/svg" xmlns:xlink="http://www.w3.org/1999/xlink">
    <!-- Generator: Sketch 52.2 (67145) - http://www.bohemiancoding.com/sketch -->
    <title>icons/descriptive-location</title>
    <desc>Created with Sketch.</desc>
    <g id="icons/descriptive-location" stroke="none" stroke-width="1"  >
        <path d="M11.75,3 C15.4778,3 18.5,6.0222 18.5,9.75 C18.5,11.2179 18.0185,12.5643 17.2193,13.6677 C17.2049,13.6938 17.2031,13.7235 17.186,13.7487 L12.686,20.4987 C12.4772,20.8119 12.1253,21 11.75,21 C11.3747,21 11.0228,20.8119 10.814,20.4987 L6.314,13.7487 C6.2978,13.7235 6.2951,13.6938 6.2807,13.6677 C5.4815,12.5643 5,11.2179 5,9.75 C5,6.0222 8.0222,3 11.75,3 Z M15.125,12.7848 C15.6722,12 16.25,10.884 16.25,9.75 C16.25,7.2651 14.2349,5.25 11.75,5.25 C9.2651,5.25 7.25,7.2651 7.25,9.75 C7.25,10.884 7.9529,12 8.375,12.7848 L11.75,17.8473 L15.125,12.7848 Z M11.75,12 C10.5071,12 9.5,10.992 9.5,9.75 C9.5,8.5071 10.5071,7.5 11.75,7.5 C12.9929,7.5 14,8.5071 14,9.75 C14,10.992 12.9929,12 11.75,12 Z" id="descriptive-location"  fill-rule="nonzero"></path>
    </g>
</svg>