<?xml version="1.0" encoding="UTF-8"?>
<svg width="24px" height="24px" viewBox="0 0 24 24" version="1.1" xmlns="http://www.w3.org/2000/svg" xmlns:xlink="http://www.w3.org/1999/xlink">
    <!-- Generator: Sketch 52.2 (67145) - http://www.bohemiancoding.com/sketch -->
    <title>icons/descriptive-chart-bars</title>
    <desc>Created with Sketch.</desc>
    <g id="icons/descriptive-chart-bars" stroke="none" stroke-width="1"  >
        <path d="M19.75,12 L19.75,21 L4,21 L4,8.625 C4,8.0031 4.5031,7.5 5.125,7.5 L8.5,7.5 L8.5,4.125 C8.5,3.5031 9.0031,3 9.625,3 L14.125,3 C14.7469,3 15.25,3.5031 15.25,4.125 L15.25,10.875 L18.625,10.875 C19.2469,10.875 19.75,11.3781 19.75,12 Z M6.25,18.75 L8.5,18.75 L8.5,9.75 L6.25,9.75 L6.25,18.75 Z M13,12 L13,5.25 L10.75,5.25 L10.75,8.625 L10.75,18.75 L13,18.75 L13,12 Z M15.25,18.75 L17.5,18.75 L17.5,13.125 L15.25,13.125 L15.25,18.75 Z" id="descriptive-chart-bars"  fill-rule="nonzero"></path>
    </g>
</svg>