<?xml version="1.0" encoding="UTF-8"?>
<svg width="24px" height="24px" viewBox="0 0 24 24" version="1.1" xmlns="http://www.w3.org/2000/svg" xmlns:xlink="http://www.w3.org/1999/xlink">
    <!-- Generator: Sketch 52.2 (67145) - http://www.bohemiancoding.com/sketch -->
    <title>icons/descriptive-lock</title>
    <desc>Created with Sketch.</desc>
    <g id="icons/descriptive-lock" stroke="none" stroke-width="1"  >
        <path d="M17.375,9.75 L16.25,9.75 L16.25,7.5 C16.25,5.0151 14.2349,3 11.75,3 C9.2651,3 7.25,5.0151 7.25,7.5 L7.25,9.75 L6.125,9.75 C5.5031,9.75 5,10.2531 5,10.875 L5,19.875 C5,20.4969 5.5031,21 6.125,21 L17.375,21 C17.9969,21 18.5,20.4969 18.5,19.875 L18.5,10.875 C18.5,10.2531 17.9969,9.75 17.375,9.75 Z M7.25,18.75 L7.25,12 L16.25,12 L16.25,18.75 L7.25,18.75 Z M9.5,7.5 C9.5,6.2571 10.5071,5.25 11.75,5.25 C12.9929,5.25 14,6.2571 14,7.5 L14,9.75 L9.5,9.75 L9.5,7.5 Z M11.75,16.50018 C11.129,16.50018 10.625,15.99618 10.625,15.37518 C10.625,14.75418 11.129,14.25018 11.75,14.25018 C12.371,14.25018 12.875,14.75418 12.875,15.37518 C12.875,15.99618 12.371,16.50018 11.75,16.50018 Z" id="escriptive-lock"  fill-rule="nonzero"></path>
    </g>
</svg>