<?xml version="1.0" encoding="UTF-8"?>
<svg width="24px" height="24px" viewBox="0 0 24 24" version="1.1" xmlns="http://www.w3.org/2000/svg" xmlns:xlink="http://www.w3.org/1999/xlink">
    <!-- Generator: Sketch 52.2 (67145) - http://www.bohemiancoding.com/sketch -->
    <title>icons/descriptive-chart-piechart</title>
    <desc>Created with Sketch.</desc>
    <g id="icons/descriptive-chart-piechart" stroke="none" stroke-width="1"  >
        <path d="M21,10.9746835 C21,6.56992405 17.4300759,3 13.0253165,3 L13.0253165,10.9746835 L21,10.9746835 Z M15.3037975,5.75878481 C16.6152911,6.33296203 17.667038,7.38470886 18.2412152,8.69620253 L15.3037975,8.69620253 L15.3037975,5.75878481 Z M10.9746835,5.73417722 L10.9746835,13.7088608 L18.9493671,13.7088608 C18.9493671,18.1136203 15.379443,21.6835443 10.9746835,21.6835443 C6.56992405,21.6835443 3,18.1136203 3,13.7088608 C3,9.30410127 6.56992405,5.73417722 10.9746835,5.73417722 Z M16.1905823,15.9873418 L9.83544304,15.9873418 C9.20567089,15.9873418 8.69620253,15.4778734 8.69620253,14.8481013 L8.69620253,8.49296203 C6.68567089,9.37336709 5.27848101,11.3747848 5.27848101,13.7088608 C5.27848101,16.8549873 7.82855696,19.4050633 10.9746835,19.4050633 C13.3096709,19.4050633 15.3101772,17.9978734 16.1905823,15.9873418 Z" id="descriptive-chart-piechart"  fill-rule="nonzero"></path>
    </g>
</svg>