<?xml version="1.0" encoding="UTF-8"?>
<svg width="24px" height="24px" viewBox="0 0 24 24" version="1.1" xmlns="http://www.w3.org/2000/svg" xmlns:xlink="http://www.w3.org/1999/xlink">
    <!-- Generator: Sketch 52.2 (67145) - http://www.bohemiancoding.com/sketch -->
    <title>icons/descriptive-connect</title>
    <desc>Created with Sketch.</desc>
    <g id="icons/descriptive-connect" stroke="none" stroke-width="1"  >
        <path d="M17.1921,18.9228 C16.5801,18.9228 16.0446,18.624 15.7224,18.102 C15.4002,17.58 15.3723,16.9671 15.645,16.4208 C15.942,15.8286 16.5351,15.4614 17.1921,15.4614 C18.147,15.4614 18.9228,16.2381 18.9228,17.1921 C18.9228,18.147 18.147,18.9228 17.1921,18.9228 M6.8079,13.7307 C5.853,13.7307 5.0772,12.954 5.0772,12 C5.0772,11.046 5.853,10.2693 6.8079,10.2693 C7.4649,10.2693 8.0571,10.6356 8.3532,11.226 C8.3532,11.2269 8.3532,11.2278 8.3541,11.2287 C8.4765,11.4726 8.5386,11.7318 8.5386,12 C8.5386,12.2664 8.4765,12.5274 8.3532,12.7731 C8.3532,12.7731 8.3532,12.7731 8.3532,12.7731 C8.0571,13.3644 7.4649,13.7307 6.8079,13.7307 M17.1921,5.0772 C18.147,5.0772 18.9228,5.8539 18.9228,6.8079 C18.9228,7.7619 18.147,8.5386 17.1921,8.5386 C16.536,8.5386 15.9429,8.1714 15.6459,7.5801 C15.5235,7.3344 15.4614,7.0743 15.4614,6.8079 C15.4614,5.8539 16.2372,5.0772 17.1921,5.0772 M17.1921,13.3842 C16.1004,13.3842 15.0906,13.8432 14.3805,14.6253 L10.5483,12.7092 C10.5924,12.477 10.6149,12.2403 10.6149,12 C10.6149,11.7597 10.5924,11.5221 10.5483,11.2908 L14.3805,9.3747 C15.0906,10.1568 16.1004,10.6158 17.1921,10.6158 C19.2918,10.6158 21,8.9076 21,6.8079 C21,4.7082 19.2918,3 17.1921,3 C15.0924,3 13.3851,4.7082 13.3851,6.8079 C13.3851,7.0473 13.413,7.2813 13.4571,7.5135 L9.6177,9.4332 C8.9085,8.6511 7.8996,8.1921 6.8079,8.1921 C4.7082,8.1921 3,9.9003 3,12 C3,14.0997 4.7082,15.8079 6.8079,15.8079 C7.8996,15.8079 8.9085,15.348 9.6177,14.5668 L13.4544,16.4847 C13.278,17.4054 13.4445,18.3666 13.9548,19.1937 C14.6532,20.325 15.8637,21 17.1921,21 C19.2918,21 21,19.2918 21,17.1921 C21,15.0924 19.2918,13.3842 17.1921,13.3842" id="descriptive-connect"  fill-rule="nonzero"></path>
    </g>
</svg>