<?xml version="1.0" encoding="UTF-8"?>
<svg width="24px" height="24px" viewBox="0 0 24 24" version="1.1" xmlns="http://www.w3.org/2000/svg" xmlns:xlink="http://www.w3.org/1999/xlink">
    <!-- Generator: Sketch 52.2 (67145) - http://www.bohemiancoding.com/sketch -->
    <title>icons/descriptive-chart-presentation</title>
    <desc>Created with Sketch.</desc>
    <g id="icons/descriptive-chart-presentation" stroke="none" stroke-width="1"  >
        <path d="M19.875116,3 L4.12488398,3 C3.50304218,3 3,3.50304218 3,4.12488398 L3,15.374652 C3,15.9964938 3.50304218,16.5004641 4.12488398,16.5004641 L9.27596164,16.5004641 L7.65081984,19.312674 C7.33989894,19.8509848 7.52459524,20.5387233 8.06290605,20.8496442 C8.60121687,21.1605651 9.28895535,20.9758688 9.59987625,20.437558 L11.8737754,16.5004641 L12.1262246,16.5004641 L14.4010519,20.437558 C14.7119728,20.9758688 15.3997113,21.1605651 15.9380221,20.8496442 C16.4763329,20.5387233 16.6610292,19.8509848 16.348252,19.312674 L14.7240384,16.5004641 L19.875116,16.5004641 C20.4969578,16.5004641 21,15.9964938 21,15.374652 L21,4.12488398 C21,3.50304218 20.4969578,3 19.875116,3 Z M5.25069609,14.2506961 L5.25069609,5.25069609 L18.750232,5.25069609 L18.750232,14.2506961 L5.25069609,14.2506961 Z M7.6406105,12.6747448 L9.89037847,12.6747448 L9.89037847,10.4249768 L7.6406105,10.4249768 L7.6406105,12.6747448 Z M11.3530989,13.0682685 L13.6028669,13.0682685 L13.6028669,8.5687326 L11.3530989,8.5687326 L11.3530989,13.0682685 Z M14.1374652,12.5336702 L16.3872332,12.5336702 L16.3872332,5.7843663 L14.1374652,5.7843663 L14.1374652,12.5336702 Z" id="descriptive-chart-presentation"  fill-rule="nonzero"></path>
    </g>
</svg>