<?xml version="1.0" encoding="UTF-8"?>
<svg width="24px" height="24px" viewBox="0 0 24 24" version="1.1" xmlns="http://www.w3.org/2000/svg" xmlns:xlink="http://www.w3.org/1999/xlink">
    <!-- Generator: Sketch 52.2 (67145) - http://www.bohemiancoding.com/sketch -->
    <title>icons/descriptive-cart</title>
    <desc>Created with Sketch.</desc>
    <g id="icons/descriptive-cart" stroke="none" stroke-width="1"  >
        <path d="M19.823,8.9435122 C19.64675,8.65726829 19.36325,8.48780488 19.0625,8.48780488 L9.4475,8.48780488 L8.73425,3.9017561 C8.654,3.38019512 8.2655,3 7.8125,3 L5.9375,3 C5.41925,3 5,3.49170732 5,4.09756098 C5,4.70429268 5.41925,5.19512195 5.9375,5.19512195 L7.0295,5.19512195 L8.765,16.3674146 C8.846,16.8889756 9.23375,17.2682927 9.6875,17.2682927 L17.1875,17.2682927 C17.591,17.2682927 17.94875,16.9662439 18.07625,16.518439 L19.95125,9.93307317 C20.04725,9.59853659 19.9985,9.2297561 19.823,8.9435122 Z M16.51175,15.0731707 L10.46975,15.0731707 L9.788,10.6829268 L17.76125,10.6829268 L16.51175,15.0731707 Z M14.9375,21 C14.42,21 14,20.5082927 14,19.902439 C14,19.2965854 14.42,18.804878 14.9375,18.804878 C15.455,18.804878 15.875,19.2965854 15.875,19.902439 C15.875,20.5082927 15.455,21 14.9375,21 Z M11.1875,21 C10.67,21 10.25,20.5082927 10.25,19.902439 C10.25,19.2965854 10.67,18.804878 11.1875,18.804878 C11.705,18.804878 12.125,19.2965854 12.125,19.902439 C12.125,20.5082927 11.705,21 11.1875,21 Z" id="descriptive/cart"  fill-rule="nonzero"></path>
    </g>
</svg>