<?xml version="1.0" encoding="UTF-8"?>
<svg width="24px" height="24px" viewBox="0 0 24 24" version="1.1" xmlns="http://www.w3.org/2000/svg" xmlns:xlink="http://www.w3.org/1999/xlink">
    <!-- Generator: Sketch 52.2 (67145) - http://www.bohemiancoding.com/sketch -->
    <title>icons/descriptive-clock</title>
    <desc>Created with Sketch.</desc>
    <g id="icons/descriptive-clock" stroke="none" stroke-width="1"  >
        <path d="M12,3 C16.9698,3 21,7.0302 21,12 C21,16.9698 16.9698,21 12,21 C7.0302,21 3,16.9698 3,12 C3,7.0302 7.0302,3 12,3 Z M12,18.75 C15.7278,18.75 18.75,15.7278 18.75,12 C18.75,8.2722 15.7278,5.25 12,5.25 C8.2722,5.25 5.25,8.2722 5.25,12 C5.25,15.7278 8.2722,18.75 12,18.75 Z M12.45,11.7588 L14.3796,13.6875 C14.8197,14.1285 14.8143,14.835 14.3751,15.2742 C13.9341,15.7152 13.2024,15.6927 12.7623,15.2526 L10.5312,13.0206 C10.4259,12.918 10.344,12.792 10.2873,12.6543 C10.2297,12.5166 10.2,12.3717 10.2,12.225 L10.2,7.725 C10.2,7.1031 10.7031,6.6 11.325,6.6 C11.9469,6.6 12.45,7.1031 12.45,7.725 L12.45,11.7588 Z" id="descriptive/clock"  fill-rule="nonzero"></path>
    </g>
</svg>