<?xml version="1.0" encoding="UTF-8"?>
<svg width="24px" height="24px" viewBox="0 0 24 24" version="1.1" xmlns="http://www.w3.org/2000/svg" xmlns:xlink="http://www.w3.org/1999/xlink">
    <!-- Generator: Sketch 52.2 (67145) - http://www.bohemiancoding.com/sketch -->
    <title>icons/interface</title>
    <desc>Created with Sketch.</desc>
    <g id="icons/interface" stroke="none" stroke-width="1"  >
        <path d="M19.875,3 L4.125,3 C3.5031,3 3,3.5031 3,4.125 L3,19.875 C3,20.4969 3.5031,21 4.125,21 L19.875,21 C20.4969,21 21,20.4969 21,19.875 L21,4.125 C21,3.5031 20.4969,3 19.875,3 Z M5.25,18.75 L5.25,5.25 L18.75,5.25 L18.75,18.75 L5.25,18.75 Z M10.425,8.85 L16.05,8.85 C16.6719,8.85 17.175,8.3469 17.175,7.725 C17.175,7.1031 16.6719,6.6 16.05,6.6 L10.425,6.6 C9.8031,6.6 9.3,7.1031 9.3,7.725 C9.3,8.3469 9.8031,8.85 10.425,8.85 Z M6.825,8.85 C7.446,8.85 7.95,8.346 7.95,7.725 C7.95,7.104 7.446,6.6 6.825,6.6 C6.204,6.6 5.7,7.104 5.7,7.725 C5.7,8.346 6.204,8.85 6.825,8.85 Z"  fill-rule="nonzero"></path>
    </g>
</svg>