<?xml version="1.0" encoding="UTF-8"?>
<svg width="24px" height="24px" viewBox="0 0 24 24" version="1.1" xmlns="http://www.w3.org/2000/svg" xmlns:xlink="http://www.w3.org/1999/xlink">
    <!-- Generator: Sketch 52.2 (67145) - http://www.bohemiancoding.com/sketch -->
    <title>icons/multimedia-videocamera</title>
    <desc>Created with Sketch.</desc>
    <g id="icons/multimedia-videocamera" stroke="none" stroke-width="1"  >
        <path d="M20.4663,6.2906 C20.136,6.0854 19.7229,6.0674 19.3719,6.2411 L16.5,7.6766 L16.5,6.125 C16.5,5.5031 15.9969,5 15.375,5 L4.125,5 C3.5031,5 3,5.5031 3,6.125 L3,17.375 C3,17.9942 3.5031,18.5 4.125,18.5 L15.375,18.5 C15.9969,18.5 16.5,17.9942 16.5,17.375 L16.5,15.818 L19.3719,17.2535 C19.5312,17.3327 19.7031,17.3723 19.875,17.3723 C20.0802,17.3723 20.2863,17.3165 20.4663,17.204 C20.7984,16.9988 21,16.637 21,16.2473 L21,7.2473 C21,6.8576 20.7984,6.4958 20.4663,6.2906 Z M18.75,14.4275 L15.8781,12.9911 C15.3228,12.7166 14.6478,12.9389 14.3688,13.4942 C14.2878,13.6571 14.2608,13.829 14.2608,14 L14.25,14 L14.25,16.25 L5.25,16.25 L5.25,7.25 L14.25,7.25 L14.25,9.5 L14.2608,9.5 C14.2608,9.6674 14.2878,9.8384 14.3688,9.9995 C14.6469,10.5557 15.3228,10.7789 15.8781,10.5026 L18.75,9.068 L18.75,14.4275 Z" id="icons/record"  fill-rule="nonzero"></path>
    </g>
</svg>