<?xml version="1.0" encoding="UTF-8"?>
<svg width="24px" height="24px" viewBox="0 0 24 24" version="1.1" xmlns="http://www.w3.org/2000/svg" xmlns:xlink="http://www.w3.org/1999/xlink">
    <!-- Generator: Sketch 52.2 (67145) - http://www.bohemiancoding.com/sketch -->
    <title>icons/navigation-close</title>
    <desc>Created with Sketch.</desc>
    <g id="icons/navigation-close" stroke="none" stroke-width="1"  >
        <path d="M13.4687633,12 L20.6955826,4.77228069 C21.1014725,4.36729082 21.1014725,3.70940726 20.6955826,3.30441739 C20.2896928,2.89852754 19.6327092,2.89852754 19.2268193,3.30441739 L12,10.5312367 L4.77318067,3.30441739 C4.36729082,2.89852754 3.71030724,2.89852754 3.30441739,3.30441739 C2.89852754,3.70940726 2.89852754,4.36729082 3.30441739,4.77228069 L10.5312367,12 L3.30441739,19.2268193 C2.89852754,19.6318092 2.89852754,20.2896928 3.30441739,20.6955826 C3.5078123,20.8980775 3.77330567,20.999775 4.03879903,20.999775 C4.30429239,20.999775 4.56978576,20.8980775 4.77318067,20.6955826 L12,13.4678633 L19.2268193,20.6955826 C19.4302142,20.8980775 19.6957076,20.999775 19.961201,20.999775 C20.2275943,20.999775 20.4930877,20.8980775 20.6955826,20.6955826 C21.1014725,20.2896928 21.1014725,19.6318092 20.6955826,19.2268193 L13.4687633,12 Z" id="-icons/close"  fill-rule="nonzero"></path>
    </g>
</svg>