<?xml version="1.0" encoding="UTF-8"?>
<svg width="40px" height="40px" viewBox="0 0 40 40" version="1.1" xmlns="http://www.w3.org/2000/svg" xmlns:xlink="http://www.w3.org/1999/xlink">
    <!-- Generator: Sketch 52.2 (67145) - http://www.bohemiancoding.com/sketch -->
    <title>Artboard</title>
    <desc>Created with Sketch.</desc>
    <g stroke="none" stroke-width="1">
        <g transform="translate(0.000000, 30.000000)">
            <path d="M37.692,7 L2.308,7 C1.032,7 0,5.43433333 0,3.5 C0,1.56566667 1.032,0 2.308,0 L37.692,0 C38.966,0 40,1.56566667 40,3.5 C40,5.43433333 38.966,7 37.692,7" id="icons/navegation-less"></path>
        </g>
        <g transform="translate(0.000000, 17.000000)">
            <path d="M37.692,7 L2.308,7 C1.032,7 0,5.43433333 0,3.5 C0,1.56566667 1.032,0 2.308,0 L37.692,0 C38.966,0 40,1.56566667 40,3.5 C40,5.43433333 38.966,7 37.692,7" id="icons/navegation-less"></path>
        </g>
        <g transform="translate(0.000000, 4.000000)">
            <path d="M37.692,7 L2.308,7 C1.032,7 0,5.43433333 0,3.5 C0,1.56566667 1.032,0 2.308,0 L37.692,0 C38.966,0 40,1.56566667 40,3.5 C40,5.43433333 38.966,7 37.692,7" id="icons/navegation-less"></path>
        </g>
    </g>
</svg>