<?xml version="1.0" encoding="UTF-8"?>
<svg width="24px" height="24px" viewBox="0 0 24 24" version="1.1" xmlns="http://www.w3.org/2000/svg" xmlns:xlink="http://www.w3.org/1999/xlink">
    <!-- Generator: Sketch 52.2 (67145) - http://www.bohemiancoding.com/sketch -->
    <title>icons/navigation-plus</title>
    <desc>Created with Sketch.</desc>
    <g id="icons/navigation-plus" stroke="none" stroke-width="1"  >
        <path d="M19.92,10.92 L13.08,10.92 L13.08,4.08 C13.08,3.4833 12.5967,3 12,3 C11.4042,3 10.92,3.4833 10.92,4.08 L10.92,10.92 L4.08,10.92 C3.4842,10.92 3,11.4033 3,12 C3,12.5967 3.4842,13.08 4.08,13.08 L10.92,13.08 L10.92,19.92 C10.92,20.5167 11.4042,21 12,21 C12.5967,21 13.08,20.5167 13.08,19.92 L13.08,13.08 L19.92,13.08 C20.5167,13.08 21,12.5967 21,12 C21,11.4033 20.5167,10.92 19.92,10.92" id="-icons/more"  fill-rule="nonzero"></path>
    </g>
</svg>