<?xml version="1.0" encoding="UTF-8"?>
<svg width="24px" height="24px" viewBox="0 0 24 24" version="1.1" xmlns="http://www.w3.org/2000/svg" xmlns:xlink="http://www.w3.org/1999/xlink">
    <!-- Generator: Sketch 52.2 (67145) - http://www.bohemiancoding.com/sketch -->
    <title>icons/notification-info</title>
    <desc>Created with Sketch.</desc>
    <g id="icons/notification-info" stroke="none" stroke-width="1"  >
        <path d="M12,21 C7.0374,21 3,16.9626 3,12 C3,7.0374 7.0374,3 12,3 C16.9626,3 21,7.0374 21,12 C21,16.9626 16.9626,21 12,21 Z M12,5.16 C8.229,5.16 5.16,8.2281 5.16,12 C5.16,15.7719 8.229,18.84 12,18.84 C15.771,18.84 18.84,15.7719 18.84,12 C18.84,8.2281 15.771,5.16 12,5.16 Z M13.4823,14.1384 C13.845,14.1384 14.1384,14.4327 14.1384,14.7945 C14.1384,15.1572 13.845,15.4515 13.4823,15.4515 L10.8561,15.4515 C10.4934,15.4515 10.2,15.1572 10.2,14.7945 C10.2,14.4327 10.4934,14.1384 10.8561,14.1384 L11.5131,14.1384 L11.5131,11.5131 L11.2935,11.5131 C10.9317,11.5131 10.6374,11.2188 10.6374,10.8561 C10.6374,10.4934 10.9317,10.2 11.2935,10.2 L12.1692,10.2 C12.5319,10.2 12.8262,10.4934 12.8262,10.8561 L12.8262,14.1384 L13.4823,14.1384 Z M12.1944,7.5 C12.7965,7.5 13.2888,7.9914 13.2888,8.5944 C13.2888,9.201 12.7965,9.6888 12.1944,9.6888 C11.5878,9.6888 11.1,9.201 11.1,8.5944 C11.1,7.9914 11.5878,7.5 12.1944,7.5 Z" id="notification/info"  fill-rule="nonzero"></path>
    </g>
</svg>