<?xml version="1.0" encoding="UTF-8"?>
<svg width="24px" height="24px" viewBox="0 0 24 24" version="1.1" xmlns="http://www.w3.org/2000/svg" xmlns:xlink="http://www.w3.org/1999/xlink">
    <!-- Generator: Sketch 52.4 (67378) - http://www.bohemiancoding.com/sketch -->
    <title>icons/payment/refund</title>
    <desc>Created with Sketch.</desc>
    <g id="icons/payment/refund" stroke="none" stroke-width="1"  >
        <g id="Group" transform="translate(3.000000, 5.000000)"  fill-rule="nonzero">
            <path d="M6,2.28571429 L1.92857143,2.28571429 C1.56471429,2.28571429 1.28571429,2.56471429 1.28571429,2.92857143 L1.28571429,11.9285714 C1.28571429,12.2930714 1.56471429,12.5714286 1.92857143,12.5714286 L16.0714286,12.5714286 C16.4352857,12.5714286 16.7142857,12.2930714 16.7142857,11.9285714 L16.7142857,2.92857143 C16.7142857,2.56471429 16.4352857,2.28571429 16.0714286,2.28571429 L12,2.28571429 L12,1 L16.0714286,1 C17.1289286,1 18,1.87171429 18,2.92857143 L18,11.9285714 C18,12.9860714 17.1289286,13.8571429 16.0714286,13.8571429 L1.92857143,13.8571429 C0.871071429,13.8571429 0,12.9860714 0,11.9285714 L0,2.92857143 C0,1.87171429 0.871071429,1 1.92857143,1 L6,1 L6,2.28571429 Z M8.32627033,9.95607123 L4.29052112,6.48004002 C3.90315963,6.14640168 3.90315963,5.60487128 4.29052112,5.27060105 C4.67861626,4.93696271 5.30661141,4.93696271 5.69470654,5.27060105 L8.03648285,7.28759644 L8.03648285,0.854948234 C8.03648285,0.382293926 8.4810682,0 9.02909668,0 C9.57859244,0 10.0224442,0.382293926 10.0224442,0.854948234 L10.0224442,7.28759644 L12.3642205,5.27060105 C12.751582,4.93696271 13.3803107,4.93696271 13.7684059,5.27060105 C14.1557674,5.60487128 14.1557674,6.14640168 13.7684059,6.48004002 L9.73265667,9.95607123 C9.6864374,9.99588035 9.6358163,10.0318981 9.58152699,10.0634927 C9.57125605,10.0691797 9.55951782,10.072971 9.54924687,10.0780262 C9.50522852,10.102038 9.45974289,10.1247861 9.4113227,10.1418471 C9.39298172,10.1487979 9.37243982,10.1519574 9.3533652,10.1570125 C9.31154777,10.1696503 9.27046398,10.18292 9.22571199,10.1911346 C9.16188538,10.2018767 9.09585785,10.2075638 9.02909668,10.2075638 C8.96306915,10.2075638 8.89777526,10.2018767 8.83321502,10.1911346 C8.78919666,10.18292 8.74737923,10.1696503 8.7055618,10.1570125 C8.68648718,10.1519574 8.66667892,10.1487979 8.6476043,10.1418471 C8.59991775,10.1247861 8.55443212,10.102038 8.50968013,10.0780262 C8.49940918,10.072971 8.48767096,10.0691797 8.47813365,10.0634927 C8.42311071,10.0318981 8.3724896,9.99588035 8.32627033,9.95607123 Z" id="Combined-Shape"></path>
        </g>
    </g>
</svg>