<?xml version="1.0" encoding="UTF-8"?>
<svg width="24px" height="24px" viewBox="0 0 24 24" version="1.1" xmlns="http://www.w3.org/2000/svg" xmlns:xlink="http://www.w3.org/1999/xlink">
    <!-- Generator: Sketch 52.2 (67145) - http://www.bohemiancoding.com/sketch -->
    <title>icons/payment-token</title>
    <desc>Created with Sketch.</desc>
    <g id="icons/payment-token" stroke="none" stroke-width="1"  >
        <path d="M17.1428571,16.2857143 L18.4285714,16.2857143 L18.4285714,15 L17.1428571,15 L17.1428571,16.2857143 Z M15.2142857,16.2857143 L16.5,16.2857143 L16.5,15 L15.2142857,15 L15.2142857,16.2857143 Z M13.2857143,16.2857143 L14.5714286,16.2857143 L14.5714286,15 L13.2857143,15 L13.2857143,16.2857143 Z M9.42857143,16.2857143 L10.7142857,16.2857143 L10.7142857,15 L9.42857143,15 L9.42857143,16.2857143 Z M7.5,16.2857143 L8.78571429,16.2857143 L8.78571429,15 L7.5,15 L7.5,16.2857143 Z M5.57142857,16.2857143 L6.85714286,16.2857143 L6.85714286,15 L5.57142857,15 L5.57142857,16.2857143 Z M17.1428571,14.3571429 L18.4285714,14.3571429 L18.4285714,13.0714286 L17.1428571,13.0714286 L17.1428571,14.3571429 Z M15.2142857,14.3571429 L16.5,14.3571429 L16.5,13.0714286 L15.2142857,13.0714286 L15.2142857,14.3571429 Z M13.2857143,14.3571429 L14.5714286,14.3571429 L14.5714286,13.0714286 L13.2857143,13.0714286 L13.2857143,14.3571429 Z M9.42857143,14.3571429 L10.7142857,14.3571429 L10.7142857,13.0714286 L9.42857143,13.0714286 L9.42857143,14.3571429 Z M7.5,14.3571429 L8.78571429,14.3571429 L8.78571429,13.0714286 L7.5,13.0714286 L7.5,14.3571429 Z M5.57142857,14.3571429 L6.85714286,14.3571429 L6.85714286,13.0714286 L5.57142857,13.0714286 L5.57142857,14.3571429 Z M17.1428571,12.4285714 L18.4285714,12.4285714 L18.4285714,11.1428571 L17.1428571,11.1428571 L17.1428571,12.4285714 Z M15.2142857,12.4285714 L16.5,12.4285714 L16.5,11.1428571 L15.2142857,11.1428571 L15.2142857,12.4285714 Z M13.2857143,12.4285714 L14.5714286,12.4285714 L14.5714286,11.1428571 L13.2857143,11.1428571 L13.2857143,12.4285714 Z M9.42857143,12.4285714 L10.7142857,12.4285714 L10.7142857,11.1428571 L9.42857143,11.1428571 L9.42857143,12.4285714 Z M7.5,12.4285714 L8.78571429,12.4285714 L8.78571429,11.1428571 L7.5,11.1428571 L7.5,12.4285714 Z M5.57142857,12.4285714 L6.85714286,12.4285714 L6.85714286,11.1428571 L5.57142857,11.1428571 L5.57142857,12.4285714 Z M5.57142857,9.85714286 L18.4285714,9.85714286 L18.4285714,8.57142857 L5.57142857,8.57142857 L5.57142857,9.85714286 Z M4.92857143,7.28571429 L19.0714286,7.28571429 C19.4352857,7.28571429 19.7142857,7.56471429 19.7142857,7.92857143 L19.7142857,16.9285714 C19.7142857,17.2930714 19.4352857,17.5714286 19.0714286,17.5714286 L4.92857143,17.5714286 C4.56471429,17.5714286 4.28571429,17.2930714 4.28571429,16.9285714 L4.28571429,7.92857143 C4.28571429,7.56471429 4.56471429,7.28571429 4.92857143,7.28571429 Z M4.92857143,6 C3.87107143,6 3,6.87171429 3,7.92857143 L3,16.9285714 C3,17.9860714 3.87107143,18.8571429 4.92857143,18.8571429 L19.0714286,18.8571429 C20.1289286,18.8571429 21,17.9860714 21,16.9285714 L21,7.92857143 C21,6.87171429 20.1289286,6 19.0714286,6 L4.92857143,6 Z" id="icons/token" ></path>
    </g>
</svg>