<?xml version="1.0" encoding="UTF-8"?>
<svg width="24px" height="24px" viewBox="0 0 24 24" version="1.1" xmlns="http://www.w3.org/2000/svg" xmlns:xlink="http://www.w3.org/1999/xlink">
    <!-- Generator: Sketch 52.2 (67145) - http://www.bohemiancoding.com/sketch -->
    <title>icons/payment-cashback</title>
    <desc>Created with Sketch.</desc>
    <g id="icons/payment-cashback" stroke="none" stroke-width="1"  >
        <path d="M12,10.6152857 C12.7733571,10.6152857 13.3847143,11.2266429 13.3847143,12 L10.6152857,12 C10.6152857,11.2266429 11.2266429,10.6152857 12,10.6152857 Z M3,7.1535 L3,18.2305714 L11.3076429,18.2305714 L11.3076429,19.6152857 L7.8465,19.6152857 L7.8465,21 L16.1535,21 L16.1535,19.6152857 L12.6923571,19.6152857 L12.6923571,18.2305714 L21,18.2305714 L21,7.1535 L17.5382143,7.1535 L17.5382143,8.53821429 L19.6152857,8.53821429 L19.6152857,16.8458571 L4.38471429,16.8458571 L4.38471429,8.53821429 L6.46178571,8.53821429 L6.46178571,7.1535 L3,7.1535 Z M12,6.11528571 C11.4265714,6.11528571 10.9617857,6.58007143 10.9617857,7.1535 C10.9617857,7.72692857 11.4265714,8.19171429 12,8.19171429 C12.5734286,8.19171429 13.0382143,7.72692857 13.0382143,7.1535 C13.0382143,6.58007143 12.5734286,6.11528571 12,6.11528571 Z M9.86057143,4.38471429 L14.1394286,4.38471429 C14.0989286,4.49528571 14.0770714,4.61164286 14.0770714,4.73057143 C14.0770714,5.304 14.5418571,5.76878571 15.1152857,5.76878571 C15.2342143,5.76878571 15.3505714,5.74757143 15.4617857,5.70964286 L15.4617857,12 L14.7694286,12 C14.7694286,10.4770714 13.5222857,9.23057143 12,9.23057143 C10.4777143,9.23057143 9.23057143,10.4770714 9.23057143,12 L8.53821429,12 L8.53821429,5.70964286 C8.64942857,5.74757143 8.76578571,5.76878571 8.88471429,5.76878571 C9.45814286,5.76878571 9.92292857,5.304 9.92292857,4.73057143 C9.92292857,4.61164286 9.90107143,4.49528571 9.86057143,4.38471429 Z M7.1535,3 L7.1535,12 L5.76942857,12 L5.76942857,13.3847143 L18.2305714,13.3847143 L18.2305714,12 L16.8465,12 L16.8465,3 L7.1535,3 Z" id="payment-cashback" ></path>
    </g>
</svg>