<?xml version="1.0" encoding="UTF-8"?>
<svg width="24px" height="24px" viewBox="0 0 24 24" version="1.1" xmlns="http://www.w3.org/2000/svg" xmlns:xlink="http://www.w3.org/1999/xlink">
    <!-- Generator: Sketch 52.2 (67145) - http://www.bohemiancoding.com/sketch -->
    <title>icons/payment-barcode</title>
    <desc>Created with Sketch.</desc>
    <g id="icons/payment-barcode" stroke="none" stroke-width="1"  >
        <path d="M19.7142857,17.5714286 L21,17.5714286 L21,6 L19.7142857,6 L19.7142857,17.5714286 Z M17.1428571,17.5714286 L18.4285714,17.5714286 L18.4285714,6 L17.1428571,6 L17.1428571,17.5714286 Z M13.2857143,17.5714286 L15.8571429,17.5714286 L15.8571429,6 L13.2857143,6 L13.2857143,17.5714286 Z M10.7142857,17.5714286 L12,17.5714286 L12,6 L10.7142857,6 L10.7142857,17.5714286 Z M5.57142857,17.5714286 L9.42857143,17.5714286 L9.42857143,6 L5.57142857,6 L5.57142857,17.5714286 Z M3,17.5714286 L4.28571429,17.5714286 L4.28571429,6 L3,6 L3,17.5714286 Z" id="payment-barcode" ></path>
    </g>
</svg>