<?xml version="1.0" encoding="UTF-8"?>
<svg width="24px" height="24px" viewBox="0 0 24 24" version="1.1" xmlns="http://www.w3.org/2000/svg" xmlns:xlink="http://www.w3.org/1999/xlink">
    <!-- Generator: Sketch 52.4 (67378) - http://www.bohemiancoding.com/sketch -->
    <title>icons/payment/charge</title>
    <desc>Created with Sketch.</desc>
    <g id="icons/payment/charge" stroke="none" stroke-width="1"  >
        <g id="Group-Copy" transform="translate(3.000000, 3.000000)"  fill-rule="nonzero">
            <path d="M6,7.28571429 L1.92857143,7.28571429 C1.56471429,7.28571429 1.28571429,7.56471429 1.28571429,7.92857143 L1.28571429,16.9285714 C1.28571429,17.2930714 1.56471429,17.5714286 1.92857143,17.5714286 L16.0714286,17.5714286 C16.4352857,17.5714286 16.7142857,17.2930714 16.7142857,16.9285714 L16.7142857,7.92857143 C16.7142857,7.56471429 16.4352857,7.28571429 16.0714286,7.28571429 L12,7.28571429 L12,6 L16.0714286,6 C17.1289286,6 18,6.87171429 18,7.92857143 L18,16.9285714 C18,17.9860714 17.1289286,18.8571429 16.0714286,18.8571429 L1.92857143,18.8571429 C0.871071429,18.8571429 0,17.9860714 0,16.9285714 L0,7.92857143 C0,6.87171429 0.871071429,6 1.92857143,6 L6,6 L6,7.28571429 Z M9.73265667,0.251492533 L13.7684059,3.72752375 C14.1557674,4.06116208 14.1557674,4.60269249 13.7684059,4.93696271 C13.3803107,5.27060105 12.7523156,5.27060105 12.3642205,4.93696271 L10.0224442,2.91996732 L10.0224442,9.35261553 C10.0224442,9.82526984 9.5778588,10.2075638 9.02983032,10.2075638 C8.48033456,10.2075638 8.03648285,9.82526984 8.03648285,9.35261553 L8.03648285,2.91996732 L5.69470654,4.93696271 C5.30734505,5.27060105 4.67861626,5.27060105 4.29052112,4.93696271 C3.90315963,4.60269249 3.90315963,4.06116208 4.29052112,3.72752375 L8.32627033,0.251492533 C8.3724896,0.211683413 8.42311071,0.175665639 8.47740001,0.144071099 C8.48767096,0.138384082 8.49940918,0.134592738 8.50968013,0.129537611 C8.55369848,0.105525761 8.59918411,0.082777693 8.6476043,0.0657166418 C8.66594528,0.0587658431 8.68648718,0.0556063892 8.7055618,0.0505512629 C8.74737923,0.0379134472 8.78846302,0.0246437407 8.83321502,0.0164291604 C8.89704163,0.00568701708 8.96306915,0 9.02983032,0 C9.09585785,0 9.16115174,0.00568701708 9.22571199,0.0164291604 C9.26973034,0.0246437407 9.31154777,0.0379134472 9.3533652,0.0505512629 C9.37243982,0.0556063892 9.39224808,0.0587658431 9.4113227,0.0657166418 C9.45900925,0.082777693 9.50449488,0.105525761 9.54924687,0.129537611 C9.55951782,0.134592738 9.57125605,0.138384082 9.58079336,0.144071099 C9.6358163,0.175665639 9.6864374,0.211683413 9.73265667,0.251492533 Z" id="Combined-Shape"></path>
        </g>
        <path d="M6.97297297,16 C6.43561484,16 6,15.7761424 6,15.5 C6,15.2238576 6.43561484,15 6.97297297,15 L17.027027,15 C17.5643852,15 18,15.2238576 18,15.5 C18,15.7761424 17.5643852,16 17.027027,16 L6.97297297,16 Z" id="Line-3"  fill-rule="nonzero"></path>
    </g>
</svg>