<?xml version="1.0" encoding="UTF-8"?>
<svg width="24px" height="24px" viewBox="0 0 24 24" version="1.1" xmlns="http://www.w3.org/2000/svg" xmlns:xlink="http://www.w3.org/1999/xlink">
    <!-- Generator: Sketch 52.2 (67145) - http://www.bohemiancoding.com/sketch -->
    <title>icons/payment-debit</title>
    <desc>Created with Sketch.</desc>
    <g id="icons/payment-debit" stroke="none" stroke-width="1"  >
        <path d="M19.0714286,6 C20.1289286,6 21,6.87171429 21,7.92857143 L21,16.9285714 C21,17.9860714 20.1289286,18.8571429 19.0714286,18.8571429 L4.92857143,18.8571429 C3.87107143,18.8571429 3,17.9860714 3,16.9285714 L3,7.92857143 C3,6.87171429 3.87107143,6 4.92857143,6 L19.0714286,6 Z M19.7142857,10.2859286 L19.7142857,7.92857143 C19.7142857,7.56471429 19.4352857,7.28571429 19.0714286,7.28571429 L4.92857143,7.28571429 C4.56471429,7.28571429 4.28571429,7.56471429 4.28571429,7.92857143 L4.28571429,10.2859286 L19.7142857,10.2859286 Z M16.4974286,12.6555 L14.8877143,12.6555 L14.8877143,11.6005714 C14.8877143,11.4488571 14.853,11.3350714 14.7835714,11.2605 C14.7141429,11.1859286 14.6235,11.1486429 14.511,11.1486429 C14.3972143,11.1486429 14.3072143,11.1865714 14.241,11.2617857 C14.1747857,11.337 14.142,11.4501429 14.142,11.6005714 L14.142,14.5011429 C14.142,14.6522143 14.1754286,14.7653571 14.2422857,14.8412143 C14.3091429,14.9177143 14.3991429,14.9556429 14.511,14.9556429 C14.6215714,14.9556429 14.7122143,14.9183571 14.7822857,14.8425 C14.853,14.7672857 14.8877143,14.6535 14.8877143,14.5011429 L14.8877143,13.263 L16.4974286,13.263 L16.4974286,14.5011429 C16.4974286,14.6522143 16.5308571,14.7653571 16.5977143,14.8412143 C16.6645714,14.9177143 16.7545714,14.9556429 16.8664286,14.9556429 C16.977,14.9556429 17.0676429,14.9183571 17.1377143,14.8425 C17.2084286,14.7672857 17.2431429,14.6535 17.2431429,14.5011429 L17.2431429,11.6005714 C17.2431429,11.4488571 17.2084286,11.3350714 17.139,11.2605 C17.0695714,11.1859286 16.9789286,11.1486429 16.8664286,11.1486429 C16.7558571,11.1486429 16.6671429,11.1865714 16.599,11.2617857 C16.5315,11.337 16.4974286,11.4501429 16.4974286,11.6005714 L16.4974286,12.6555 Z M11.0607857,13.7965714 C10.9804286,13.6069286 10.9405714,13.3684286 10.9405714,13.0823571 C10.9405714,12.6542143 11.0312143,12.3231429 11.2125,12.0904286 C11.3944286,11.8577143 11.6380714,11.7413571 11.9447143,11.7413571 C12.1369286,11.7413571 12.2989286,11.7863571 12.4307143,11.877 C12.5625,11.9676429 12.6762857,12.1039286 12.7733571,12.2865 C12.8318571,12.3970714 12.8852143,12.4748571 12.9327857,12.5198571 C12.9803571,12.5648571 13.0523571,12.588 13.1475,12.588 C13.233,12.588 13.3056429,12.5552143 13.3660714,12.4896429 C13.4265,12.4247143 13.4567143,12.3488571 13.4567143,12.264 C13.4567143,12.1077857 13.3943571,11.9425714 13.2709286,11.7677143 C13.1468571,11.5928571 12.9681429,11.4462857 12.7360714,11.3273571 C12.5033571,11.2084286 12.2378571,11.1486429 11.9395714,11.1486429 C11.6952857,11.1486429 11.4651429,11.1923571 11.2491429,11.2791429 C11.0331429,11.3665714 10.8447857,11.4932143 10.6840714,11.6597143 C10.5233571,11.8262143 10.3999286,12.0267857 10.3137857,12.2614286 C10.2276429,12.4960714 10.1845714,12.7609286 10.1845714,13.0572857 C10.1845714,13.2398571 10.2019286,13.4121429 10.236,13.5747857 C10.2700714,13.7367857 10.3215,13.8897857 10.3902857,14.0331429 C10.4590714,14.1758571 10.542,14.3050714 10.6390714,14.4207857 C10.7477143,14.5480714 10.8672857,14.6509286 10.9965,14.7287143 C11.1263571,14.8065 11.271,14.8637143 11.4297857,14.9003571 C11.5892143,14.937 11.7653571,14.9556429 11.9595,14.9556429 C12.216,14.9556429 12.4403571,14.9145 12.6325714,14.8328571 C12.8254286,14.7505714 12.9835714,14.6438571 13.1076429,14.5127143 C13.2317143,14.3809286 13.3223571,14.2472143 13.3795714,14.1109286 C13.4374286,13.974 13.4663571,13.8473571 13.4663571,13.7303571 C13.4663571,13.6384286 13.4348571,13.5612857 13.3712143,13.4995714 C13.3075714,13.4372143 13.2317143,13.4063571 13.1423571,13.4063571 C13.0388571,13.4063571 12.9636429,13.4365714 12.9167143,13.4982857 C12.8697857,13.5593571 12.8305714,13.6384286 12.7984286,13.7355 C12.7232143,13.9412143 12.6113571,14.0974286 12.4635,14.2035 C12.315,14.3102143 12.1337143,14.3629286 11.9196429,14.3629286 C11.7222857,14.3629286 11.5493571,14.3166429 11.4021429,14.2227857 C11.2549286,14.1289286 11.1411429,13.9868571 11.0607857,13.7965714 Z M6.49585714,14.6194286 C6.49585714,14.7062143 6.53185714,14.784 6.60321429,14.8527857 C6.67521429,14.9215714 6.75814286,14.9556429 6.852,14.9556429 C6.96257143,14.9556429 7.04228571,14.9235 7.0905,14.8592143 C7.13935714,14.7949286 7.19785714,14.6702143 7.26664286,14.4863571 L7.44214286,14.0138571 L8.93871429,14.0138571 L9.11485714,14.4760714 C9.138,14.5326429 9.16628571,14.5988571 9.19907143,14.6734286 C9.23121429,14.7473571 9.26207143,14.8026429 9.29035714,14.8392857 C9.31928571,14.8752857 9.354,14.9035714 9.39578571,14.9241429 C9.43757143,14.9453571 9.48771429,14.9556429 9.54685714,14.9556429 C9.64714286,14.9556429 9.73264286,14.9202857 9.804,14.8489286 C9.87535714,14.7775714 9.91071429,14.6997857 9.91071429,14.6142857 C9.91071429,14.532 9.87278571,14.4008571 9.79757143,14.2202143 L8.83585714,11.8442143 C8.79085714,11.7252857 8.75357143,11.6307857 8.724,11.5594286 C8.69507143,11.4880714 8.65907143,11.4218571 8.616,11.3595 C8.57357143,11.2977857 8.51764286,11.247 8.44821429,11.2077857 C8.37878571,11.1685714 8.292,11.1486429 8.18785714,11.1486429 C8.08628571,11.1486429 8.00014286,11.1685714 7.93071429,11.2077857 C7.86128571,11.247 7.80535714,11.2984286 7.76228571,11.3620714 C7.71985714,11.4257143 7.67935714,11.5054286 7.64207143,11.6018571 C7.60414286,11.6982857 7.572,11.7805714 7.545,11.8493571 L6.60321429,14.2401429 C6.56464286,14.3352857 6.537,14.4098571 6.52092857,14.4638571 C6.50421429,14.5172143 6.49585714,14.5692857 6.49585714,14.6194286 Z M8.18303571,11.9347929 L8.73782143,13.4538643 L7.63789286,13.4538643 L8.18303571,11.9347929 Z M19.7142857,16.9285714 L19.7142857,16.0716429 L4.28571429,16.0716429 L4.28571429,16.9285714 C4.28571429,17.2930714 4.56471429,17.5714286 4.92857143,17.5714286 L19.0714286,17.5714286 C19.4352857,17.5714286 19.7142857,17.2930714 19.7142857,16.9285714 Z" id="/payment-debit"  fill-rule="nonzero"></path>
    </g>
</svg>