<?xml version="1.0" encoding="UTF-8"?>
<svg width="24px" height="24px" viewBox="0 0 24 24" version="1.1" xmlns="http://www.w3.org/2000/svg" xmlns:xlink="http://www.w3.org/1999/xlink">
    <!-- Generator: Sketch 52.2 (67145) - http://www.bohemiancoding.com/sketch -->
    <title>icons/payment-cash</title>
    <desc>Created with Sketch.</desc>
    <g id="icons/payment-cash" stroke="none" stroke-width="1"  >
        <path d="M20.9916479,9.57943702 L21,17.5874804 C21,17.7645497 20.9299711,17.9345363 20.8053324,18.0594507 C20.6806938,18.185009 20.5110824,18.2551929 20.3350464,18.2558368 L7.68358191,18.2680707 L7.68293944,18.2680707 C7.31544819,18.2680707 7.0173434,17.9699502 7.0173434,17.6016459 C7.01670093,17.2326977 7.31416326,16.9339334 7.68229697,16.9332895 L19.667523,16.9216995 L19.6598134,9.5807248 C19.6598134,9.21242048 19.9572757,8.91301225 20.324767,8.91301225 L20.3260519,8.91301225 C20.6935431,8.91301225 20.9916479,9.2111327 20.9916479,9.57943702 Z M19.0005778,15.5866607 C19.0005778,15.9556089 18.7031154,16.2543733 18.3356242,16.2550172 L5.68415967,16.2678949 L5.6835172,16.2678949 C5.31602595,16.2678949 5.01792116,15.9691306 5.01792116,15.6008263 C5.01727869,15.2325219 5.31538348,14.9331137 5.68287473,14.9324698 L17.6681007,14.9208798 L17.6610336,7.57990516 C17.6610336,7.21160084 17.9584959,6.9128365 18.3266296,6.91219261 L18.3272721,6.91219261 C18.6941209,6.91219261 18.9922257,7.21095695 18.9928682,7.57861738 L19.0005778,15.5866607 Z M13.6657227,6.582586 L14.9975572,6.58129822 L14.9981997,7.24836688 L13.6663652,7.24965466 L13.6657227,6.582586 Z M5.01464458,11.9298882 L6.34647913,11.9286004 L6.34712159,12.5956691 L5.01528705,12.5976008 L5.01464458,11.9298882 Z M10.7128149,8.38058071 C10.7128149,8.15264412 10.5130075,7.9607653 10.2367466,7.88800588 L10.2367466,8.92209108 C11.0417581,9.00837216 11.6636663,9.51318088 11.6636663,10.1280946 C11.6636663,10.7430082 11.0417581,11.2484608 10.2367466,11.334098 L10.2367466,11.5266207 C10.2367466,11.623204 10.1307396,11.7011146 9.99903377,11.7011146 C9.86797046,11.7011146 9.7613209,11.623204 9.7613209,11.5266207 L9.7613209,11.334098 C8.95695194,11.2484608 8.3344012,10.7430082 8.3344012,10.1280946 C8.3344012,9.93492795 8.54770032,9.77846301 8.81046941,9.77846301 C9.07259604,9.77846301 9.28589516,9.93492795 9.28589516,10.1280946 C9.28589516,10.3560311 9.48506,10.54791 9.7613209,10.6206694 L9.7613209,9.58594029 C8.95695194,9.5003031 8.3344012,8.9948505 8.3344012,8.38058071 C8.3344012,7.76566704 8.95695194,7.26021443 9.7613209,7.17457724 L9.7613209,6.98205453 C9.7613209,6.88547123 9.86797046,6.8075607 9.99903377,6.8075607 C10.1307396,6.8075607 10.2367466,6.88547123 10.2367466,6.98205453 L10.2367466,7.17457724 C11.0417581,7.26021443 11.6636663,7.76566704 11.6636663,8.38058071 C11.6636663,8.57310342 11.4510097,8.73021226 11.1882406,8.73021226 C10.9254715,8.73021226 10.7128149,8.57310342 10.7128149,8.38058071 Z M10.7128149,10.1280946 C10.7128149,9.90015796 10.5130075,9.70827914 10.2367466,9.63616361 L10.2367466,10.6206694 C10.5130075,10.54791 10.7128149,10.3560311 10.7128149,10.1280946 Z M9.7613209,8.87251165 L9.7613209,7.88800588 C9.48506,7.9607653 9.28589516,8.15264412 9.28589516,8.38058071 C9.28589516,8.60787341 9.48506,8.79975223 9.7613209,8.87251165 Z M4.33610654,13.0314724 L4.32905418,6.34889534 L15.6250158,6.33728916 L15.6320682,13.0198662 L4.33610654,13.0314724 Z M16.7674986,14.1598505 C16.8918766,14.0341169 16.9617591,13.8645378 16.961118,13.6872213 L16.9534245,5.66799979 C16.9527834,5.29918137 16.6553019,5 16.2892202,5 L16.288579,5 L3.66356759,5.01289575 C3.48725852,5.01289575 3.31864294,5.08382237 3.19362378,5.20891113 C3.06924575,5.33464468 2.99936325,5.50486857 3.00000437,5.68218512 L3.00769786,13.7014066 C3.00833898,14.0695802 3.30582046,14.3687616 3.6719022,14.3687616 L3.67318445,14.3687616 L16.2975548,14.3558658 C16.4738638,14.3558658 16.6431206,14.2849392 16.7674986,14.1598505 Z" id="payment-cash"  fill-rule="nonzero"></path>
    </g>
</svg>