<?xml version="1.0" encoding="UTF-8"?>
<svg width="24px" height="24px" viewBox="0 0 24 24" version="1.1" xmlns="http://www.w3.org/2000/svg" xmlns:xlink="http://www.w3.org/1999/xlink">
    <!-- Generator: Sketch 52.2 (67145) - http://www.bohemiancoding.com/sketch -->
    <title>icons/status-Money</title>
    <desc>Created with Sketch.</desc>
    <g id="icons/status-Money" stroke="none" stroke-width="1"  >
        <path d="M14.4287,15.2139 C14.4287,16.0509 13.8896,16.7574 13.1426,17.0238 L13.1426,13.404 C13.8896,13.6704 14.4287,14.3769 14.4287,15.2139 Z M11.8574,10.5951 C11.1104,10.3296 10.5713,9.6222 10.5713,8.7852 C10.5713,7.9482 11.1104,7.2417 11.8574,6.9753 L11.8574,10.5951 Z M14.4287,8.7852 C14.4287,9.4953 15.0047,10.0713 15.7139,10.0713 C16.424,10.0713 17,9.4953 17,8.7852 C17,6.5244 15.3179,4.6659 13.1426,4.35 L13.1426,3.6426 C13.1426,3.2871 12.8555,3 12.5,3 C12.1445,3 11.8574,3.2871 11.8574,3.6426 L11.8574,4.35 C9.6821,4.6659 8,6.5244 8,8.7852 C8,11.046 9.6821,12.9054 11.8574,13.2204 L11.8574,17.0238 C11.1104,16.7574 10.5713,16.0509 10.5713,15.2139 C10.5713,14.5038 9.9953,13.9278 9.2861,13.9278 C8.576,13.9278 8,14.5038 8,15.2139 C8,17.4747 9.6821,19.3341 11.8574,19.6491 L11.8574,20.3565 C11.8574,20.712 12.1445,21 12.5,21 C12.8555,21 13.1426,20.712 13.1426,20.3565 L13.1426,19.6491 C15.3179,19.3341 17,17.4747 17,15.2139 C17,12.9531 15.3179,11.0937 13.1426,10.7787 L13.1426,6.9753 C13.8896,7.2417 14.4287,7.9482 14.4287,8.7852 Z" id="icons/$"  fill-rule="nonzero"></path>
        <path d="M33.5139698,-10.5030379 L30.763604,-10.5030379 L32.0832917,-12.7899274 C32.4955417,-13.5034369 32.2503871,-14.413314 31.539317,-14.8231246 L26.3813139,-17.8003499 C25.6702437,-18.2113801 24.7615863,-17.9674452 24.3493363,-17.2551554 L23.0076945,-14.9316757 L21.664833,-17.2551554 C21.252583,-17.9674452 20.3439256,-18.2113801 19.6316358,-17.8003499 L14.476072,-14.8231246 C13.7637822,-14.413314 13.5198473,-13.5034369 13.9320973,-12.7899274 L15.251785,-10.5030379 L12.5001995,-10.5030379 C11.6720406,-10.5030379 11,-9.8309973 11,-9.00161871 L11,-2.99594194 C11,-2.1690027 11.6720406,-1.4969621 12.5001995,-1.4969621 L15.251785,-1.4969621 L13.9320973,0.789927404 C13.5198473,1.50343693 13.7637822,2.41209436 14.476072,2.82312463 L19.6316358,5.80034985 C20.3439256,6.21138013 21.252583,5.96744525 21.664833,5.2551554 L23.0076945,2.93167566 L24.3493363,5.2551554 C24.7615863,5.96744525 25.6702437,6.21138013 26.3837533,5.80034985 L31.5380973,2.82312463 C32.2503871,2.41209436 32.4955417,1.50343693 32.0820721,0.789927404 L30.7623844,-1.4969621 L33.5139698,-1.4969621 C34.3421287,-1.4969621 35.0141693,-2.1690027 35.0141693,-2.99594194 L35.0141693,-9.00161871 C35.0141693,-9.8309973 34.3433484,-10.5030379 33.5139698,-10.5030379 Z M32.0109319,-4.02184371 L29.5849995,-4.02184371 C29.2764219,-2.67166414 28.5641321,-1.48126192 27.5810745,-0.572604492 L28.75928,1.46669111 L26.1821079,2.95469388 L25.0075615,0.921496652 C24.3745505,1.11786423 23.7025099,1.22275623 23.0060758,1.22275623 C22.3072024,1.22275623 21.6363814,1.11786423 21.0021508,0.921496652 L19.828824,2.95469388 L17.2504323,1.46669111 L18.4286378,-0.572604492 C17.4480195,-1.48126192 16.73451,-2.67288382 16.4271521,-4.02184371 L14,-4.02184371 L14,-7.02590176 L16.423493,-7.02590176 C16.7284116,-8.377301 17.4394818,-9.57380159 18.4237591,-10.4836787 L17.2504323,-12.5132169 L19.828824,-14 L20.9960524,-11.9802192 C21.6315027,-12.1790261 22.3059827,-12.2851378 23.0048561,-12.2851378 C23.7049492,-12.2851378 24.3794292,-12.1790261 25.0148795,-11.9826585 L26.1821079,-14 L28.7580603,-12.5132169 L27.5871729,-10.4836787 C28.5690107,-9.57380159 29.2825203,-8.377301 29.5874389,-7.02590176 L32.0097122,-7.02590176 L32.0097122,-4.02184371 L32.0109319,-4.02184371 Z M23.0028384,-9 C21.3428615,-9 20,-7.65591881 20,-5.99716162 C20,-4.33596508 21.3428615,-2.99310356 23.0028384,-2.99310356 C24.6628152,-2.99310356 26.0068964,-4.33596508 26.0068964,-5.99716162 C26.0068964,-7.65591881 24.6628152,-9 23.0028384,-9 Z" id="icons/configuration-copy" fill="#FFFFFF"></path>
    </g>
</svg>