<?xml version="1.0" encoding="UTF-8"?>
<svg width="24px" height="24px" viewBox="0 0 24 24" version="1.1" xmlns="http://www.w3.org/2000/svg" xmlns:xlink="http://www.w3.org/1999/xlink">
    <!-- Generator: Sketch 52.2 (67145) - http://www.bohemiancoding.com/sketch -->
    <title>icons/status-like</title>
    <desc>Created with Sketch.</desc>
    <g id="icons/status-like" stroke="none" stroke-width="1"  >
        <path d="M16.5,5 C15.2571,5 14.133,5.5049 13.3185,6.3185 L12,7.628 L10.6815,6.3185 C9.867,5.5049 8.7429,5 7.5,5 C5.0151,5 3,7.0151 3,9.5 C3,10.7429 3.8019,11.903 4.6173,12.7175 L11.2044,19.3055 C11.6436,19.7447 12.3564,19.7447 12.7956,19.3055 L19.3656,12.7346 C20.1801,11.9201 21,10.7429 21,9.5 C21,7.0151 18.9849,5 16.5,5 Z" id="icons-heart-outside"  fill-rule="nonzero"></path>
        <path d="M12,16.9178 L6.1995,11.1173 C5.7918,10.7105 5.25,10.1219 5.25,9.5 C5.25,8.258 6.258,7.25 7.5,7.25 C8.1219,7.25 8.6844,7.502 9.0912,7.9088 L11.2044,10.0139 C11.6436,10.454 12.3564,10.454 12.7956,10.0139 L14.9088,7.9088 C15.3156,7.502 15.8781,7.25 16.5,7.25 C17.7429,7.25 18.75,8.258 18.75,9.5 C18.75,10.1219 18.2082,10.7105 17.8005,11.1173 L12,16.9178 Z" id="icons-heart-inside" fill="#FFFFFF"></path>
    </g>
</svg>