<?xml version="1.0" encoding="UTF-8"?>
<svg width="24px" height="24px" viewBox="0 0 24 24" version="1.1" xmlns="http://www.w3.org/2000/svg" xmlns:xlink="http://www.w3.org/1999/xlink">
    <!-- Generator: Sketch 52.2 (67145) - http://www.bohemiancoding.com/sketch -->
    <title>icons/status-star</title>
    <desc>Created with Sketch.</desc>
    <g id="icons/status-star" stroke="none" stroke-width="1"  >
        <path d="M16.8683117,20.9999915 C16.6810931,20.9999915 16.4929744,20.9540869 16.3237575,20.8595775 L12.0006272,18.4689396 L7.67839705,20.8595775 C7.30035943,21.0683983 6.83681329,21.0422957 6.48487826,20.7947711 C6.13384333,20.5463464 5.95382541,20.1188038 6.02223222,19.6930614 L6.86111571,14.5562502 L3.32016329,10.9252888 C3.02583399,10.6237588 2.92412387,10.1827149 3.05823722,9.78307511 C3.19235056,9.38253524 3.53798496,9.09180631 3.95472644,9.02789995 L8.80350903,8.28712622 L10.9817258,3.64716441 C11.1680444,3.25112499 11.5640838,3 12.0006272,3 C12.4371707,3 12.8341102,3.25112499 13.0195286,3.64716441 L15.1977454,8.28712622 L20.0456279,9.02789995 C20.4623694,9.09180631 20.8089039,9.38253524 20.9421172,9.78307511 C21.0762305,10.1827149 20.9754205,10.6237588 20.6810912,10.9252888 L17.1401388,14.5562502 L17.9790223,19.6930614 C18.0483292,20.1188038 17.8674112,20.5463464 17.5163762,20.7947711 C17.322857,20.9306846 17.0951343,20.9999915 16.8683117,20.9999915 M12.0006272,16.0575996 C12.188746,16.0575996 12.3750645,16.1053044 12.5460815,16.1989137 L15.3849641,17.7677698 L14.8269085,14.3591306 C14.7702029,14.0053954 14.8827141,13.6480598 15.132939,13.3915343 L17.5415787,10.9225885 L14.2634525,10.4212386 C13.8935156,10.3654331 13.5739838,10.1278094 13.414668,9.78667547 L12.0006272,6.77317554 L10.5865865,9.78667547 C10.4272706,10.1278094 10.1086389,10.3654331 9.73780202,10.4212386 L6.45967576,10.9225885 L8.86831548,13.3915343 C9.11854039,13.6480598 9.23105159,14.0053954 9.17434594,14.3591306 L8.61719049,17.7677698 L11.456073,16.1980136 C11.62619,16.1053044 11.8125085,16.0575996 12.0006272,16.0575996" id="icons/Star"  fill-rule="nonzero"></path>
    </g>
</svg>