<?xml version="1.0" encoding="UTF-8"?>
<svg width="24px" height="24px" viewBox="0 0 24 24" version="1.1" xmlns="http://www.w3.org/2000/svg" xmlns:xlink="http://www.w3.org/1999/xlink">
    <!-- Generator: Sketch 52.2 (67145) - http://www.bohemiancoding.com/sketch -->
    <title>icons/status-target</title>
    <desc>Created with Sketch.</desc>
    <g id="icons/status-target" stroke="none" stroke-width="1"  >
        <path d="M12,3 C9.9201,3 8.0121,3.7119 6.4875,4.8963 L4.9647,3.3735 C4.5246,2.9343 3.7821,2.9019 3.3429,3.3429 C2.9037,3.7821 2.9343,4.5246 3.3735,4.9647 L4.8963,6.4875 C3.7119,8.0121 3,9.9201 3,12 C3,16.9698 7.0302,21 12,21 C16.9698,21 21,16.9698 21,12 C21,7.0293 16.9698,3 12,3 Z M12,18.75 C8.2722,18.75 5.25,15.7278 5.25,12 C5.25,10.5429 5.7171,9.1956 6.5028,8.0931 L8.1363,9.7275 C7.7421,10.3962 7.5,11.1675 7.5,12 C7.5,14.4849 9.5151,16.5 12,16.5 C14.4849,16.5 16.5,14.4849 16.5,12 C16.5,9.5151 14.4849,7.5 12,7.5 C11.1675,7.5 10.3962,7.7412 9.7275,8.1372 L8.0931,6.5028 C9.1965,5.7171 10.542,5.25 12,5.25 C15.7278,5.25 18.75,8.2722 18.75,12 C18.75,15.7278 15.7278,18.75 12,18.75 Z M11.2044,12.7947 C11.6436,13.2348 12.3564,13.2348 12.7956,12.7947 C13.2357,12.3564 13.2348,11.6436 12.7956,11.2044 L11.424,9.8337 C11.6085,9.7851 11.8002,9.75 12,9.75 C13.2429,9.75 14.25,10.7571 14.25,12 C14.25,13.242 13.2429,14.25 12,14.25 C10.7571,14.25 9.75,13.242 9.75,12 C9.75,11.8002 9.7842,11.6085 9.8337,11.424 L11.2044,12.7947 Z" id="icons/target"  fill-rule="nonzero"></path>
    </g>
</svg>