<?xml version="1.0" encoding="UTF-8"?>
<svg width="24px" height="24px" viewBox="0 0 24 24" version="1.1" xmlns="http://www.w3.org/2000/svg" xmlns:xlink="http://www.w3.org/1999/xlink">
    <!-- Generator: Sketch 52.2 (67145) - http://www.bohemiancoding.com/sketch -->
    <title>icons/status-recomend</title>
    <desc>Created with Sketch.</desc>
    <g id="icons/status-recomend" stroke="none" stroke-width="1"  >
        <path d="M17.3752959,20.9995304 C17.0827889,20.9995304 16.794782,20.8852277 16.5796769,20.6701225 L11.7501614,15.840607 L6.92064593,20.6701225 C6.5975382,20.9923302 6.11512666,21.0886325 5.69391659,20.9140283 C5.27360654,20.7403242 5,20.3290144 5,19.8745035 L5,4.1250269 C5,3.50311203 5.50311203,3 6.1250269,3 L17.3752959,3 C17.9972108,3 18.5003228,3.50311203 18.5003228,4.1250269 L18.5003228,19.8745035 C18.5003228,20.3290144 18.2267163,20.7403242 17.8064062,20.9140283 C17.6660029,20.9716297 17.5201994,20.9995304 17.3752959,20.9995304 M11.7501614,13.1243421 C12.0372683,13.1243421 12.3261752,13.2341447 12.5457804,13.45375 L16.250269,17.1582385 L16.250269,5.2500538 L7.2500538,5.2500538 L7.2500538,17.1582385 L10.9545424,13.45375 C11.1741476,13.2341447 11.4630545,13.1243421 11.7501614,13.1243421" id="icons/recomend"  fill-rule="nonzero"></path>
    </g>
</svg>