<svg xmlns="http://www.w3.org/2000/svg" width="24" height="24" viewBox="0 0 24 24">
  <path d="M7.45726813,4.04243491 C3.5002488,6.36472205 1.88708025,11.360838 3.86531178,15.6031692 C5.96596237,20.1080289 11.3207865,22.0570255 15.8256462,19.9563749 C19.0346882,18.4599741 21.0323345,15.2522199 21.0244453,11.7727875 C21.023193,11.2205042 21.469892,10.7717749 22.0221753,10.7705227 C22.5744586,10.7692704 23.0231879,11.2159694 23.0244401,11.7682527 C23.0340795,16.0195782 20.5923905,19.9403614 16.6708827,21.7689905 C11.1649431,24.3364524 4.62015804,21.9543454 2.05269621,16.4484057 C-0.252701871,11.5044636 1.43261976,5.72292512 5.78686707,2.73538954 L4.35150577,2.56982371 C3.80285886,2.50653847 3.4093955,2.01046945 3.47268073,1.46182255 C3.53596597,0.913175648 4.03203499,0.519712278 4.58068189,0.582997517 L8.82662492,1.0727579 C9.37895823,1.13646836 9.77326818,1.63848047 9.70431744,2.19018411 L9.17155071,6.45307266 C9.10306016,7.0010941 8.60327845,7.38983068 8.05525702,7.32134013 C7.50723559,7.25284958 7.118499,6.75306787 7.18698955,6.20504644 L7.45726813,4.04243491 Z"/>
</svg>
