<svg xmlns="http://www.w3.org/2000/svg" width="24" height="24" viewBox="0 0 24 24">
  <path d="M1,8 L1,2 C1,1.44771525 1.44771525,1 2,1 L12,1 C12.5522847,1 13,1.44771525 13,2 L13,7 L14.1742808,7 C14.7265655,7 15.1742808,7.44771525 15.1742808,8 C15.1742808,8.55228475 14.7265655,9 14.1742808,9 L3,9 L3,21 L21.1465404,21 L21.1465404,11.216682 C21.1465404,10.6643972 21.5942557,10.216682 22.1465404,10.216682 C22.6988252,10.216682 23.1465404,10.6643972 23.1465404,11.216682 L23.1465404,22 C23.1465404,22.5522847 22.6988252,23 22.1465404,23 L2,23 C1.44771525,23 1,22.5522847 1,22 L1,8 Z M3,7 L11,7 L11,3 L3,3 L3,7 Z M10.8018323,11.4459292 L13.0301097,14.4359846 L21.6547792,3.38475916 C21.9945673,2.94937144 22.6229715,2.87187266 23.0583592,3.21166079 C23.493747,3.55144892 23.5712458,4.17985311 23.2314576,4.61524084 L13.8001039,16.7001116 C13.39407,17.2203833 12.6042904,17.2115965 12.2099324,16.6824198 L9.19816766,12.6410273 C8.86815042,12.1981876 8.95961115,11.5716632 9.40245092,11.2416459 C9.8452907,10.9116287 10.4718151,11.0030894 10.8018323,11.4459292 Z"/>
</svg>
