<svg xmlns="http://www.w3.org/2000/svg" width="24" height="24" viewBox="0 0 24 24">
  <path d="M15.1361093,7.32 L14.1067143,8.84 L4.83727301,8.84 C4.69231617,8.84 4.57480543,8.9534212 4.57480543,9.09333333 L4.57480543,19.2266667 C4.57480543,19.3665788 4.69231617,19.48 4.83727301,19.48 L16.3858462,19.48 C16.530803,19.48 16.6483138,19.3665788 16.6483138,19.2266667 L16.6483138,11.1071852 L18.200627,8.81504655 C18.2154319,8.90570935 18.2231192,8.99865485 18.2231192,9.09333333 L18.2231192,19.2266667 C18.2231192,20.2060516 17.400544,21 16.3858462,21 L4.83727301,21 C3.82257514,21 3,20.2060516 3,19.2266667 L3,9.09333333 C3,8.97939301 3.01113329,8.86796251 3.03240716,8.76 L3,8.76 L3,4.30909091 C3,3.58609996 3.60853773,3 4.35920707,3 L10.3397182,3 C11.0903875,3 11.6989252,3.58609996 11.6989252,4.30909091 L11.6989252,7.32 L15.1361093,7.32 Z M4.63104848,7.18909091 L10.0678768,7.18909091 L10.0678768,4.57090909 L4.63104848,4.57090909 L4.63104848,7.18909091 Z M18.649139,3.63770118 L20.0526316,4.5753601 L11.3101298,17.4844985 L5.84467531,13.0055853 L6.92115544,11.7097317 L10.9477635,15.0095173 L18.649139,3.63770118 Z"/>
</svg>
