<svg xmlns="http://www.w3.org/2000/svg" width="24" height="24" viewBox="0 0 24 24">
  <path d="M1.39339828,12.7071068 C1.00287399,12.3165825 1.00287399,11.6834175 1.39339828,11.2928932 L11.2928932,1.39339828 C11.6834175,1.00287399 12.3165825,1.00287399 12.7071068,1.39339828 L22.6066017,11.2928932 C22.997126,11.6834175 22.997126,12.3165825 22.6066017,12.7071068 L12.7071068,22.6066017 C12.3165825,22.997126 11.6834175,22.997126 11.2928932,22.6066017 L1.39339828,12.7071068 Z M3.51471863,12 L12,20.4852814 L20.4852814,12 L12,3.51471863 L3.51471863,12 Z M12,16 C11.4477153,16 11,15.5522847 11,15 C11,14.4477153 11.4477153,14 12,14 C12.5522847,14 13,14.4477153 13,15 C13,15.5522847 12.5522847,16 12,16 Z M13,12 C13,12.5522847 12.5522847,13 12,13 C11.4477153,13 11,12.5522847 11,12 L11,9 C11,8.44771525 11.4477153,8 12,8 C12.5522847,8 13,8.44771525 13,9 L13,12 Z"/>
</svg>
