<svg xmlns="http://www.w3.org/2000/svg" width="24" height="24" viewBox="0 0 24 24">
  <path d="M5.82753204,18.84 L18.172832,18.84 L11.999732,6.4956 L5.82753204,18.84 Z M19.919732,21 L4.08063204,21 C3.70623204,21 3.35793204,20.8065 3.16083204,20.4888 C2.96463204,20.1702 2.94663204,19.7715 3.11403204,19.4376 L11.034032,3.5967 C11.216732,3.2313 11.591132,3 11.999732,3 C12.409232,3 12.783632,3.2313 12.966332,3.5967 L20.886332,19.4376 C21.053732,19.7715 21.034832,20.1702 20.839532,20.4888 C20.642432,20.8065 20.294132,21 19.919732,21 Z M11.9649,14.5902 C12.4419,14.5902 12.8298,14.322 12.8298,13.9917 L12.8298,10.7985 C12.8298,10.4682 12.4419,10.2 11.9649,10.2 C11.4879,10.2 11.1,10.4682 11.1,10.7985 L11.1,13.9917 C11.1,14.322 11.4879,14.5902 11.9649,14.5902 Z M12.9729,16.5369 C12.9729,16.0185 12.5544,15.6 12.036,15.6 C11.5185,15.6 11.1,16.0185 11.1,16.5369 C11.1,17.0544 11.5185,17.4738 12.036,17.4738 C12.5544,17.4738 12.9729,17.0544 12.9729,16.5369 Z"/>
</svg>
