<svg xmlns="http://www.w3.org/2000/svg" width="24" height="24" viewBox="0 0 24 24">
  <path d="M11.1055728,1.5527864 C11.4740971,0.815737865 12.5259029,0.815737865 12.8944272,1.5527864 L22.8944272,21.5527864 C23.2268777,22.2176875 22.743382,23 22,23 L2,23 C1.25661798,23 0.773122263,22.2176875 1.10557281,21.5527864 L11.1055728,1.5527864 Z M3.61803399,21 L20.381966,21 L12,4.23606798 L3.61803399,21 Z M12,18 C11.4477153,18 11,17.5522847 11,17 C11,16.4477153 11.4477153,16 12,16 C12.5522847,16 13,16.4477153 13,17 C13,17.5522847 12.5522847,18 12,18 Z M13,14 C13,14.5522847 12.5522847,15 12,15 C11.4477153,15 11,14.5522847 11,14 L11,11 C11,10.4477153 11.4477153,10 12,10 C12.5522847,10 13,10.4477153 13,11 L13,14 Z"/>
</svg>
