<svg width="24" height="24" viewBox="0 0 24 24" xmlns="http://www.w3.org/2000/svg">
<path d="M14 7.5C14 8.32843 13.3284 9 12.5 9C11.6716 9 11 8.32843 11 7.5C11 6.67157 11.6716 6 12.5 6C13.3284 6 14 6.67157 14 7.5Z M13 12L13 15H9C8.44771 15 8 15.4477 8 16C8 16.5523 8.44772 17 9 17H15C15.5523 17 16 16.5523 16 16C16 15.4477 15.5523 15 15 15L15 11C15 10.4477 14.5523 10 14 10H11C10.4477 10 10 10.4477 10 11C10 11.5523 10.4477 12 11 12H13Z M 24,12 C 24,18.6274 18.6274,24 12,24 5.37258,24 0,18.6274 0,12 0,5.37258 5.37258,0 12,0 18.6274,0 24,5.37258 24,12 Z M 12,2 C 6.47715,2 2,6.47715 2,12 2,17.5228 6.47715,22 12,22 17.5228,22 22,17.5228 22,12 22,6.47715 17.5228,2 12,2 Z"/>
</svg>