<svg xmlns="http://www.w3.org/2000/svg" width="24" height="24" viewBox="0 0 24 24">
  <path d="M18.2682927,15.0731707 C17.7660488,15.0731707 17.1707317,14.4778537 17.1707317,13.9756098 L17.1707317,8.48780488 C17.1707317,5.46204878 14.7086829,3 11.6829268,3 C8.65717073,3 6.19512195,5.46204878 6.19512195,8.48780488 L6.19512195,13.9756098 C6.19512195,14.4673171 5.58926829,15.0731707 5.09756098,15.0731707 C4.49082927,15.0731707 4,15.564 4,16.1707317 C4,16.7774634 4.49082927,17.2682927 5.09756098,17.2682927 L18.2682927,17.2682927 C18.8750244,17.2682927 19.3658537,16.7774634 19.3658537,16.1707317 C19.3658537,15.564 18.8750244,15.0731707 18.2682927,15.0731707 L18.2682927,15.0731707 Z M8.16897561,15.0731707 C8.31121951,14.7228293 8.3902439,14.3514146 8.3902439,13.9756098 L8.3902439,8.48780488 C8.3902439,6.672 9.86712195,5.19512195 11.6829268,5.19512195 C13.4987317,5.19512195 14.9756098,6.672 14.9756098,8.48780488 L14.9756098,13.9756098 C14.9756098,14.3540488 15.052,14.7245854 15.1880976,15.0731707 L8.16897561,15.0731707 Z M11.4634146,21 C10.2508293,21 9.26829268,20.0165854 9.26829268,18.804878 L13.6585366,18.804878 C13.6585366,20.0165854 12.676,21 11.4634146,21 Z"/>
</svg>
