<svg xmlns="http://www.w3.org/2000/svg" width="24" height="24" viewBox="0 0 24 24">
  <path d="M12.2353209,1.02781332 C12.3188079,1.00766457 12.4062863,0.998021327 12.4962345,1.00032892 C15.218262,1.07016164 17.5162589,2.53181996 18.110637,5.11032944 C18.3022243,5.94122703 18.3500285,6.83000265 18.3135512,8.03361649 C18.3056736,8.29354797 18.296418,8.51434514 18.2763221,8.94983577 C18.2409756,9.71581858 18.2302355,10.0161193 18.2299484,10.3886352 C18.2295883,10.8693463 18.211244,11.2350421 18.1486814,12.2158804 C18.1249625,12.5877365 18.1126988,12.7912416 18.1011797,13.0160701 C18.0427272,14.1569402 18.0672535,14.9325622 18.2065266,15.5532969 C18.2217026,15.6209584 18.2852226,15.8005945 18.4194553,16.0557805 C18.660278,16.5136016 19.0174716,16.9790608 19.5163785,17.4207775 C19.8064273,17.6775777 20.136539,17.918385 20.5100246,18.1398402 C21.384826,18.6585464 21.0169144,20.0001094 19.9998924,20 L4.06188934,19.9982851 C3.70344516,20.0202006 3.34515208,19.8477563 3.1455869,19.5195943 C3.03779385,19.342341 2.99164275,19.1448703 3.00104414,18.9521716 C3.01746006,18.5904565 3.22603655,18.2788274 3.52708946,18.1169471 C3.8706832,17.9043014 4.17592059,17.6740761 4.44562702,17.4291697 C4.9311412,16.9882995 5.27923978,16.5230728 5.51419648,16.0649617 C5.64560752,15.8087406 5.70802239,15.6277085 5.72317043,15.5584415 C5.85951042,14.9352142 5.8834827,14.1576948 5.82638865,13.0147953 C5.81515062,12.7898342 5.80318859,12.5862509 5.78005609,12.2142968 C5.71909127,11.2340263 5.70121837,10.8686013 5.7008678,10.3886375 C5.70058747,10.0155853 5.69010842,9.71507749 5.65562648,8.94868073 C5.63601982,8.51290238 5.62699254,8.2919937 5.61931669,8.03198462 C5.58385391,6.83073078 5.63038956,5.94393183 5.8166089,5.11551273 C6.39987597,2.52038968 8.81999662,1.1564908 11.9504635,1.00122769 C12.0487025,0.996355283 12.1443323,1.00583049 12.2353209,1.02781332 Z M12.2352402,2.97212434 C12.1753662,2.9865421 12.1132972,2.99560994 12.0495365,2.99877231 C9.71484075,3.11456723 8.11337539,4.01709943 7.76792367,5.55411354 C7.62642231,6.18359932 7.58751122,6.92510216 7.61844574,7.9729674 C7.6257242,8.21951561 7.63444797,8.43299698 7.65360524,8.85878711 C7.68947931,9.6561254 7.70055663,9.97378959 7.70086725,10.3871557 C7.70117636,10.8103585 7.71800393,11.1544108 7.77619945,12.090153 C7.7998126,12.4698355 7.8121378,12.6795997 7.82389777,12.9150089 C7.88919569,14.2221321 7.86071362,15.1459221 7.67697963,15.9857934 C7.55436021,16.5464916 7.23777204,17.2566143 6.64818831,17.9985634 L17.3049756,17.99971 C16.7042428,17.2601417 16.3807404,16.5515634 16.2550276,15.9910773 C16.0659967,15.1485741 16.0367251,14.2228868 16.1037996,12.9137342 C16.1158676,12.6781924 16.1285132,12.4683499 16.1527375,12.0885693 C16.2123875,11.1533949 16.2296325,10.8096135 16.229949,10.3871154 C16.230268,9.97325362 16.2416374,9.65535809 16.2784481,8.85764331 C16.2980722,8.43237718 16.3070091,8.21918305 16.3144691,7.97303128 C16.3461815,6.9266426 16.3063932,6.18689994 16.1617591,5.55963442 C15.797344,3.97874207 14.3342673,3.0481411 12.444942,2.99967108 C12.3728128,2.99782063 12.3026638,2.98837687 12.2352402,2.97212434 Z M11.8896447,23.2857143 C10.845805,23.2857143 10,22.2617143 10,21 L13.7792895,21 C13.7792895,22.2617143 12.9334845,23.2857143 11.8896447,23.2857143 Z"/>
</svg>
