<svg width="24" height="24" viewBox="0 0 24 24" xmlns="http://www.w3.org/2000/svg">
<path d="m 16,15 c 0,-0.9459 0.0998,-1.9176 0.2015,-2.9085 v -10e-5 l 10e-5,-8e-4 c 0.0195,-0.1904 0.0392,-0.3815 0.0582,-0.5733 C 16.3815,10.2888 16.5,8.86089 16.5,7 16.5,5.14251 14.7499,3 12,3 9.13993,3 7.50003,4.74749 7.50003,7 c 0,1.86089 0.11856,3.2888 0.24025,4.5173 0.01903,0.1921 0.03868,0.3835 0.05825,0.5741 l 10e-6,10e-5 c 0.10173,0.9909 0.20149,1.9626 0.20149,2.9085 0,1.1092 -0.55057,2.0095 -1.03451,2.6098 C 6.85803,17.7432 6.74445,17.8733 6.62632,18 H 17.3737 C 17.2556,17.8733 17.142,17.7432 17.0345,17.6098 16.5506,17.0095 16,16.1092 16,15 Z M 5.50003,7 c 0,-3.5 2.68389,-6 6.49997,-6 3.8161,0 6.5,3 6.5,6 0,2.27627 -0.1698,3.9374 -0.3116,5.3233 C 18.087,13.315 18,14.1657 18,15 c 0,0.885 0.9063,1.8373 2.0143,2.6709 C 20.874,18.3176 20.4524,20 19.3766,20 H 4.62343 C 3.54765,20 3.12606,18.3176 3.98572,17.6709 5.09379,16.8373 6.00003,15.885 6.00003,15 c 0,-0.8343 -0.087,-1.685 -0.18842,-2.6767 C 5.6699,10.9374 5.50003,9.27627 5.50003,7 Z M 12,23 c 1.1046,0 2,-0.8954 2,-2 h -4 c 0,1.1046 0.8955,2 2,2 z"/>
</svg>