<svg xmlns="http://www.w3.org/2000/svg" width="24" height="24" viewBox="0 0 24 24">
  <path fill-rule="evenodd" d="M15.6618076,11.5938607 L15.6618076,15.96337 C15.6618076,16.4192938 16.1889213,16.959707 16.6336249,16.959707 C17.1708455,16.959707 17.6054422,17.4052689 17.6054422,17.956044 C17.6054422,18.506819 17.1708455,18.952381 16.6336249,18.952381 L4.9718173,18.952381 C4.4345967,18.952381 4,18.506819 4,17.956044 C4,17.4052689 4.4345967,16.959707 4.9718173,16.959707 C5.40719145,16.959707 5.9436346,16.4097289 5.9436346,15.96337 L5.9436346,10.981685 C5.9436346,8.23498315 8.12361516,6 10.8027211,6 C10.9413663,6 11.072113,6.02823093 11.196102,6.07979667 C11.5408188,3.77048979 13.5176713,2 15.9047619,2 C18.5346893,2 20.6666667,4.1490332 20.6666667,6.8 C20.6666667,9.4509668 18.5346893,11.6 15.9047619,11.6 C15.823283,11.6 15.742282,11.5979373 15.6618076,11.5938607 Z M11.2011429,7.55319208 C11.0721452,7.53382386 10.9403937,7.52380952 10.8065032,7.52380952 C9.24221586,7.52380952 7.96990865,8.89076825 7.96990865,10.5714286 L7.96990865,15.6507937 C7.96990865,15.9986286 7.90183038,16.3424 7.77928949,16.6666667 L13.8261527,16.6666667 C13.7089068,16.3440254 13.6430978,16.0010667 13.6430978,15.6507937 L13.6430978,11.0251142 C12.3631886,10.3275172 11.4361436,9.05624533 11.2011429,7.55319208 Z M10.4247921,22 C9.38095238,22 8.53514739,20.976 8.53514739,19.7142857 L12.3144369,19.7142857 C12.3144369,20.976 11.4686319,22 10.4247921,22 Z M15.9047619,10 C17.6580468,10 19.0793651,8.5673112 19.0793651,6.8 C19.0793651,5.0326888 17.6580468,3.6 15.9047619,3.6 C14.151477,3.6 12.7301587,5.0326888 12.7301587,6.8 C12.7301587,8.5673112 14.151477,10 15.9047619,10 Z"/>
</svg>
