<svg xmlns="http://www.w3.org/2000/svg" width="24" height="24" viewBox="0 0 24 24">
  <path d="M19.9614,21 L4.0386,21 C3.4644,21 3,20.1372857 3,19.0714286 C3,18.0055714 3.4644,17.1428571 4.0386,17.1428571 L19.9614,17.1428571 C20.5347,17.1428571 21,18.0055714 21,19.0714286 C21,20.1372857 20.5347,21 19.9614,21 Z M19.9614,13.9285714 L4.0386,13.9285714 C3.4644,13.9285714 3,13.0658571 3,12 C3,10.9341429 3.4644,10.0714286 4.0386,10.0714286 L19.9614,10.0714286 C20.5347,10.0714286 21,10.9341429 21,12 C21,13.0658571 20.5347,13.9285714 19.9614,13.9285714 Z M19.9614,6.85714286 L4.0386,6.85714286 C3.4644,6.85714286 3,5.99442857 3,4.92857143 C3,3.86271429 3.4644,3 4.0386,3 L19.9614,3 C20.5347,3 21,3.86271429 21,4.92857143 C21,5.99442857 20.5347,6.85714286 19.9614,6.85714286 Z"/>
</svg>
