<svg xmlns="http://www.w3.org/2000/svg" width="24" height="24" viewBox="0 0 24 24">
  <path fill-rule="evenodd" d="M12,24 C5.372583,24 0,18.627417 0,12 C0,5.372583 5.372583,0 12,0 C18.627417,0 24,5.372583 24,12 C24,18.627417 18.627417,24 12,24 Z M12.9791755,12 L17.7970551,7.18152046 C18.0676483,6.91152721 18.0676483,6.47293818 17.7970551,6.20294493 C17.5264618,5.93235169 17.0884728,5.93235169 16.8178796,6.20294493 L12,11.0208245 L7.18212045,6.20294493 C6.91152721,5.93235169 6.47353816,5.93235169 6.20294493,6.20294493 C5.93235169,6.47293818 5.93235169,6.91152721 6.20294493,7.18152046 L11.0208245,12 L6.20294493,16.8178796 C5.93235169,17.0878728 5.93235169,17.5264618 6.20294493,17.7970551 C6.33854154,17.9320517 6.51553711,17.99985 6.69253269,17.99985 C6.86952826,17.99985 7.04652384,17.9320517 7.18212045,17.7970551 L12,12.9785755 L16.8178796,17.7970551 C16.9534762,17.9320517 17.1304717,17.99985 17.3074673,17.99985 C17.4850629,17.99985 17.6620584,17.9320517 17.7970551,17.7970551 C18.0676483,17.5264618 18.0676483,17.0878728 17.7970551,16.8178796 L12.9791755,12 Z"/>
</svg>
