<svg xmlns="http://www.w3.org/2000/svg" width="24" height="24" viewBox="0 0 24 24">
  <path d="M18.5692642,11.5387385 C17.4586365,10.3813095 14.8854721,8.07725193 12,8.07725193 C9.11452786,8.07725193 6.54136353,10.3813095 5.43073577,11.5387385 C6.54046351,12.6943674 9.11452786,15.000225 12,15.000225 C14.8854721,15.000225 17.4586365,12.6952674 18.5692642,11.5387385 Z M12,6 C16.8439211,6 20.6177154,10.6936173 20.7752194,10.8943224 C21.0749269,11.2714318 21.0749269,11.8051451 20.7752194,12.1831546 C20.6177154,12.3829596 16.8439211,17.0774769 12,17.0774769 C7.1560789,17.0774769 3.38228456,12.3829596 3.22478062,12.1831546 C2.92507313,11.8051451 2.92507313,11.2714318 3.22478062,10.8943224 C3.38228456,10.6936173 7.1560789,6 12,6 Z M12,8.76909923 C10.4708618,8.76909923 9.23063077,10.0084302 9.23063077,11.5384685 C9.23063077,13.0685067 10.4708618,14.3078377 12,14.3078377 C13.5291382,14.3078377 14.7693692,13.0685067 14.7693692,11.5384685 C14.7693692,10.0084302 13.5291382,8.76909923 12,8.76909923 Z M12,10.8463512 C12.3816095,10.8463512 12.6921173,11.1568589 12.6921173,11.5384685 C12.6921173,11.920078 12.3816095,12.2305858 12,12.2305858 C11.6183905,12.2305858 11.3078827,11.920078 11.3078827,11.5384685 C11.3078827,11.1568589 11.6183905,10.8463512 12,10.8463512 Z"/>
</svg>
