<svg xmlns="http://www.w3.org/2000/svg" width="24" height="24" viewBox="0 0 24 24">
  <path d="M1,8.08918363 C1,11.7186036 2.99638971,15.2511241 6.2884425,18.5850153 C7.41796383,19.7288916 8.6249399,20.7685322 9.83218446,21.6865939 C10.2552807,22.0083418 10.6488738,22.2923795 11.0032863,22.5363533 C11.2189849,22.6848379 11.3759039,22.7883355 11.4643437,22.8444361 C11.8138532,23.0661426 12.2638256,23.0496222 12.5961365,22.8028831 C12.6824971,22.7387608 12.8373154,22.6201828 13.050881,22.4508925 C13.4027749,22.1719514 13.7938334,21.8498867 14.2143674,21.4883931 C15.4148014,20.4564931 16.6150885,19.3122657 17.7380527,18.0839361 C20.6123192,14.9399832 22.4993354,11.795036 22.9156095,8.75951625 C22.9715463,8.35161905 23,7.94777305 23,7.54839014 C23,0.372292874 15.0144192,-1.05291427 12.0072498,4.00643541 C9.0061054,-1.12819001 1,0.559549219 1,8.08918363 Z M11.0428155,20.0946227 C9.9063101,19.2303553 8.76953617,18.2511839 7.7115575,17.1797595 C4.75361029,14.1842201 3,11.0812867 3,8.08918363 C3,1.85762667 10.063977,1.25107203 11.0126145,7.16684464 C11.1925708,8.28906531 12.8074292,8.28906531 12.9873855,7.16684464 C13.9199303,1.3514271 21,1.75648961 21,7.54839014 C21,7.85536674 20.9779351,8.16853498 20.9341542,8.48779058 C20.5851263,11.032943 18.8869785,13.8631176 16.2619473,16.7344501 C15.1974115,17.898869 14.0539486,18.9889261 12.9106326,19.9717273 C12.5699039,20.2646196 12.2503269,20.5296277 11.9579949,20.7643092 C11.6762448,20.5666658 11.3693602,20.342947 11.0428155,20.0946227 z"/>
</svg>