<svg xmlns="http://www.w3.org/2000/svg" width="24" height="24" viewBox="0 0 24 24">
  <path d="M14.4287,15.2139 C14.4287,16.0509 13.8896,16.7574 13.1426,17.0238 L13.1426,13.404 C13.8896,13.6704 14.4287,14.3769 14.4287,15.2139 L14.4287,15.2139 Z M11.8574,10.5951 C11.1104,10.3296 10.5713,9.6222 10.5713,8.7852 C10.5713,7.9482 11.1104,7.2417 11.8574,6.9753 L11.8574,10.5951 Z M14.4287,8.7852 C14.4287,9.4953 15.0047,10.0713 15.7139,10.0713 C16.424,10.0713 17,9.4953 17,8.7852 C17,6.5244 15.3179,4.6659 13.1426,4.35 L13.1426,3.6426 C13.1426,3.2871 12.8555,3 12.5,3 C12.1445,3 11.8574,3.2871 11.8574,3.6426 L11.8574,4.35 C9.6821,4.6659 8,6.5244 8,8.7852 C8,11.046 9.6821,12.9054 11.8574,13.2204 L11.8574,17.0238 C11.1104,16.7574 10.5713,16.0509 10.5713,15.2139 C10.5713,14.5038 9.9953,13.9278 9.2861,13.9278 C8.576,13.9278 8,14.5038 8,15.2139 C8,17.4747 9.6821,19.3341 11.8574,19.6491 L11.8574,20.3565 C11.8574,20.712 12.1445,21 12.5,21 C12.8555,21 13.1426,20.712 13.1426,20.3565 L13.1426,19.6491 C15.3179,19.3341 17,17.4747 17,15.2139 C17,12.9531 15.3179,11.0937 13.1426,10.7787 L13.1426,6.9753 C13.8896,7.2417 14.4287,7.9482 14.4287,8.7852 L14.4287,8.7852 Z"/>
</svg>
