<svg xmlns="http://www.w3.org/2000/svg" width="24" height="24" viewBox="0 0 24 24">
  <path d="M11,19.9644735 C10.4391954,19.9232693 9.89553781,19.8462228 9.3690205,19.7333333 C8.53985918,19.5555547 7.80638132,19.2641996 7.16856492,18.8592593 C6.53074852,18.454319 6.02050305,17.920991 5.63781321,17.2592593 C5.25512337,16.5975276 5.04252109,15.7925973 5,14.8444444 C5.20363367,14.4876175 5.64520268,14.3092041 6.32470703,14.3092041 C7.00421138,14.3092041 7.46621109,14.4876175 7.71070615,14.8444444 C7.7319667,15.3975336 7.87015818,15.8666647 8.12528474,16.2518519 C8.3804113,16.637039 8.71525989,16.9432087 9.12984055,17.1703704 C9.54442121,17.397532 10.0121462,17.5604933 10.5330296,17.6592593 C11.053913,17.7580252 11.5907338,17.8074074 12.143508,17.8074074 C12.5687189,17.8074074 13.0151837,17.7777781 13.4829157,17.7185185 C13.9506477,17.659259 14.3811674,17.5506181 14.7744875,17.3925926 C15.1678076,17.2345671 15.4920261,17.0024707 15.7471526,16.6962963 C16.0022792,16.3901219 16.1298405,16.0000024 16.1298405,15.5259259 C16.1298405,14.8740708 15.8640877,14.3802486 15.332574,14.0444444 C14.8010604,13.7086403 14.1366782,13.4370381 13.3394077,13.2296296 C12.5421372,13.0222212 11.675783,12.8345687 10.7403189,12.6666667 C9.80485485,12.4987646 8.93850057,12.2617299 8.14123007,11.9555556 C7.34395957,11.6493812 6.67957745,11.2197559 6.14806378,10.6666667 C5.61655011,10.1135775 5.35079727,9.34321481 5.35079727,8.35555556 C5.35079727,7.58518133 5.53682426,6.92345956 5.90888383,6.37037037 C6.28094339,5.81728119 6.75929852,5.36790296 7.34396355,5.02222222 C7.92862859,4.67654148 8.58769565,4.41975393 9.32118451,4.25185185 C9.88392133,4.12303643 10.4435232,4.04363571 11,4.01364855 L11,2 C11,1.44771525 11.4477153,1 12,1 C12.5522847,1 13,1.44771525 13,2 L13,4.06898371 C13.3775377,4.10553663 13.7404831,4.15661607 14.0888383,4.22222222 C14.8754785,4.37037111 15.571751,4.62715867 16.1776765,4.99259259 C16.7836021,5.35802652 17.2672723,5.85184874 17.6287016,6.47407407 C17.9901309,7.09629941 18.2027332,7.8716003 18.2665148,8.8 C17.841306,9.10617284 17.3993183,9.25925926 16.9405518,9.25925926 C16.4817852,9.25925926 16.0202042,9.10617284 15.5558087,8.8 C15.5132876,8.30617037 15.3750961,7.89629793 15.1412301,7.57037037 C14.9073641,7.24444281 14.6097209,6.98271704 14.2482916,6.78518519 C13.8868623,6.58765333 13.488233,6.44444489 13.0523918,6.35555556 C12.6165506,6.26666622 12.1754009,6.22222222 11.7289294,6.22222222 C11.324979,6.22222222 10.9157196,6.25185156 10.501139,6.31111111 C10.0865583,6.37037067 9.70918925,6.47407333 9.3690205,6.62222222 C9.02885175,6.77037111 8.75246879,6.9679 8.53986333,7.21481481 C8.32725786,7.46172963 8.22095672,7.78271407 8.22095672,8.17777778 C8.22095672,8.61234785 8.38572349,8.97283807 8.71526196,9.25925926 C9.04480043,9.54568044 9.46468993,9.78271511 9.97494305,9.97037037 C10.4851962,10.1580256 11.0592223,10.3160487 11.6970387,10.4444444 C12.3348551,10.5728401 12.972662,10.7061721 13.6104784,10.8444444 C14.2908159,10.9827167 14.955198,11.1506163 15.6036446,11.3481481 C16.2520913,11.54568 16.8261175,11.8074058 17.3257403,12.1333333 C17.8253632,12.4592609 18.2293075,12.8691333 18.5375854,13.362963 C18.8458633,13.8567926 19,14.4691321 19,15.2 C19,16.1283997 18.7927128,16.8987624 18.3781321,17.5111111 C17.9635515,18.1234599 17.4214156,18.6172821 16.7517084,18.9925926 C16.0820012,19.3679031 15.3272631,19.6296289 14.4874715,19.7777778 C13.9897782,19.8655766 13.4939561,19.9273585 13,19.963124 L13,22 C13,22.5522847 12.5522847,23 12,23 C11.4477153,23 11,22.5522847 11,22 L11,19.9644735 z"/>
</svg>