<svg xmlns="http://www.w3.org/2000/svg" width="24" height="24" viewBox="0 0 24 24">
  <path d="M12,5.00462606 L10.3342947,9.72412447 C10.1931847,10.1239361 9.81528711,10.3913043 9.39130435,10.3913043 L4.89131762,10.3913043 L8.70477807,13.3875947 C9.03674234,13.6484238 9.16914341,14.08963 9.03563982,14.4901408 L7.42047381,19.3356388 L11.4086363,16.4109863 C11.7606273,16.1528596 12.2393727,16.1528596 12.5913637,16.4109863 L16.5795262,19.3356388 L14.9643602,14.4901408 C14.8308566,14.08963 14.9632577,13.6484238 15.2952219,13.3875947 L19.1086824,10.3913043 L14.6086957,10.3913043 C14.1847129,10.3913043 13.8068153,10.1239361 13.6657053,9.72412447 L12,5.00462606 Z M8.68378927,8.39130435 L11.0570097,1.66717988 C11.3709767,0.777606706 12.6290233,0.777606706 12.9429903,1.66717988 L15.3162107,8.39130435 L22,8.39130435 C22.949678,8.39130435 23.3645708,9.59089115 22.6178216,10.1776227 L17.084296,14.5253928 L19.4704224,21.6837722 C19.7787,22.6086049 18.7165068,23.3829013 17.9303755,22.806405 L12,18.457463 L6.06962453,22.806405 C5.28349317,23.3829013 4.22130001,22.6086049 4.52957757,21.6837722 L6.91570405,14.5253928 L1.38217845,10.1776227 C0.63542922,9.59089115 1.050322,8.39130435 2,8.39130435 L8.68378927,8.39130435 Z"/>
</svg>
