<svg xmlns="http://www.w3.org/2000/svg" width="24" height="24" viewBox="0 0 24 24">
  <path d="M10.9565217,2 C10.9565217,1.44771525 11.404237,1 11.9565217,1 C12.5088065,1 12.9565217,1.44771525 12.9565217,2 L12.9565217,5.55555556 C12.9565217,6.10784031 12.5088065,6.55555556 11.9565217,6.55555556 C11.404237,6.55555556 10.9565217,6.10784031 10.9565217,5.55555556 L10.9565217,2 Z M16.6634652,9.10719461 C16.2502419,9.47361634 15.6182146,9.43567611 15.2517929,9.02245273 C14.8853712,8.60922935 14.9233114,7.97720211 15.3365348,7.61078038 L17.9968267,5.25179289 C18.4100501,4.88537116 19.0420773,4.92331139 19.4084991,5.33653477 C19.7749208,5.74975814 19.7369806,6.38178538 19.3237572,6.74820711 L16.6634652,9.10719461 Z M18,13 C17.4477153,13 17,12.5522847 17,12 C17,11.4477153 17.4477153,11 18,11 L21.5555556,11 C22.1078403,11 22.5555556,11.4477153 22.5555556,12 C22.5555556,12.5522847 22.1078403,13 21.5555556,13 L18,13 Z M14.8700428,17.3181597 C14.4795613,16.9275927 14.4796307,16.2944277 14.8701977,15.9039462 C15.2607648,15.5134647 15.8939298,15.5135341 16.2844113,15.9041011 L18.7982933,18.418534 C19.1887748,18.8091011 19.1887054,19.4422661 18.7981383,19.8327476 C18.4075713,20.2232291 17.7744063,20.2231597 17.3839248,19.8325926 L14.8700428,17.3181597 Z M10.9565217,18.3970338 C10.9565217,17.8447491 11.404237,17.3970338 11.9565217,17.3970338 C12.5088065,17.3970338 12.9565217,17.8447491 12.9565217,18.3970338 L12.9565217,21.9525894 C12.9565217,22.5048741 12.5088065,22.9525894 11.9565217,22.9525894 C11.404237,22.9525894 10.9565217,22.5048741 10.9565217,21.9525894 L10.9565217,18.3970338 Z M6.75731834,15.9040237 C7.14784263,15.5134994 7.78100761,15.5134994 8.1715319,15.9040237 C8.56205619,16.2945479 8.56205619,16.9277129 8.1715319,17.3182372 L5.65737446,19.8323947 C5.26685017,20.222919 4.63368519,20.222919 4.2431609,19.8323947 C3.8526366,19.4418704 3.8526366,18.8087054 4.2431609,18.4181811 L6.75731834,15.9040237 Z M5.55555556,11 C6.10784031,11 6.55555556,11.4477153 6.55555556,12 C6.55555556,12.5522847 6.10784031,13 5.55555556,13 L2,13 C1.44771525,13 1,12.5522847 1,12 C1,11.4477153 1.44771525,11 2,11 L5.55555556,11 Z M8.22076775,6.8079354 C8.61118476,7.19856695 8.61101084,7.8317319 8.2203793,8.22214891 C7.82974775,8.61256592 7.1965828,8.612392 6.80616579,8.22176046 L4.29269902,5.70691253 C3.90228201,5.31628098 3.90245593,4.68311603 4.29308747,4.29269902 C4.68371902,3.90228201 5.31688397,3.90245593 5.70730098,4.29308747 L8.22076775,6.8079354 Z M12,16 C9.790861,16 8,14.209139 8,12 C8,9.790861 9.790861,8 12,8 C14.209139,8 16,9.790861 16,12 C16,14.209139 14.209139,16 12,16 Z"/>
</svg>
