<svg xmlns="http://www.w3.org/2000/svg" width="24" height="24" viewBox="0 0 24 24" stroke="currentColor">
  <path fill="none" stroke="currentColor" stroke-linecap="round" stroke-linejoin="round" stroke-width="2" d="M15.1304348,12 C15.1304348,13.7287826 13.7287826,15.1304348 12,15.1304348 C10.2704348,15.1304348 8.86956522,13.7287826 8.86956522,12 C8.86956522,10.2704348 10.2704348,8.86956522 12,8.86956522 C13.7287826,8.86956522 15.1304348,10.2704348 15.1304348,12 Z M12.3913043,3 L12.3913043,6.13043478 L12.3913043,3 Z M12.3913043,17.8695652 L12.3913043,21 L12.3913043,17.8695652 Z M5.63598261,5.63598261 L7.84841739,7.84998261 L5.63598261,5.63598261 Z M16.1499391,16.1499391 L18.3639391,18.3647217 L16.1499391,16.1499391 Z M3,12.3913043 L6.13043478,12.3913043 L3,12.3913043 Z M17.8695652,12.3913043 L21,12.3913043 L17.8695652,12.3913043 Z M5.63598261,18.3648 L7.84841739,16.1500174 L5.63598261,18.3648 Z M16.1499391,7.85006087 L18.3639391,5.63606087 L16.1499391,7.85006087 Z"/>
</svg>
