<svg xmlns="http://www.w3.org/2000/svg" width="24" height="24" viewBox="0 0 24 24">
  <path d="M5.77671544,4.17087004 L8.70283668,6.98634333 C9.64900281,6.36285106 10.7821272,6 12,6 C15.3137085,6 18,8.6862915 18,12 C18,15.3137085 15.3137085,18 12,18 C8.6862915,18 6,15.3137085 6,12 C6,10.6272284 6.46102141,9.36213415 7.23668421,8.35109723 L4.34277347,5.56661643 C2.8805956,7.30533551 2,9.54951474 2,12 C2,17.524229 6.47523326,22 12,22 C17.5223159,22 22,17.5228538 22,12 C22,6.47714622 17.5223159,2 12,2 C9.64697085,2 7.48432245,2.8118851 5.77671544,4.17087004 Z M2.89885486,4.17729796 L1.03044039,2.37953546 C0.632464085,1.99660817 0.620264443,1.36356074 1.00319173,0.96558443 C1.38611901,0.567608124 2.01916645,0.555408482 2.41714276,0.938335767 L4.32487806,2.77393223 C6.40495972,1.04177304 9.08040755,0 12,0 C18.6268316,0 24,5.37252293 24,12 C24,18.6274771 18.6268316,24 12,24 C5.37060996,24 0,18.6287448 0,12 C0,9.01105001 1.09193884,6.27776962 2.89885486,4.17729796 Z M8.6916366,9.75103225 C8.25515026,10.3918852 8,11.1661458 8,12 C8,14.209139 9.790861,16 12,16 C14.209139,16 16,14.209139 16,12 C16,9.790861 14.209139,8 12,8 C11.3525616,8 10.7410499,8.15381994 10.200016,8.4269085 L12.7748729,10.9044002 C13.1728492,11.2873274 13.1850489,11.9203749 12.8021216,12.3183512 C12.4191943,12.7163275 11.7861469,12.7285271 11.3881706,12.3455998 L8.6916366,9.75103225 Z"/>
</svg>
