<svg xmlns="http://www.w3.org/2000/svg" width="24" height="24" viewBox="0 0 24 24">
  <path d="M15.2726 12.9603L13.2921 12.9796V17.2781C13.2625 17.6082 13.1506 17.9264 12.964 18.2007C12.7223 18.556 12.3792 18.8037 11.9985 18.9216L9.68481 13.5845V5.00002L17.0544 5.00004L17.0627 5.00001C17.4457 4.9984 17.8252 5.28209 17.9084 5.74544L18.9851 11.7206L18.9855 11.723C19.0346 12.0048 18.9572 12.2885 18.7869 12.4963L18.7483 12.5434L18.7127 12.5927C18.5553 12.8105 18.3251 12.9369 18.0869 12.9602H17.3725L17.3566 12.9592C17.2965 12.9558 17.2345 12.9542 17.1868 12.9533C17.0836 12.9513 16.9437 12.9505 16.7755 12.9505C16.435 12.9505 15.9326 12.9538 15.2726 12.9603ZM14.6176 19.3257C15.0199 18.7344 15.2479 18.0507 15.2921 17.3522V14.9602C16.6092 14.9473 17.27 14.9473 17.2745 14.9602H18.1553C19.0201 14.9146 19.8195 14.4757 20.3337 13.7641C20.8778 13.1003 21.1052 12.224 20.9545 11.3721L19.877 5.39205C19.6274 4.00195 18.4383 2.99423 17.0544 3.00002H8.85601C8.20918 3.00002 7.68481 3.5355 7.68481 4.19604V13.7641C7.68722 13.9293 7.72311 14.0922 7.79022 14.2425L10.4137 20.2944C10.6041 20.7269 11.0268 21.0038 11.4912 21C12.7386 20.9969 13.9058 20.3718 14.6176 19.3257ZM4 13.8239C3.44772 13.8239 3 13.3762 3 12.8239V4.05981C3 3.50753 3.44772 3.05981 4 3.05981H5.51359C6.06587 3.05981 6.51359 3.50753 6.51359 4.05981V12.8239C6.51359 13.3762 6.06587 13.8239 5.51359 13.8239H4Z"/>
</svg>
