<svg xmlns="http://www.w3.org/2000/svg" width="24" height="24" viewBox="0 0 24 24">
  <path d="M15.2921 9.0399C15.2921 9.0399 17.2677 9.05924 17.2745 9.0399H18.1552C19.0201 9.08551 19.8194 9.52437 20.3337 10.2359C20.8778 10.8998 21.1052 11.7761 20.9544 12.6279L19.8769 18.608C19.6273 19.9981 18.4382 21.0058 17.0543 21H8.85595C8.20912 21 7.68475 20.4646 7.68475 19.804V10.2359C7.68716 10.0707 7.72305 9.90784 7.79016 9.75751L10.4136 3.70569C10.604 3.27311 11.0267 2.99629 11.4911 3.00004C12.7385 3.00312 13.9058 3.62825 14.6175 4.67437C15.0198 5.2657 15.2479 5.94938 15.2921 6.64788V9.0399ZM14.7705 11.4319C13.1317 11.4319 11.9995 9.75757 12.58 8.19258L12.8661 7.42139C13.0332 6.95958 12.9689 6.44352 12.6938 6.03919C12.557 5.83803 12.3765 5.67714 12.1688 5.56609L10.0271 10.5061V18.608L17.0639 18.608C17.3135 18.6091 17.5279 18.4274 17.5732 18.1751L18.6493 12.2025C18.6765 12.0489 18.6355 11.8909 18.5374 11.7712L18.449 11.6563C18.3584 11.531 18.2214 11.4502 18.0711 11.4319H14.7705Z M4 10.1761C3.44772 10.1761 3 10.6238 3 11.1761V19.9402C3 20.4925 3.44771 20.9402 4 20.9402H5.51359C6.06587 20.9402 6.51359 20.4925 6.51359 19.9402V11.1761C6.51359 10.6238 6.06587 10.1761 5.51359 10.1761H4Z"/>
</svg>