<svg xmlns="http://www.w3.org/2000/svg" width="24" height="24" viewBox="0 0 24 24">
  <path fill="none" stroke="#000" stroke-width="2" d="M4,12.8239451 L5.51358562,12.8239451 L5.51358562,4.05982549 L4,4.05982549 L4,12.8239451 Z M14.7705118,13.5681311 C13.835316,13.5681311 13.1770336,14.5416061 13.5175491,15.4596163 L13.8064682,16.238395 C14.0826289,17.0015418 13.9764395,17.8534235 13.5206421,18.5233748 C13.2939706,18.8565466 12.9922149,19.1277205 12.6402344,19.3158751 L11.6830323,19.8275568 L9.02717124,13.7013886 L9.02717124,4.39202621 L10.0271719,4.39202685 L17.0597552,4.39204008 C17.7993285,4.38894595 18.4271159,4.92210158 18.557357,5.64758944 L19.6340706,11.6232545 C19.7119881,12.0635364 19.5943458,12.5168766 19.3297691,12.8389564 L19.259486,12.9294784 C19.0063942,13.2796805 18.6197737,13.5088822 18.1915537,13.5608481 L18.071084,13.5681311 L14.7705118,13.5681311 Z M17.3983805,13.9603653 C17.4138382,13.9323767 17.4263888,13.9188939 17.4864541,13.9605128 L18.1026082,13.9615451 C18.6641918,13.9319323 19.185434,13.6457562 19.5602723,13.1302465 C19.9189953,12.6925698 20.0697538,12.1116146 19.9702704,11.5494442 L18.8926574,5.56874715 C18.7282995,4.65320851 17.9531191,3.99627339 17.0543425,4.00002482 L8.85597603,4.00002482 C8.76617528,4.00002482 8.68478083,4.08314406 8.68478083,4.19603811 L8.68467508,13.7496023 C8.68510761,13.7793421 8.69152435,13.8084652 8.70768766,13.8448123 L11.3289297,19.8915225 C11.3593221,19.9605724 11.4203868,20.0005633 11.4886944,20.0000279 C12.4045175,19.997765 13.2639383,19.5375001 13.7907376,18.7631869 C14.0875542,18.3269127 14.2606819,17.8172629 14.2921002,17.3521843 L14.2921002,13.9698979 L15.2823125,13.9602056 C15.9438328,13.9537306 16.4411555,13.9504891 16.7754916,13.9504891 C16.9466076,13.9504891 17.0764573,13.9513315 17.1674103,13.9530939 C17.2353553,13.9545993 17.2353553,13.9545993 17.2992775,13.957568 C17.3171337,13.9586263 17.3259555,13.9591492 17.338162,13.9602644 L17.3983805,13.9603653 Z"/>
</svg>
