<svg xmlns="http://www.w3.org/2000/svg" width="24" height="24" viewBox="0 0 24 24">
  <path fill="none" stroke="#000" stroke-width="2" d="M4,11.1761173 L4,19.9402369 L5.51358562,19.9402369 L5.51358562,11.1761173 L4,11.1761173 Z M14.7705118,10.4319313 L18.071084,10.4319313 L18.1915537,10.4392142 C18.6197737,10.4911802 19.0063942,10.7203819 19.2413244,11.0462413 L19.3108528,11.1372969 C19.5943458,11.4831858 19.7119881,11.936526 19.6335234,12.3798722 L18.5574704,18.3518423 C18.4271159,19.0779608 17.7993285,19.6111164 17.0639395,19.6080311 L9.02717124,19.6080362 L9.02717124,10.2986738 L11.6830323,4.17250562 L12.6402344,4.68418726 C12.9922149,4.87234184 13.2939706,5.14351579 13.5206421,5.47668759 C13.9764395,6.1466389 14.0826289,6.99852062 13.8036885,7.76925283 L13.5175817,8.54035801 C13.1770336,9.45845624 13.835316,10.4319313 14.7705118,10.4319313 Z M17.3984952,10.0399047 L17.3369845,10.0399047 C17.3253737,10.0409477 17.3165545,10.0414704 17.2992775,10.0424943 C17.2353553,10.0454631 17.2353553,10.0454631 17.1674103,10.0469685 C17.0764573,10.0487308 16.9466076,10.0495733 16.7754916,10.0495733 C16.4411555,10.0495733 15.9438328,10.0463318 15.2823125,10.0398568 L14.2921002,10.0301645 L14.2921002,9.03990467 L14.2940949,6.71100909 C14.2606819,6.18279951 14.0875542,5.67314973 13.7907376,5.23687544 C13.2639383,4.46256229 12.4045175,4.0022974 11.4830974,4.00000502 C11.4203868,3.99949906 11.3593221,4.03948997 11.3311649,4.10342288 L8.70331096,10.1651978 C8.69152435,10.1915971 8.68510761,10.2207203 8.68478083,10.235918 L8.68478083,19.8040243 C8.68478083,19.9169183 8.76617528,20.0000376 8.85597603,20.0000376 L17.0585261,20.0000463 C17.9531191,20.003789 18.7282995,19.3468539 18.8927708,18.4306846 L19.9697235,12.4536805 C20.0697538,11.8884478 19.9189953,11.3074926 19.5231944,10.821664 C19.185434,10.3543062 18.6641918,10.0681301 18.155266,10.0399047 L17.4859408,10.0399047 C17.4264651,10.0809892 17.4138565,10.0676724 17.3984952,10.0399047 Z M17.1825179,8.04588175 C17.1832226,8.04584882 17.1839616,8.04581358 17.1847688,8.04577509 C17.183988,8.04580366 17.1833049,8.04582865 17.1826254,8.04585942 Z"/>
</svg>
