<svg xmlns="http://www.w3.org/2000/svg" width="24" height="24" viewBox="0 0 24 24">
  <path d="M18.5692642,11.5387385 C17.4586365,10.3813095 14.8854721,8.07725193 12,8.07725193 C9.11452786,8.07725193 6.54136353,10.3813095 5.43073577,11.5387385 C6.54046351,12.6943674 9.11452786,15.000225 12,15.000225 C14.8854721,15.000225 17.4586365,12.6952674 18.5692642,11.5387385 Z M12,6 C16.8439211,6 20.6177154,10.6936173 20.7752194,10.8943224 C21.0749269,11.2714318 21.0749269,11.8051451 20.7752194,12.1831546 C20.6177154,12.3829596 16.8439211,17.0774769 12,17.0774769 C7.1560789,17.0774769 3.38228456,12.3829596 3.22478062,12.1831546 C2.92507313,11.8051451 2.92507313,11.2714318 3.22478062,10.8943224 C3.38228456,10.6936173 7.1560789,6 12,6 Z M11.8445211,8.7000675 C10.3153829,8.7000675 9.07515188,9.93939848 9.07515188,11.4694367 C9.07515188,12.999475 10.3153829,14.238806 11.8445211,14.238806 C13.3736593,14.238806 14.6138903,12.999475 14.6138903,11.4694367 C14.6138903,9.93939848 13.3736593,8.7000675 11.8445211,8.7000675 Z"/>
</svg>
