<svg xmlns="http://www.w3.org/2000/svg" width="24" height="24" viewBox="0 0 24 24">
  <path d="M13.4142136,12 L22.7071068,21.2928932 C23.0976311,21.6834175 23.0976311,22.3165825 22.7071068,22.7071068 C22.3165825,23.0976311 21.6834175,23.0976311 21.2928932,22.7071068 L12,13.4142136 L2.70710678,22.7071068 C2.31658249,23.0976311 1.68341751,23.0976311 1.29289322,22.7071068 C0.902368927,22.3165825 0.902368927,21.6834175 1.29289322,21.2928932 L10.5857864,12 L1.29289322,2.70710678 C0.902368927,2.31658249 0.902368927,1.68341751 1.29289322,1.29289322 C1.68341751,0.902368927 2.31658249,0.902368927 2.70710678,1.29289322 L12,10.5857864 L21.2928932,1.29289322 C21.6834175,0.902368927 22.3165825,0.902368927 22.7071068,1.29289322 C23.0976311,1.68341751 23.0976311,2.31658249 22.7071068,2.70710678 L13.4142136,12 Z"/>
</svg>
