<svg xmlns="http://www.w3.org/2000/svg" width="24" height="24" viewBox="0 0 24 24">
  <path d="M16,15.2131995 L16,22 C16,22.5522847 15.5522847,23 15,23 L2,23 C1.44771525,23 1,22.5522847 1,22 L1,9 C1,8.44771525 1.44771525,8 2,8 L8.64520562,8 L8.64520562,6.58198708 C8.64520562,6.16777352 8.98099205,5.83198708 9.39520562,5.83198708 C9.80941918,5.83198708 10.1452056,6.16777352 10.1452056,6.58198708 L10.1452056,8 L13.5857864,8 L15.0857864,6.5 L14.5,6.5 C13.9477153,6.5 13.5,6.05228475 13.5,5.5 C13.5,4.94771525 13.9477153,4.5 14.5,4.5 L17.5,4.5 C18.0522847,4.5 18.5,4.94771525 18.5,5.5 L18.5,8.5 C18.5,9.05228475 18.0522847,9.5 17.5,9.5 C16.9477153,9.5 16.5,9.05228475 16.5,8.5 L16.5,7.91421356 L15.8833503,8.53086324 C15.9578077,8.67076951 16,8.83045749 16,9 L16,13.7131995 L17.3325482,13.7131995 C17.7467618,13.7131995 18.0825482,14.048986 18.0825482,14.4631995 C18.0825482,14.8774131 17.7467618,15.2131995 17.3325482,15.2131995 L16,15.2131995 Z M14,15.108751 C13.7797015,14.9781029 13.6320201,14.7378977 13.6320201,14.4631995 C13.6320201,14.1885014 13.7797015,13.9482961 14,13.8176481 L14,10.4142136 L12.2071068,12.2071068 C11.8165825,12.5976311 11.1834175,12.5976311 10.7928932,12.2071068 C10.4023689,11.8165825 10.4023689,11.1834175 10.7928932,10.7928932 L11.5857864,10 L9.98172116,10 C9.84429823,10.1721867 9.63263623,10.2825152 9.39520562,10.2825152 C9.157775,10.2825152 8.946113,10.1721867 8.80869008,10 L3,10 L3,21 L14,21 L14,15.108751 Z M20.3748254,13.695433 L21.4954396,13.695433 L21.4954396,12.5748188 C21.4954396,12.1606052 21.831226,11.8248188 22.2454396,11.8248188 C22.6596532,11.8248188 22.9954396,12.1606052 22.9954396,12.5748188 L22.9954396,14.445433 C22.9954396,14.8596466 22.6596532,15.195433 22.2454396,15.195433 L20.3748254,15.195433 C19.9606118,15.195433 19.6248254,14.8596466 19.6248254,14.445433 C19.6248254,14.0312194 19.9606118,13.695433 20.3748254,13.695433 Z M10.1273995,13.6954132 L11.2480137,13.6954132 C11.6622273,13.6954132 11.9980137,14.0311996 11.9980137,14.4454132 C11.9980137,14.8596268 11.6622273,15.1954132 11.2480137,15.1954132 L9.37739949,15.1954132 C8.96318593,15.1954132 8.62739949,14.8596268 8.62739949,14.4454132 L8.62739949,12.574799 C8.62739949,12.1605854 8.96318593,11.824799 9.37739949,11.824799 C9.79161305,11.824799 10.1273995,12.1605854 10.1273995,12.574799 L10.1273995,13.6954132 Z M10.1274193,2.3273665 L10.1274193,3.44798071 C10.1274193,3.86219427 9.79163285,4.19798071 9.37741929,4.19798071 C8.96320573,4.19798071 8.62741929,3.86219427 8.62741929,3.44798071 L8.62741929,1.5773665 C8.62741929,1.16315294 8.96320573,0.827366497 9.37741929,0.827366497 L11.2480335,0.827366497 C11.6622471,0.827366497 11.9980335,1.16315294 11.9980335,1.5773665 C11.9980335,1.99158006 11.6622471,2.3273665 11.2480335,2.3273665 L10.1274193,2.3273665 Z M14.2903173,2.34517922 C13.8761037,2.34517922 13.5403173,2.00939278 13.5403173,1.59517922 C13.5403173,1.18096566 13.8761037,0.84517922 14.2903173,0.84517922 L17.2408454,0.84517922 C17.655059,0.84517922 17.9908454,1.18096566 17.9908454,1.59517922 C17.9908454,2.00939278 17.655059,2.34517922 17.2408454,2.34517922 L14.2903173,2.34517922 Z M21.495466,2.32739289 L20.3748518,2.32739289 C19.9606382,2.32739289 19.6248518,1.99160646 19.6248518,1.57739289 C19.6248518,1.16317933 19.9606382,0.827392893 20.3748518,0.827392893 L22.245466,0.827392893 C22.6596796,0.827392893 22.995466,1.16317933 22.995466,1.57739289 L22.995466,3.44800711 C22.995466,3.86222067 22.6596796,4.19800711 22.245466,4.19800711 C21.8312524,4.19800711 21.495466,3.86222067 21.495466,3.44800711 L21.495466,2.32739289 Z M21.5132259,6.49028426 C21.5132259,6.0760707 21.8490124,5.74028426 22.2632259,5.74028426 C22.6774395,5.74028426 23.0132259,6.0760707 23.0132259,6.49028426 L23.0132259,9.44081241 C23.0132259,9.85502597 22.6774395,10.1908124 22.2632259,10.1908124 C21.8490124,10.1908124 21.5132259,9.85502597 21.5132259,9.44081241 L21.5132259,6.49028426 Z"/>
</svg>
