<svg width="24" height="24" viewBox="0 0 24 24" xmlns="http://www.w3.org/2000/svg">
<path d="M10 15C9.96213 15 9.92475 14.9979 9.88798 14.9938C9.4252 14.9422 9.05779 14.5748 9.0062 14.112C9.0021 14.0752 9 14.0379 9 14V12.5357C9 11.9834 9.44772 11.5357 10 11.5357C10.5523 11.5357 11 11.9834 11 12.5357V13H11.4643C12.0166 13 12.4643 13.4477 12.4643 14C12.4643 14.5523 12.0166 15 11.4643 15H10Z M 17.9643,15 c 0.5523,0 1,-0.4477 1,-1 0,-0.5523 -0.4477,-1 -1,-1 h -2.9286 c -0.0119,0 -0.0238,2e-4 -0.0357,6e-4 V 10.4202 L 17.0008,8.41936 17,9.04264 C 17,9.56922 17.45,10 18,10 18.5501,10 19,9.56919 19,9.04261 L 18.9961,6.08124 c 0.0025,-0.02812 0.0038,-0.05658 0.0038,-0.08532 0,-0.03797 -0.0022,-0.07544 -0.0066,-0.1123 C 18.956,5.38965 18.5255,5 18,5 L 17.9765,5.00026 17.9511,4.99997 15.053,4.99592 c -0.5792,0 -1.0531,0.44997 -1.0531,1.00001 0,0.55005 0.4739,0.99999 1.0531,0.99999 L 15.5966,6.99516 13.5917,9 H 10.9994 C 10.9998,8.98815 11,8.97624 11,8.96429 V 6.03571 c 0,-0.55228 -0.4477,-1 -1,-1 -0.55228,0 -1,0.44772 -1,1 V 8.96429 C 9,8.97624 9.00021,8.98815 9.00063,9 H 1 C 0.447715,9 0,9.44771 0,10 v 13 c 0,0.5523 0.447715,1 1,1 h 13 c 0.5523,0 1,-0.4477 1,-1 v -8.0006 c 0.0119,4e-4 0.0238,6e-4 0.0357,6e-4 z m -6.575,-3.7976 c -0.3905,0.3905 -0.3905,1.0237 0,1.4142 0.3905,0.3906 1.0237,0.3906 1.4142,0 L 13,12.4202 V 22 H 2 V 11 h 9.5917 z M24 6.03571C24 5.48343 23.5523 5.03571 23 5.03571C22.4477 5.03571 22 5.48343 22 6.03571V8.96429C22 9.51657 22.4477 9.96429 23 9.96429C23.5523 9.96429 24 9.51657 24 8.96429V6.03571Z M15.0357 0C14.4834 0 14.0357 0.447715 14.0357 1C14.0357 1.55228 14.4834 2 15.0357 2H17.9643C18.5166 2 18.9643 1.55228 18.9643 1C18.9643 0.447715 18.5166 0 17.9643 0H15.0357Z M10 0C9.96213 0 9.92475 0.002105 9.88798 0.00620438C9.4252 0.0577907 9.05779 0.425197 9.0062 0.887977C9.0021 0.924753 9 0.96213 9 1V2.46428C9 3.01657 9.44772 3.46428 10 3.46428C10.5523 3.46428 11 3.01657 11 2.46428V2H11.4643C12.0166 2 12.4643 1.55228 12.4643 1C12.4643 0.447715 12.0166 0 11.4643 0H10Z M20.5357 1C20.5357 0.447715 20.9834 0 21.5357 0H23C23.0379 0 23.0752 0.00210504 23.112 0.0062044C23.5748 0.0577906 23.9422 0.425197 23.9938 0.887977C23.9979 0.924753 24 0.962131 24 1V2.46429C24 3.01657 23.5523 3.46429 23 3.46429C22.4477 3.46429 22 3.01657 22 2.46429V2H21.5357C20.9834 2 20.5357 1.55228 20.5357 1Z M23 11.5357C23.5523 11.5357 24 11.9834 24 12.5357V14C24 14.0379 23.9979 14.0752 23.9938 14.112C23.9422 14.5748 23.5748 14.9422 23.112 14.9938C23.0752 14.9979 23.0379 15 23 15H21.5357C20.9834 15 20.5357 14.5523 20.5357 14C20.5357 13.4477 20.9834 13 21.5357 13H22V12.5357C22 11.9834 22.4477 11.5357 23 11.5357Z"/>
</svg>