<svg width="24" height="24" viewBox="0 0 24 24" xmlns="http://www.w3.org/2000/svg">
<path d="M9 5C10.1046 5 11 4.10457 11 3C11 1.89543 10.1046 1 9 1C7.89543 1 7 1.89543 7 3C7 4.10457 7.89543 5 9 5ZM15 5C16.1046 5 17 4.10457 17 3C17 1.89543 16.1046 1 15 1C13.8954 1 13 1.89543 13 3C13 4.10457 13.8954 5 15 5ZM11 9C11 10.1046 10.1046 11 9 11C7.89543 11 7 10.1046 7 9C7 7.89543 7.89543 7 9 7C10.1046 7 11 7.89543 11 9ZM15 11C16.1046 11 17 10.1046 17 9C17 7.89543 16.1046 7 15 7C13.8954 7 13 7.89543 13 9C13 10.1046 13.8954 11 15 11ZM11 15C11 16.1046 10.1046 17 9 17C7.89543 17 7 16.1046 7 15C7 13.8954 7.89543 13 9 13C10.1046 13 11 13.8954 11 15ZM15 17C16.1046 17 17 16.1046 17 15C17 13.8954 16.1046 13 15 13C13.8954 13 13 13.8954 13 15C13 16.1046 13.8954 17 15 17ZM11 21C11 22.1046 10.1046 23 9 23C7.89543 23 7 22.1046 7 21C7 19.8954 7.89543 19 9 19C10.1046 19 11 19.8954 11 21ZM15 23C16.1046 23 17 22.1046 17 21C17 19.8954 16.1046 19 15 19C13.8954 19 13 19.8954 13 21C13 22.1046 13.8954 23 15 23Z"/>
</svg>