<svg width="24" height="24" viewBox="0 0 24 24" xmlns="http://www.w3.org/2000/svg">
<path d="M5 2C5 1.44772 4.55229 1 4 1C3.44772 1 3 1.44772 3 2L3 22C3 22.5523 3.44772 23 4 23C4.55228 23 5 22.5523 5 22L5 2Z M12.4142 12L21.7071 2.70711C22.0976 2.31658 22.0976 1.68342 21.7071 1.29289C21.3166 0.902369 20.6834 0.902369 20.2929 1.29289L10.2929 11.2929C9.90237 11.6834 9.90237 12.3166 10.2929 12.7071L20.2929 22.7071C20.6834 23.0976 21.3166 23.0976 21.7071 22.7071C22.0976 22.3166 22.0976 21.6834 21.7071 21.2929L12.4142 12Z"/>
</svg>