<svg width="24" height="24" viewBox="0 0 24 24" xmlns="http://www.w3.org/2000/svg">
  <path d="M4 2C4 1.44772 3.55228 1 3 1C2.44772 1 2 1.44772 2 2V22C2 22.5523 2.44771 23 3 23C3.55228 23 4 22.5523 4 22L4 2ZM20.2929 1.29289C20.6834 0.902369 21.3166 0.902369 21.7071 1.29289C22.0976 1.68342 22.0976 2.31658 21.7071 2.70711L12.4142 12L21.7071 21.2929C22.0976 21.6834 22.0976 22.3166 21.7071 22.7071C21.3166 23.0976 20.6834 23.0976 20.2929 22.7071L10.2929 12.7071C9.90237 12.3166 9.90237 11.6834 10.2929 11.2929L20.2929 1.29289Z"/>
</svg>
