<svg width="24" height="24" viewBox="0 0 24 24" xmlns="http://www.w3.org/2000/svg">
  <path d="M22 2C22 1.44772 21.5523 1 21 1C20.4477 1 20 1.44772 20 2L20 22C20 22.5523 20.4477 23 21 23C21.5523 23 22 22.5523 22 22L22 2ZM2.29289 1.29289C1.90237 1.68342 1.90237 2.31658 2.29289 2.70711L11.5858 12L2.29289 21.2929C1.90237 21.6834 1.90237 22.3166 2.29289 22.7071C2.68342 23.0976 3.31658 23.0976 3.70711 22.7071L13.7071 12.7071C14.0976 12.3166 14.0976 11.6834 13.7071 11.2929L3.70711 1.29289C3.31658 0.902369 2.68342 0.902369 2.29289 1.29289Z"/>
</svg>
