<svg xmlns="http://www.w3.org/2000/svg" width="24" height="24" viewBox="0 0 24 24">
  <path d="M5.64331808,1.82021973 C6.11151737,1.52728992 6.72853441,1.6693739 7.02146422,2.13757318 C7.31439404,2.60577247 7.17231006,3.22278951 6.70411077,3.51571932 C3.80002161,5.33266848 2,8.51109797 2,12 C2,17.5228475 6.4771525,22 12,22 C17.5228475,22 22,17.5228475 22,12 C22,8.52935319 20.2189085,5.36532886 17.3394227,3.54311206 C16.8727353,3.24777958 16.7338246,2.63004038 17.0291571,2.16335293 C17.3244896,1.69666549 17.9422288,1.55775485 18.4089162,1.85308733 C21.8618377,4.03818973 24,7.83653353 24,12 C24,18.627417 18.627417,24 12,24 C5.372583,24 0,18.627417 0,12 C0,7.81460654 2.16085283,3.99903104 5.64331808,1.82021973 Z M11,1 C11,0.44771525 11.4477153,2.7533531e-14 12,2.7533531e-14 C12.5522847,2.7533531e-14 13,0.44771525 13,1 L13,11.454261 C13,12.0065457 12.5522847,12.454261 12,12.454261 C11.4477153,12.454261 11,12.0065457 11,11.454261 L11,1 Z"/>
</svg>
