<svg xmlns="http://www.w3.org/2000/svg" width="24" height="24" viewBox="0 0 24 24">
  <path d="M6.82008155,5.03829545 C7.22635131,4.7589066 7.78784967,4.85373105 8.07422324,5.2500918 C8.36059682,5.64645254 8.26340175,6.19425582 7.85713199,6.47364467 C5.95414007,7.78231879 4.8,9.90554149 4.8,12.2195122 C4.8,16.0989758 8.0235498,19.2439024 12,19.2439024 C15.9764502,19.2439024 19.2,16.0989758 19.2,12.2195122 C19.2,9.86772066 18.0074971,7.71402285 16.0527457,6.41266243 C15.6421727,6.13932667 15.5364595,5.59302701 15.8166287,5.19246799 C16.0967978,4.79190897 16.656755,4.68877413 17.067328,4.96210989 C19.5084379,6.58725974 21,9.28106782 21,12.2195122 C21,17.0688417 16.9705627,21 12,21 C7.02943725,21 3,17.0688417 3,12.2195122 C3,9.32839254 4.44366735,6.67253874 6.82008155,5.03829545 Z M11.1,3.87804878 C11.1,3.39311583 11.5029437,3 12,3 C12.4970563,3 12.9,3.39311583 12.9,3.87804878 L12.9,11.1472466 C12.9,11.6321795 12.4970563,12.0252954 12,12.0252954 C11.5029437,12.0252954 11.1,11.6321795 11.1,11.1472466 L11.1,3.87804878 Z"/>
</svg>
