<svg xmlns="http://www.w3.org/2000/svg" width="24" height="24" viewBox="0 0 24 24">
  <path d="M12.5,7 C11.6715729,7 11,6.32842712 11,5.5 C11,4.67157288 11.6715729,4 12.5,4 C13.3284271,4 14,4.67157288 14,5.5 C14,6.32842712 13.3284271,7 12.5,7 Z M12.5,14 C11.6715729,14 11,13.3284271 11,12.5 C11,11.6715729 11.6715729,11 12.5,11 C13.3284271,11 14,11.6715729 14,12.5 C14,13.3284271 13.3284271,14 12.5,14 Z M12.5,21 C11.6715729,21 11,20.3284271 11,19.5 C11,18.6715729 11.6715729,18 12.5,18 C13.3284271,18 14,18.6715729 14,19.5 C14,20.3284271 13.3284271,21 12.5,21 Z"/>
</svg>
