<svg xmlns="http://www.w3.org/2000/svg" width="24" height="24" viewBox="0 0 24 24">
  <path d="M11.75,4.5 C10.7835017,4.5 10,3.71649831 10,2.75 C10,1.78350169 10.7835017,1 11.75,1 C12.7164983,1 13.5,1.78350169 13.5,2.75 C13.5,3.71649831 12.7164983,4.5 11.75,4.5 Z M11.75,13.5 C10.7835017,13.5 10,12.7164983 10,11.75 C10,10.7835017 10.7835017,10 11.75,10 C12.7164983,10 13.5,10.7835017 13.5,11.75 C13.5,12.7164983 12.7164983,13.5 11.75,13.5 Z M11.75,23 C10.7835017,23 10,22.2164983 10,21.25 C10,20.2835017 10.7835017,19.5 11.75,19.5 C12.7164983,19.5 13.5,20.2835017 13.5,21.25 C13.5,22.2164983 12.7164983,23 11.75,23 Z"/>
</svg>
