<svg xmlns="http://www.w3.org/2000/svg" width="24" height="24" viewBox="0 0 24 24">
  <path d="M13.0009553,10.9666629 L22,10.9666629 C22.5522847,10.9666629 23,11.4143781 23,11.9666629 C23,12.5189476 22.5522847,12.9666629 22,12.9666629 L13.0011684,12.9666629 L13.0021308,21.9998935 C13.0021896,22.5521782 12.5545221,22.9999412 12.0022373,23 C11.4499526,23.0000588 11.0021896,22.5523913 11.0021308,22.0001065 L11.0011684,12.9666629 L2,12.9666629 C1.44771525,12.9666629 1,12.5189476 1,11.9666629 C1,11.4143781 1.44771525,10.9666629 2,10.9666629 L11.0009553,10.9666629 L11,2.00010654 C10.9999412,1.44782179 11.4476087,1.00005885 11.9998935,1.00000001 C12.5521782,0.999941166 12.9999412,1.44760871 13,1.99989346 L13.0009553,10.9666629 Z"/>
</svg>
