<svg xmlns="http://www.w3.org/2000/svg" width="24" height="24" viewBox="0 0 24 24">
  <path d="M17.031799,15.6175854 L22.7071068,21.2928932 C23.0976311,21.6834175 23.0976311,22.3165825 22.7071068,22.7071068 C22.3165825,23.0976311 21.6834175,23.0976311 21.2928932,22.7071068 L15.6175854,17.031799 C14.0778928,18.2634711 12.1249024,19 10,19 C5.02971525,19 1,14.9702847 1,10 C1,5.02971525 5.02971525,1 10,1 C14.9702847,1 19,5.02971525 19,10 C19,12.1249024 18.2634711,14.0778928 17.031799,15.6175854 Z M17,10 C17,6.13428475 13.8657153,3 10,3 C6.13428475,3 3,6.13428475 3,10 C3,13.8657153 6.13428475,17 10,17 C13.8657153,17 17,13.8657153 17,10 Z"/>
</svg>
