<svg xmlns="http://www.w3.org/2000/svg" width="24" height="24" viewBox="0 0 24 24">
  <path d="M12,2.41421356 L7.70710678,6.70710678 C7.31658249,7.09763107 6.68341751,7.09763107 6.29289322,6.70710678 C5.90236893,6.31658249 5.90236893,5.68341751 6.29289322,5.29289322 L11.2928932,0.292893219 C11.6834175,-0.0976310729 12.3165825,-0.0976310729 12.7071068,0.292893219 L17.7071068,5.29289322 C18.0976311,5.68341751 18.0976311,6.31658249 17.7071068,6.70710678 C17.3165825,7.09763107 16.6834175,7.09763107 16.2928932,6.70710678 L12,2.41421356 Z M12,21.5857864 L16.2928932,17.2928932 C16.6834175,16.9023689 17.3165825,16.9023689 17.7071068,17.2928932 C18.0976311,17.6834175 18.0976311,18.3165825 17.7071068,18.7071068 L12.7071068,23.7071068 C12.3165825,24.0976311 11.6834175,24.0976311 11.2928932,23.7071068 L6.29289322,18.7071068 C5.90236893,18.3165825 5.90236893,17.6834175 6.29289322,17.2928932 C6.68341751,16.9023689 7.31658249,16.9023689 7.70710678,17.2928932 L12,21.5857864 Z"/>
</svg>
