<svg xmlns="http://www.w3.org/2000/svg" width="24" height="24" viewBox="0 0 24 24">
  <path d="M4 6.28726732C4 6.08656916 4.09208221 5.885871 4.27624664 5.73025274L10.7554861.247796592C10.9381285.0934133934 11.1877398.00448867105 11.4518103.000165941491 11.7143588-.00415678807 11.9692971.0761224752 12.1587886.223712813L18.9150357 5.48200455C19.3107609 5.79015342 19.3229371 6.30023551 18.9439541 6.62073503 18.5649711 6.94185208 17.9363768 6.95235014 17.5406516 6.64481881L11.5012759 1.94415918 5.70922854 6.84489943C5.33024555 7.16601648 4.70089024 7.17651454 4.30592604 6.86836568 4.10273636 6.71089482 4 6.49908107 4 6.28726732zM19.2202148 17.8055118C19.2202148 18.00621 19.1281326 18.2069081 18.9439682 18.3625264L12.4647287 23.8449825C12.2820863 23.9993657 12.032475 24.0882904 11.7684046 24.0926132 11.5058561 24.0969359 11.2509177 24.0166566 11.0614262 23.8690663L4.30517912 18.6107746C3.9094539 18.3026257 3.89727774 17.7925436 4.27626074 17.4720441 4.65524373 17.150927 5.28383803 17.140429 5.67956325 17.4479603L11.7189389 22.1486199 17.5109863 17.2478797C17.8899693 16.9267626 18.5193246 16.9162646 18.9142888 17.2244134 19.1174785 17.3818843 19.2202148 17.5936981 19.2202148 17.8055118z"/>
</svg>
