<svg xmlns="http://www.w3.org/2000/svg" width="24" height="24" viewBox="0 0 24 24">
  <path d="M13,11 L17,11 C17.5522847,11 18,11.4477153 18,12 C18,12.5522847 17.5522847,13 17,13 L13,13 L13,17 C13,17.5522847 12.5522847,18 12,18 C11.4477153,18 11,17.5522847 11,17 L11,13 L7,13 C6.44771525,13 6,12.5522847 6,12 C6,11.4477153 6.44771525,11 7,11 L11,11 L11,7 C11,6.44771525 11.4477153,6 12,6 C12.5522847,6 13,6.44771525 13,7 L13,11 Z M22,12 C22,6.47714622 17.5223159,2 12,2 C6.47523326,2 2,6.47577095 2,12 C2,17.524229 6.47523326,22 12,22 C17.5223159,22 22,17.5228538 22,12 Z M24,12 C24,18.6274771 18.6268316,24 12,24 C5.37060996,24 0,18.6287448 0,12 C0,5.37125524 5.37060996,0 12,0 C18.6268316,0 24,5.37252293 24,12 Z"/>
</svg>
