<svg width="24" height="24" viewBox="0 0 24 24" xmlns="http://www.w3.org/2000/svg">
<path d="m 16.4165,12.0945 c -0.532,0.5803 -0.7866,1.25 -1.0271,1.9546 L 15,15.2196 C 14.9139,15.6513 14.4402,16 14,16 H 10 C 9.55976,16 9.08606,15.6512 9.00002,15.2195 l -0.39,-1.1719 -0.00408,-0.012 C 8.36573,13.3298 8.13727,12.6585 7.61948,12.134 6.50001,11 5.9851,9.51054 6.00001,8.00003 c -0.01491,-2.98949 2.50001,-6 5.99999,-6 3.5,0 5.9999,3 5.9999,6 0,1.5 -0.4999,2.99997 -1.5834,4.09447 z M 9.04275,10.7289 c 0.84833,0.8593 1.20705,1.9228 1.42465,2.568 l 0.036,0.1063 0.0043,0.0128 L 10.702,14 h 2.596 l 0.1961,-0.5895 0.0025,-0.0073 c 0.2447,-0.7169 0.6066,-1.7449 1.4456,-2.6602 l 0.026,-0.0282 0.027,-0.0273 c 0.6472,-0.6538 1.0047,-1.61326 1.0047,-2.68747 0,-2.00473 -1.7107,-4 -3.9999,-4 -2.29532,0 -4.00989,2.0103 -4.00002,3.99002 l 8e-5,0.01486 -1.5e-4,0.01486 C 7.98962,9.06209 8.34068,10.0177 9.04275,10.7289 Z M10 19C9.44772 19 9.00001 18.5523 9.00001 18C9.00001 17.4477 9.44772 17 10 17H14C14.5523 17 15 17.4477 15 18C15 18.5523 14.5523 19 14 19H10Z M10 22C9.44772 22 9.00001 21.5523 9.00001 21C9.00001 20.4477 9.44772 20 10 20H14C14.5523 20 15 20.4477 15 21C15 21.5523 14.5523 22 14 22H13.4145C13.2086 22.5826 12.6529 23 11.9998 23C11.3467 23 10.7911 22.5826 10.5852 22H10Z" />
</svg>