<svg xmlns="http://www.w3.org/2000/svg" width="24" height="24" viewBox="0 0 24 24">
  <path fill-rule="evenodd" d="M13.502021,21.4586466 C12.698464,21.4586466 11.0169766,20.9790487 10.8189167,20.2957661 C9.78496362,20.1614209 9,19.3697954 9,18.424323 L9,18.2105263 L16,18.2105263 L16,18.424323 C16,19.3683508 15.21827,20.1599763 14.1859337,20.2957661 C13.9878739,20.9783264 13.3071948,21.4586466 12.502021,21.4586466 L13.502021,21.4586466 Z M10.5119714,13.0448547 L14.5006893,13.0448547 L14.5006893,11.1837064 L14.5210448,11.1579857 C14.9974616,10.564234 15.57711,9.92990877 16.0709743,9.46186294 C16.7039349,8.86159055 17.0383475,8.14140858 17.0383475,7.37811713 C17.0383475,5.5153527 15.0115166,4 12.5194161,4 C10.0273155,4 8,5.5153527 8,7.37811713 C8,8.14104631 8.33441256,8.86122828 8.96688848,9.46113841 C9.51503427,9.98062581 10.0423399,10.5569887 10.4921005,11.1279177 L10.5119714,11.1536385 L10.5119714,13.0448547 Z M7.24643532,11.2749854 C6.13366427,10.2195102 5.5,8.85449962 5.5,7.37811713 C5.5,3.95052587 8.77843753,1.5 12.5194161,1.5 C16.2603512,1.5 19.5383475,3.95055884 19.5383475,7.37811713 C19.5383475,8.85497664 18.904588,10.2200367 17.7906735,11.2764248 C17.5466658,11.5076762 17.2691474,11.7969353 17.0006893,12.0976674 L17.0006893,13.0448547 C17.0006893,14.4255666 15.8814012,15.5448547 14.5006893,15.5448547 L10.5119714,15.5448547 C9.13125954,15.5448547 8.01197142,14.4255666 8.01197142,13.0448547 L8.01197142,12.0622204 C7.76887952,11.7912438 7.51026719,11.5250237 7.24643532,11.2749854 Z M9.5,17.2894737 C9.22385763,17.2894737 9,17.0656161 9,16.7894737 C9,16.5133313 9.22385763,16.2894737 9.5,16.2894737 L15.5,16.2894737 C15.7761424,16.2894737 16,16.5133313 16,16.7894737 C16,17.0656161 15.7761424,17.2894737 15.5,17.2894737 L9.5,17.2894737 Z"/>
</svg>
