<svg width="24" height="24" viewBox="0 0 24 24"  xmlns="http://www.w3.org/2000/svg">
<path d="M8 10C8 9.44772 8.44772 9 9 9C9.55228 9 10 9.44772 10 10V16C10 16.5523 9.55228 17 9 17C8.44772 17 8 16.5523 8 16V10Z M 7,5 V 3 C 7,2.44772 7.44772,2 8,2 h 8 c 0.5523,0 1,0.44772 1,1 v 2 h 3 c 0.5523,0 1,0.44772 1,1 0,0.55228 -0.4477,1 -1,1 v 13 c 0,0.5523 -0.4477,1 -1,1 H 5 C 4.44772,21 4,20.5523 4,20 V 7 C 3.44772,7 3,6.55228 3,6 3,5.44772 3.44772,5 4,5 Z m 8,0 V 4 H 9 V 5 Z M 6,7 V 19 H 18 V 7 Z M12 9C11.4477 9 11 9.44772 11 10V16C11 16.5523 11.4477 17 12 17C12.5523 17 13 16.5523 13 16V10C13 9.44772 12.5523 9 12 9Z M14 10C14 9.44772 14.4477 9 15 9C15.5523 9 16 9.44772 16 10V16C16 16.5523 15.5523 17 15 17C14.4477 17 14 16.5523 14 16V10Z"/>
</svg>