<svg xmlns="http://www.w3.org/2000/svg" width="24" height="24" viewBox="0 0 24 24">
  <path d="M6.5,9.32142857 C6.5,8.76914382 6.94771525,8.32142857 7.5,8.32142857 C8.05228475,8.32142857 8.5,8.76914382 8.5,9.32142857 L8.5,17.4724223 C8.5,18.024707 8.05228475,18.4724223 7.5,18.4724223 C6.94771525,18.4724223 6.5,18.024707 6.5,17.4724223 L6.5,9.32142857 Z M11,9.32142857 C11,8.76914382 11.4477153,8.32142857 12,8.32142857 C12.5522847,8.32142857 13,8.76914382 13,9.32142857 L13,17.4724223 C13,18.024707 12.5522847,18.4724223 12,18.4724223 C11.4477153,18.4724223 11,18.024707 11,17.4724223 L11,9.32142857 Z M15.5,9.32142857 C15.5,8.76914382 15.9477153,8.32142857 16.5,8.32142857 C17.0522847,8.32142857 17.5,8.76914382 17.5,9.32142857 L17.5,17.4724223 C17.5,18.024707 17.0522847,18.4724223 16.5,18.4724223 C15.9477153,18.4724223 15.5,18.024707 15.5,17.4724223 L15.5,9.32142857 Z M4,4 L6,4 L6,2 C6,1.44771525 6.44771525,1 7,1 L17,1 C17.5522847,1 18,1.44771525 18,2 L18,4 L20,4 L22,4 C22.5522847,4 23,4.44771525 23,5 C23,5.55228475 22.5522847,6 22,6 L21,6 L21,23 L3,23 L3,6 L2,6 C1.44771525,6 1,5.55228475 1,5 C1,4.44771525 1.44771525,4 2,4 L4,4 Z M5,6 L5,21 L19,21 L19,6 L5,6 Z M8,4 L16,4 L16,3 L8,3 L8,4 Z"/>
</svg>
