<svg xmlns="http://www.w3.org/2000/svg" width="24" height="24" viewBox="0 0 24 24">
  <path d="M11,14.5857864 L11,2 C11,1.44771525 11.4477153,1 12,1 C12.5522847,1 13,1.44771525 13,2 L13,14.5857864 L16.2928932,11.2928932 C16.6834175,10.9023689 17.3165825,10.9023689 17.7071068,11.2928932 C18.0976311,11.6834175 18.0976311,12.3165825 17.7071068,12.7071068 L12.7071068,17.7071068 C12.3165825,18.0976311 11.6834175,18.0976311 11.2928932,17.7071068 L6.29289322,12.7071068 C5.90236893,12.3165825 5.90236893,11.6834175 6.29289322,11.2928932 C6.68341751,10.9023689 7.31658249,10.9023689 7.70710678,11.2928932 L11,14.5857864 Z M21,17 C21,16.4477153 21.4477153,16 22,16 C22.5522847,16 23,16.4477153 23,17 L23,19.0002091 C23,21.1800298 21.4176187,23 19.3918182,23 L4.60818182,23 C2.58172509,23 1,21.1803466 1,19.0002091 L1,17 C1,16.4477153 1.44771525,16 2,16 C2.55228475,16 3,16.4477153 3,17 L3,19.0002091 C3,20.1332156 3.75344824,21 4.60818182,21 L19.3918182,21 C20.2460177,21 21,20.13281 21,19.0002091 L21,17 Z"/>
</svg>
