<svg width="24" height="24" viewBox="0 0 24 24" xmlns="http://www.w3.org/2000/svg">
<path d="M9 5.99951V4C9 3.44771 9.44772 3 10 3H20C20.5523 3 21 3.44772 21 4V14C21 14.5523 20.5523 15 20 15H18V16.9995C18 17.5518 17.5523 17.9995 17 17.9995H15V19.9995C15 20.5518 14.5523 20.9995 14 20.9995H4C3.44772 20.9995 3 20.5518 3 19.9995V9.99951C3 9.44723 3.44772 8.99951 4 8.99951H6V6.99951C6 6.44723 6.44772 5.99951 7 5.99951H9ZM19 13V5H11V12.9995H17C17.0106 12.9995 17.0211 12.9997 17.0316 13H19ZM13 17.9995H7C6.44772 17.9995 6 17.5518 6 16.9995V16.0311C5.99984 16.0206 5.99976 16.0101 5.99976 15.9995V10.9995H5V18.9995H13V17.9995ZM16 15.9995V15H10C9.44771 15 9 14.5523 9 14V13.0311C8.99984 13.0206 8.99976 13.0101 8.99976 12.9995V7.99951H8V15.9995H16Z" />
</svg>