<svg xmlns="http://www.w3.org/2000/svg" width="24" height="24" viewBox="0 0 24 24">
  <path d="M9.26524959,18.851036 L20.5972068,7.33131176 L16.7548241,3.42591744 L5.39161998,14.9774064 L9.26524959,18.851036 Z M7.8626563,20.2768699 L3.98902669,16.4032402 L3.76856175,16.6273582 L2.93446488,21.0615451 L7.62207289,20.5214397 L7.8626563,20.2768699 Z M8.80022606,22.1757213 C8.63998619,22.3386163 8.42879255,22.4417214 8.20179578,22.4678759 L1.81530187,23.2037268 C1.14602608,23.2808406 0.593531744,22.6875273 0.718075143,22.0254354 L1.85933335,15.9583317 C1.8960345,15.7632228 1.98998041,15.5834536 2.12920466,15.4419225 L16.0418715,1.29872703 C16.4336589,0.900447761 17.0757774,0.900420825 17.4675983,1.29866722 L22.712834,6.62992014 C23.0956991,7.01906387 23.0957253,7.64335004 22.7128929,8.03252589 L8.80022606,22.1757213 Z"/>
</svg>
