<svg xmlns="http://www.w3.org/2000/svg" width="24" height="24" viewBox="0 0 24 24">
  <path d="M8.82608065,12.8095499 L8.82608065,22 C8.82608065,22.5522847 9.2737959,23 9.82608065,23 L14.1612903,23 C14.7130553,23 15.1605549,22.5530957 15.1612894,22.0013312 L15.1735252,12.810157 L21.8387213,2.54456088 C22.2706713,1.87928049 21.7932079,1 21,1 L3,1 C2.20679208,1 1.72932868,1.87928049 2.16127868,2.54456088 L8.82608065,12.8095499 Z M19.1584337,3 L13.335198,11.9688262 C13.2301853,12.1305647 13.174177,12.3192167 13.1739202,12.5120559 L13.1626207,21 L10.8260806,21 L10.8260806,12.5133871 C10.8260806,12.3200947 10.7700615,12.1309447 10.664802,11.9688262 L4.84156626,3 L19.1584337,3 Z"/>
</svg>
