<svg width="24" height="24" viewBox="0 0 24 24" xmlns="http://www.w3.org/2000/svg">
<path d="m 11,4 h 2 v 1.92958 l 1.2495,0.50581 c 0.0312,0.0126 0.0622,0.02547 0.0931,0.03858 l 1.2419,0.52734 1.3652,-1.36529 1.4143,1.41421 -1.3653,1.3653 0.5273,1.24189 c 0.0131,0.03089 0.026,0.06189 0.0386,0.09299 L 18.0704,11 H 20 v 2 h -1.9296 l -0.5058,1.2496 c -0.0126,0.0311 -0.0255,0.0621 -0.0386,0.093 l -0.5273,1.2419 1.3653,1.3652 -1.4143,1.4142 -1.3652,-1.3652 -1.2419,0.5273 c -0.0309,0.0131 -0.0619,0.026 -0.0931,0.0386 L 13,18.0704 V 20 H 11 V 18.0704 L 9.75039,17.5646 C 9.71925,17.552 9.68825,17.5391 9.6574,17.526 L 8.41551,16.9987 7.05025,18.3639 5.63604,16.9497 7.00129,15.5845 6.47394,14.3426 C 6.46083,14.3117 6.44797,14.2807 6.43537,14.2496 L 5.92956,13 H 4 V 11 H 5.92956 L 6.43537,9.75043 C 6.44798,9.71928 6.46084,9.68827 6.47395,9.65739 L 7.00131,8.4155 5.63604,7.05023 7.05025,5.63602 8.41553,7.00129 9.65741,6.47395 C 9.68828,6.46085 9.71928,6.44799 9.7504,6.43539 L 11,5.92958 Z m 9.7769,3 C 20.765,6.76107 20.6678,6.52561 20.4853,6.34312 L 17.6569,3.5147 C 17.4744,3.33221 17.2389,3.235 17,3.22306 16.7276,3.20944 16.4507,3.30666 16.2426,3.5147 L 15.1243,4.63306 C 15.083,4.61554 15.0416,4.59836 15,4.58152 V 3 C 15,2.70578 14.8729,2.44123 14.6707,2.25825 14.4933,2.09775 14.258,2 14,2 H 9.99998 C 9.74193,2 9.5067,2.09774 9.32931,2.25823 9.12705,2.44121 8.99998,2.70577 8.99998,3 V 4.58152 C 8.95838,4.59836 8.91695,4.61553 8.87571,4.63305 L 7.75736,3.5147 C 7.54931,3.30664 7.27239,3.20943 6.99998,3.22306 6.76106,3.23501 6.52562,3.33223 6.34315,3.5147 L 3.51472,6.34312 C 3.33224,6.52561 3.23502,6.76107 3.22308,7 3.20946,7.27239 3.30668,7.5493 3.51472,7.75734 L 4.63305,8.87567 C 4.61553,8.91694 4.59834,8.95838 4.58149,9 H 3 C 2.70578,9 2.44124,9.12706 2.25826,9.3293 2.09776,9.5067 2,9.74193 2,10 v 4 c 0,0.2581 0.09775,0.4933 0.25824,0.6707 C 2.44122,14.8729 2.70577,15 3,15 h 1.58149 c 0.01685,0.0416 0.03403,0.083 0.05155,0.1243 L 3.51472,16.2426 C 3.30667,16.4507 3.20945,16.7276 3.22308,17 c 0.01195,0.2389 0.10917,0.4744 0.29164,0.6568 l 2.82843,2.8285 c 0.18247,0.1824 0.41791,0.2796 0.65683,0.2916 0.27241,0.0136 0.54933,-0.0836 0.75738,-0.2916 l 1.11832,-1.1184 c 0.04125,0.0176 0.08269,0.0347 0.1243,0.0516 V 21 c 0,0.2942 0.12706,0.5588 0.32932,0.7418 C 9.50669,21.9022 9.74192,22 9.99998,22 H 14 c 0.258,0 0.4933,-0.0978 0.6707,-0.2583 C 14.8729,21.5587 15,21.2942 15,21 v -1.5815 c 0.0416,-0.0169 0.083,-0.0341 0.1243,-0.0516 l 1.1183,1.1184 c 0.2081,0.208 0.485,0.3052 0.7574,0.2916 0.2389,-0.0119 0.4744,-0.1092 0.6569,-0.2916 l 2.8284,-2.8285 C 20.6678,17.4744 20.765,17.2389 20.7769,17 20.7905,16.7276 20.6933,16.4507 20.4853,16.2426 L 19.3669,15.1243 C 19.3844,15.083 19.4016,15.0416 19.4185,15 H 21 c 0.2942,0 0.5588,-0.1271 0.7418,-0.3293 C 21.9023,14.4933 22,14.2581 22,14 V 10 C 22,9.74193 21.9022,9.5067 21.7417,9.3293 21.5588,9.12706 21.2942,9 21,9 H 19.4185 C 19.4016,8.95839 19.3844,8.91696 19.3669,8.8757 L 20.4853,7.75734 C 20.6933,7.5493 20.7905,7.2724 20.7769,7 Z m -5.1103,5 c 0,2.025 -1.6416,3.6667 -3.6666,3.6667 C 9.97493,15.6667 8.33331,14.025 8.33331,12 8.33331,9.97496 9.97493,8.33333 12,8.33333 c 2.025,0 3.6666,1.64163 3.6666,3.66667 z M 12,10.3333 c -0.9205,0 -1.6667,0.7462 -1.6667,1.6667 0,0.9205 0.7462,1.6667 1.6667,1.6667 0.9204,0 1.6666,-0.7462 1.6666,-1.6667 0,-0.9205 -0.7462,-1.6667 -1.6666,-1.6667 z"/>
</svg>