<svg xmlns="http://www.w3.org/2000/svg" width="24" height="24" viewBox="0 0 24 24">
  <path fill-rule="evenodd" d="M19.8755142,8.61940394 L17.813957,8.61940394 L18.8031388,6.90524883 C19.1121438,6.37043244 18.9283864,5.68842726 18.3953984,5.38125066 L14.5291787,3.14964926 C13.9961908,2.84155845 13.3150998,3.02440166 13.0060948,3.55830384 L12.0004571,5.29988543 L10.9939052,3.55830384 C10.6849002,3.02440166 10.0038092,2.84155845 9.46990705,3.14964926 L5.60551577,5.38125066 C5.07161359,5.68842726 4.88877038,6.37043244 5.19777541,6.90524883 L6.18695718,8.61940394 L4.12448575,8.61940394 C3.50373305,8.61940394 3,9.12313699 3,9.74480391 L3,14.2464038 C3,14.8662423 3.50373305,15.3699753 4.12448575,15.3699753 L6.18695718,15.3699753 L5.19777541,17.0841304 C4.88877038,17.6189468 5.07161359,18.3000378 5.60551577,18.6081286 L9.46990705,20.83973 C10.0038092,21.1478208 10.6849002,20.9649776 10.9939052,20.4310754 L12.0004571,18.6894938 L13.0060948,20.4310754 C13.3150998,20.9649776 13.9961908,21.1478208 14.5310072,20.83973 L18.3944842,18.6081286 C18.9283864,18.3000378 19.1121438,17.6189468 18.8022246,17.0841304 L17.8130428,15.3699753 L19.8755142,15.3699753 C20.496267,15.3699753 21,14.8662423 21,14.2464038 L21,9.74480391 C21,9.12313699 20.4971812,8.61940394 19.8755142,8.61940394 L19.8755142,8.61940394 Z M18.748901,13.4774315 L16.9305252,13.4774315 C16.6992286,14.4894686 16.1653264,15.3817435 15.4284682,16.0628345 L16.3116009,17.5914037 L14.3798624,18.7067473 L13.4994723,17.1827492 C13.0249942,17.3299379 12.5212612,17.4085605 11.9992438,17.4085605 C11.475398,17.4085605 10.9725792,17.3299379 10.4971868,17.1827492 L9.61771096,18.7067473 L7.68505821,17.5914037 L8.56819092,16.0628345 C7.83316121,15.3817435 7.29834482,14.4885544 7.06796237,13.4774315 L5.24867241,13.4774315 L5.24867241,11.2257173 L7.06521972,11.2257173 C7.29377373,10.2127659 7.8267617,9.31591996 8.56453406,8.63391478 L7.68505821,7.11265926 L9.61771096,5.99822988 L10.4926157,7.51217167 C10.9689223,7.36315446 11.4744838,7.28361766 11.9983296,7.28361766 C12.5230896,7.28361766 13.0286511,7.36315446 13.5049576,7.51034324 L14.3798624,5.99822988 L16.3106867,7.11265926 L15.4330393,8.63391478 C16.1689832,9.31591996 16.7037996,10.2127659 16.9323537,11.2257173 L18.7479867,11.2257173 L18.7479867,13.4774315 L18.748901,13.4774315 Z M11.9968172,9.74601723 C10.7525691,9.74601723 9.74601723,10.7534833 9.74601723,11.9968172 C9.74601723,13.2419794 10.7525691,14.2485313 11.9968172,14.2485313 C13.2410652,14.2485313 14.2485313,13.2419794 14.2485313,11.9968172 C14.2485313,10.7534833 13.2410652,9.74601723 11.9968172,9.74601723 Z"/>
</svg>
