<svg width="24" height="24" viewBox="0 0 24 24" xmlns="http://www.w3.org/2000/svg">
<path d="M19.4545 15.4359C19.452 15.4449 19.4546 15.4546 19.4613 15.4613C19.4679 15.4679 19.4776 15.4705 19.4867 15.4681L20.6674 15.1517C20.951 15.0758 21.2254 15.1277 21.4454 15.2623C21.4823 15.285 21.5178 15.31 21.5515 15.3371C21.8427 15.5713 22.0027 15.9642 21.8922 16.3765L21.6631 17.2314C21.6067 17.4421 21.6669 17.6669 21.8212 17.8212C21.9357 17.9357 22 18.091 22 18.2529V21C22 21.5523 21.5523 22 21 22H18.4142C18.149 22 17.8946 21.8946 17.7071 21.7071L10.6396 14.6396C9.96959 14.8731 9.24962 15 8.5 15C4.91015 15 2 12.0899 2 8.5C2 4.91015 4.91015 2 8.5 2C12.0899 2 15 4.91015 15 8.5C15 9.24962 14.8731 9.96959 14.6396 10.6396L14.8211 10.8211C15.0737 11.0737 15.442 11.1724 15.787 11.0799L16.4248 10.9091C16.5054 10.8875 16.5853 10.8762 16.6634 10.8742C16.9847 10.8662 17.2757 11.0155 17.4642 11.2498C17.4913 11.2834 17.5163 11.3189 17.5389 11.3559C17.6735 11.5758 17.7255 11.8502 17.6495 12.1338L17.3331 13.3145C17.3307 13.3236 17.3333 13.3333 17.34 13.34C17.3466 13.3466 17.3563 13.3492 17.3654 13.3468L18.5461 13.0304C18.8297 12.9544 19.1041 13.0064 19.324 13.141C19.361 13.1636 19.3965 13.1886 19.4302 13.2157C19.4874 13.2618 19.5395 13.3139 19.5855 13.3711C19.6126 13.4048 19.6376 13.4402 19.6602 13.4772C19.7949 13.6972 19.8468 13.9716 19.7708 14.2551L19.4545 15.4359ZM12.3381 11.1665L12.751 9.98152C12.9118 9.52019 13 9.02253 13 8.5C13 6.01472 10.9853 4 8.5 4C6.01472 4 4 6.01472 4 8.5C4 10.9853 6.01472 13 8.5 13C9.02253 13 9.52019 12.9118 9.98152 12.751L11.1665 12.3381L18.8284 20H20V18.7085C19.7781 18.3295 19.6556 17.9005 19.6433 17.4625C19.0572 17.5099 18.4717 17.3001 18.0472 16.8756C17.6389 16.4672 17.4287 15.9094 17.4559 15.3454C16.892 15.3725 16.3344 15.1627 15.9258 14.7543C15.4893 14.3178 15.2797 13.711 15.3434 13.1084C14.6237 13.0639 13.9321 12.7605 13.4069 12.2353L12.3381 11.1665Z M7.5 9C8.32843 9 9 8.32843 9 7.5C9 6.67157 8.32843 6 7.5 6C6.67157 6 6 6.67157 6 7.5C6 8.32843 6.67157 9 7.5 9Z"/>
</svg>