<svg xmlns="http://www.w3.org/2000/svg" width="24" height="24" viewBox="0 0 24 24">
  <path d="M14.6504732,10.1903748 L23,18.1955996 L23,23 L17.0182629,23 L17.0182629,20.3455086 L14.3637715,20.3455086 L14.3637715,17.6910172 L12.2692499,17.6910172 L9.62896901,14.8094655 C9.10627315,14.934044 8.56083899,15 8,15 C4.13400675,15 1,11.8659932 1,8 C1,4.13400675 4.13400675,1 8,1 C11.8659932,1 15,4.13400675 15,8 C15,8.76498951 14.8772875,9.50131798 14.6504732,10.1903748 Z M13.706087,12.0556557 C13.1473238,12.8403901 12.4307276,13.5049422 11.6026204,14.0029896 L13.1493103,15.6910172 L16.3637715,15.6910172 L16.3637715,18.3455086 L19.0182629,18.3455086 L19.0182629,21 L21,21 L21,19.0487961 L13.706087,12.0556557 Z M8,13 C10.7614237,13 13,10.7614237 13,8 C13,5.23857625 10.7614237,3 8,3 C5.23857625,3 3,5.23857625 3,8 C3,10.7614237 5.23857625,13 8,13 Z M6.5,9.5 C5.3954305,9.5 4.5,8.6045695 4.5,7.5 C4.5,6.3954305 5.3954305,5.5 6.5,5.5 C7.6045695,5.5 8.5,6.3954305 8.5,7.5 C8.5,8.6045695 7.6045695,9.5 6.5,9.5 Z M6.5,8.5 C7.05228475,8.5 7.5,8.05228475 7.5,7.5 C7.5,6.94771525 7.05228475,6.5 6.5,6.5 C5.94771525,6.5 5.5,6.94771525 5.5,7.5 C5.5,8.05228475 5.94771525,8.5 6.5,8.5 Z"/>
</svg>
