<svg width="24" height="24" viewBox="0 0 24 24" xmlns="http://www.w3.org/2000/svg">
<path d="M 5,6 V 2 C 5,1.44772 5.44772,1 6,1 h 9.5858 c 0.2652,0 0.5196,0.10536 0.7071,0.29289 l 2.4142,2.41422 C 18.8946,3.89464 19,4.149 19,4.41421 V 6 h 2 c 1.1046,0 2,0.89543 2,2 v 7 c 0,1.1046 -0.8954,2 -2,2 h -2 v 5 c 0,0.5523 -0.4477,1 -1,1 H 6 C 5.44772,23 5,22.5523 5,22 V 17 H 3 C 1.89543,17 1,16.1046 1,15 V 8 C 1,6.89543 1.89543,6 3,6 Z M 17,6 V 4.82843 L 15.1716,3 H 7 v 3 z m 4,2 H 3 v 7 h 2 v -1 c 0,-0.5523 0.44772,-1 1,-1 h 12 c 0.5523,0 1,0.4477 1,1 v 1 h 2 z M 17,21 V 15 H 7 v 6 z M6 10C6 10.5523 5.55228 11 5 11C4.44772 11 4 10.5523 4 10C4 9.44771 4.44772 9 5 9C5.55228 9 6 9.44771 6 10Z"/>
</svg>