<svg xmlns="http://www.w3.org/2000/svg" width="24" height="24" viewBox="0 0 24 24">
  <path fill-rule="evenodd" d="M6.52941176,17.1702128 L5.29411765,17.1702128 C4.03033699,17.1702128 3,16.0521875 3,14.6808511 L3,10.0851064 C3,8.71376992 4.03033699,7.59574468 5.29411765,7.59574468 L6.52941176,7.59574468 L6.52941176,3.95744681 C6.52941176,3.42866354 6.92445463,3 7.41176471,3 L14.4705882,3 C14.7046028,3 14.9290327,3.10087357 15.094506,3.28042968 L17.212153,5.57830202 C17.3776263,5.75785813 17.4705882,6.00138847 17.4705882,6.25531915 L17.4705882,7.59574468 L18.7058824,7.59574468 C19.9701936,7.59574468 21,8.71357961 21,10.0851064 L21,14.6808511 C21,16.0523778 19.9701936,17.1702128 18.7058824,17.1702128 L17.4705882,17.1702128 L17.4705882,20.0425532 C17.4705882,20.5713365 17.0755454,21 16.5882353,21 L7.41176471,21 C6.92445463,21 6.52941176,20.5713365 6.52941176,20.0425532 L6.52941176,17.1702128 Z M6.52941176,15.2553191 L6.52941176,13.9148936 C6.52941176,13.3861103 6.92445463,12.9574468 7.41176471,12.9574468 L16.5882353,12.9574468 C17.0755454,12.9574468 17.4705882,13.3861103 17.4705882,13.9148936 L17.4705882,15.2553191 L18.7058824,15.2553191 C18.9954372,15.2553191 19.2352941,14.9949591 19.2352941,14.6808511 L19.2352941,10.0851064 C19.2352941,9.77099834 18.9954372,9.5106383 18.7058824,9.5106383 L5.29411765,9.5106383 C5.00495713,9.5106383 4.76470588,9.77133646 4.76470588,10.0851064 L4.76470588,14.6808511 C4.76470588,14.994621 5.00495713,15.2553191 5.29411765,15.2553191 L6.52941176,15.2553191 Z M8.29411765,7.59574468 L15.7058824,7.59574468 L15.7058824,6.6519066 L14.1051057,4.91489362 L8.29411765,4.91489362 L8.29411765,7.59574468 Z M8.29411765,19.0851064 L15.7058824,19.0851064 L15.7058824,14.8723404 L8.29411765,14.8723404 L8.29411765,19.0851064 Z M6.70588235,11.6170213 C6.31603429,11.6170213 6,11.2740904 6,10.8510638 C6,10.4280372 6.31603429,10.0851064 6.70588235,10.0851064 C7.09573041,10.0851064 7.41176471,10.4280372 7.41176471,10.8510638 C7.41176471,11.2740904 7.09573041,11.6170213 6.70588235,11.6170213 Z M9.35294118,17.1462766 L9.35294118,16.0212766 L14.0028722,16.0212766 L14.0028722,17.1462766 L9.35294118,17.1462766 Z M9.35294118,18.6781915 L9.35294118,17.5531915 L14.0028722,17.5531915 L14.0028722,18.6781915 L9.35294118,18.6781915 Z"/>
</svg>
