<svg xmlns="http://www.w3.org/2000/svg" width="24" height="24" viewBox="0 0 24 24">
  <path d="M5,17 L3.73924324,17 C2.22283999,17 1,15.7343732 1,14.2 L1,8.8 C1,7.26562675 2.22283999,6 3.73924324,6 L5,6 L5,2 C5,1.44771525 5.44771525,1 6,1 L15.2310326,1 C15.4804687,1 15.7208998,1.09322082 15.9051414,1.26136785 L18.6741087,3.78845118 C18.8817151,3.97792204 19,4.24601463 19,4.52708333 L19,6 L20.2607568,6 C21.7776447,6 23,7.26545053 23,8.8 L23,14.2 C23,15.7345495 21.7776447,17 20.2607568,17 L19,17 L19,22 C19,22.5522847 18.5522847,23 18,23 L6,23 C5.44771525,23 5,22.5522847 5,22 L5,17 Z M5,15 L5,14 C5,13.4477153 5.44771525,13 6,13 L18,13 C18.5522847,13 19,13.4477153 19,14 L19,15 L20.2607568,15 C20.657272,15 21,14.6451888 21,14.2 L21,8.8 C21,8.35481117 20.657272,8 20.2607568,8 L3.73924324,8 C3.34309329,8 3,8.35509801 3,8.8 L3,14.2 C3,14.644902 3.34309329,15 3.73924324,15 L5,15 Z M7,6 L17,6 L17,4.96829253 L14.8433091,3 L7,3 L7,6 Z M7,21 L17,21 L17,15 L7,15 L7,21 Z M8.79207921,19 C8.35462594,19 8,18.5522847 8,18 C8,17.4477153 8.35462594,17 8.79207921,17 L15.2079208,17 C15.6453741,17 16,17.4477153 16,18 C16,18.5522847 15.6453741,19 15.2079208,19 L8.79207921,19 Z M6,10 C6,10.5523126 5.55261531,11 5.00012366,11 C4.44837393,11 4,10.5523126 4,10 C4,9.44719268 4.44837393,9 5.00012366,9 C5.55261531,9 6,9.44719268 6,10 Z"/>
</svg>
