<svg xmlns="http://www.w3.org/2000/svg" width="24" height="24" viewBox="0 0 24 24">
  <path d="M5.86393574,5.26296953 L7.76742886,5.52629625 C8.31450358,5.60197785 8.6966432,6.10682158 8.62096161,6.65389629 C8.54528002,7.20097101 8.04043629,7.58311063 7.49336157,7.50742904 L3.23783725,6.91872543 C2.68708669,6.84253533 2.30423515,6.33173087 2.38564996,5.78172838 L3.01150867,1.55370304 C3.09238009,1.0073714 3.60082863,0.630041338 4.14716027,0.710912759 C4.69349191,0.791784179 5.07082197,1.30023272 4.98995055,1.84656436 L4.73702215,3.55523701 C6.5143235,1.79499865 8.42038686,1.00895834 11.0777494,1.00895834 C17.1528816,1.00895834 22.0777494,5.93382609 22.0777494,12.0089583 C22.0777494,18.0840906 17.1528816,23.0089583 11.0777494,23.0089583 C6.7508443,23.0089583 2.88092791,20.4874243 1.09297641,16.6303412 C0.860706306,16.1292733 1.07860997,15.5347854 1.57967788,15.3025153 C2.08074578,15.0702451 2.6752337,15.2881488 2.9075038,15.7892167 C4.37082541,18.9459875 7.53696335,21.0089583 11.0777494,21.0089583 C16.0483121,21.0089583 20.0777494,16.9795211 20.0777494,12.0089583 C20.0777494,7.03839559 16.0483121,3.00895834 11.0777494,3.00895834 C8.84972768,3.00895834 7.36935845,3.6522878 5.86393574,5.26296953 Z" transform="matrix(-1 0 0 1 23.078 0)"/>
</svg>
