<svg width="24" height="24" viewBox="0 0 24 24" xmlns="http://www.w3.org/2000/svg">
<path d="M11.9509 4C16.3692 4 19.9509 7.58172 19.9509 12C19.9509 12.5523 20.3986 13 20.9509 13C21.5032 13 21.9509 12.5523 21.9509 12C21.9509 6.47715 17.4738 2 11.9509 2C9.09589 2 6.52107 3.19677 4.69983 5.11382V3.00012C4.69983 2.44784 4.25211 2.00012 3.69983 2.00012C3.14754 2.00012 2.69983 2.44784 2.69983 3.00012V8.00012C2.69983 8.55241 3.14754 9.00012 3.69983 9.00012H8.69983C9.25211 9.00012 9.69983 8.55241 9.69983 8.00012C9.69983 7.44784 9.25211 7.00012 8.69983 7.00012H5.70531C7.17242 5.16982 9.42549 4 11.9509 4Z M12 20.1C7.58172 20.1 4 16.5183 4 12.1C4 11.5477 3.55228 11.1 3 11.1C2.44772 11.1 2 11.5477 2 12.1C2 17.6228 6.47715 22.1 12 22.1C14.855 22.1 17.4299 20.9032 19.2511 18.9862V21.0999C19.2511 21.6521 19.6988 22.0999 20.2511 22.0999C20.8034 22.0999 21.2511 21.6521 21.2511 21.0999V16.0999C21.2511 15.5476 20.8034 15.0999 20.2511 15.0999H15.2511C14.6988 15.0999 14.2511 15.5476 14.2511 16.0999C14.2511 16.6521 14.6988 17.0999 15.2511 17.0999H18.2456C16.7785 18.9302 14.5254 20.1 12 20.1Z" />
</svg>