<svg xmlns="http://www.w3.org/2000/svg" width="24" height="24" viewBox="0 0 24 24">
  <path d="M20.4992503,17.9548596 L18.3156404,17.9595766 C17.7633569,17.9607696 17.3146756,17.5140225 17.3134826,16.9617391 C17.3122895,16.4094556 17.7590366,15.9607743 18.3113201,15.9595812 L22.6073616,15.9503011 C23.1633559,15.9491001 23.6135718,16.4016508 23.6094949,16.9576314 L23.5781544,21.2316126 C23.5741047,21.7838825 23.1231185,22.2283028 22.5708486,22.2242531 C22.0185787,22.2202034 21.5741584,21.7692172 21.5782082,21.2169473 L21.5883807,19.8296924 C19.3899413,22.4868842 15.9196811,24 12,24 C5.372583,24 -4.4408921e-15,18.627417 -4.4408921e-15,12 C-4.4408921e-15,11.4477153 0.44771525,11 1,11 C1.55228475,11 2,11.4477153 2,12 C2,17.5228475 6.4771525,22 12,22 C15.6334532,22 18.742791,20.5088813 20.4992503,17.9548596 Z M3.94244786,6.07548022 L5.72868198,6.07162168 C6.28096544,6.07042866 6.72964678,6.51717573 6.7308398,7.06945919 C6.73203282,7.62174265 6.28528575,8.07042399 5.73300228,8.07161701 L1.43696072,8.08089714 C0.880966415,8.08209818 0.430750527,7.62954747 0.434827455,7.07356681 L0.466167957,2.79958562 C0.470217674,2.24731572 0.921203832,1.80289545 1.47347373,1.80694517 C2.02574364,1.81099489 2.47016391,2.26198104 2.46611419,2.81425095 L2.4520725,4.72914997 C4.68891657,1.79264134 8.18849203,0 12,0 C18.627417,0 24,5.372583 24,12 C24,12.5522847 23.5522847,13 23,13 C22.4477153,13 22,12.5522847 22,12 C22,6.4771525 17.5228475,2 12,2 C8.76545467,2 5.80179644,3.54797813 3.94244786,6.07548022 Z"/>
</svg>
