<svg xmlns="http://www.w3.org/2000/svg" width="24" height="24" viewBox="0 0 24 24">
  <path d="M4.91346435,12.0696764 L6.40381506,10.3388299 C6.71113782,9.98191488 7.25861147,9.93419466 7.62663167,10.2322438 C7.99465188,10.5302929 8.04385688,11.0612463 7.73653412,11.4181613 L4.95412243,14.6495669 L4.94040531,14.648872 C4.83170348,14.7674676 4.68725901,14.8576389 4.51744729,14.9019221 C4.15852907,14.9955201 3.79164246,14.8566421 3.58681978,14.5803007 L3.56705471,14.5792994 L1.14752854,11.0852053 C0.880220892,10.6991801 0.986197279,10.1760881 1.38423342,9.91684661 C1.78226957,9.65760511 2.32163729,9.76038361 2.58894493,10.1464088 L3.25842461,11.11322 C3.74812699,7.84317581 6.30415201,5.00954865 9.76800436,4.21604701 C12.7576353,3.52977808 15.8468194,4.51060818 17.8446867,6.70112653 C18.1623502,7.04942185 18.1287331,7.58151747 17.7696008,7.88959535 C17.4104685,8.19767323 16.861817,8.16507055 16.5441535,7.81677523 C14.9663291,6.08680381 12.5285381,5.31279399 10.1675348,5.85476153 C7.15772017,6.54425196 5.00357592,9.18022652 4.91346435,12.0696764 Z M18.2956029,10.3011591 C18.4207104,10.1222256 18.6164145,9.98976531 18.8527519,9.94639923 C19.1898686,9.88454095 19.51831,10.0207227 19.7105282,10.2706064 L19.767227,10.273491 L22.185885,13.7675851 C22.4531266,14.1536534 22.3470606,14.6767283 21.9489801,14.9359057 C21.5508995,15.1950831 21.0115494,15.0922177 20.7443079,14.7061495 L19.8560084,13.422875 C19.2511196,16.444373 16.7891183,19.0457832 13.5632811,19.7843327 C10.7695164,20.425468 7.87763985,19.6107604 5.86956133,17.6913189 C5.52807914,17.3649098 5.52409307,16.8318303 5.86065818,16.5006525 C6.19722329,16.1694748 6.74688922,16.165609 7.0883714,16.4920181 C8.67532225,18.0089206 10.9576251,18.6518973 13.1639111,18.1455814 C15.7201962,17.5603246 17.6780175,15.4788888 18.1522613,13.0937599 L16.9293614,14.5131846 C16.6219349,14.8700156 16.0744475,14.9175862 15.7065138,14.6194366 C15.3385802,14.3212869 15.2895294,13.7903201 15.5969559,13.4334891 L18.2956029,10.3011591 Z"/>
</svg>
