<svg xmlns="http://www.w3.org/2000/svg" width="24" height="24" viewBox="0 0 24 24">
  <path d="M6.78618638,5.25401119 L8.68967951,5.51733791 C9.23675422,5.5930195 9.61889385,6.09786324 9.54321225,6.64493795 C9.46753066,7.19201266 8.96268693,7.57415229 8.41561222,7.4984707 L4.16008789,6.90976709 C3.60933733,6.83357699 3.2264858,6.32277253 3.3079006,5.77277004 L3.93375931,1.54474469 C4.01463073,0.998413055 4.52307927,0.621082996 5.06941091,0.701954417 C5.61574255,0.782825837 5.99307261,1.29127438 5.91220119,1.83760601 L5.65927279,3.54627867 C7.43657414,1.78604031 9.3426375,1 12,1 C18.0751322,1 23,5.92486775 23,12 C23,18.0751322 18.0751322,23 12,23 C7.67309494,23 3.80317855,20.478466 2.01522705,16.6213828 C1.78295695,16.1203149 2.00086062,15.525827 2.50192852,15.2935569 C3.00299642,15.0612868 3.59748434,15.2791905 3.82975444,15.7802584 C5.29307606,18.9370292 8.45921399,21 12,21 C16.9705627,21 21,16.9705627 21,12 C21,7.02943725 16.9705627,3 12,3 C9.77197832,3 8.29160909,3.64332945 6.78618638,5.25401119 Z"/>
</svg>
