<svg xmlns="http://www.w3.org/2000/svg" width="24" height="24" viewBox="0 0 24 24">
  <path d="M13,4.41421356 L13,17.108 C13,17.6602847 12.5522847,18.108 12,18.108 C11.4477153,18.108 11,17.6602847 11,17.108 L11,4.41421356 L7.70710678,7.70710678 C7.31658249,8.09763107 6.68341751,8.09763107 6.29289322,7.70710678 C5.90236893,7.31658249 5.90236893,6.68341751 6.29289322,6.29289322 L11.2928932,1.29289322 C11.6834175,0.902368927 12.3165825,0.902368927 12.7071068,1.29289322 L17.7071068,6.29289322 C18.0976311,6.68341751 18.0976311,7.31658249 17.7071068,7.70710678 C17.3165825,8.09763107 16.6834175,8.09763107 16.2928932,7.70710678 L13,4.41421356 Z M21,17 C21,16.4477153 21.4477153,16 22,16 C22.5522847,16 23,16.4477153 23,17 L23,19.0002091 C23,21.1800298 21.4176187,23 19.3918182,23 L4.60818182,23 C2.58172509,23 1,21.1803466 1,19.0002091 L1,17 C1,16.4477153 1.44771525,16 2,16 C2.55228475,16 3,16.4477153 3,17 L3,19.0002091 C3,20.1332156 3.75344824,21 4.60818182,21 L19.3918182,21 C20.2460177,21 21,20.13281 21,19.0002091 L21,17 Z"/>
</svg>
