<svg width="24" height="24" viewBox="0 0 24 24" xmlns="http://www.w3.org/2000/svg">
<path d="M1 2C1 1.44772 1.44772 1 2 1H6C6.55228 1 7 1.44772 7 2V6C7 6.55228 6.55228 7 6 7H2C1.44772 7 1 6.55228 1 6V2ZM17 2C17 1.44772 17.4477 1 18 1H22C22.5523 1 23 1.44772 23 2V6C23 6.55228 22.5523 7 22 7H18C17.4477 7 17 6.55228 17 6V2ZM17 10C17 9.44772 17.4477 9 18 9H22C22.5523 9 23 9.44772 23 10V14C23 14.5523 22.5523 15 22 15H18C17.4477 15 17 14.5523 17 14V10ZM18 17C17.4477 17 17 17.4477 17 18V22C17 22.5523 17.4477 23 18 23H22C22.5523 23 23 22.5523 23 22V18C23 17.4477 22.5523 17 22 17H18ZM2 9C1.44772 9 1 9.44772 1 10V14C1 14.5523 1.44772 15 2 15H6C6.55228 15 7 14.5523 7 14V10C7 9.44772 6.55228 9 6 9H2ZM1 18C1 17.4477 1.44772 17 2 17H6C6.55228 17 7 17.4477 7 18V22C7 22.5523 6.55228 23 6 23H2C1.44772 23 1 22.5523 1 22V18ZM10 1C9.44772 1 9 1.44772 9 2V6C9 6.55228 9.44772 7 10 7H14C14.5523 7 15 6.55228 15 6V2C15 1.44772 14.5523 1 14 1H10ZM9 10C9 9.44772 9.44772 9 10 9H14C14.5523 9 15 9.44772 15 10V14C15 14.5523 14.5523 15 14 15H10C9.44772 15 9 14.5523 9 14V10ZM10 17C9.44772 17 9 17.4477 9 18V22C9 22.5523 9.44772 23 10 23H14C14.5523 23 15 22.5523 15 22V18C15 17.4477 14.5523 17 14 17H10Z" />
</svg>