<svg xmlns="http://www.w3.org/2000/svg" width="24" height="24" viewBox="0 0 24 24">
  <path d="M17.8675549,16.53125 L17.2608696,16.53125 C16.7085848,16.53125 16.2608696,16.0835347 16.2608696,15.53125 L16.2608696,6.15625 C16.2608696,5.60396525 16.7085848,5.15625 17.2608696,5.15625 L17.3989886,5.15625 C16.6447541,3.34105189 14.5330675,2 12,2 C9.46639269,2 7.35495751,3.34091733 6.60090244,5.15625 L6.73913043,5.15625 C7.29141518,5.15625 7.73913043,5.60396525 7.73913043,6.15625 L7.73913043,15.53125 C7.73913043,16.0835347 7.29141518,16.53125 6.73913043,16.53125 L4.82608696,16.53125 C3.22224819,16.53125 1.91304348,15.2480806 1.91304348,13.65625 L1.91304348,13.5446024 C0.798885382,13.1423429 -5.46229728e-14,12.08722 -5.46229728e-14,10.84375 C-5.46229728e-14,9.60028001 0.798885382,8.54515713 1.91304348,8.14289757 L1.91304348,8.03125 C1.91304348,6.55307161 3.04197488,5.34105277 4.48743325,5.17551842 C5.25622704,2.1884847 8.35300075,0 12,0 C15.6464093,0 18.7435661,2.18863311 19.5125152,5.17551252 C20.9579983,5.34102398 22.0869565,6.55305405 22.0869565,8.03125 L22.0869565,8.14289757 C23.2011146,8.54515713 24,9.60028001 24,10.84375 C24,12.08722 23.2011146,13.1423429 22.0869565,13.5446024 L22.0869565,13.65625 C22.0869565,15.0055615 21.1462844,16.1330978 19.8828546,16.4453443 C19.7512047,18.1902503 19.1266863,19.3940511 17.7845812,20.6455844 C16.7012804,21.6557787 15.6554735,22.2166829 14.9284397,22.4515985 C14.8854061,22.4655033 14.8421168,22.4763358 14.7988089,22.4842175 C14.4166749,23.3755907 13.5312567,24 12.5,24 C11.1192881,24 10,22.8807119 10,21.5 C10,20.1192881 11.1192881,19 12.5,19 C13.4730889,19 14.3163273,19.5559565 14.7294069,20.3675615 C14.7844763,20.3401084 14.843698,20.3095434 14.9067131,20.2757461 C15.4082226,20.0067684 15.9237223,19.6462084 16.4205845,19.182877 C17.3306801,18.334199 17.743583,17.626084 17.8675549,16.53125 Z M5.73913043,14.53125 L5.73913043,7.15625 L4.82608696,7.15625 C4.31792572,7.15625 3.91304348,7.55308061 3.91304348,8.03125 L3.91304348,13.65625 C3.91304348,14.1344194 4.31792572,14.53125 4.82608696,14.53125 L5.73913043,14.53125 Z M19.173913,14.53125 C19.6820743,14.53125 20.0869565,14.1344194 20.0869565,13.65625 L20.0869565,8.03125 C20.0869565,7.55308061 19.6820743,7.15625 19.173913,7.15625 L18.2608696,7.15625 L18.2608696,14.53125 L19.173913,14.53125 Z M12.5,22 C12.7761424,22 13,21.7761424 13,21.5 C13,21.2238576 12.7761424,21 12.5,21 C12.2238576,21 12,21.2238576 12,21.5 C12,21.7761424 12.2238576,22 12.5,22 Z"/>
</svg>
