<svg xmlns="http://www.w3.org/2000/svg" width="24" height="24" viewBox="0 0 24 24">
  <path d="M17.7182823,8.06330866 C18.760017,8.2172963 19.56,9.11560378 19.56,10.2 L19.56,10.3230088 C20.398761,10.6196701 21,11.4199062 21,12.36 C21,13.3000938 20.398761,14.1003299 19.56,14.3969912 L19.56,14.52 C19.56,15.3191549 19.1255231,16.0172436 18.48,16.3908353 L18.48,16.68 C18.48,18.470125 17.030125,19.92 15.24,19.92 L14.3701216,19.92 C14.0922591,20.5556172 13.4578358,21 12.72,21 C11.726195,21 10.92,20.193805 10.92,19.2 C10.92,18.206195 11.726195,17.4 12.72,17.4 C13.4578358,17.4 14.0922591,17.8443828 14.3701216,18.48 L15.24,18.48 C16.234835,18.48 17.04,17.674835 17.04,16.68 L15.96,16.68 C15.562355,16.68 15.24,16.357645 15.24,15.96 L15.24,8.76 C15.24,8.36235498 15.562355,8.04 15.96,8.04 L16.2602463,8.04 C15.9173732,5.99702267 14.1401306,4.44 12,4.44 C9.85943789,4.44 8.08250471,5.9968431 7.73972974,8.04 L8.04,8.04 C8.43764502,8.04 8.76,8.36235498 8.76,8.76 L8.76,15.96 C8.76,16.357645 8.43764502,16.68 8.04,16.68 L6.6,16.68 C5.40747498,16.68 4.44,15.712525 4.44,14.52 L4.44,14.3969912 C3.60123902,14.1003299 3,13.3000938 3,12.36 C3,11.4199062 3.60123902,10.6196701 4.44,10.3230088 L4.44,10.2 C4.44,9.1156083 5.23997629,8.21730378 6.28170473,8.06331059 C6.62562825,5.21068627 9.05464275,3 12,3 C14.9448902,3 17.3742786,5.21086186 17.7182823,8.06330866 Z M17.5592237,15.2222858 C17.5727831,15.2183565 17.5865074,15.214815 17.6003837,15.2116744 C17.900322,15.1247467 18.12,14.8477159 18.12,14.52 L18.12,10.2 C18.12,9.80276502 17.797235,9.48 17.4,9.48 L16.68,9.48 L16.68,15.24 L17.4,15.24 C17.4547029,15.24 17.5079936,15.2338791 17.5592237,15.2222858 Z M13.08,19.2 C13.08,19.001485 12.918515,18.84 12.72,18.84 C12.521485,18.84 12.36,19.001485 12.36,19.2 C12.36,19.398515 12.521485,19.56 12.72,19.56 C12.918515,19.56 13.08,19.398515 13.08,19.2 Z M7.32,15.24 L7.32,9.48 L6.6,9.48 C6.20276502,9.48 5.88,9.80276502 5.88,10.2 L5.88,14.52 C5.88,14.917235 6.20276502,15.24 6.6,15.24 L7.32,15.24 Z"/>
</svg>
