<svg width="24" height="24" viewBox="0 0 24 24" xmlns="http://www.w3.org/2000/svg">
<path d="M 6.80237,6 H 7 c 0.55228,0 1,0.44772 1,1 v 9 c 0,0.5523 -0.44772,1 -1,1 H 5 C 3.64623,17 2.5019,16.1033 2.12853,14.8715 0.896688,14.4981 0,13.3538 0,12 0,10.6938 0.834808,9.58254 2,9.17071 V 9 C 2,7.48933 3.11659,6.23945 4.56948,6.03066 5.7484,3.08334 8.62977,1 12,1 15.3702,1 18.2516,3.08334 19.4305,6.03066 20.8834,6.23945 22,7.48932 22,9 v 0.17071 c 1.1652,0.41183 2,1.52309 2,2.82929 0,1.3538 -0.8967,2.4981 -2.1285,2.8715 -0.2997,0.9886 -1.0959,1.7613 -2.0984,2.0279 -0.6301,2.5877 -2.5187,4.6826 -4.9808,5.5998 C 14.4068,23.3826 13.5255,24 12.5,24 11.1193,24 10,22.8807 10,21.5 10,20.1193 11.1193,19 12.5,19 c 0.9658,0 1.8037,0.5477 2.2201,1.3494 C 16.082,19.6556 17.1436,18.4569 17.6586,17 H 17 c -0.5523,0 -1,-0.4477 -1,-1 V 7 c 0,-0.55229 0.4477,-1 1,-1 h 0.1976 C 16.1599,4.20612 14.2199,3 12,3 9.78008,3 7.84012,4.20612 6.80237,6 Z M 20,9 C 20,8.44772 19.5523,8 19,8 h -1 v 7 h 1 c 0.5523,0 1,-0.4477 1,-1 z M 6,8 H 5 C 4.44771,8 4,8.44772 4,9 v 5 c 0,0.5523 0.44772,1 1,1 h 1 z"/>
</svg>