<svg xmlns="http://www.w3.org/2000/svg" width="24" height="24" viewBox="0 0 24 24">
  <path d="M16.2509989,15.490276 C15.242292,16.7174277 13.7125603,17.5 12,17.5 C8.9624042,17.5 6.5,15.0379738 6.5,12 C6.5,8.96271525 8.96271525,6.5 12,6.5 C15.0372847,6.5 17.5,8.96271525 17.5,12 L17.5,13 C17.5,14.3813257 18.6188951,15.5 20,15.5 C21.3811049,15.5 22.5,14.3813257 22.5,13 L22.5,12 C22.5,6.20092592 17.7993564,1.5 12,1.5 C6.20064356,1.5 1.5,6.20092592 1.5,12 C1.5,17.7997153 6.20028475,22.5 12,22.5 C14.1599649,22.5 16.2088954,21.8598558 17.9340387,20.6755682 C18.3893598,20.3629964 19.01186,20.4787176 19.3244318,20.9340387 C19.6370036,21.3893598 19.5212824,22.01186 19.0659613,22.3244318 C17.0088044,23.7366422 14.5655003,24.5 12,24.5 C5.09571525,24.5 -0.5,18.9042847 -0.5,12 C-0.5,5.09638331 5.09604717,-0.5 12,-0.5 C18.9039528,-0.5 24.5,5.09638331 24.5,12 L24.5,13 C24.5,15.4859836 22.485586,17.5 20,17.5 C18.4352775,17.5 17.0572775,16.7018582 16.2509989,15.490276 Z M15.5,12 C15.5,10.0672847 13.9327153,8.5 12,8.5 C10.0672847,8.5 8.5,10.0672847 8.5,12 C8.5,13.9333355 10.066905,15.5 12,15.5 C13.933095,15.5 15.5,13.9333355 15.5,12 Z"/>
</svg>
