<svg width="24" height="24" viewBox="0 0 24 24" xmlns="http://www.w3.org/2000/svg">
<path d="M12 2C6.47715 2 2 6.47715 2 12C2 17.5228 6.47715 22 12 22C14.3549 22 15.9323 21.5066 16.8943 21.0475C17.3774 20.8169 17.7117 20.5919 17.9158 20.4351C18.0179 20.3567 18.0877 20.295 18.1274 20.2581C18.1473 20.2396 18.1596 20.2273 18.1647 20.2222L18.1663 20.2205C18.5379 19.8191 19.1643 19.7905 19.5709 20.1585C19.9805 20.529 20.0121 21.1614 19.6415 21.5709L18.9 20.9C19.6415 21.5709 19.6411 21.5714 19.6407 21.5719L19.6397 21.5729L19.6377 21.5751L19.6332 21.58L19.6219 21.5922C19.6177 21.5966 19.6131 21.6014 19.608 21.6067C19.6026 21.6123 19.5967 21.6184 19.5902 21.625C19.565 21.6506 19.5316 21.6834 19.4898 21.7224C19.406 21.8003 19.2883 21.9027 19.1342 22.0211C18.8258 22.2581 18.3726 22.5581 17.7557 22.8525C16.5177 23.4434 14.6451 24 12 24C5.37258 24 0 18.6274 0 12C0 5.37258 5.37258 0 12 0C18.6868 0 23.499 5.43353 23.5 11.9979C23.5 11.9986 23.5 11.9993 23.5 12C23.5 13.9011 23.0386 15.405 22.1692 16.4515C21.2844 17.5166 20.0648 18 18.8 18C17.7921 18 16.8174 17.6816 16.0929 16.9571C15.8503 16.7145 15.648 16.4387 15.4861 16.1341C14.4841 17.2835 13.0688 18 11.5 18C8.46243 18 6 15.3137 6 12C6 8.68629 8.46243 6 11.5 6C12.8331 6 14.0554 6.51737 15.0074 7.37809C15.0675 6.88331 15.489 6.5 16 6.5C16.5523 6.5 17 6.94772 17 7.5V12V14C17 14.7973 17.2346 15.2704 17.5071 15.5429C17.7826 15.8184 18.2079 16 18.8 16C19.5352 16 20.1656 15.7334 20.6308 15.1735C21.1112 14.5952 21.4997 13.5996 21.5 12.0019C21.5 12.0013 21.5 12.0006 21.5 12C21.5 6.41507 17.4627 2 12 2ZM15 12C15 9.62349 13.2727 8 11.5 8C9.72726 8 8 9.62349 8 12C8 14.3765 9.72726 16 11.5 16C13.2727 16 15 14.3765 15 12Z"/>
</svg>