<svg xmlns="http://www.w3.org/2000/svg" width="24" height="24" viewBox="0 0 24 24">
  <path d="M15.7304111,15.8366007 C14.7257957,17.1555937 13.2106007,18 11.5,18 C8.43667394,18 6,15.2920501 6,12 C6,8.70794992 8.43667394,6 11.5,6 C13.1961934,6 14.7002588,6.83024246 15.704919,8.13017342 L15.704919,7.28571429 C15.704919,6.73342954 16.1525845,6.28571429 16.7048078,6.28571429 C17.2570312,6.28571429 17.7046967,6.73342954 17.7046967,7.28571429 L17.7046967,15.1428571 C17.7046967,15.5043339 17.716143,15.68472 17.7606261,15.8716604 C17.8642343,16.3070745 18.1090731,16.5 18.9483677,16.5 C21.0706606,16.5 22.5584801,13.161764 21.8014016,9.44986691 C20.8951994,5.00682799 17.3291329,2 11.4698349,2 C6.25043705,2 1.99977777,6.46541351 1.99977777,12 C1.99977777,17.5335786 6.25097691,22 11.4698349,22 C13.1481612,22 14.7638387,21.5381369 16.1850666,20.6732829 C16.6568247,20.3862058 17.2719563,20.5359618 17.5590015,21.0077724 C17.8460467,21.4795829 17.6963072,22.0947829 17.2245491,22.38186 C15.4930503,23.435522 13.5184079,24 11.4698349,24 C5.12388962,24 0,18.6167071 0,12 C0,5.38224337 5.12339623,0 11.4698349,0 C18.2928821,0 22.6672437,3.68836432 23.76083,9.05013309 C24.7353362,13.8280615 22.6530983,18.5 18.9483677,18.5 C17.184025,18.5 16.133437,17.6721685 15.8151792,16.3346888 C15.773579,16.1598635 15.7470135,16.0033733 15.7304111,15.8366007 Z M15,12 C15,9.76820596 13.4089287,8 11.5,8 C9.5910713,8 8,9.76820596 8,12 C8,14.231794 9.5910713,16 11.5,16 C13.4089287,16 15,14.231794 15,12 Z"/>
</svg>
