<svg xmlns="http://www.w3.org/2000/svg" width="24" height="24" viewBox="0 0 24 24">
  <path d="M19.875,3 C20.4969,3 21,3.5031 21,4.125 L21,8.625 C21,9.2469 20.4969,9.75 19.875,9.75 L19.875,19.875 C19.875,20.4969 19.3719,21 18.75,21 L5.25,21 C4.6281,21 4.125,20.4969 4.125,19.875 L4.125,9.75 C3.5031,9.75 3,9.2469 3,8.625 L3,4.125 C3,3.5031 3.5031,3 4.125,3 L19.875,3 Z M5.25,7.5 L18.75,7.5 L18.75,5.25 L5.25,5.25 L5.25,7.5 Z M6.375,18.75 L17.625,18.75 L17.625,9.75 L6.375,9.75 L6.375,18.75 Z"/>
</svg>
