<svg xmlns="http://www.w3.org/2000/svg" width="24" height="24" viewBox="0 0 24 24">
  <path d="M16.5,3.03128309 L16.5,2 C16.5,1.44771525 16.9477153,1 17.5,1 C18.0522847,1 18.5,1.44771525 18.5,2 L18.5,3.03128309 L20.9147333,3.03128309 C22.0813751,3.03128309 23,4.01486384 23,5.19304623 L23,9 L23,21.7271639 C23,22.4477761 22.403328,23 21.7049574,23 L21.2713634,23 C21.1557009,23.0205558 21.0365696,23.0312831 20.9147333,23.0312831 L3.08586235,23.0312831 C2.9640312,23.0312831 2.84489711,23.0205559 2.72922552,23 L2.29569108,23 C1.5978119,23 1,22.4483951 1,21.7271639 L1,9 L1,5.19304623 C1,4.01482918 1.91928865,3.03128309 3.08586235,3.03128309 L5.5,3.03128309 L5.5,2 C5.5,1.44771525 5.94771525,1 6.5,1 C7.05228475,1 7.5,1.44771525 7.5,2 L7.5,3.03128309 L16.5,3.03128309 Z M16.5,5.03128309 L7.5,5.03128309 L7.5,6 C7.5,6.55228475 7.05228475,7 6.5,7 C5.94771525,7 5.5,6.55228475 5.5,6 L5.5,5.03128309 L3.08586235,5.03128309 C3.05518793,5.03128309 3,5.0903286 3,5.19304623 L3,9 L21,9 L21,5.19304623 C21,5.09005125 20.9451129,5.03128309 20.9147333,5.03128309 L18.5,5.03128309 L18.5,6 C18.5,6.55228475 18.0522847,7 17.5,7 C16.9477153,7 16.5,6.55228475 16.5,6 L16.5,5.03128309 Z M3,11 L3,20.8695199 C3,20.9282459 3.01803906,20.9726969 3.03922285,21 L20.9610821,21 C20.9820975,20.9727379 21,20.9283416 21,20.8695199 L21,11 L3,11 Z"/>
</svg>
