<svg width="24" height="24" viewBox="0 0 24 24" xmlns="http://www.w3.org/2000/svg">
<path d="m 7,0 c 0.55228,0 1,0.447715 1,1 v 1 h 8 V 1 c 0,-0.552285 0.4477,-1 1,-1 0.5523,0 1,0.447715 1,1 v 1 h 3 c 0.5523,0 1,0.44772 1,1 v 18 c 0,0.5523 -0.4477,1 -1,1 H 3 C 2.44772,22 2,21.5523 2,21 V 3 C 2,2.44772 2.44772,2 3,2 H 6 V 1 C 6,0.447715 6.44772,0 7,0 Z M 8,4 V 5 C 8,5.55228 7.55228,6 7,6 6.44771,6 6,5.55228 6,5 V 4 H 4 V 8 H 20 V 4 H 18 V 5 C 18,5.55228 17.5523,6 17,6 16.4477,6 16,5.55228 16,5 V 4 Z m 12,6 H 4 v 10 h 16 z"/>
</svg>