<svg xmlns="http://www.w3.org/2000/svg" width="24" height="24" viewBox="0 0 24 24">
  <path d="M6.54029874,4.11169268 C6.67793161,4.04032243 6.8342569,4 7,4 L21,4 C21.6541635,4 22.1321672,4.61773392 21.9679969,5.25096216 L19.6346636,14.2509622 C19.5203181,14.6920089 19.122295,15 18.6666667,15 L9.05147592,15 L9.28211,16.000015 L20.1338079,16.0002191 C20.6860926,16.0002294 21.1337994,16.4479531 21.1337891,17.0002379 C21.1337787,17.5525226 20.686055,18.0002294 20.1337703,18.0002191 L8.48646768,18 C8.02076951,17.9999912 7.61672265,17.6785172 7.51206571,17.2247313 L4.23140696,3 L2,3 C1.44771525,3 1,2.55228475 1,2 C1,1.44771525 1.44771525,1 2,1 L5.02702703,1 C5.49273223,1 5.89678928,1.3214759 6.0014478,1.77526872 L6.54029874,4.11169268 Z M6.97573367,5.99971134 L8.59021466,13 L17.8928648,13 L19.7076796,6 L7,6 C6.9918883,6 6.98379916,5.99990342 6.97573367,5.99971134 Z M8,21 C8,19.8957153 8.89571525,19 10,19 C11.1042847,19 12,19.8957153 12,21 C12,22.1042847 11.1042847,23 10,23 C8.89571525,23 8,22.1042847 8,21 Z M17,21 C17,19.8957153 17.8957153,19 19,19 C20.1042847,19 21,19.8957153 21,21 C21,22.1042847 20.1042847,23 19,23 C17.8957153,23 17,22.1042847 17,21 Z"/>
</svg>
