<svg width="24" height="24" viewBox="0 0 24 24" xmlns="http://www.w3.org/2000/svg">
<path d="M 2,17 c -0.55228,0 -1,0.4477 -1,1 v 4 c 0,0.5523 0.44772,1 1,1 h 5 c 0.55228,0 1,-0.4477 1,-1 V 18 C 8,17.4477 7.55228,17 7,17 Z m 4,2 v 2 H 3 v -2 z M 1,2 C 1,1.44772 1.44772,1 2,1 H 7 C 7.55228,1 8,1.44772 8,2 V 6 C 8,6.55228 7.55228,7 7,7 H 2 C 1.44772,7 1,6.55228 1,6 Z M 6,5 V 3 H 3 v 2 z M 9,2 C 9,1.44772 9.44772,1 10,1 h 12 c 0.5523,0 1,0.44772 1,1 v 4 c 0,0.55228 -0.4477,1 -1,1 H 10 C 9.44772,7 9,6.55228 9,6 Z M 21,5 V 3 H 11 v 2 z M 2,9 C 1.44772,9 1,9.44772 1,10 v 4 c 0,0.5523 0.44772,1 1,1 h 5 c 0.55228,0 1,-0.4477 1,-1 V 10 C 8,9.44772 7.55228,9 7,9 Z m 4,2 v 2 H 3 v -2 z M 9,10 C 9,9.44772 9.44772,9 10,9 h 12 c 0.5523,0 1,0.44772 1,1 v 4 c 0,0.5523 -0.4477,1 -1,1 H 10 C 9.44772,15 9,14.5523 9,14 Z m 12,3 V 11 H 11 v 2 Z M 9,18 c 0,-0.5523 0.44772,-1 1,-1 h 12 c 0.5523,0 1,0.4477 1,1 v 4 c 0,0.5523 -0.4477,1 -1,1 H 10 C 9.44772,23 9,22.5523 9,22 Z m 12,3 V 19 H 11 v 2 Z" />
</svg>