<svg xmlns="http://www.w3.org/2000/svg" width="24" height="24" viewBox="0 0 24 24">
  <path d="M22,12 C22,6.47714622 17.5223159,2 12,2 C6.47523326,2 2,6.47577095 2,12 C2,17.524229 6.47523326,22 12,22 C17.5223159,22 22,17.5228538 22,12 Z M24,12 C24,18.6274771 18.6268316,24 12,24 C5.37060996,24 0,18.6287448 0,12 C0,5.37125524 5.37060996,0 12,0 C18.6268316,0 24,5.37252293 24,12 Z M15.1775698,13.5677642 C15.5837523,13.9419757 15.6096699,14.57461 15.2354584,14.9807925 C14.861247,15.386975 14.2286127,15.4128926 13.8224302,15.0386811 L11.3224302,12.7354584 C11.1169179,12.5461222 11,12.2794342 11,12 L11,4.92651367 C11,4.37422892 11.4477153,3.92651367 12,3.92651367 C12.5522847,3.92651367 13,4.37422892 13,4.92651367 L13,11.5615929 L15.1775698,13.5677642 Z"/>
</svg>
