<svg xmlns="http://www.w3.org/2000/svg" width="24" height="24" viewBox="0 0 24 24">
  <path d="M6.06081316,11.8584024 L6.2241059,13 L5,13 C3.34314575,13 2,14.3431458 2,16 C2,17.6568542 3.34314575,19 5,19 L19,19 C20.6568542,19 22,17.6568542 22,16 C22,14.3431458 20.6568542,13 19,13 L17.7758941,13 L17.9391868,11.8584024 C17.9795767,11.5760327 18,11.2894563 18,11 C18,7.6862915 15.3137085,5 12,5 C8.6862915,5 6,7.6862915 6,11 C6,11.2894563 6.02042334,11.5760327 6.06081316,11.8584024 Z M4,11 C4,6.581722 7.581722,3 12,3 C16.418278,3 20,6.581722 20,11 C20,11.0333215 19.9997957,11.0666199 19.9993876,11.0998938 C22.281933,11.5629275 24,13.5808257 24,16 C24,18.7614237 21.7614237,21 19,21 L5,21 C2.23857625,21 2.77555756e-16,18.7614237 0,16 C-2.43155636e-16,13.5808257 1.718067,11.5629275 4.00061244,11.0998938 C4.00020426,11.0666199 4,11.0333215 4,11 Z"/>
</svg>
