<svg xmlns="http://www.w3.org/2000/svg" width="24" height="24" viewBox="0 0 24 24">
  <path d="M18.732,11.9498 C18.7338,11.8814 18.75,11.8166 18.75,11.75 C18.75,8.0195 15.7287,5 12,5 C8.2704,5 5.25,8.0195 5.25,11.75 C5.25,11.8166 5.2653,11.8814 5.2671,11.9498 C3.9504,12.4115 3,13.6508 3,15.125 C3,16.9871 4.5102,18.5 6.375,18.5 L17.625,18.5 C19.488,18.5 21,16.988 21,15.125 C21,13.649 20.0478,12.4115 18.732,11.9498 M17.625,16.25 L6.375,16.25 C5.7531,16.25 5.25,15.7451 5.25,15.125 C5.25,14.5013 5.7531,14 6.375,14 L7.5,14 L7.5,11.75 C7.5,9.2651 9.5133,7.25 12,7.25 C14.4858,7.25 16.5,9.2651 16.5,11.75 L16.5,14 L17.625,14 C18.246,14 18.75,14.5013 18.75,15.125 C18.75,15.7451 18.246,16.25 17.625,16.25"/>
</svg>
