<svg xmlns="http://www.w3.org/2000/svg" width="24" height="24" viewBox="0 0 24 24">
  <path d="M21,17 L21,3 L3,3 L3,17 L8.08695652,17 C8.63924127,17 9.08695652,17.4477153 9.08695652,18 L9.08695652,19.3260249 L10.8106119,17.3438213 C11.000536,17.1254085 11.2757777,17 11.5652174,17 L21,17 Z M7.08695652,19 L2,19 C1.44771525,19 1,18.5522847 1,18 L1,2 C1,1.44771525 1.44771525,1 2,1 L22,1 C22.5522847,1 23,1.44771525 23,2 L23,18 C23,18.5522847 22.5522847,19 22,19 L12.0208479,19 L8.84156204,22.6561787 C8.23467026,23.3541043 7.08695652,22.9248879 7.08695652,22 L7.08695652,19 Z"/>
</svg>
