<svg width="24" height="24" viewBox="0 0 24 24" xmlns="http://www.w3.org/2000/svg">
<path d="m 23,6 c 0,2.76142 -2.2386,5 -5,5 -1.5971,0 -3.0194,-0.7488 -3.9347,-1.91457 L 10.8301,10.703 C 10.9409,11.1166 11,11.5514 11,12 c 0,0.4486 -0.0591,0.8834 -0.1699,1.297 l 3.2351,1.6176 C 14.9806,13.7488 16.4029,13 18,13 c 2.7614,0 5,2.2386 5,5 0,2.7614 -2.2386,5 -5,5 -2.7614,0 -5,-2.2386 -5,-5 0,-0.4486 0.0591,-0.8834 0.1699,-1.297 L 9.93477,15.0854 C 9.01939,16.2511 7.59715,17 6,17 3.23858,17 1,14.7614 1,12 1,9.23858 3.23858,7 6,7 7.59715,7 9.0194,7.74885 9.93478,8.9146 L 13.1699,7.29705 C 13.0591,6.8834 13,6.4486 13,6 c 0,-2.76142 2.2386,-5 5,-5 2.7614,0 5,2.23858 5,5 z M 18,3 c -1.6569,0 -3,1.34315 -3,3 0,1.65685 1.3431,3 3,3 1.6569,0 3,-1.34315 3,-3 C 21,4.34315 19.6569,3 18,3 Z M 6,9 c -1.65685,0 -3,1.3431 -3,3 0,1.6569 1.34315,3 3,3 1.65685,0 3,-1.3431 3,-3 C 9,10.3431 7.65685,9 6,9 Z m 12,12 c 1.6569,0 3,-1.3431 3,-3 0,-1.6569 -1.3431,-3 -3,-3 -1.6569,0 -3,1.3431 -3,3 0,1.6569 1.3431,3 3,3 z"/>
</svg>