<svg width="24" height="24" viewBox="0 0 24 24" xmlns="http://www.w3.org/2000/svg">
  <path fill-rule="evenodd" d="M11.103 14.316 20.981 4.481 18.298 18.77 11.103 14.316ZM8.5 15.118 1.553 11.644C.799 11.267.821 10.184 1.59 9.838L22.079.619C22.194.554 22.316.516 22.439.502 22.753.458 23.038.572 23.242.769 23.388.903 23.496 1.08 23.539 1.285 23.579 1.454 23.576 1.633 23.518 1.807L19.994 20.572C19.865 21.263 19.082 21.608 18.485 21.238L13.242 17.993 10.343 22.538C9.806 23.381 8.5 23 8.5 22V15.118ZM11.542 16.94 10.5 16.295V18.573L11.542 16.94ZM17.962 4.664 9.304 13.284 4.331 10.797 17.962 4.664Z"/>
</svg>
