<svg xmlns="http://www.w3.org/2000/svg" width="24" height="24" viewBox="0 0 24 24">
  <path d="M2,19.9173054 C1.44771525,19.9173054 1,19.4695902 1,18.9173054 L1,6 C1,5.44771525 1.44771525,5 2,5 L18,5 C18.5522847,5 19,5.44771525 19,6 L19,18.6457006 C19,19.1979853 18.5522847,19.6457006 18,19.6457006 L10.3448991,19.6457006 L7.55362437,22.6773411 C6.93661048,23.347488 5.81795524,22.9109353 5.81795524,22 L5.81795524,19.9173054 L2,19.9173054 Z M3,17.9173054 L6.81795524,17.9173054 C7.37023999,17.9173054 7.81795524,18.3650207 7.81795524,18.9173054 L7.81795524,19.4375257 L9.17063756,17.9683595 C9.35998315,17.7627087 9.62676423,17.6457006 9.90630669,17.6457006 L17,17.6457006 L17,7 L3,7 L3,17.9173054 Z M20.895985,3 L5.89598505,3 C5.3437003,3 4.89598505,2.55228475 4.89598505,2 C4.89598505,1.44771525 5.3437003,1 5.89598505,1 L21.895985,1 C22.4482698,1 22.895985,1.44771525 22.895985,2 L22.895985,11 C22.895985,11.5522847 22.4482698,12 21.895985,12 C21.3437003,12 20.895985,11.5522847 20.895985,11 L20.895985,3 Z"/>
</svg>
