<svg width="24" height="24" viewBox="0 0 24 24" xmlns="http://www.w3.org/2000/svg">
<path d="M 5,5 V 2 C 5,1.44772 5.44772,1 6,1 h 16 c 0.5523,0 1,0.44772 1,1 v 12 c 0,0.5523 -0.4477,1 -1,1 h -3 v 3.8124 c 0,0.5523 -0.4477,1 -1,1 H 10.8181 L 7.6182,23.0309 C 6.98907,23.6636 5.90906,23.2181 5.90906,22.3258 V 19.8124 H 2 c -0.55228,0 -1,-0.4477 -1,-1 V 6 C 1,5.44772 1.44772,5 2,5 Z m 13,0 c 0.5523,0 1,0.44772 1,1 v 7 h 2 V 3 H 7 V 5 Z M 5.99901,7 H 3 v 10.8124 h 4.90906 v 2.0893 L 9.98633,17.8124 H 17 V 8 C 17,7.44772 16.5523,7 16,7 H 5.99901 c -3.3e-4,0 3.3e-4,0 0,0 z"/>
</svg>