<svg xmlns="http://www.w3.org/2000/svg" width="24" height="24" viewBox="0 0 24 24">
  <path d="M16.3333333,6.55555556 L4.11111111,6.55555556 C3.49688889,6.55555556 3,7.05244444 3,7.66666667 L3,15.4444444 C3,16.0586667 3.49688889,16.5555556 4.11111111,16.5555556 L6.33333333,16.5555556 L6.33333333,19.8888889 C6.33333333,20.3377778 6.60355556,20.744 7.01866667,20.9146667 C7.15733333,20.9724444 7.30133333,21 7.44444444,21 C7.73333333,21 8.01777778,20.8871111 8.23022222,20.6746667 L12.3493333,16.5555556 L16.3333333,16.5555556 C16.9475556,16.5555556 17.4444444,16.0586667 17.4444444,15.4444444 L17.4444444,7.66666667 C17.4444444,7.05244444 16.9475556,6.55555556 16.3333333,6.55555556 L16.3333333,6.55555556 Z M15.2222222,14.3333333 L11.8888889,14.3333333 C11.6044444,14.3333333 11.32,14.4417778 11.1031111,14.6586667 L8.55555556,17.2062222 L8.55555556,15.4444444 C8.55555556,14.8302222 8.05866667,14.3333333 7.44444444,14.3333333 L5.22222222,14.3333333 L5.22222222,8.77777778 L15.2222222,8.77777778 L15.2222222,14.3333333 Z M19,3 C19.6142222,3 20.1111111,3.49688889 20.1111111,4.11111111 L20.1111111,11.8888889 C20.1111111,12.5031111 19.6142222,13 19,13 L17.8888889,13 L17.8888889,6.33333333 C17.8888889,5.71911111 17.392,5.22222222 16.7777778,5.22222222 L5.66666667,5.22222222 L5.66666667,4.11111111 C5.66666667,3.49688889 6.16355556,3 6.77777778,3 L19,3 Z"/>
</svg>
