<svg xmlns="http://www.w3.org/2000/svg" width="24" height="24" viewBox="0 0 24 24">
  <path d="M18.2460752,5.67651367 L16.5303284,4.10108361 L16.5118229,5.67651367 L18.2460752,5.67651367 Z M20.9595036,6.3790221 C20.9858217,6.47299657 21,6.57291539 21,6.67651367 L21,22 C21,22.5522847 20.5970563,23 20.1,23 L3.9,23 C3.40294373,23 3,22.5522847 3,22 L3,2 C3,1.44771525 3.40294373,1 3.9,1 L15.6487636,1 C15.6508194,0.999983157 15.6528755,0.9999741 15.6549316,0.999972831 C15.8753424,1 16.0770606,1.08797374 16.2334071,1.23388837 L20.6733209,5.31069837 C20.9633992,5.57705354 21.0647714,6.00304061 20.9595036,6.3790221 Z M19.2,7.67651367 L15.6,7.67651367 C15.0983506,7.67651367 14.69353,7.22080417 14.7000766,6.66346336 L14.7431087,3 L4.8,3 L4.8,21 L19.2,21 L19.2,7.67651367 Z M7.92307692,10 C7.41327562,10 7,9.55228475 7,9 C7,8.44771525 7.41327562,8 7.92307692,8 L12.0769231,8 C12.5867244,8 13,8.44771525 13,9 C13,9.55228475 12.5867244,10 12.0769231,10 L7.92307692,10 Z M7.81818182,15 C7.36631248,15 7,14.5522847 7,14 C7,13.4477153 7.36631248,13 7.81818182,13 L15.1818182,13 C15.6336875,13 16,13.4477153 16,14 C16,14.5522847 15.6336875,15 15.1818182,15 L7.81818182,15 Z M7.81818182,19 C7.36631248,19 7,18.5522847 7,18 C7,17.4477153 7.36631248,17 7.81818182,17 L15.1818182,17 C15.6336875,17 16,17.4477153 16,18 C16,18.5522847 15.6336875,19 15.1818182,19 L7.81818182,19 Z"/>
</svg>
