<svg width="24" height="24" viewBox="0 0 24 24" xmlns="http://www.w3.org/2000/svg">
<path d="M8 8C7.44772 8 7 8.44772 7 9C7 9.55228 7.44772 10 8 10H12C12.5523 10 13 9.55228 13 9C13 8.44772 12.5523 8 12 8H8Z M7 13C7 12.4477 7.44772 12 8 12H15C15.5523 12 16 12.4477 16 13C16 13.5523 15.5523 14 15 14H8C7.44772 14 7 13.5523 7 13Z M8 16C7.44772 16 7 16.4477 7 17C7 17.5523 7.44772 18 8 18H15C15.5523 18 16 17.5523 16 17C16 16.4477 15.5523 16 15 16H8Z M 20,23 H 4 C 3.44772,23 3,22.5523 3,22 V 2 C 3,1.44772 3.44772,1 4,1 h 11.5858 c 0.2652,0 0.5196,0.10536 0.7071,0.29289 l 4.4142,4.41422 C 20.8946,5.89464 21,6.14901 21,6.41421 V 22 c 0,0.5523 -0.4477,1 -1,1 z M 19,21 V 8 H 15 C 14.4477,8 14,7.55228 14,7 V 3 H 5 V 21 Z M 16,6 h 2.1716 L 16,3.82843 Z"/>
</svg>