<svg xmlns="http://www.w3.org/2000/svg" width="24" height="24" viewBox="0 0 24 24">
  <path d="M19.4188,7.8285 C19.624,8.0319 19.75,8.3136 19.75,8.625 L19.75,19.875 C19.75,20.4969 19.2469,21 18.625,21 L5.125,21 C4.5031,21 4,20.4969 4,19.875 L4,4.125 C4,3.5031 4.5031,3 5.125,3 L14.125,3 C14.4364,3 14.7181,3.126 14.9206,3.3303 L19.4188,7.8285 Z M15.25,6.8403 L15.25,7.5 L15.9088,7.5 L15.25,6.8403 Z M9.625,14.7 L14.125,14.7 C14.7469,14.7 15.25,15.2031 15.25,15.825 C15.25,16.4469 14.7469,16.95 14.125,16.95 L9.625,16.95 C9.0031,16.95 8.5,16.4469 8.5,15.825 C8.5,15.2031 9.0031,14.7 9.625,14.7 Z M9.625,12.45 C9.0031,12.45 8.5,11.9469 8.5,11.325 C8.5,10.7031 9.0031,10.2 9.625,10.2 L10.75,10.2 C11.3719,10.2 11.875,10.7031 11.875,11.325 C11.875,11.9469 11.3719,12.45 10.75,12.45 L9.625,12.45 Z M17.5,18.75 L17.5,9.75 L14.125,9.75 C13.5031,9.75 13,9.2469 13,8.625 L13,5.25 L6.25,5.25 L6.25,18.75 L17.5,18.75 Z"/>
</svg>
