<svg xmlns="http://www.w3.org/2000/svg" width="24" height="24" viewBox="0 0 24 24">
  <path d="M5,3 L5,21 L19,21 L19,3 L5,3 Z M4,1 L20,1 C20.5522847,1 21,1.44771525 21,2 L21,22 C21,22.5522847 20.5522847,23 20,23 L4,23 C3.44771525,23 3,22.5522847 3,22 L3,2 C3,1.44771525 3.44771525,1 4,1 Z M8,10 C7.44771525,10 7,9.55228475 7,9 C7,8.44771525 7.44771525,8 8,8 L12.5,8 C13.0522847,8 13.5,8.44771525 13.5,9 C13.5,9.55228475 13.0522847,10 12.5,10 L8,10 Z M8,15 C7.44771525,15 7,14.5522847 7,14 C7,13.4477153 7.44771525,13 8,13 L16.1,13 C16.6522847,13 17.1,13.4477153 17.1,14 C17.1,14.5522847 16.6522847,15 16.1,15 L8,15 Z M8,19 C7.44771525,19 7,18.5522847 7,18 C7,17.4477153 7.44771525,17 8,17 L16.1,17 C16.6522847,17 17.1,17.4477153 17.1,18 C17.1,18.5522847 16.6522847,19 16.1,19 L8,19 Z"/>
</svg>
