<svg width="24" height="24" viewBox="0 0 24 24" xmlns="http://www.w3.org/2000/svg">
<path d="M 19,3 V 21 H 5 V 3 Z M 4,1 C 3.44772,1 3,1.44772 3,2 v 20 c 0,0.5523 0.44772,1 1,1 h 16 c 0.5523,0 1,-0.4477 1,-1 V 2 C 21,1.44772 20.5523,1 20,1 Z M7 8C7 7.44772 7.44772 7 8 7H12C12.5523 7 13 7.44772 13 8C13 8.55228 12.5523 9 12 9H8C7.44772 9 7 8.55228 7 8Z M7 12C7 11.4477 7.44772 11 8 11H15C15.5523 11 16 11.4477 16 12C16 12.5523 15.5523 13 15 13H8C7.44772 13 7 12.5523 7 12Z M7 16C7 15.4477 7.44772 15 8 15H15C15.5523 15 16 15.4477 16 16C16 16.5523 15.5523 17 15 17H8C7.44772 17 7 16.5523 7 16Z"/>
</svg>