<svg width="24" height="24" viewBox="0 0 24 24" xmlns="http://www.w3.org/2000/svg">
<path d="M 2,19 H 8 C 8.55228,19 9,18.5523 9,18 9,17.4477 8.55228,17 8,17 H 7 V 9 h 14 v 1.5 c 0,0.5523 0.4477,1 1,1 0.5523,0 1,-0.4477 1,-1 V 8 C 23,7.44772 22.5523,7 22,7 H 20 V 4 C 20,3.44772 19.5523,3 19,3 H 9 L 8.27639,1.55279 C 8.107,1.214 7.76074,1 7.38197,1 H 2 C 1.44772,1 1,1.44772 1,2 v 16 c 0,0.5523 0.44772,1 1,1 z M 5,17 H 3 V 3 H 6.76393 L 7.21115,3.89443 C 7.54993,4.572 8.24246,5 9,5 h 9 V 7 H 7 C 5.89543,7 5,7.89543 5,9 Z M19.4999 16.5C19.4999 18.1569 18.1567 19.5 16.4999 19.5C14.843 19.5 13.4999 18.1569 13.4999 16.5C13.4999 14.8432 14.843 13.5 16.4999 13.5C18.1567 13.5 19.4999 14.8432 19.4999 16.5ZM16.4999 15.5C15.9476 15.5 15.4999 15.9477 15.4999 16.5C15.4999 17.0523 15.9476 17.5 16.4999 17.5C17.0522 17.5 17.4999 17.0523 17.4999 16.5C17.4999 15.9477 17.0522 15.5 16.4999 15.5Z M 22.8661,14.549 21.3692,11.951 C 21.0936,11.4727 20.4833,11.3088 20.006,11.5849 19.0592,12.1327 18.9949,11.9839 18.9949,11 c 0,-0.5523 -0.4468,-1 -0.998,-1 H 15.003 c -0.5511,0 -0.9979,0.4477 -0.9979,1 0,0.9839 -0.0643,1.1326 -1.0111,0.5849 -0.4773,-0.2762 -1.0876,-0.1123 -1.3632,0.366 l -1.4969,2.5981 c -0.27561,0.4783 -0.1121,1.0899 0.3652,1.366 0.9474,0.5481 0.8512,0.6776 10e-5,1.1699 -0.4773,0.2762 -0.64088,0.8878 -0.3653,1.3661 l 1.4969,2.598 c 0.2756,0.4783 0.8859,0.6422 1.3633,0.3661 0.8503,-0.492 1.0109,-0.5105 1.0109,0.5849 0,0.5523 0.4468,1 0.998,1 h 2.9939 c 0.5511,0 0.9979,-0.4477 0.9979,-1 0,-0.9838 0.0644,-1.1326 1.0111,-0.5849 0.4773,0.2762 1.0876,0.1123 1.3632,-0.366 L 22.866,18.451 c 0.2756,-0.4783 0.1121,-1.0899 -0.3652,-1.366 -0.8511,-0.4924 -0.9472,-0.6219 10e-5,-1.1699 0.4773,-0.2762 0.6408,-0.8878 0.3652,-1.3661 z M 17.0612,12 c 0.0595,0.323 0.2528,1.0385 0.957,1.5189 0.8993,0.6135 1.8239,0.3234 2.0788,0.236 l 0.0028,-9e-4 0.5726,0.9938 -0.0068,0.0059 c -0.2027,0.1771 -0.9138,0.8317 -0.8338,1.9146 0.063,0.8519 0.587,1.378 0.8366,1.5908 l -0.5687,0.987 -0.0027,-9e-4 C 19.8422,19.1578 18.9175,18.8676 18.0183,19.481 17.3139,19.9615 17.1206,20.677 17.0612,21 h -1.1305 l -0.0014,-0.0075 c -0.0516,-0.263 -0.2618,-1.2078 -1.2404,-1.6809 -0.7656,-0.3701 -1.4801,-0.1831 -1.7927,-0.0725 l -0.5646,-0.98 c 0.2496,-0.2128 0.7735,-0.7388 0.8365,-1.5906 0.0802,-1.083 -0.6309,-1.7376 -0.8336,-1.9148 l -0.0069,-0.006 0.5726,-0.9938 0.0026,9e-4 c 0.2549,0.0874 1.1795,0.3777 2.0789,-0.2358 0.7043,-0.4805 0.8976,-1.196 0.957,-1.519 z"/>
</svg>