<svg xmlns="http://www.w3.org/2000/svg" width="24" height="24" viewBox="0 0 24 24">
  <path d="M19.875,5 L4.125,5 C3.5031,5 3,5.5031 3,6.125 L3,17.375 C3,17.9969 3.5031,18.5 4.125,18.5 L19.875,18.5 C20.4969,18.5 21,17.9969 21,17.375 L21,6.125 C21,5.5031 20.4969,5 19.875,5 L19.875,5 Z M18.75,7.25 L18.75,7.3247 L12,12.5753 L5.25,7.3247 L5.25,7.25 L18.75,7.25 Z M5.25,16.25 L5.25,10.1741 L11.3088,14.8874 C11.5122,15.0458 11.7561,15.125 12,15.125 C12.2439,15.125 12.4878,15.0458 12.6912,14.8874 L18.75,10.1741 L18.75,16.25 L5.25,16.25 Z"/>
</svg>
