<svg xmlns="http://www.w3.org/2000/svg" width="24" height="24" viewBox="0 0 24 24">
  <path d="M21.5,7.68062485 L12.624695,14.7808688 C12.2594764,15.0730437 11.7405236,15.0730437 11.375305,14.7808688 L2.5,7.68062485 L2.5,18 C2.5,18.2757153 2.72428475,18.5 3,18.5 L21,18.5 C21.2757153,18.5 21.5,18.2757153 21.5,18 L21.5,7.68062485 Z M19.7742189,6.5 L4.22578106,6.5 L12,12.7193752 L19.7742189,6.5 Z M23.5,18 C23.5,19.3802847 22.3802847,20.5 21,20.5 L3,20.5 C1.61971525,20.5 0.5,19.3802847 0.5,18 L0.5,7 C0.5,5.61895744 1.61947285,4.5 3,4.5 L21,4.5 C22.3805272,4.5 23.5,5.61895744 23.5,7 L23.5,18 Z"/>
</svg>
