<svg xmlns="http://www.w3.org/2000/svg" width="24" height="24" viewBox="0 0 24 24">
  <path d="M7.5,12 C9.5943,12 11.3385,10.5627 11.8407,8.625 L19.875,8.625 C20.4969,8.625 21,8.1219 21,7.5 C21,6.8781 20.4969,6.375 19.875,6.375 L11.8407,6.375 C11.3385,4.4364 9.5943,3 7.5,3 C5.0151,3 3,5.0151 3,7.5 C3,9.9849 5.0151,12 7.5,12 M7.5,5.25 C8.7429,5.25 9.75,6.2571 9.75,7.5 C9.75,8.742 8.7429,9.75 7.5,9.75 C6.2571,9.75 5.25,8.742 5.25,7.5 C5.25,6.2571 6.2571,5.25 7.5,5.25 Z M16.5,12 C18.9849,12 21,14.0151 21,16.5 C21,18.9849 18.9849,21 16.5,21 C14.4057,21 12.6615,19.5627 12.1593,17.625 L4.125,17.625 C3.5031,17.625 3,17.1219 3,16.5 C3,15.8781 3.5031,15.375 4.125,15.375 L12.1593,15.375 C12.6615,13.4364 14.4057,12 16.5,12 Z M16.5,18.75 C17.7429,18.75 18.75,17.742 18.75,16.5 C18.75,15.2571 17.7429,14.25 16.5,14.25 C15.2571,14.25 14.25,15.2571 14.25,16.5 C14.25,17.742 15.2571,18.75 16.5,18.75 Z"/>
</svg>
