<svg width="24" height="24" viewBox="0 0 24 24" xmlns="http://www.w3.org/2000/svg">
<path d="M10.9 7C10.4367 4.71776 8.41896 3 6 3C3.23858 3 1 5.23858 1 8C1 10.7614 3.23858 13 6 13C8.41896 13 10.4367 11.2822 10.9 9H22C22.5523 9 23 8.55229 23 8C23 7.44772 22.5523 7 22 7H10.9ZM9 8C9 9.65685 7.65685 11 6 11C4.34315 11 3 9.65685 3 8C3 6.34315 4.34315 5 6 5C7.65685 5 9 6.34315 9 8Z M 18,21 c -2.419,0 -4.4367,-1.7178 -4.9,-4 H 2 C 1.44772,17 1,16.5523 1,16 1,15.4477 1.44772,15 2,15 h 11.1 c 0.4633,-2.2822 2.481,-4 4.9,-4 2.7614,0 5,2.2386 5,5 0,2.7614 -2.2386,5 -5,5 z m 0,-8 c -1.6569,0 -3,1.3431 -3,3 0,1.6569 1.3431,3 3,3 1.6569,0 3,-1.3431 3,-3 0,-1.6569 -1.3431,-3 -3,-3 z"/>
</svg>