<svg xmlns="http://www.w3.org/2000/svg" width="24" height="24" viewBox="0 0 24 24">
  <path d="M14.1115082,17.5 L2,17.5 C1.44771525,17.5 1,17.0522847 1,16.5 C1,15.9477153 1.44771525,15.5 2,15.5 L14.1115082,15.5 C14.5662374,13.4960113 16.3584126,12 18.5,12 C20.9852814,12 23,14.0147186 23,16.5 C23,18.9852814 20.9852814,21 18.5,21 C16.3584126,21 14.5662374,19.5039887 14.1115082,17.5 Z M9.88849179,7.5 L22,7.5 C22.5522847,7.5 23,7.94771525 23,8.5 C23,9.05228475 22.5522847,9.5 22,9.5 L9.88849179,9.5 C9.43376262,11.5039887 7.64158739,13 5.5,13 C3.01471863,13 1,10.9852814 1,8.5 C1,6.01471863 3.01471863,4 5.5,4 C7.64158739,4 9.43376262,5.4960113 9.88849179,7.5 Z M5.5,11 C6.88071187,11 8,9.88071187 8,8.5 C8,7.11928813 6.88071187,6 5.5,6 C4.11928813,6 3,7.11928813 3,8.5 C3,9.88071187 4.11928813,11 5.5,11 Z M18.5,19 C19.8807119,19 21,17.8807119 21,16.5 C21,15.1192881 19.8807119,14 18.5,14 C17.1192881,14 16,15.1192881 16,16.5 C16,17.8807119 17.1192881,19 18.5,19 Z"/>
</svg>
