<svg xmlns="http://www.w3.org/2000/svg" width="24" height="24" viewBox="0 0 24 24">
  <path d="M10.2970812,3.10526316 L22,3.10526316 C22.5522847,3.10526316 23,3.55297841 23,4.10526316 L23,22 C23,22.5522847 22.5522847,23 22,23 L2,23 C1.44771525,23 1,22.5522847 1,22 L1,2 C1,1.44771525 1.44771525,1 2,1 L8.08695652,1 C8.38523821,1 8.6679482,1.13315478 8.85791827,1.36311855 L10.2970812,3.10526316 Z M21,5.10526316 L9.82608696,5.10526316 C9.52780527,5.10526316 9.24509528,4.97210838 9.0551252,4.7421446 L7.61596227,3 L3,3 L3,21 L21,21 L21,5.10526316 Z"/>
</svg>
