<svg xmlns="http://www.w3.org/2000/svg" width="24" height="24" viewBox="0 0 24 24">
  <path d="M20.6590991,11.2044 L18.4441991,8.9895 C18.4252991,8.9688 18.4063991,8.9499 18.3847991,8.9301 L12.7840991,3.3294 C12.5644991,3.1098 12.2764991,3 11.9884991,3 C11.7013991,3 11.4133991,3.1098 11.1937991,3.3294 L3.3187991,11.2044 C2.8795991,11.6445 2.9011991,12.3339 3.3403991,12.7731 C3.7813991,13.215 4.4248991,13.2798 4.8658991,12.8388 L5.2492991,12.4545 L5.2492991,19.875 C5.2492991,20.4969 5.7532991,21 6.3742991,21 L17.6242991,21 C18.2461991,21 18.7492991,20.4969 18.7492991,19.875 L18.7492991,12.477 L19.0858991,12.8127 C19.5250991,13.2519 20.1964991,13.2123 20.6374991,12.7731 C21.0766991,12.3339 21.1000991,11.6436 20.6590991,11.2044 L20.6590991,11.2044 Z M16.4992991,18.75 L13.1242991,18.75 L13.1242991,15.375 L10.8742991,15.375 L10.8742991,18.75 L7.4992991,18.75 L7.4992991,10.2045 L11.9884991,5.7162 L16.4992991,10.227 L16.4992991,18.75 Z" transform="matrix(-1 0 0 1 23.979 0)"/>
</svg>
