<svg xmlns="http://www.w3.org/2000/svg" width="24" height="24" viewBox="0 0 24 24">
  <path d="M15,22.9526367 L15,23 L9,23 L9,22.9526367 L4,22.9526367 C3.44771525,22.9526367 3,22.5049215 3,21.9526367 L3,11.1098855 L2.654094,11.4090012 C2.23633849,11.7702473 1.60483287,11.7244374 1.24358673,11.3066819 C0.882340587,10.8889264 0.928150483,10.2574208 1.345906,9.89617462 L11.3520095,1.24358673 C11.7262157,0.919999013 12.2807891,0.918664199 12.6565487,1.24044681 L22.7605526,9.8930347 C23.1800423,10.2522657 23.2288916,10.8835434 22.8696606,11.3030331 C22.5104297,11.7225227 21.8791519,11.771372 21.4596622,11.4121411 L21,11.0185082 L21,21.9526367 C21,22.5049215 20.5522847,22.9526367 20,22.9526367 L15,22.9526367 Z M9,20.9526367 L9,14 L15,14 L15,20.9526367 L19,20.9526367 L19,9.30580345 L12.0092789,3.31928276 L5,9.38042352 L5,20.9526367 L9,20.9526367 Z M11,20.9526367 L13,20.9526367 L13,16 L11,16 L11,20.9526367 Z"/>
</svg>
