<svg xmlns="http://www.w3.org/2000/svg" width="24" height="24" viewBox="0 0 24 24">
  <path d="M2.04937524,11 L7.02887305,11 C7.21324031,7.83041291 8.28055769,4.88241698 10.2308252,2.15601222 C5.87285979,2.93399983 2.49268544,6.53502013 2.04937524,11 Z M0.041073777,11 C0.549224678,4.84046948 5.70933623,0 12,0 C18.2906638,0 23.4507753,4.84046948 23.9589262,11 L24,11 L24,13 L23.9589262,13 C23.4507753,19.1595305 18.2906638,24 12,24 C5.70933623,24 0.549224678,19.1595305 0.041073777,13 L-8.52651283e-14,13 L-8.52651283e-14,11 L0.041073777,11 Z M2.04937524,13 C2.49268544,17.4649799 5.87285979,21.0660002 10.2308252,21.8439878 C8.28055769,19.117583 7.21324031,16.1695871 7.02887305,13 L2.04937524,13 Z M13.7691748,21.8439878 C18.1271402,21.0660002 21.5073146,17.4649799 21.9506248,13 L16.9711269,13 C16.7867597,16.1695871 15.7194423,19.117583 13.7691748,21.8439878 Z M21.9506248,11 C21.5073146,6.53502013 18.1271402,2.93399983 13.7691748,2.15601222 C15.7194423,4.88241698 16.7867597,7.83041291 16.9711269,11 L21.9506248,11 Z M9.03275129,11 L14.9672487,11 C14.7811374,8.1842945 13.8008069,5.56949024 12,3.12281947 C10.1991931,5.56949024 9.21886258,8.1842945 9.03275129,11 Z M14.9672487,13 L9.03275129,13 C9.21886258,15.8157055 10.1991931,18.4305098 12,20.8771805 C13.8008069,18.4305098 14.7811374,15.8157055 14.9672487,13 Z"/>
</svg>
