<svg xmlns="http://www.w3.org/2000/svg" width="24" height="24" viewBox="0 0 24 24">
  <path d="M12.5155859,20.6953315 C13.3862529,19.3576505 14.2568493,17.9587288 15.0682607,16.5691408 C15.5042417,15.8224987 15.9116319,15.0977757 16.2851199,14.4014459 C17.8098984,11.5586535 18.6818182,9.33983792 18.6818182,8.17391304 C18.6818182,4.7744731 15.7812327,2 12.1818182,2 C8.58176862,2 5.68181818,4.77412113 5.68181818,8.17391304 C5.68181818,9.33983792 6.55373793,11.5586535 8.07851643,14.4014459 C8.45200444,15.0977757 8.85939462,15.8224987 9.29537562,16.5691408 C10.106787,17.9587288 10.9773835,19.3576505 11.8480504,20.6953315 C11.9625267,20.8712112 12.0739125,21.0412612 12.1818182,21.2050185 C12.2897238,21.0412612 12.4011097,20.8712112 12.5155859,20.6953315 Z M20.6818182,8.17391304 C20.6818182,9.78817261 19.7302749,12.20961 18.0476012,15.3467817 C17.6621264,16.0654597 17.2430144,16.811035 16.7953756,17.5776418 C15.966162,18.9977169 15.078946,20.423344 14.1918004,21.7863424 C13.881299,22.2633927 13.5928441,22.6987528 13.3337304,23.0838094 C13.1776251,23.3157899 13.0655199,23.480127 13.0047198,23.5681839 C12.6071818,24.1439387 11.7564545,24.1439387 11.3589166,23.5681839 C11.2981164,23.480127 11.1860112,23.3157899 11.029906,23.0838094 C10.7707923,22.6987528 10.4823374,22.2633927 10.1718359,21.7863424 C9.28469039,20.423344 8.39747431,18.9977169 7.56826074,17.5776418 C7.12062192,16.811035 6.70150998,16.0654597 6.31603518,15.3467817 C4.63336146,12.20961 3.68181818,9.78817261 3.68181818,8.17391304 C3.68181818,3.64921811 7.49655848,0 12.1818182,0 C16.8664037,0 20.6818182,3.6495269 20.6818182,8.17391304 Z M13,7 C13,6.44828475 12.5517153,6 12,6 C11.4478998,6 11,6.44800296 11,7 C11,7.55238192 11.4476181,8 12,8 C12.551997,8 13,7.55210017 13,7 Z M15,7 C15,8.65677276 13.6564635,10 12,10 C10.3430486,10 9,8.65695142 9,7 C9,5.34353653 10.3432272,4 12,4 C13.6562847,4 15,5.34371525 15,7 Z"/>
</svg>
