<svg xmlns="http://www.w3.org/2000/svg" width="24" height="24" viewBox="0 0 24 24">
  <path d="M6,8 L6,6.31818182 C6,3.39715614 8.66350682,1 12,1 C15.3364932,1 18,3.39715614 18,6.31818182 L18,8 L20.0526316,8 C20.5758487,8 21,8.41973305 21,8.9375 L21,22.0625 C21,22.580267 20.5758487,23 20.0526316,23 L3.94736842,23 C3.42415129,23 3,22.580267 3,22.0625 L3,8.9375 C3,8.41973305 3.42415129,8 3.94736842,8 L6,8 Z M8,8 L16,8 L16,6.21428571 C16,4.4243875 14.1871432,3 12,3 C9.81285682,3 8,4.4243875 8,6.21428571 L8,8 Z M7,10 L5,10 L5,21 L19,21 L19,10 L17,10 L7,10 Z M11,14 C11,13.4477153 11.4477153,13 12,13 C12.5522847,13 13,13.4477153 13,14 L13,17 C13,17.5522847 12.5522847,18 12,18 C11.4477153,18 11,17.5522847 11,17 L11,14 Z"/>
</svg>
