<svg width="24" height="24" viewBox="0 0 24 24" xmlns="http://www.w3.org/2000/svg">
<path d="M12 13C11.4477 13 11 13.4477 11 14V17C11 17.5523 11.4477 18 12 18C12.5523 18 13 17.5523 13 17V14C13 13.4477 12.5523 13 12 13Z M 6,7 V 8 H 4 C 3.44772,8 3,8.44771 3,9 v 13 c 0,0.5523 0.44772,1 1,1 h 16 c 0.5523,0 1,-0.4477 1,-1 V 9 C 21,8.44772 20.5523,8 20,8 H 18 V 7 C 18,3.68629 15.3137,1 12,1 8.68629,1 6,3.68629 6,7 Z M 16,7 V 8 H 8 V 7 c 0,-2.20914 1.79086,-4 4,-4 2.2091,0 4,1.79086 4,4 z M 5,10 H 19 V 21 H 5 Z"/>
</svg>