<svg width="16" height="14" viewBox="0 0 26 24" xmlns="http://www.w3.org/2000/svg">
    <path d="M20.0993 5.94055C16.1785 2.01982 9.8215 2.01982 5.90076 5.94055C1.98002 9.86129 1.98002 16.2183 5.90076 20.1391C6.25918 20.4975 6.84546 20.4975 7.20389 20.1391C7.56231 19.7806 7.56231 19.1944 7.20389 18.8359C6.43889 18.0709 6.43889 16.8328 7.20389 16.0679C7.96889 15.3029 9.20697 15.3029 9.97197 16.0679L14.0432 20.1391C15.7171 21.813 18.4254 21.813 20.0993 20.1391C24.02 16.2183 24.02 9.86129 20.0993 5.94055ZM4.48655 4.52634C9.18833 -0.175447 16.8117 -0.175447 21.5135 4.52634C26.2153 9.22813 26.2153 16.8515 21.5135 21.5533C19.0585 24.0082 15.0839 24.0082 12.629 21.5533L9.05463 17.9789C9.73184 19.1019 9.58633 20.585 8.6181 21.5533C7.47863 22.6927 5.62602 22.6927 4.48655 21.5533C-0.215242 16.8515 -0.215242 9.22813 4.48655 4.52634ZM17.376 7.97009C17.2143 7.80557 16.94 7.7968 16.7606 7.97616L16.7546 7.9822L16.7546 7.98218C16.5867 8.14723 16.5867 8.42648 16.7546 8.59154L16.7667 8.60362C16.9317 8.77152 17.211 8.77152 17.376 8.60362L17.3881 8.59154C17.556 8.42648 17.556 8.14723 17.3881 7.98218L17.376 7.97009ZM18.7963 6.56194C17.8447 5.60057 16.3014 5.61026 15.3494 6.55894C14.3894 7.506 14.3884 9.06343 15.3464 10.0118C16.2938 10.9688 17.8489 10.9688 18.7963 10.0118C19.7533 9.06443 19.7533 7.5093 18.7963 6.56194ZM19.7612 13.0398C19.7612 13.0618 19.7434 13.0796 19.7214 13.0796C19.6994 13.0796 19.6816 13.0618 19.6816 13.0398C19.6816 13.0178 19.6994 13 19.7214 13C19.7434 13 19.7612 13.0178 19.7612 13.0398ZM19.7214 11.0796C18.6388 11.0796 17.7612 11.9572 17.7612 13.0398C17.7612 14.1224 18.6388 15 19.7214 15C20.804 15 21.6816 14.1224 21.6816 13.0398C21.6816 11.9572 20.804 11.0796 19.7214 11.0796ZM17.7276 17.1364C17.3692 16.778 16.7829 16.778 16.4245 17.1364C16.0661 17.4948 16.0661 18.0811 16.4245 18.4395C16.7829 18.798 17.3692 18.798 17.7276 18.4395C18.0861 18.0811 18.0861 17.4948 17.7276 17.1364ZM15.0103 15.7222C16.1498 14.5827 18.0024 14.5827 19.1419 15.7222C20.2813 16.8617 20.2813 18.7143 19.1419 19.8537C18.0024 20.9932 16.1498 20.9932 15.0103 19.8537C13.8708 18.7143 13.8708 16.8617 15.0103 15.7222ZM10.9899 6.95836C11.1692 6.779 11.4435 6.78777 11.6052 6.95229L11.6052 6.95231L11.6113 6.95836C11.7906 7.13772 11.7819 7.412 11.6173 7.57374L11.6173 7.57371L11.6113 7.57975C11.4319 7.75911 11.1576 7.75035 10.9959 7.58582L10.9838 7.57374C10.8193 7.412 10.8105 7.13772 10.9899 6.95836ZM9.57566 5.54414C10.5283 4.59148 12.0762 4.58173 13.0285 5.54718C13.9782 6.50009 13.9869 8.04564 13.0225 8.99697C12.0706 9.94565 10.5272 9.95534 9.57564 8.99398C8.61327 8.04139 8.62399 6.49581 9.57566 5.54414Z" />
</svg>