<svg width="24" height="24" viewBox="0 0 24 24" xmlns="http://www.w3.org/2000/svg">
<path d="m 10.0001,9.50012 c 1.3807,0 2.5,-1.11929 2.5,-2.5 0,-1.38071 -1.1193,-2.5 -2.5,-2.5 -1.38069,0 -2.49998,1.11929 -2.49998,2.5 0,1.38071 1.11929,2.5 2.49998,2.5 z m -0.49998,-2.5 c 0,-0.27614 0.22386,-0.5 0.49998,-0.5 0.2762,0 0.5,0.22386 0.5,0.5 0,0.27614 -0.2238,0.5 -0.5,0.5 -0.27612,0 -0.49998,-0.22386 -0.49998,-0.5 z M 16.0001,10.8 c 1.3807,0 2.5,-1.11924 2.5,-2.49995 0,-1.38071 -1.1193,-2.5 -2.5,-2.5 -1.3807,0 -2.5,1.11929 -2.5,2.5 0,1.38071 1.1193,2.49995 2.5,2.49995 z m -0.5,-2.49995 c 0,-0.27614 0.2239,-0.5 0.5,-0.5 0.2762,0 0.5,0.22386 0.5,0.5 0,0.27614 -0.2238,0.5 -0.5,0.5 -0.2761,0 -0.5,-0.22386 -0.5,-0.5 z M 19,18 c 0,1.6569 -1.3431,3 -3,3 -1.6569,0 -3,-1.3431 -3,-3 0,-1.6569 1.3431,-3 3,-3 1.6569,0 3,1.3431 3,3 z m -3,-1 c -0.5523,0 -1,0.4477 -1,1 0,0.5523 0.4477,1 1,1 0.5523,0 1,-0.4477 1,-1 0,-0.5523 -0.4477,-1 -1,-1 z M19 15C20.1046 15 21 14.1046 21 13C21 11.8954 20.1046 11 19 11C17.8954 11 17 11.8954 17 13C17 14.1046 17.8954 15 19 15Z M2.25209 20C2.62854 20.5233 3.04608 21.0151 3.5 21.4705C5.35579 23.3263 7.4029 22.5148 8.22107 21.034C8.72553 20.1209 8.76281 18.9535 8 18C8.4507 18.4507 8.90439 18.8984 9.4028 19.3902C9.74641 19.7293 10.1117 20.0897 10.5115 20.4862C10.8183 20.7905 11.1458 21.1163 11.5 21.4705C14.5295 24.5 18.2748 23.3862 19.6548 22.2418C22.3093 20.0407 24 16.7178 24 13C24 6.37258 18.6274 1 12 1C5.37258 1 0 6.37258 0 13C0 15.6124 0.834762 18.0298 2.25209 20ZM9.41421 16.5858C8.66355 15.8351 7.45718 15.8017 6.66616 16.5097C5.87513 17.2177 5.77509 18.4204 6.43826 19.2494C6.57439 19.4195 6.60452 19.5776 6.58141 19.7445C6.55391 19.943 6.44253 20.1662 6.26287 20.3333C6.09087 20.4933 5.91879 20.5477 5.77942 20.5457C5.66326 20.544 5.35951 20.5011 4.91542 20.0575C4.53713 19.6778 4.18923 19.268 3.87565 18.8321C2.69493 17.1907 2 15.1795 2 13C2 7.47715 6.47715 3 12 3C17.5228 3 22 7.47715 22 13C22 16.0975 20.5941 18.8648 18.3782 20.7023C18.049 20.9753 17.2024 21.3916 16.1384 21.4222C15.157 21.4504 14.0096 21.1517 12.9142 20.0563C12.1668 19.3089 11.538 18.6875 10.9729 18.1298L10.8076 17.9667C10.3086 17.4742 9.85974 17.0313 9.41421 16.5858Z"/>
</svg>