<svg width="24" height="24" viewBox="0 0 24 24" xmlns="http://www.w3.org/2000/svg">
<path d="m 13.5001,1.49989 c 0,-0.552289 0.4488,-1.005183 0.9984,-0.950046 0.9707,0.0974 1.9238,0.336523 2.8285,0.711246 1.2132,0.50255 2.3156,1.23914 3.2442,2.16773 0.9286,0.92858 1.6652,2.03098 2.1677,3.24423 0.3747,0.90466 0.6139,1.85775 0.7113,2.82849 0.0551,0.54956 -0.3978,0.99836 -0.9501,0.99836 h -8 c -0.5523,0 -1,-0.4477 -1,-1.00001 z m 7.746,7 C 21.1529,8.13901 21.0344,7.78429 20.8912,7.43842 20.4891,6.46781 19.8998,5.5859 19.157,4.84303 18.4141,4.10016 17.5322,3.51089 16.5616,3.10885 16.2157,2.96559 15.861,2.8471 15.5001,2.75392 v 5.74597 z  M20.0001 12.4999H11.5001V3.99989C11.5001 3.4476 11.0512 2.99444 10.5019 3.05246C8.97592 3.21369 7.50635 3.74289 6.22221 4.60092C4.65994 5.6448 3.4423 7.12849 2.72327 8.86439C2.00424 10.6003 1.81611 12.5104 2.18267 14.3532C2.54923 16.1961 3.45401 17.8888 4.78261 19.2174C6.11121 20.546 7.80395 21.4508 9.64677 21.8173C11.4896 22.1839 13.3997 21.9958 15.1356 21.2767C16.8715 20.5577 18.3552 19.3401 19.3991 17.7778C20.2571 16.4937 20.7863 15.0241 20.9475 13.4981C21.0056 12.9488 20.5524 12.4999 20.0001 12.4999ZM9.50013 14.4999H18.7285C18.5165 15.2663 18.1827 15.9983 17.7361 16.6667C16.912 17.9 15.7407 18.8613 14.3703 19.429C12.9998 19.9966 11.4918 20.1452 10.0369 19.8558C8.58209 19.5664 7.24572 18.8521 6.19683 17.8032C5.14793 16.7543 4.43363 15.4179 4.14424 13.9631C3.85485 12.5082 4.00337 11.0002 4.57103 9.62976C5.13869 8.25931 6.09998 7.08797 7.33335 6.26386C8.0017 5.81729 8.73369 5.48353 9.50013 5.27147V14.4999Z"/>
</svg>