<svg xmlns="http://www.w3.org/2000/svg" width="24" height="24" viewBox="0 0 24 24">
  <path d="M12,12 L21,12 C21.5522847,12 22,12.4477153 22,13 C22,19.0752847 17.0752847,24 11,24 C4.92538534,24 0,19.0749549 0,13 C0,6.92571525 4.92571525,2 11,2 C11.5522847,2 12,2.44771525 12,3 L12,12 Z M2,13 C2,17.9703544 6.02992391,22 11,22 C15.6327051,22 19.4476615,18.5000689 19.9450762,14 L11,14 C10.4477153,14 10,13.5522847 10,13 L10,4.05495634 C5.50070779,4.5525654 2,8.36828775 2,13 Z M14,11 C13.4477153,11 13,10.5522847 13,10 L13,2 C13,1.44771525 13.4477153,1 14,1 C16.604716,1 18.9963688,1.98464895 20.6444348,3.76471572 C22.1426106,5.3828869 23,7.65937167 23,10 C23,10.5522847 22.5522847,11 22,11 L14,11 Z M15,9 L20.9341381,9 C20.7387604,7.52046244 20.1167947,6.13869226 19.1768543,5.12346788 C18.1255231,3.98793103 16.6571857,3.26772966 15,3.06137607 L15,9 Z"/>
</svg>
