<svg xmlns="http://www.w3.org/2000/svg" width="24" height="24" viewBox="0 0 24 24">
  <path d="M3,7.25 L3,15 L21,15 L21,7.25 L3,7.25 Z M3,5.25 L21,5.25 L21,3 L3,3 L3,5.25 Z M14.4142136,17 L18.7071068,21.2928932 C19.0976311,21.6834175 19.0976311,22.3165825 18.7071068,22.7071068 C18.3165825,23.0976311 17.6834175,23.0976311 17.2928932,22.7071068 L13.25,18.6642136 L13.25,22 C13.25,22.5522847 12.8022847,23 12.25,23 C11.6977153,23 11.25,22.5522847 11.25,22 L11.25,18.1642136 L6.70710678,22.7071068 C6.31658249,23.0976311 5.68341751,23.0976311 5.29289322,22.7071068 C4.90236893,22.3165825 4.90236893,21.6834175 5.29289322,21.2928932 L9.58578644,17 L2,17 C1.44771525,17 1,16.5522847 1,16 L1,2 C1,1.44771525 1.44771525,1 2,1 L22,1 C22.5522847,1 23,1.44771525 23,2 L23,16 C23,16.5522847 22.5522847,17 22,17 L14.4142136,17 Z"/>
</svg>
