<svg width="24" height="24" viewBox="0 0 24 24" xmlns="http://www.w3.org/2000/svg">
<path d="M 18,7.5 C 18,11.0899 15.3137,14 12,14 8.68629,14 6,11.0899 6,7.5 6,3.91015 8.68629,1 12,1 c 3.3137,0 6,2.91015 6,6.5 z M 12,3 C 9.93858,3 8,4.86098 8,7.5 8,10.139 9.93858,12 12,12 14.0614,12 16,10.139 16,7.5 16,4.86098 14.0614,3 12,3 Z M2.83749 22.5467L2.8317 22.5552C2.52524 23.0143 1.90465 23.1383 1.44528 22.8321C0.985755 22.5257 0.861582 21.9048 1.16793 21.4453L1.99992 22C1.16793 21.4453 1.16887 21.4439 1.16887 21.4439L1.17018 21.4419L1.17391 21.4364L1.18579 21.4189C1.19568 21.4044 1.20948 21.3844 1.22714 21.3592C1.26245 21.3087 1.31324 21.2374 1.379 21.1483C1.51047 20.9702 1.70225 20.7202 1.95051 20.4223C2.44593 19.8278 3.17224 19.0353 4.09919 18.2407C5.93733 16.6652 8.66208 15 12 15C15.3379 15 18.0626 16.6652 19.9008 18.2407C20.8277 19.0353 21.554 19.8278 22.0495 20.4223C22.2977 20.7202 22.4895 20.9702 22.621 21.1483C22.6867 21.2374 22.7375 21.3087 22.7728 21.3592C22.7905 21.3844 22.8043 21.4044 22.8142 21.4189L22.8261 21.4364L22.8298 21.4419L22.832 21.4453L22 22C22.832 21.4453 22.832 21.4453 22.832 21.4453C23.1384 21.9048 23.0142 22.5257 22.5547 22.8321C22.0955 23.1382 21.4752 23.0144 21.1686 22.5558L21.1679 22.5547L21.1625 22.5467C21.1569 22.5384 21.1475 22.5248 21.1344 22.5061C21.1082 22.4686 21.0671 22.411 21.0118 22.336C20.9011 22.186 20.7335 21.9673 20.513 21.7027C20.0709 21.1722 19.4222 20.4647 18.5992 19.7593C16.9373 18.3348 14.6621 17 12 17C9.33789 17 7.06263 18.3348 5.40078 19.7593C4.57773 20.4647 3.92903 21.1722 3.48696 21.7027C3.26647 21.9673 3.09888 22.186 2.98815 22.336C2.93283 22.411 2.89181 22.4686 2.8656 22.5061C2.8525 22.5248 2.84311 22.5384 2.83749 22.5467Z"/>
</svg>