<svg xmlns="http://www.w3.org/2000/svg" width="24" height="24" viewBox="0 0 24 24">
  <path d="M12,14 C8.66390125,14 6,11.0697086 6,7.5 C6,3.93029138 8.66390125,1 12,1 C15.3360987,1 18,3.93029138 18,7.5 C18,11.0697086 15.3360987,14 12,14 Z M12,12 C14.1867487,12 16,10.0054236 16,7.5 C16,4.99457638 14.1867487,3 12,3 C9.81325125,3 8,4.99457638 8,7.5 C8,10.0054236 9.81325125,12 12,12 Z M2.45149933,22.6626662 C2.13244151,23.1134661 1.50834851,23.2202642 1.05754861,22.9012064 C0.606748712,22.5821485 0.499950658,21.9580555 0.819008481,21.5072556 C3.90518485,17.1467671 7.65108363,14.9179688 12,14.9179688 C16.3564684,14.9179688 20.0355137,17.1550465 22.9722241,21.5273973 C23.2801579,21.9858678 23.1581239,22.6071613 22.6996535,22.9150951 C22.241183,23.223029 21.6198895,23.100995 21.3119556,22.6425246 C18.7258796,18.7922191 15.6435316,16.9179688 12,16.9179688 C8.34891637,16.9179688 5.18498442,18.8004986 2.45149933,22.6626662 Z"/>
</svg>
