<svg xmlns="http://www.w3.org/2000/svg" width="24" height="24" viewBox="0 0 24 24">
  <path d="M20.5910155,19.2728889 C20.93146,19.784 20.7927933,20.4728889 20.2825711,20.8133333 C20.0941266,20.9395556 19.8790155,21 19.6683489,21 C19.3083489,21 18.9572377,20.8266667 18.7421266,20.5057778 C18.6656822,20.3973333 16.7261266,17.6666667 11.8887933,17.6666667 C6.98390442,17.6666667 5.05501553,20.4773333 5.03545997,20.5057778 C4.69501553,21.0151111 4.00434886,21.1528889 3.49501553,20.8133333 C2.9847933,20.4728889 2.84612664,19.784 3.18657108,19.2728889 C3.29057108,19.1164444 5.80790442,15.4444444 11.8887933,15.4444444 C17.9696822,15.4444444 20.4870155,19.1164444 20.5910155,19.2728889 Z M11.8888889,14.1111111 C9.43466667,14.1111111 7.44444444,12.1217778 7.44444444,9.66666667 L7.44444444,7.44444444 C7.44444444,4.98844444 9.43466667,3 11.8888889,3 C14.3431111,3 16.3333333,4.98844444 16.3333333,7.44444444 L16.3333333,9.66666667 C16.3333333,12.1217778 14.3431111,14.1111111 11.8888889,14.1111111 Z M9.66666667,7.44444444 L9.66666667,9.66666667 C9.66666667,10.8933333 10.6631111,11.8888889 11.8888889,11.8888889 C13.1173333,11.8888889 14.1111111,10.8933333 14.1111111,9.66666667 L14.1111111,7.44444444 C14.1111111,6.21688889 13.1173333,5.22222222 11.8888889,5.22222222 C10.6631111,5.22222222 9.66666667,6.21688889 9.66666667,7.44444444 Z"/>
</svg>
