<svg xmlns="http://www.w3.org/2000/svg" width="24" height="24" viewBox="0 0 24 24">
  <path d="M19.875,3 L8.625,3 C8.0031,3 7.5,3.5031 7.5,4.125 L7.5,9.75 L4.125,9.75 C3.5031,9.75 3,10.2531 3,10.875 L3,17.625 C3,19.4889 4.5102,21 6.375,21 L17.625,21 C19.488,21 21,19.488 21,17.625 L21,4.125 C21,3.5031 20.4969,3 19.875,3 L19.875,3 Z M7.5,17.625 C7.5,18.2469 6.9969,18.75 6.375,18.75 C5.7531,18.75 5.25,18.2469 5.25,17.625 L5.25,12 L7.5,12 L7.5,17.625 Z M18.75,17.625 C18.75,18.2469 18.2469,18.75 17.625,18.75 L9.75,18.75 L9.75,5.25 L18.75,5.25 L18.75,17.625 Z M13.125,9.75 L15.375,9.75 C15.9969,9.75 16.5,9.2469 16.5,8.625 C16.5,8.0031 15.9969,7.5 15.375,7.5 L13.125,7.5 C12.5031,7.5 12,8.0031 12,8.625 C12,9.2469 12.5031,9.75 13.125,9.75 Z M13.125,14.25 L15.375,14.25 C15.9969,14.25 16.5,13.7469 16.5,13.125 C16.5,12.5031 15.9969,12 15.375,12 L13.125,12 C12.5031,12 12,12.5031 12,13.125 C12,13.7469 12.5031,14.25 13.125,14.25 Z"/>
</svg>
