<svg width="24" height="24" viewBox="0 0 24 24" xmlns="http://www.w3.org/2000/svg">
<path d="M14.3333 12.5455C14.3333 12.2442 14.6318 12 15 12C15.3682 12 15.6667 12.2442 15.6667 12.5455V12.6309C16.4354 12.8345 17 13.381 17 14.0454C17 14.3467 16.7015 14.5909 16.3333 14.5909C15.9651 14.5909 15.6667 14.3467 15.6667 14.0454C15.6667 13.8378 15.3879 13.6376 15.0036 13.6364L15 13.6364L14.9964 13.6364C14.6121 13.6376 14.3333 13.8378 14.3333 14.0454C14.3333 14.2537 14.6139 14.4545 15 14.4545C16.0859 14.4545 17 15.109 17 15.9545C17 16.619 16.4354 17.1655 15.6667 17.3691V17.4546C15.6667 17.7558 15.3682 18 15 18C14.6318 18 14.3333 17.7558 14.3333 17.4546V17.3691C13.5646 17.1655 13 16.619 13 15.9545C13 15.6533 13.2985 15.4091 13.6667 15.4091C14.0349 15.4091 14.3333 15.6533 14.3333 15.9545C14.3333 16.1628 14.6139 16.3636 15 16.3636C15.3861 16.3636 15.6667 16.1628 15.6667 15.9545C15.6667 15.7463 15.3861 15.5454 15 15.5454C13.9141 15.5454 13 14.891 13 14.0454C13 13.381 13.5646 12.8345 14.3333 12.6309V12.5455Z M8 7C7.44772 7 7 7.44772 7 8C7 8.55228 7.44772 9 8 9H16C16.5523 9 17 8.55228 17 8C17 7.44772 16.5523 7 16 7H8Z M7 12C7 11.4477 7.44772 11 8 11H11C11.5523 11 12 11.4477 12 12C12 12.5523 11.5523 13 11 13H8C7.44772 13 7 12.5523 7 12Z M8 15C7.44772 15 7 15.4477 7 16C7 16.5523 7.44772 17 8 17H10C10.5523 17 11 16.5523 11 16C11 15.4477 10.5523 15 10 15H8Z M19.2763 1.3089C19.8777 0.666581 21 1.07953 21 1.99999V22C21 22.9205 19.8777 23.3334 19.2763 22.6911C19.2498 22.6628 19.2243 22.6324 19.2 22.6L18 21L16.8321 22.7519L16.8235 22.7646C16.4352 23.329 15.61 23.3412 15.2029 22.8012C15.1909 22.7852 15.1792 22.7688 15.1679 22.7519L14 21L12.8321 22.7519C12.8208 22.7688 12.8091 22.7852 12.7971 22.8012C12.399 23.3292 11.6011 23.3292 11.2029 22.8012C11.1909 22.7852 11.1792 22.7688 11.1679 22.7519L10 21L8.83205 22.7519C8.82078 22.7688 8.80912 22.7852 8.7971 22.8012C8.38996 23.3411 7.5648 23.329 7.17654 22.7646L7.16795 22.7519L6 21L4.8 22.6C4.77567 22.6324 4.75019 22.6628 4.72369 22.6911C4.12232 23.3334 3 22.9205 3 22V1.99999C3 1.07953 4.12232 0.666581 4.72369 1.3089C4.75019 1.3372 4.77567 1.36755 4.8 1.39999L6 2.99999L7.16795 1.24806L7.17654 1.23538C7.5648 0.671026 8.38996 0.65883 8.7971 1.19879C8.80912 1.21473 8.82078 1.23116 8.83205 1.24806L10 2.99999L11.1679 1.24806C11.1792 1.23116 11.1909 1.21473 11.2029 1.19879C11.6011 0.670757 12.3989 0.670757 12.7971 1.19879C12.8091 1.21473 12.8208 1.23116 12.8321 1.24806L14 2.99999L15.1679 1.24806C15.1792 1.23116 15.1909 1.21473 15.2029 1.19879C15.61 0.65883 16.4352 0.671026 16.8235 1.23538L16.8321 1.24806L18 2.99999L19.2 1.39999C19.2243 1.36755 19.2498 1.3372 19.2763 1.3089ZM10 4.99999C9.33129 4.99999 8.70683 4.66579 8.3359 4.10939L8 3.60554L7.6641 4.10939C7.30406 4.64946 6.70432 4.98121 6.05549 4.99922C5.68048 5.00963 5.31602 4.91447 5 4.73205V19.2679C5.31602 19.0855 5.68048 18.9904 6.05549 19.0008C6.70432 19.0188 7.30406 19.3505 7.6641 19.8906L8 20.3944L8.3359 19.8906C8.70683 19.3342 9.33129 19 10 19C10.6687 19 11.2932 19.3342 11.6641 19.8906L12 20.3944L12.3359 19.8906C12.7068 19.3342 13.3313 19 14 19C14.6687 19 15.2932 19.3342 15.6641 19.8906L16 20.3944L16.3359 19.8906C16.6959 19.3505 17.2957 19.0188 17.9445 19.0008C18.3195 18.9904 18.684 19.0855 19 19.2679V4.73205C18.684 4.91448 18.3195 5.00963 17.9445 4.99922C17.2957 4.98121 16.6959 4.64946 16.3359 4.10939L16 3.60554L15.6641 4.10939C15.2932 4.66579 14.6687 4.99999 14 4.99999C13.3313 4.99999 12.7068 4.66579 12.3359 4.10939L12 3.60554L11.6641 4.10939C11.2932 4.66579 10.6687 4.99999 10 4.99999Z"/>
</svg>