<svg xmlns="http://www.w3.org/2000/svg" width="24" height="24" viewBox="0 0 24 24">
  <path d="M6,21.5860653 L4.65617871,22.7546055 C4.00895087,23.3174123 3,22.8577036 3,22 L3,2 C3,1.14229644 4.00895087,0.682587659 4.65617871,1.24539448 L6,2.41393473 L7.34382129,1.24539448 C7.72009282,0.918201841 8.27990718,0.918201841 8.65617871,1.24539448 L10,2.41393473 L11.3438213,1.24539448 C11.7200928,0.918201841 12.2799072,0.918201841 12.6561787,1.24539448 L14,2.41393473 L15.3438213,1.24539448 C15.7200928,0.918201841 16.2799072,0.918201841 16.6561787,1.24539448 L18,2.41393473 L19.3438213,1.24539448 C19.9910491,0.682587659 21,1.14229644 21,2 L21,22 C21,22.8577036 19.9910491,23.3174123 19.3438213,22.7546055 L18,21.5860653 L16.6561787,22.7546055 C16.2799072,23.0817982 15.7200928,23.0817982 15.3438213,22.7546055 L14,21.5860653 L12.6561787,22.7546055 C12.2799072,23.0817982 11.7200928,23.0817982 11.3438213,22.7546055 L10,21.5860653 L8.65617871,22.7546055 C8.27990718,23.0817982 7.72009282,23.0817982 7.34382129,22.7546055 L6,21.5860653 Z M5,19.8052391 L5.34382129,19.506264 C5.72009282,19.1790714 6.27990718,19.1790714 6.65617871,19.506264 L8,20.6748043 L9.34382129,19.506264 C9.72009282,19.1790714 10.2799072,19.1790714 10.6561787,19.506264 L12,20.6748043 L13.3438213,19.506264 C13.7200928,19.1790714 14.2799072,19.1790714 14.6561787,19.506264 L16,20.6748043 L17.3438213,19.506264 C17.7200928,19.1790714 18.2799072,19.1790714 18.6561787,19.506264 L19,19.8052391 L19,4.19476093 L18.6561787,4.49373596 C18.2799072,4.82092859 17.7200928,4.82092859 17.3438213,4.49373596 L16,3.32519571 L14.6561787,4.49373596 C14.2799072,4.82092859 13.7200928,4.82092859 13.3438213,4.49373596 L12,3.32519571 L10.6561787,4.49373596 C10.2799072,4.82092859 9.72009282,4.82092859 9.34382129,4.49373596 L8,3.32519571 L6.65617871,4.49373596 C6.27990718,4.82092859 5.72009282,4.82092859 5.34382129,4.49373596 L5,4.19476093 L5,19.8052391 Z M8,9.45 C7.44771525,9.45 7,9.00228475 7,8.45 C7,7.89771525 7.44771525,7.45 8,7.45 L16,7.45 C16.5522847,7.45 17,7.89771525 17,8.45 C17,9.00228475 16.5522847,9.45 16,9.45 L8,9.45 Z M8,13.95 C7.44771525,13.95 7,13.5022847 7,12.95 C7,12.3977153 7.44771525,11.95 8,11.95 L11,11.95 C11.5522847,11.95 12,12.3977153 12,12.95 C12,13.5022847 11.5522847,13.95 11,13.95 L8,13.95 Z M8,17.55 C7.44771525,17.55 7,17.1022847 7,16.55 C7,15.9977153 7.44771525,15.55 8,15.55 L10,15.55 C10.5522847,15.55 11,15.9977153 11,16.55 C11,17.1022847 10.5522847,17.55 10,17.55 L8,17.55 Z M14.3333333,12.6309355 L14.3333333,12.5454545 C14.3333333,12.2442083 14.6318102,12 15,12 C15.3681898,12 15.6666667,12.2442083 15.6666667,12.5454545 L15.6666667,12.6309355 C16.43545,12.8345035 17,13.3809643 17,14.0454545 C17,14.3467008 16.7015232,14.5909091 16.3333333,14.5909091 C15.9651435,14.5909091 15.6666667,14.3467008 15.6666667,14.0454545 C15.6666667,13.8371951 15.3861402,13.6363636 15,13.6363636 C14.6138598,13.6363636 14.3333333,13.8371951 14.3333333,14.0454545 C14.3333333,14.253714 14.6138598,14.4545455 15,14.4545455 C16.0858598,14.4545455 17,15.1089867 17,15.9545455 C17,16.6190357 16.43545,17.1654965 15.6666667,17.3690645 L15.6666667,17.4545455 C15.6666667,17.7557917 15.3681898,18 15,18 C14.6318102,18 14.3333333,17.7557917 14.3333333,17.4545455 L14.3333333,17.3690645 C13.56455,17.1654965 13,16.6190357 13,15.9545455 C13,15.6532992 13.2984768,15.4090909 13.6666667,15.4090909 C14.0348565,15.4090909 14.3333333,15.6532992 14.3333333,15.9545455 C14.3333333,16.1628049 14.6138598,16.3636364 15,16.3636364 C15.3861402,16.3636364 15.6666667,16.1628049 15.6666667,15.9545455 C15.6666667,15.746286 15.3861402,15.5454545 15,15.5454545 C13.9141402,15.5454545 13,14.8910133 13,14.0454545 C13,13.3809643 13.56455,12.8345035 14.3333333,12.6309355 Z"/>
</svg>
