<svg xmlns="http://www.w3.org/2000/svg" width="24" height="24" viewBox="0 0 24 24">
  <path d="M20.6730587,8.05825291 L15.9424221,3.32671634 C15.5059003,2.89109455 14.800265,2.89109455 14.3655433,3.32671634 L3.32739137,14.3648682 C2.89086954,14.79959 2.89086954,15.5070254 3.32739137,15.9417471 L8.0580279,20.6732837 C8.49454973,21.1089054 9.19928496,21.1089054 9.63490675,20.6732837 L20.6730587,9.63333167 C21.1086804,9.19950998 21.1086804,8.49297465 20.6730587,8.05825291 L20.6730587,8.05825291 Z M8.84646732,18.3079654 L5.69180959,15.1524076 L8.05712786,12.7879894 L8.84646732,13.5773289 C9.2820891,14.0120506 9.98682434,14.0120506 10.4233462,13.5773289 C10.8589679,13.140807 10.8589679,12.4351718 10.4233462,11.9986499 L9.6340067,11.2111106 L11.2108855,9.63423171 L12.000225,10.4226711 C12.4358468,10.8582929 13.1414821,10.8582929 13.5771039,10.4226711 C14.0127256,9.98704935 14.0127256,9.28141407 13.5771039,8.84579229 L12.7886644,8.05825291 L15.1530827,5.69293465 L18.3068403,8.84579229 L8.84646732,18.3079654 Z"/>
</svg>
