<svg xmlns="http://www.w3.org/2000/svg" width="24" height="24" viewBox="0 0 24 24">
  <path d="M19.875,7.5 C20.4969,7.5 21,8.0031 21,8.625 L21,19.875 C21,20.4969 20.4969,21 19.875,21 L4.125,21 C3.5031,21 3,20.4969 3,19.875 L3,8.625 C3,8.0031 3.5031,7.5 4.125,7.5 L7.5,7.5 L7.5,4.125 C7.5,3.5031 8.0031,3 8.625,3 L15.375,3 C15.9969,3 16.5,3.5031 16.5,4.125 L16.5,7.5 L19.875,7.5 Z M9.75,7.5 L14.25,7.5 L14.25,5.25 L9.75,5.25 L9.75,7.5 Z M5.25,18.75 L18.75,18.75 L18.75,9.75 L5.25,9.75 L5.25,18.75 Z"/>
</svg>
