<svg xmlns="http://www.w3.org/2000/svg" width="24" height="24" viewBox="0 0 24 24">
  <path d="M5.16,10.92 L10.92,10.92 L10.92,5.16 L5.16,5.16 L5.16,10.92 Z M5.16,13.08 L5.16,18.84 L10.92,18.84 L10.92,13.08 L5.16,13.08 Z M18.84,10.92 L18.84,5.16 L13.08,5.16 L13.08,10.92 L18.84,10.92 Z M18.84,13.08 L13.08,13.08 L13.08,18.84 L18.84,18.84 L18.84,13.08 Z M4.08,21 C3.48353247,21 3,20.5164675 3,19.92 L3,4.08 C3,3.48353247 3.48353247,3 4.08,3 L19.92,3 C20.5164675,3 21,3.48353247 21,4.08 L21,19.92 C21,20.5164675 20.5164675,21 19.92,21 L4.08,21 Z"/>
</svg>
