<svg xmlns="http://www.w3.org/2000/svg" width="24" height="24" viewBox="0 0 24 24">
  <path d="M13,19 L13,21 L17.4545455,21 C17.7557917,21 18,21.4477153 18,22 C18,22.5522847 17.7557917,23 17.4545455,23 L6.54545455,23 C6.24420832,23 6,22.5522847 6,22 C6,21.4477153 6.24420832,21 6.54545455,21 L11,21 L11,19 L2,19 C1.44771525,19 1,18.5522847 1,18 L1,2 C1,1.44771525 1.44771525,1 2,1 L22,1 C22.5522847,1 23,1.44771525 23,2 L23,18 C23,18.5522847 22.5522847,19 22,19 L13,19 Z M3,3 L3,17 L21,17 L21,3 L3,3 Z"/>
</svg>
