<svg width="24" height="24" viewBox="0 0 24 24" xmlns="http://www.w3.org/2000/svg">
<path d="M10 8C10 7.44772 10.4477 7 11 7H18C18.5523 7 19 7.44772 19 8C19 8.55228 18.5523 9 18 9H11C10.4477 9 10 8.55228 10 8Z M6.5 9.50003C7.32843 9.50003 8 8.82846 8 8.00003C8 7.1716 7.32843 6.50003 6.5 6.50003C5.67157 6.50003 5 7.1716 5 8.00003C5 8.82846 5.67157 9.50003 6.5 9.50003Z M 2,2 C 1.44772,2 1,2.44772 1,3 v 18 c 0,0.5523 0.44772,1 1,1 h 20 c 0.5523,0 1,-0.4477 1,-1 V 3 C 23,2.44772 22.5523,2 22,2 Z M 21,4 V 20 H 3 V 4 Z"/>
</svg>