<svg xmlns="http://www.w3.org/2000/svg" width="24" height="24" viewBox="0 0 24 24">
  <path d="M1,2 C1,1.44771525 1.44771525,1 2,1 L22,1 C22.5522847,1 23,1.44771525 23,2 L23,21 C23,21.5522847 22.5522847,22 22,22 L2,22 C1.44771525,22 1,21.5522847 1,21 L1,2 Z M3,3 L3,20 L21,20 L21,3 L3,3 Z M6,8.5 C5.17157288,8.5 4.5,7.82842712 4.5,7 C4.5,6.17157288 5.17157288,5.5 6,5.5 C6.82842712,5.5 7.5,6.17157288 7.5,7 C7.5,7.82842712 6.82842712,8.5 6,8.5 Z M10,8 C9.44771525,8 9,7.55228475 9,7 C9,6.44771525 9.44771525,6 10,6 L18.5125,6 C19.0647847,6 19.5125,6.44771525 19.5125,7 C19.5125,7.55228475 19.0647847,8 18.5125,8 L10,8 Z"/>
</svg>
