<svg width="24" height="24" viewBox="0 0 24 24" xmlns="http://www.w3.org/2000/svg">
<path d="m 22,10 h -5 l -2.2929,2.2929 C 14.0773,12.9227 13.0006,12.4762 13,11.5858 V 10 H 10 C 9.44772,10 9,9.55229 9,9 V 2 C 9,1.44772 9.44772,1 10,1 h 12 c 0.5523,0 1,0.44772 1,1 v 7 c 0,0.55229 -0.4477,1 -1,1 z M 17,8 h 4 V 3 H 11 v 5 h 2 c 0.5304,0 1.0391,0.21071 1.4142,0.58579 0.2041,0.20405 0.3595,0.44766 0.4588,0.71281 L 15.5858,8.58579 C 15.9609,8.21071 16.4696,8 17,8 Z M 3,6 C 3,5.44772 3.44772,5 4,5 H 6 C 6.55228,5 7,4.55228 7,4 7,3.44772 6.55228,3 6,3 H 4 C 2.34315,3 1,4.34315 1,6 v 14 c 0,1.6569 1.34315,3 3,3 h 6 c 1.6569,0 3,-1.3431 3,-3 v -6 c 0,-0.5523 -0.4477,-1 -1,-1 -0.5523,0 -1,0.4477 -1,1 v 2 H 3 V 10 H 7 C 7.55228,10 8,9.55228 8,9 8,8.44772 7.55228,8 7,8 H 3 Z m 8,12 v 2 c 0,0.5523 -0.4477,1 -1,1 H 4 C 3.44772,21 3,20.5523 3,20 v -2 z"/>
</svg>