<svg xmlns="http://www.w3.org/2000/svg" width="24" height="24" viewBox="0 0 24 24">
  <path fill-rule="evenodd" d="M10.8,16.4 L10.8,14 C10.8,13.5581722 11.1581722,13.2 11.6,13.2 C12.0418278,13.2 12.4,13.5581722 12.4,14 L12.4,19.6 C12.4,20.9250278 11.3250278,22 10,22 L4.4,22 C3.0749722,22 2,20.9250278 2,19.6 L2,7.6 C2,6.2749722 3.0749722,5.2 4.4,5.2 L6.8,5.2 C7.2418278,5.2 7.6,5.5581722 7.6,6 C7.6,6.4418278 7.2418278,6.8 6.8,6.8 L4.4,6.8 C3.9586278,6.8 3.6,7.1586278 3.6,7.6 L3.6,9.2 L6.8,9.2 C7.2418278,9.2 7.6,9.5581722 7.6,10 C7.6,10.4418278 7.2418278,10.8 6.8,10.8 L3.6,10.8 L3.6,16.4 L10.8,16.4 Z M10.8,18 L3.6,18 L3.6,19.6 C3.6,20.0413722 3.9586278,20.4 4.4,20.4 L10,20.4 C10.4413722,20.4 10.8,20.0413722 10.8,19.6 L10.8,18 Z M8,19.2 C8,19.6416 7.6416,20 7.2,20 C6.7584,20 6.4,19.6416 6.4,19.2 C6.4,18.7584 6.7584,18.4 7.2,18.4 C7.6416,18.4 8,18.7584 8,19.2 Z M15.0343146,9.43431458 C15.1843437,9.28428547 15.3878268,9.2 15.6,9.2 L20,9.2 C20.2205722,9.2 20.4,9.0205722 20.4,8.8 L20.4,4 C20.4,3.7794278 20.2205722,3.6 20,3.6 L10.4,3.6 C10.1794278,3.6 10,3.7794278 10,4 L10,8.8 C10,9.0205722 10.1794278,9.2 10.4,9.2 L13.2,9.2 C13.6418278,9.2 14,9.5581722 14,10 L14,10.4686292 L15.0343146,9.43431458 Z M12.4,10.8 L10.4,10.8 C9.2957722,10.8 8.4,9.9042278 8.4,8.8 L8.4,4 C8.4,2.8957722 9.2957722,2 10.4,2 L20,2 C21.1042278,2 22,2.8957722 22,4 L22,8.8 C22,9.9042278 21.1042278,10.8 20,10.8 L15.9313708,10.8 L13.7656854,12.9656854 C13.2617135,13.4696573 12.4,13.1127239 12.4,12.4 L12.4,10.8 Z M15.2,5.6 C15.6416,5.6 16,5.96 16,6.4 C16,6.8416 15.6416,7.2 15.2,7.2 C14.7584,7.2 14.4,6.8416 14.4,6.4 C14.4,5.96 14.7584,5.6 15.2,5.6 Z M17.6,5.6 C18.0416,5.6 18.4,5.96 18.4,6.4 C18.4,6.8416 18.0416,7.2 17.6,7.2 C17.1584,7.2 16.8,6.8416 16.8,6.4 C16.8,5.96 17.1584,5.6 17.6,5.6 Z M12.82496,5.6 C13.26656,5.6 13.62496,5.96 13.62496,6.4 C13.62496,6.8416 13.26656,7.2 12.82496,7.2 C12.38336,7.2 12.02496,6.8416 12.02496,6.4 C12.02496,5.96 12.38336,5.6 12.82496,5.6 Z"/>
</svg>
