<svg xmlns="http://www.w3.org/2000/svg" width="24" height="24" viewBox="0 0 24 24">
  <path d="M1.00996774,16.8582606 L1.0305896,9.4130849 C1.01061405,9.33425957 1,9.25170264 1,9.16666667 C1,9.07969317 1.01110324,8.99531297 1.03196958,8.91486621 L1.04166667,5.41389318 C1.04166667,3.98760843 2.19871525,2.83055984 3.625,2.83055984 L6,2.83055984 C6.55228475,2.83055984 7,3.27827509 7,3.83055984 C7,4.38284459 6.55228475,4.83055984 6,4.83055984 L3.625,4.83055984 C3.30328475,4.83055984 3.04166667,5.09217793 3.04166283,5.41666274 L3.0340458,8.16666667 L8,8.16666667 C8.55228475,8.16666667 9,8.61438192 9,9.16666667 C9,9.71895142 8.55228475,10.1666667 8,10.1666667 L3.02850614,10.1666667 L3.01234881,16 L10.7083333,16 C10.8097939,16 10.9077253,16.0151102 11,16.0432031 L11,13.8003861 C11,13.2481013 11.4477153,12.8003861 12,12.8003861 C12.5522847,12.8003861 13,13.2481013 13,13.8003861 L13,20.4885387 C13,21.9148235 11.8429514,23.0718721 10.4122464,23.0718623 L3.58333333,23.0416667 C2.15704858,23.0416667 1,21.8846181 1.00000384,20.4555638 L1.00919789,17.1362023 C1.00313292,17.0916671 1,17.0461994 1,17 C1,16.9518842 1.00339822,16.9045621 1.00996774,16.8582606 Z M11,17.9567969 C10.9077253,17.9848898 10.8097939,18 10.7083333,18 L3.00680916,18 L3,20.4583333 C3,20.7800486 3.26161808,21.0416667 3.58775359,21.0416764 L10.4166667,21.0718721 C10.7383819,21.0718721 11,20.810254 11,20.4885387 L11,17.9567969 Z M4.79166667,7.39583333 C4.23938192,7.39583333 3.79166667,6.94811808 3.79166667,6.39583333 C3.79166667,5.84354858 4.23938192,5.39583333 4.79166667,5.39583333 L6.375,5.39583333 C6.92728475,5.39583333 7.375,5.84354858 7.375,6.39583333 C7.375,6.94811808 6.92728475,7.39583333 6.375,7.39583333 L4.79166667,7.39583333 Z M15.6262266,8.41789322 C15.8137629,8.23035684 16.0681168,8.125 16.3333333,8.125 L20.6875,8.125 C20.7907153,8.125 20.875,8.04071525 20.875,7.9375 L20.875,3.1875 C20.875,3.08428475 20.7907153,3 20.6875,3 L11.1875,3 C11.0842847,3 11,3.08428475 11,3.1875 L11,7.9375 C11,8.04071525 11.0842847,8.125 11.1875,8.125 L13.9583333,8.125 C14.4977308,8.125 14.937382,8.55206466 14.9576064,9.08651342 L15.6262266,8.41789322 Z M11.1875,10.125 C9.97971525,10.125 9,9.14528475 9,7.9375 L9,3.1875 C9,1.97971525 9.97971525,1 11.1875,1 L20.6875,1 C21.8952847,1 22.875,1.97971525 22.875,3.1875 L22.875,7.9375 C22.875,9.14528475 21.8952847,10.125 20.6875,10.125 L16.7475469,10.125 L14.6654401,12.2071068 C14.0354753,12.8370716 12.9583333,12.3909049 12.9583333,11.5 L12.9583333,10.125 L11.1875,10.125 Z M6.75,20.5 C6.33578644,20.5 6,20.1642136 6,19.75 C6,19.3357864 6.33578644,19 6.75,19 C7.16421356,19 7.5,19.3357864 7.5,19.75 C7.5,20.1642136 7.16421356,20.5 6.75,20.5 Z M12.75,6.5 C12.3357864,6.5 12,6.16421356 12,5.75 C12,5.33578644 12.3357864,5 12.75,5 C13.1642136,5 13.5,5.33578644 13.5,5.75 C13.5,6.16421356 13.1642136,6.5 12.75,6.5 Z M15.75,6.46276271 C15.3357864,6.46276271 15,6.12697627 15,5.71276271 C15,5.29854915 15.3357864,4.96276271 15.75,4.96276271 C16.1642136,4.96276271 16.5,5.29854915 16.5,5.71276271 C16.5,6.12697627 16.1642136,6.46276271 15.75,6.46276271 Z M18.75,6.55611938 C18.3357864,6.55611938 18,6.22033294 18,5.80611938 C18,5.39190582 18.3357864,5.05611938 18.75,5.05611938 C19.1642136,5.05611938 19.5,5.39190582 19.5,5.80611938 C19.5,6.22033294 19.1642136,6.55611938 18.75,6.55611938 Z"/>
</svg>
